# Blender v2.80 (sub 75) OBJ File: 'destroyer.blend'
# www.blender.org
v 0.468285 0.176528 3.260116
v -0.483317 -0.130496 3.273899
v 0.469359 0.174051 3.279059
v -0.482243 -0.132973 3.292841
v 0.474206 0.159543 3.290554
v -0.477396 -0.147481 3.304336
v 0.479988 0.141502 3.287867
v -0.471614 -0.165522 3.301650
v 0.483317 0.130496 3.272573
v -0.468285 -0.176528 3.286356
v 0.482243 0.132973 3.253630
v -0.469359 -0.174051 3.267413
v 0.477396 0.147481 3.242135
v -0.474206 -0.159543 3.255918
v 0.471614 0.165522 3.244822
v -0.479988 -0.141502 3.258605
vn -0.3022 0.9429 0.1404
vn -0.1740 0.5752 0.7993
vn 0.0561 -0.1294 0.9900
vn 0.2533 -0.7582 0.6008
vn 0.3022 -0.9429 -0.1404
vn 0.1740 -0.5752 -0.7993
vn -0.9516 -0.3070 0.0138
vn -0.0561 0.1294 -0.9900
vn -0.2533 0.7582 -0.6008
vn 0.9516 0.3070 -0.0138
s off
f 2//1 3//1 1//1
f 4//2 5//2 3//2
f 6//3 7//3 5//3
f 8//4 9//4 7//4
f 10//5 11//5 9//5
f 12//6 13//6 11//6
f 10//7 8//7 6//7
f 14//8 15//8 13//8
f 16//9 1//9 15//9
f 15//10 3//10 7//10
f 2//1 4//1 3//1
f 4//2 6//2 5//2
f 6//3 8//3 7//3
f 8//4 10//4 9//4
f 10//5 12//5 11//5
f 12//6 14//6 13//6
f 6//7 4//7 2//7
f 2//7 16//7 6//7
f 16//7 14//7 6//7
f 14//7 12//7 6//7
f 12//7 10//7 6//7
f 14//8 16//8 15//8
f 16//9 2//9 1//9
f 15//10 1//10 3//10
f 3//10 5//10 7//10
f 7//10 9//10 15//10
f 9//10 11//10 15//10
f 11//10 13//10 15//10
v -0.963529 -0.127059 2.919619
v -1.915131 -0.434083 2.933402
v -0.962456 -0.129536 2.938562
v -1.914057 -0.436559 2.952345
v -0.957608 -0.144044 2.950057
v -1.909210 -0.451068 2.963840
v -0.951826 -0.162084 2.947371
v -1.903428 -0.469108 2.961153
v -0.948497 -0.173090 2.932076
v -1.900099 -0.480114 2.945859
v -0.949571 -0.170613 2.913134
v -1.901173 -0.477637 2.926916
v -0.954418 -0.156105 2.901639
v -1.906020 -0.463129 2.915421
v -0.960200 -0.138064 2.904325
v -1.911802 -0.445088 2.918108
vn -0.3022 0.9429 0.1404
vn -0.1740 0.5752 0.7993
vn 0.0561 -0.1294 0.9900
vn 0.2533 -0.7582 0.6008
vn 0.3022 -0.9429 -0.1404
vn 0.1740 -0.5752 -0.7993
vn -0.9516 -0.3070 0.0138
vn -0.0561 0.1294 -0.9900
vn -0.2533 0.7582 -0.6008
vn 0.9516 0.3070 -0.0138
s off
f 18//11 19//11 17//11
f 20//12 21//12 19//12
f 22//13 23//13 21//13
f 24//14 25//14 23//14
f 26//15 27//15 25//15
f 28//16 29//16 27//16
f 26//17 24//17 22//17
f 30//18 31//18 29//18
f 32//19 17//19 31//19
f 31//20 19//20 23//20
f 18//11 20//11 19//11
f 20//12 22//12 21//12
f 22//13 24//13 23//13
f 24//14 26//14 25//14
f 26//15 28//15 27//15
f 28//16 30//16 29//16
f 22//17 20//17 18//17
f 18//17 32//17 22//17
f 32//17 30//17 22//17
f 30//17 28//17 22//17
f 28//17 26//17 22//17
f 30//18 32//18 31//18
f 32//19 18//19 17//19
f 31//20 17//20 19//20
f 19//20 21//20 23//20
f 23//20 25//20 31//20
f 25//20 27//20 31//20
f 27//20 29//20 31//20
v -3.041545 -1.241159 3.058814
v -3.993147 -1.548182 3.072597
v -3.040472 -1.243636 3.077757
v -3.992074 -1.550659 3.091540
v -3.035625 -1.258144 3.089252
v -3.987226 -1.565168 3.103035
v -3.029843 -1.276185 3.086565
v -3.981445 -1.583208 3.100348
v -3.026514 -1.287190 3.071271
v -3.978116 -1.594214 3.085054
v -3.027587 -1.284713 3.052329
v -3.979189 -1.591737 3.066111
v -3.032434 -1.270205 3.040834
v -3.984036 -1.577229 3.054616
v -3.038216 -1.252164 3.043520
v -3.989818 -1.559188 3.057303
vn -0.3022 0.9429 0.1404
vn -0.1740 0.5752 0.7993
vn 0.0561 -0.1294 0.9900
vn 0.2533 -0.7582 0.6008
vn 0.3022 -0.9429 -0.1404
vn 0.1740 -0.5752 -0.7993
vn -0.9516 -0.3070 0.0138
vn -0.0561 0.1294 -0.9900
vn -0.2533 0.7582 -0.6008
vn 0.9516 0.3070 -0.0138
s off
f 34//21 35//21 33//21
f 36//22 37//22 35//22
f 38//23 39//23 37//23
f 40//24 41//24 39//24
f 42//25 43//25 41//25
f 44//26 45//26 43//26
f 42//27 40//27 38//27
f 46//28 47//28 45//28
f 48//29 33//29 47//29
f 47//30 35//30 39//30
f 34//21 36//21 35//21
f 36//22 38//22 37//22
f 38//23 40//23 39//23
f 40//24 42//24 41//24
f 42//25 44//25 43//25
f 44//26 46//26 45//26
f 38//27 36//27 34//27
f 34//27 48//27 38//27
f 48//27 46//27 38//27
f 46//27 44//27 38//27
f 44//27 42//27 38//27
f 46//28 48//28 47//28
f 48//29 34//29 33//29
f 47//30 33//30 35//30
f 35//30 37//30 39//30
f 39//30 41//30 47//30
f 41//30 43//30 47//30
f 43//30 45//30 47//30
