# Blender v2.80 (sub 75) OBJ File: 'destroyer.blend'
# www.blender.org
v -2.180918 3.063945 0.916872
v -1.941586 2.659927 1.799760
v -2.171483 3.049925 0.907899
v -1.932151 2.645907 1.790786
v -2.176128 3.032602 0.901231
v -1.936796 2.628584 1.784118
v -2.192132 3.022124 0.900774
v -1.952800 2.618106 1.783661
v -2.210120 3.024629 0.906797
v -1.970788 2.620611 1.789684
v -2.219555 3.038649 0.915770
v -1.980223 2.634631 1.798657
v -2.214911 3.055972 0.922438
v -1.975578 2.651954 1.805326
v -2.198907 3.066450 0.922895
v -1.959574 2.662432 1.805782
vn 0.8364 0.5476 0.0239
vn 0.9401 -0.1309 -0.3147
vn 0.4931 -0.7327 -0.4690
vn -0.2427 -0.9053 -0.3485
vn -0.8364 -0.5476 -0.0239
vn -0.9401 0.1309 0.3147
vn 0.2393 -0.4040 0.8829
vn -0.4931 0.7327 0.4690
vn 0.2427 0.9053 0.3485
vn -0.2393 0.4040 -0.8829
vn 0.9401 -0.1309 -0.3148
s off
f 2//1 3//1 1//1
f 4//2 5//2 3//2
f 6//3 7//3 5//3
f 8//4 9//4 7//4
f 10//5 11//5 9//5
f 12//6 13//6 11//6
f 10//7 8//7 6//7
f 14//8 15//8 13//8
f 16//9 1//9 15//9
f 15//10 3//10 7//10
f 2//1 4//1 3//1
f 4//11 6//11 5//11
f 6//3 8//3 7//3
f 8//4 10//4 9//4
f 10//5 12//5 11//5
f 12//6 14//6 13//6
f 6//7 4//7 2//7
f 2//7 16//7 6//7
f 16//7 14//7 6//7
f 14//7 12//7 6//7
f 12//7 10//7 6//7
f 14//8 16//8 15//8
f 16//9 2//9 1//9
f 15//10 1//10 3//10
f 3//10 5//10 7//10
f 7//10 9//10 15//10
f 9//10 11//10 15//10
f 11//10 13//10 15//10
v -2.553112 4.037320 2.735284
v -2.573621 4.098682 3.733189
v -2.541586 4.022092 2.736457
v -2.562094 4.083454 3.734362
v -2.544232 4.003174 2.737566
v -2.564740 4.064537 3.735471
v -2.559500 3.991648 2.737961
v -2.580008 4.053010 3.735866
v -2.578446 3.994265 2.737411
v -2.598954 4.055627 3.735315
v -2.589972 4.009493 2.736237
v -2.610481 4.070855 3.734142
v -2.587327 4.028410 2.735128
v -2.607835 4.089773 3.733033
v -2.572059 4.039937 2.734733
v -2.592567 4.101299 3.732638
vn 0.7979 0.6024 -0.0206
vn 0.9902 -0.1368 0.0288
vn 0.6024 -0.7959 0.0613
vn -0.1383 -0.9887 0.0580
vn -0.7979 -0.6024 0.0206
vn -0.9902 0.1368 -0.0288
vn -0.0205 0.0614 0.9979
vn -0.6024 0.7958 -0.0613
vn 0.1383 0.9887 -0.0580
vn 0.0205 -0.0614 -0.9979
vn 0.6024 -0.7958 0.0613
vn 0.0206 -0.0614 -0.9979
s off
f 18//12 19//12 17//12
f 20//13 21//13 19//13
f 22//14 23//14 21//14
f 24//15 25//15 23//15
f 26//16 27//16 25//16
f 28//17 29//17 27//17
f 26//18 24//18 22//18
f 30//19 31//19 29//19
f 32//20 17//20 31//20
f 31//21 19//21 23//21
f 18//12 20//12 19//12
f 20//13 22//13 21//13
f 22//22 24//22 23//22
f 24//15 26//15 25//15
f 26//16 28//16 27//16
f 28//17 30//17 29//17
f 22//18 20//18 18//18
f 18//18 32//18 22//18
f 32//18 30//18 22//18
f 30//18 28//18 22//18
f 28//18 26//18 22//18
f 30//19 32//19 31//19
f 32//20 18//20 17//20
f 31//21 17//21 19//21
f 19//23 21//23 23//23
f 23//21 25//21 31//21
f 25//21 27//21 31//21
f 27//21 29//21 31//21
v -2.388442 4.400562 0.773147
v -2.503786 4.463400 1.764484
v -2.376567 4.385739 0.775469
v -2.491911 4.448577 1.766805
v -2.378663 4.366745 0.776429
v -2.494007 4.429583 1.767765
v -2.393503 4.354705 0.775465
v -2.508847 4.417542 1.766801
v -2.412394 4.356672 0.773143
v -2.527738 4.419510 1.764479
v -2.424269 4.371495 0.770821
v -2.539613 4.434333 1.762158
v -2.422173 4.390490 0.769861
v -2.537516 4.453327 1.761197
v -2.407333 4.402530 0.770825
v -2.522676 4.465367 1.762161
vn 0.7756 0.6292 0.0504
vn 0.9873 -0.1028 0.1214
vn 0.6206 -0.7747 0.1213
vn -0.1096 -0.9927 0.0502
vn -0.7756 -0.6293 -0.0503
vn -0.9873 0.1028 -0.1214
vn -0.1153 0.0628 0.9913
vn -0.6206 0.7747 -0.1213
vn 0.1096 0.9927 -0.0502
vn 0.1153 -0.0628 -0.9913
vn -0.7756 -0.6292 -0.0504
vn 0.1154 -0.0628 -0.9913
s off
f 34//24 35//24 33//24
f 36//25 37//25 35//25
f 38//26 39//26 37//26
f 40//27 41//27 39//27
f 42//28 43//28 41//28
f 44//29 45//29 43//29
f 42//30 40//30 38//30
f 46//31 47//31 45//31
f 48//32 33//32 47//32
f 47//33 35//33 39//33
f 34//24 36//24 35//24
f 36//25 38//25 37//25
f 38//26 40//26 39//26
f 40//27 42//27 41//27
f 42//34 44//34 43//34
f 44//29 46//29 45//29
f 38//30 36//30 34//30
f 34//30 48//30 38//30
f 48//30 46//30 38//30
f 46//30 44//30 38//30
f 44//30 42//30 38//30
f 46//31 48//31 47//31
f 48//32 34//32 33//32
f 47//33 33//33 35//33
f 35//33 37//33 39//33
f 39//33 41//33 47//33
f 41//33 43//33 47//33
f 43//35 45//35 47//35
v 2.135467 4.394016 0.721688
v 2.288254 3.694707 1.419988
v 2.149524 4.386510 0.711096
v 2.302311 3.687201 1.409396
v 2.150520 4.373118 0.697466
v 2.303307 3.673809 1.395766
v 2.137872 4.361684 0.688783
v 2.290659 3.662375 1.387083
v 2.118989 4.358906 0.690132
v 2.271775 3.659597 1.388433
v 2.104932 4.366411 0.700724
v 2.257719 3.667102 1.399025
v 2.103936 4.379804 0.714354
v 2.256723 3.680495 1.412654
v 2.116584 4.391238 0.723037
v 2.269371 3.691929 1.421338
vn 0.6610 0.5976 0.4538
vn 0.9869 0.1452 -0.0705
vn 0.7346 -0.3923 -0.5536
vn 0.0521 -0.6999 -0.7123
vn -0.6610 -0.5976 -0.4538
vn -0.9869 -0.1452 0.0705
vn 0.1528 -0.6993 0.6983
vn -0.7346 0.3922 0.5536
vn -0.0520 0.6999 0.7123
vn -0.1528 0.6993 -0.6983
vn 0.0520 -0.6999 -0.7123
vn -0.9869 -0.1452 0.0706
vn -0.7346 0.3923 0.5536
s off
f 50//36 51//36 49//36
f 52//37 53//37 51//37
f 54//38 55//38 53//38
f 56//39 57//39 55//39
f 58//40 59//40 57//40
f 60//41 61//41 59//41
f 58//42 56//42 54//42
f 62//43 63//43 61//43
f 64//44 49//44 63//44
f 63//45 51//45 55//45
f 50//36 52//36 51//36
f 52//37 54//37 53//37
f 54//38 56//38 55//38
f 56//46 58//46 57//46
f 58//40 60//40 59//40
f 60//47 62//47 61//47
f 54//42 52//42 50//42
f 50//42 64//42 54//42
f 64//42 62//42 54//42
f 62//42 60//42 54//42
f 60//42 58//42 54//42
f 62//48 64//48 63//48
f 64//44 50//44 49//44
f 63//45 49//45 51//45
f 51//45 53//45 55//45
f 55//45 57//45 63//45
f 57//45 59//45 63//45
f 59//45 61//45 63//45
v 2.107283 4.394016 4.002861
v 2.260070 3.694707 4.701162
v 2.121340 4.386510 3.992270
v 2.274127 3.687201 4.690570
v 2.122336 4.373118 3.978640
v 2.275123 3.673809 4.676940
v 2.109688 4.361684 3.969957
v 2.262475 3.662375 4.668257
v 2.090804 4.358906 3.971306
v 2.243591 3.659597 4.669607
v 2.076748 4.366411 3.981899
v 2.229534 3.667102 4.680199
v 2.075752 4.379804 3.995528
v 2.228539 3.680495 4.693828
v 2.088400 4.391238 4.004211
v 2.241187 3.691929 4.702511
vn 0.6610 0.5976 0.4538
vn 0.9869 0.1452 -0.0705
vn 0.7346 -0.3923 -0.5536
vn 0.0521 -0.6999 -0.7123
vn -0.6611 -0.5975 -0.4538
vn -0.9869 -0.1452 0.0705
vn 0.1528 -0.6993 0.6983
vn -0.7347 0.3922 0.5536
vn -0.0521 0.6999 0.7123
vn -0.1528 0.6993 -0.6983
vn 0.6611 0.5975 0.4538
vn 0.0520 -0.6999 -0.7123
vn -0.6610 -0.5976 -0.4538
vn -0.9869 -0.1452 0.0706
vn 0.1527 -0.6993 0.6983
vn -0.7346 0.3923 0.5536
vn -0.0520 0.6999 0.7123
vn -0.1528 0.6994 -0.6983
s off
f 66//49 67//49 65//49
f 68//50 69//50 67//50
f 70//51 71//51 69//51
f 72//52 73//52 71//52
f 74//53 75//53 73//53
f 76//54 77//54 75//54
f 74//55 72//55 70//55
f 78//56 79//56 77//56
f 80//57 65//57 79//57
f 79//58 67//58 71//58
f 66//59 68//59 67//59
f 68//50 70//50 69//50
f 70//51 72//51 71//51
f 72//60 74//60 73//60
f 74//61 76//61 75//61
f 76//62 78//62 77//62
f 70//63 68//63 66//63
f 66//55 80//55 70//55
f 80//55 78//55 70//55
f 78//55 76//55 70//55
f 76//55 74//55 70//55
f 78//64 80//64 79//64
f 80//65 66//65 65//65
f 79//66 65//66 67//66
f 67//58 69//58 71//58
f 71//58 73//58 79//58
f 73//58 75//58 79//58
f 75//58 77//58 79//58
v 2.830826 3.695194 4.922788
v 2.983613 2.995885 5.621088
v 2.844883 3.687689 4.912196
v 2.997670 2.988380 5.610496
v 2.845879 3.674296 4.898566
v 2.998666 2.974987 5.596866
v 2.833230 3.662862 4.889883
v 2.986017 2.963553 5.588183
v 2.814347 3.660084 4.891232
v 2.967134 2.960775 5.589533
v 2.800291 3.667590 4.901824
v 2.953077 2.968281 5.600125
v 2.799294 3.680982 4.915454
v 2.952081 2.981673 5.613754
v 2.811943 3.692416 4.924138
v 2.964730 2.993108 5.622437
vn 0.6610 0.5976 0.4538
vn 0.9869 0.1452 -0.0705
vn 0.7346 -0.3923 -0.5536
vn 0.0520 -0.6999 -0.7123
vn -0.6610 -0.5976 -0.4538
vn -0.9869 -0.1452 0.0705
vn 0.1528 -0.6993 0.6983
vn -0.7346 0.3923 0.5536
vn -0.0520 0.6999 0.7123
vn -0.1528 0.6993 -0.6983
vn 0.7347 -0.3922 -0.5536
vn 0.0521 -0.6999 -0.7123
vn -0.7346 0.3922 0.5536
vn -0.0521 0.6999 0.7123
vn -0.1527 0.6993 -0.6983
s off
f 82//67 83//67 81//67
f 84//68 85//68 83//68
f 86//69 87//69 85//69
f 88//70 89//70 87//70
f 90//71 91//71 89//71
f 92//72 93//72 91//72
f 90//73 88//73 86//73
f 94//74 95//74 93//74
f 96//75 81//75 95//75
f 95//76 83//76 87//76
f 82//67 84//67 83//67
f 84//68 86//68 85//68
f 86//77 88//77 87//77
f 88//78 90//78 89//78
f 90//71 92//71 91//71
f 92//72 94//72 93//72
f 86//73 84//73 82//73
f 82//73 96//73 86//73
f 96//73 94//73 86//73
f 94//73 92//73 86//73
f 92//73 90//73 86//73
f 94//79 96//79 95//79
f 96//80 82//80 81//80
f 95//76 81//76 83//76
f 83//81 85//81 87//81
f 87//76 89//76 95//76
f 89//76 91//76 95//76
f 91//76 93//76 95//76
v 3.327662 3.695194 4.119198
v 3.480449 2.995885 4.817498
v 3.341719 3.687689 4.108606
v 3.494506 2.988380 4.806906
v 3.342715 3.674296 4.094976
v 3.495502 2.974987 4.793276
v 3.330067 3.662862 4.086293
v 3.482854 2.963553 4.784593
v 3.311184 3.660084 4.087643
v 3.463971 2.960775 4.785943
v 3.297127 3.667590 4.098235
v 3.449914 2.968281 4.796535
v 3.296131 3.680982 4.111865
v 3.448918 2.981673 4.810164
v 3.308779 3.692416 4.120548
v 3.461566 2.993108 4.818848
vn 0.6610 0.5976 0.4538
vn 0.9869 0.1452 -0.0705
vn 0.7346 -0.3923 -0.5536
vn 0.0520 -0.6999 -0.7123
vn -0.6610 -0.5976 -0.4538
vn -0.9869 -0.1452 0.0705
vn 0.1528 -0.6993 0.6983
vn -0.7346 0.3923 0.5536
vn -0.0520 0.6999 0.7123
vn -0.1528 0.6993 -0.6983
vn 0.7346 -0.3923 -0.5535
vn 0.0521 -0.6999 -0.7123
vn -0.7347 0.3923 0.5536
vn -0.0521 0.6999 0.7123
vn -0.1527 0.6993 -0.6983
s off
f 98//82 99//82 97//82
f 100//83 101//83 99//83
f 102//84 103//84 101//84
f 104//85 105//85 103//85
f 106//86 107//86 105//86
f 108//87 109//87 107//87
f 106//88 104//88 102//88
f 110//89 111//89 109//89
f 112//90 97//90 111//90
f 111//91 99//91 103//91
f 98//82 100//82 99//82
f 100//83 102//83 101//83
f 102//92 104//92 103//92
f 104//93 106//93 105//93
f 106//86 108//86 107//86
f 108//87 110//87 109//87
f 102//88 100//88 98//88
f 98//88 112//88 102//88
f 112//88 110//88 102//88
f 110//88 108//88 102//88
f 108//88 106//88 102//88
f 110//94 112//94 111//94
f 112//95 98//95 97//95
f 111//91 97//91 99//91
f 99//96 101//96 103//96
f 103//91 105//91 111//91
f 105//91 107//91 111//91
f 107//91 109//91 111//91
