# Blender v2.80 (sub 75) OBJ File: 'destroyer.blend'
# www.blender.org
v 0.306488 0.258016 -2.677904
v 0.584782 0.848529 -1.920378
v 0.324677 0.256931 -2.683741
v 0.602972 0.847445 -1.926215
v 0.339396 0.245273 -2.680060
v 0.617691 0.835786 -1.922534
v 0.342022 0.229869 -2.669017
v 0.620316 0.820382 -1.911491
v 0.331016 0.219744 -2.657081
v 0.609311 0.810257 -1.899555
v 0.312827 0.220828 -2.651244
v 0.591121 0.811341 -1.893718
v 0.298108 0.232486 -2.654925
v 0.576402 0.823000 -1.897399
v 0.295482 0.247890 -2.665968
v 0.573777 0.838404 -1.908442
vn -0.1372 0.8050 -0.5771
vn 0.5752 0.5292 -0.6238
vn 0.9506 -0.0567 -0.3051
vn 0.7692 -0.6093 0.1924
vn 0.1372 -0.8050 0.5771
vn -0.5752 -0.5292 0.6238
vn 0.2783 0.5905 0.7575
vn -0.9506 0.0567 0.3051
vn -0.7692 0.6093 -0.1924
vn -0.2783 -0.5905 -0.7575
vn -0.2784 -0.5905 -0.7575
s off
f 2//1 3//1 1//1
f 4//2 5//2 3//2
f 6//3 7//3 5//3
f 8//4 9//4 7//4
f 10//5 11//5 9//5
f 12//6 13//6 11//6
f 10//7 8//7 6//7
f 14//8 15//8 13//8
f 16//9 1//9 15//9
f 15//10 3//10 7//10
f 2//1 4//1 3//1
f 4//2 6//2 5//2
f 6//3 8//3 7//3
f 8//4 10//4 9//4
f 10//5 12//5 11//5
f 12//6 14//6 13//6
f 6//7 4//7 2//7
f 2//7 16//7 6//7
f 16//7 14//7 6//7
f 14//7 12//7 6//7
f 12//7 10//7 6//7
f 14//8 16//8 15//8
f 16//9 2//9 1//9
f 15//10 1//10 3//10
f 3//11 5//11 7//11
f 7//10 9//10 15//10
f 9//10 11//10 15//10
f 11//10 13//10 15//10
v 2.129562 0.258016 -1.390062
v 2.407856 0.848529 -0.632535
v 2.147752 0.256931 -1.395899
v 2.426046 0.847445 -0.638372
v 2.162470 0.245273 -1.392218
v 2.440765 0.835786 -0.634691
v 2.165096 0.229869 -1.381175
v 2.443390 0.820382 -0.623648
v 2.154091 0.219744 -1.369239
v 2.432385 0.810257 -0.611712
v 2.135901 0.220828 -1.363401
v 2.414195 0.811341 -0.605875
v 2.121182 0.232486 -1.367082
v 2.399477 0.823000 -0.609556
v 2.118556 0.247890 -1.378125
v 2.396851 0.838404 -0.620599
vn -0.1372 0.8050 -0.5771
vn 0.5752 0.5292 -0.6238
vn 0.9506 -0.0567 -0.3051
vn 0.7692 -0.6093 0.1924
vn 0.1372 -0.8050 0.5771
vn -0.5752 -0.5292 0.6238
vn 0.2783 0.5905 0.7575
vn -0.9506 0.0567 0.3051
vn -0.7692 0.6093 -0.1924
vn -0.2783 -0.5905 -0.7575
s off
f 18//12 19//12 17//12
f 20//13 21//13 19//13
f 22//14 23//14 21//14
f 24//15 25//15 23//15
f 26//16 27//16 25//16
f 28//17 29//17 27//17
f 26//18 24//18 22//18
f 30//19 31//19 29//19
f 32//20 17//20 31//20
f 31//21 19//21 23//21
f 18//12 20//12 19//12
f 20//13 22//13 21//13
f 22//14 24//14 23//14
f 24//15 26//15 25//15
f 26//16 28//16 27//16
f 28//17 30//17 29//17
f 22//18 20//18 18//18
f 18//18 32//18 22//18
f 32//18 30//18 22//18
f 30//18 28//18 22//18
f 28//18 26//18 22//18
f 30//19 32//19 31//19
f 32//20 18//20 17//20
f 31//21 17//21 19//21
f 19//21 21//21 23//21
f 23//21 25//21 31//21
f 25//21 27//21 31//21
f 27//21 29//21 31//21
v 1.712017 -0.436001 -2.976639
v 1.990311 0.154512 -2.219112
v 1.730207 -0.437085 -2.982476
v 2.008501 0.153428 -2.224950
v 1.744926 -0.448744 -2.978795
v 2.023220 0.141770 -2.221269
v 1.747551 -0.464148 -2.967752
v 2.025846 0.126366 -2.210226
v 1.736546 -0.474273 -2.955816
v 2.014840 0.116240 -2.198289
v 1.718356 -0.473189 -2.949979
v 1.996650 0.117325 -2.192452
v 1.703637 -0.461530 -2.953660
v 1.981932 0.128983 -2.196133
v 1.701012 -0.446126 -2.964703
v 1.979306 0.144387 -2.207176
vn -0.1372 0.8050 -0.5771
vn 0.5752 0.5292 -0.6238
vn 0.9506 -0.0567 -0.3051
vn 0.7692 -0.6093 0.1924
vn 0.1372 -0.8050 0.5771
vn -0.5752 -0.5292 0.6238
vn 0.2783 0.5905 0.7575
vn -0.9506 0.0567 0.3051
vn -0.7692 0.6093 -0.1924
vn -0.2783 -0.5905 -0.7575
s off
f 34//22 35//22 33//22
f 36//23 37//23 35//23
f 38//24 39//24 37//24
f 40//25 41//25 39//25
f 42//26 43//26 41//26
f 44//27 45//27 43//27
f 42//28 40//28 38//28
f 46//29 47//29 45//29
f 48//30 33//30 47//30
f 47//31 35//31 39//31
f 34//22 36//22 35//22
f 36//23 38//23 37//23
f 38//24 40//24 39//24
f 40//25 42//25 41//25
f 42//26 44//26 43//26
f 44//27 46//27 45//27
f 38//28 36//28 34//28
f 34//28 48//28 38//28
f 48//28 46//28 38//28
f 46//28 44//28 38//28
f 44//28 42//28 38//28
f 46//29 48//29 47//29
f 48//30 34//30 33//30
f 47//31 33//31 35//31
f 35//31 37//31 39//31
f 39//31 41//31 47//31
f 41//31 43//31 47//31
f 43//31 45//31 47//31
v 3.438910 -3.888070 -6.310217
v 3.533832 -3.263762 -5.534827
v 3.456898 -3.894047 -6.307607
v 3.551821 -3.269739 -5.532217
v 3.465188 -3.907961 -6.297419
v 3.560111 -3.283653 -5.522029
v 3.458924 -3.921661 -6.285622
v 3.553847 -3.297353 -5.510231
v 3.441775 -3.927122 -6.279125
v 3.536698 -3.302814 -5.503735
v 3.423787 -3.921145 -6.281735
v 3.518709 -3.296837 -5.506346
v 3.415497 -3.907232 -6.291923
v 3.510419 -3.282924 -5.516533
v 3.421761 -3.893531 -6.303721
v 3.516683 -3.269223 -5.528331
vn 0.3274 0.7160 -0.6166
vn 0.8962 0.2854 -0.3395
vn 0.9401 -0.3124 0.1364
vn 0.4333 -0.7272 0.5324
vn -0.3274 -0.7160 0.6166
vn -0.8963 -0.2854 0.3395
vn 0.0949 0.6243 0.7754
vn -0.9401 0.3123 -0.1364
vn -0.4333 0.7272 -0.5324
vn -0.0949 -0.6243 -0.7754
vn -0.8962 -0.2854 0.3395
vn 0.0950 0.6243 0.7754
vn -0.9401 0.3124 -0.1364
vn -0.0950 -0.6243 -0.7754
s off
f 50//32 51//32 49//32
f 52//33 53//33 51//33
f 54//34 55//34 53//34
f 56//35 57//35 55//35
f 58//36 59//36 57//36
f 60//37 61//37 59//37
f 58//38 56//38 54//38
f 62//39 63//39 61//39
f 64//40 49//40 63//40
f 63//41 51//41 55//41
f 50//32 52//32 51//32
f 52//33 54//33 53//33
f 54//34 56//34 55//34
f 56//35 58//35 57//35
f 58//36 60//36 59//36
f 60//42 62//42 61//42
f 54//43 52//43 50//43
f 50//38 64//38 54//38
f 64//38 62//38 54//38
f 62//38 60//38 54//38
f 60//38 58//38 54//38
f 62//44 64//44 63//44
f 64//40 50//40 49//40
f 63//41 49//41 51//41
f 51//45 53//45 55//45
f 55//41 57//41 63//41
f 57//41 59//41 63//41
f 59//45 61//45 63//45
v 1.554664 -3.888070 -5.937068
v 1.649587 -3.263762 -5.161677
v 1.572652 -3.894047 -5.934457
v 1.667575 -3.269739 -5.159067
v 1.580943 -3.907961 -5.924269
v 1.675865 -3.283653 -5.148880
v 1.574679 -3.921661 -5.912472
v 1.669601 -3.297353 -5.137082
v 1.557530 -3.927122 -5.905975
v 1.652452 -3.302814 -5.130585
v 1.539541 -3.921145 -5.908586
v 1.634464 -3.296837 -5.133196
v 1.531251 -3.907232 -5.918773
v 1.626174 -3.282924 -5.143384
v 1.537515 -3.893531 -5.930571
v 1.632438 -3.269223 -5.155181
vn 0.3274 0.7160 -0.6166
vn 0.8962 0.2854 -0.3395
vn 0.9401 -0.3124 0.1364
vn 0.4333 -0.7272 0.5324
vn -0.3274 -0.7160 0.6166
vn -0.8963 -0.2854 0.3395
vn 0.0949 0.6243 0.7754
vn -0.9401 0.3124 -0.1364
vn -0.4333 0.7272 -0.5324
vn -0.0949 -0.6243 -0.7754
vn -0.8962 -0.2854 0.3395
vn 0.0950 0.6243 0.7754
vn -0.0948 -0.6243 -0.7754
vn -0.0950 -0.6243 -0.7754
s off
f 66//46 67//46 65//46
f 68//47 69//47 67//47
f 70//48 71//48 69//48
f 72//49 73//49 71//49
f 74//50 75//50 73//50
f 76//51 77//51 75//51
f 74//52 72//52 70//52
f 78//53 79//53 77//53
f 80//54 65//54 79//54
f 79//55 67//55 71//55
f 66//46 68//46 67//46
f 68//47 70//47 69//47
f 70//48 72//48 71//48
f 72//49 74//49 73//49
f 74//50 76//50 75//50
f 76//56 78//56 77//56
f 70//57 68//57 66//57
f 66//52 80//52 70//52
f 80//52 78//52 70//52
f 78//57 76//57 70//57
f 76//52 74//52 70//52
f 78//53 80//53 79//53
f 80//54 66//54 65//54
f 79//55 65//55 67//55
f 67//55 69//55 71//55
f 71//55 73//55 79//55
f 73//58 75//58 79//58
f 75//59 77//59 79//59
v 3.100420 -3.888070 -7.928398
v 3.195343 -3.263762 -7.153008
v 3.118408 -3.894047 -7.925787
v 3.213331 -3.269739 -7.150398
v 3.126698 -3.907961 -7.915600
v 3.221621 -3.283653 -7.140210
v 3.120434 -3.921661 -7.903802
v 3.215357 -3.297353 -7.128412
v 3.103285 -3.927122 -7.897306
v 3.198208 -3.302814 -7.121916
v 3.085297 -3.921145 -7.899916
v 3.180220 -3.296837 -7.124527
v 3.077007 -3.907232 -7.910104
v 3.171929 -3.282924 -7.134714
v 3.083271 -3.893531 -7.921902
v 3.178194 -3.269223 -7.146512
vn 0.3274 0.7160 -0.6166
vn 0.8963 0.2854 -0.3395
vn 0.9401 -0.3124 0.1364
vn 0.4333 -0.7272 0.5324
vn -0.3274 -0.7160 0.6166
vn -0.8962 -0.2854 0.3395
vn 0.0950 0.6244 0.7753
vn -0.9401 0.3124 -0.1364
vn -0.4333 0.7272 -0.5324
vn -0.0949 -0.6243 -0.7754
vn 0.8962 0.2854 -0.3395
vn -0.8963 -0.2854 0.3395
vn 0.0949 0.6243 0.7754
vn -0.0950 -0.6243 -0.7754
vn -0.0948 -0.6243 -0.7754
s off
f 82//60 83//60 81//60
f 84//61 85//61 83//61
f 86//62 87//62 85//62
f 88//63 89//63 87//63
f 90//64 91//64 89//64
f 92//65 93//65 91//65
f 90//66 88//66 86//66
f 94//67 95//67 93//67
f 96//68 81//68 95//68
f 95//69 83//69 87//69
f 82//60 84//60 83//60
f 84//70 86//70 85//70
f 86//62 88//62 87//62
f 88//63 90//63 89//63
f 90//64 92//64 91//64
f 92//71 94//71 93//71
f 86//72 84//72 82//72
f 82//72 96//72 86//72
f 96//72 94//72 86//72
f 94//72 92//72 86//72
f 92//72 90//72 86//72
f 94//67 96//67 95//67
f 96//68 82//68 81//68
f 95//69 81//69 83//69
f 83//69 85//69 87//69
f 87//69 89//69 95//69
f 89//73 91//73 95//73
f 91//74 93//74 95//74
