# Blender v2.90.1 OBJ File: 'escape.blend'
# www.blender.org
v 0.085150 -0.986269 -0.977799
v -0.448534 -0.847196 -1.410794
v -0.859111 -1.501121 -1.313815
v 0.293728 -0.837473 -2.004595
v -0.534059 -1.524785 -3.579514
v -0.704679 -1.880722 -2.215755
v -0.690217 -1.512342 -2.305464
v -1.320233 -1.265970 -2.832002
v -0.942785 -1.559050 -3.171901
v -0.804620 -0.759173 -2.123798
v -0.896188 -0.647596 -2.894289
v -0.216000 -0.627146 -2.130394
v -0.518727 -0.940670 -3.234193
v -1.337484 -1.493293 -4.842308
v -0.654957 -1.856814 -1.634916
v 0.692243 -1.314902 -0.920682
v 0.079878 -0.807725 -1.375176
v -0.319166 -2.105591 -1.208420
v -0.328627 -2.442606 -1.869772
v -0.673493 -2.176786 -3.669033
v 0.813349 -1.303905 -2.214114
v 0.074417 -1.086150 -3.778895
v -0.359180 -1.649819 -0.984163
v -1.049794 -1.306771 -2.066881
v -0.681645 -1.580054 -4.771125
v -0.803117 -2.426398 -4.964714
v 0.223344 -1.211497 -5.080593
v -0.464371 -2.620519 -4.124149
v 0.827338 -1.461190 -3.584878
v 0.914917 -1.481999 -4.741736
v -0.357986 -2.593329 -3.265359
v 1.223766 -1.757008 -0.877741
v 1.450474 -3.066325 -1.086093
v 1.782587 -2.271116 -1.400093
v 1.425063 -1.603285 -1.905176
v 1.137797 -2.745548 -2.086258
v 1.263964 -2.741875 -3.421512
v 1.456262 -3.689506 -2.041466
v 1.458827 -3.923421 -2.496864
v 2.251946 -3.819412 -2.349936
v 2.086002 -3.279638 -1.831486
v 2.466760 -3.206965 -2.546735
v 2.222672 -3.044699 -1.755595
v 2.005264 -2.654317 -2.854344
v 1.730726 -1.867114 -2.106490
v 1.537177 -4.725389 -2.926123
v 0.828254 -3.266705 -1.309465
v 1.438223 -1.727189 -1.255810
v 0.430621 -2.377244 -1.110992
v 0.108154 -2.704613 -1.702643
v 0.723364 -3.122319 -3.546286
v 1.471273 -2.031681 -3.656144
v 0.751088 -2.367706 -0.757847
v 1.409558 -2.995602 -4.587353
v 0.695408 -3.440751 -4.833027
v 1.457314 -2.046776 -4.972157
v 0.291942 -3.132474 -4.057688
v 0.175328 -2.954335 -3.218493
vn -0.5005 0.4260 0.7537
vn -0.7284 0.6797 0.0863
vn -0.4905 -0.8507 0.1888
vn -0.4899 -0.8506 0.1910
vn -0.8031 0.5687 0.1778
vn 0.3616 0.8661 -0.3452
vn 0.7995 -0.5671 -0.1980
vn 0.7981 -0.5676 -0.2020
vn 0.7994 -0.5658 -0.2022
vn -0.8260 0.5608 -0.0563
vn -0.0614 0.2252 -0.9724
vn -0.5551 -0.8258 0.0996
vn -0.5536 -0.8269 0.0983
vn 0.2746 0.8577 -0.4346
vn 0.7952 -0.5699 -0.2072
vn 0.7957 -0.5671 -0.2127
vn 0.7962 -0.5672 -0.2105
vn -0.9100 -0.3863 -0.1506
vn 0.4156 0.8317 0.3682
vn -0.7807 -0.5522 0.2926
vn -0.8518 -0.5166 0.0870
vn -0.8536 -0.5133 0.0883
vn -0.8506 -0.5179 0.0908
vn 0.6146 0.7672 -0.1835
vn -0.8537 -0.5116 0.0978
vn -0.8532 -0.5130 0.0942
vn -0.8544 -0.5104 0.0972
vn -0.4611 0.3007 0.8349
vn -0.9948 0.0592 0.0827
vn -0.5845 -0.3989 0.7065
vn -0.5349 -0.8410 -0.0816
vn -0.0954 0.9075 0.4090
vn -0.7897 0.4695 0.3949
vn -0.7749 0.5362 0.3346
vn -0.7873 0.4827 0.3835
vn -0.7976 0.4037 0.4482
vn -0.7874 0.4827 0.3835
vn -0.2110 0.9517 0.2229
vn -0.0896 0.9602 0.2647
vn 0.1449 0.5516 -0.8214
vn 0.4253 -0.2299 -0.8754
vn 0.3905 0.4743 -0.7891
vn 0.4761 0.7153 -0.5116
vn 0.2594 0.0518 -0.9644
vn 0.3905 0.4743 -0.7890
vn 0.3634 0.9282 0.0796
vn 0.4607 0.7139 -0.5273
vn -0.5928 0.8044 -0.0395
vn -0.9739 0.2172 -0.0652
vn -0.9748 0.1931 0.1118
vn -0.5772 0.8159 0.0336
vn -0.9893 0.1249 0.0749
vn -0.4127 0.9009 -0.1340
vn 0.5610 0.8137 0.1521
vn 0.6818 0.7281 0.0700
vn -0.7986 -0.5711 0.1899
vn 0.4636 0.8808 -0.0963
vn 0.4422 0.8967 0.0173
vn 0.3830 0.9227 -0.0450
vn -0.8294 -0.5534 0.0772
vn -0.8442 -0.5221 0.1211
vn -0.7462 -0.6279 0.2212
vn 0.6840 0.0024 0.7295
vn 0.9624 -0.2563 0.0902
vn 0.0320 -0.8890 0.4568
vn 0.8777 -0.1630 0.4507
vn 0.7389 0.6677 0.0910
vn -0.8265 0.2086 -0.5229
vn 0.8284 -0.4124 -0.3792
vn 0.4171 -0.0951 -0.9039
vn -0.0992 -0.4771 0.8732
vn 0.4852 -0.0795 -0.8708
vn -0.8220 0.2042 -0.5316
vn 0.0732 -0.8351 0.5452
vn 0.5725 0.7254 0.3820
vn -0.6684 -0.4337 0.6043
vn 0.0495 -0.9704 0.2364
vn 0.0455 -0.9704 0.2373
vn 0.0532 -0.9700 0.2373
vn 0.5079 0.8397 -0.1920
vn -0.2551 -0.7550 -0.6041
vn -0.2576 -0.7545 -0.6036
vn -0.2560 -0.7525 -0.6068
vn 0.3500 -0.0878 0.9326
vn -0.8027 -0.2954 -0.5181
vn -0.5009 -0.7242 0.4741
vn 0.3402 -0.7867 0.5152
vn 0.7933 0.3750 0.4796
vn 0.7520 -0.0547 0.6568
vn 0.1098 -0.3628 0.9254
vn 0.8882 0.4239 0.1772
vn 0.8701 0.4526 0.1950
vn 0.8721 0.4496 0.1931
vn 0.8501 0.4817 0.2131
vn 0.5008 0.7535 -0.4261
vn 0.0174 0.0655 -0.9977
vn 0.3294 0.0665 -0.9418
vn -0.5202 0.0479 -0.8527
vn 0.0173 0.0654 -0.9977
vn -0.5831 -0.0156 -0.8123
vn 0.6932 0.7104 0.1215
vn 0.7223 0.6909 0.0299
vn 0.9637 -0.2525 0.0872
vn 0.5668 -0.8222 0.0513
vn 0.5201 -0.8188 0.2431
vn 0.9598 -0.2244 0.1687
vn 0.4668 -0.8608 0.2029
vn 0.9985 -0.0543 -0.0100
vn 0.5287 0.8357 0.1487
vn 0.4198 0.9064 0.0470
vn -0.2593 -0.9362 0.2373
vn 0.6561 0.7505 -0.0794
vn 0.6650 0.7460 0.0369
vn 0.7180 0.6959 -0.0156
vn -0.2066 -0.9668 0.1501
vn -0.1891 -0.9656 0.1787
vn -0.2315 -0.3093 0.9224
vn -0.4387 -0.8922 0.1075
vn -0.8509 0.4145 0.3228
vn -0.2141 0.9628 0.1649
vn 0.8849 -0.4514 -0.1145
vn -0.4945 0.1321 -0.8591
vn 0.1790 -0.6523 0.7365
vn 0.7576 -0.5528 0.3471
vn 0.9268 0.3719 -0.0512
vn -0.9861 0.1456 -0.0804
vn 0.1906 0.1996 -0.9612
s off
f 1//1 2//1 3//1
f 4//2 5//2 6//2
f 7//3 8//3 9//4
f 8//5 10//5 11//5
f 11//6 12//6 13//6
f 13//7 7//8 9//9
f 8//10 11//10 14//10
f 10//11 12//11 7//11
f 9//12 8//13 14//13
f 11//14 13//14 14//14
f 13//15 9//16 14//17
f 15//18 3//18 7//18
f 1//19 16//19 17//19
f 18//20 15//20 19//20
f 20//21 19//22 6//23
f 21//24 22//24 4//24
f 19//25 15//26 6//27
f 3//28 23//28 1//28
f 7//29 6//29 15//29
f 18//30 23//30 3//30
f 7//31 3//31 24//31
f 1//32 17//32 2//32
f 24//33 3//34 2//35
f 10//36 24//33 2//37
f 10//38 2//38 12//38
f 2//39 17//39 12//39
f 4//40 6//41 7//41
f 12//42 4//43 7//44
f 12//45 17//46 4//47
f 5//48 4//48 22//48
f 6//49 5//49 20//49
f 5//50 25//50 20//50
f 5//51 22//51 25//51
f 26//52 20//52 25//52
f 22//53 27//53 25//53
f 17//54 16//54 4//54
f 4//55 16//55 21//55
f 20//56 26//56 28//56
f 22//57 21//57 29//57
f 22//58 29//58 30//58
f 22//59 30//59 27//59
f 31//60 19//60 20//60
f 31//61 20//61 28//61
f 18//62 3//62 15//62
f 32//63 33//63 34//63
f 35//64 36//64 37//64
f 38//65 39//65 40//65
f 41//66 40//66 42//66
f 43//67 42//67 44//67
f 45//68 44//68 39//68
f 40//69 46//69 42//69
f 43//70 38//70 45//70
f 39//71 46//71 40//71
f 42//72 46//72 44//72
f 44//73 46//73 39//73
f 47//74 38//74 33//74
f 32//75 48//75 16//75
f 49//76 50//76 47//76
f 51//77 36//78 50//79
f 21//80 35//80 52//80
f 50//81 36//82 47//83
f 33//84 32//84 53//84
f 38//85 47//85 36//85
f 49//86 33//86 53//86
f 38//87 41//87 33//87
f 32//88 34//88 48//88
f 41//89 34//89 33//89
f 43//90 34//90 41//90
f 43//91 45//92 34//93
f 34//93 45//92 48//94
f 35//95 38//96 36//97
f 45//98 38//99 35//100
f 45//101 35//102 48//101
f 37//103 52//103 35//103
f 36//104 51//104 37//104
f 37//105 51//105 54//105
f 37//106 54//106 52//106
f 55//107 54//107 51//107
f 52//108 54//108 56//108
f 48//109 35//109 16//109
f 35//110 21//110 16//110
f 51//111 57//111 55//111
f 52//112 29//112 21//112
f 52//113 30//113 29//113
f 52//114 56//114 30//114
f 58//115 51//115 50//115
f 58//116 57//116 51//116
f 49//117 47//117 33//117
f 7//118 24//118 8//118
f 8//119 24//119 10//119
f 11//120 10//120 12//120
f 13//121 12//121 7//121
f 10//122 7//122 24//122
f 38//123 40//123 41//123
f 41//124 42//124 43//124
f 43//125 44//125 45//125
f 45//126 39//126 38//126
f 43//127 41//127 38//127
