# Blender v2.90.1 OBJ File: ''
# www.blender.org
v 2.143638 -10.188809 0.877785
v 1.586268 -8.797891 3.673700
v 1.882214 -8.764575 3.719524
v 2.325649 -10.167813 0.900816
v 2.357689 -10.644547 0.166026
v 2.377984 -10.719932 0.018030
v 2.501560 -10.707826 0.034005
v 2.466682 -10.631978 0.179817
v 2.354658 -10.590325 0.140497
v 2.374229 -10.656941 -0.012119
v 2.463661 -10.577760 0.154282
v 2.497633 -10.641801 0.002422
v 1.889250 -9.009299 3.832323
v 1.606967 -9.037164 3.798804
v 2.151375 -10.327659 0.943166
v 2.333391 -10.306674 0.966199
v 2.487781 -10.042901 0.959922
v 2.483403 -9.964440 0.922969
v 2.009521 -10.019094 0.863016
v 2.013901 -10.097554 0.899962
v 2.030166 -10.389485 1.037427
v 2.504053 -10.334836 1.097390
v 0.727726 -10.464622 0.729874
v 0.724408 -10.405047 0.701817
v 2.034546 -10.467946 1.074373
v 2.508426 -10.413295 1.134333
v 2.069906 -10.241214 0.588259
v 2.065529 -10.162744 0.551313
v 2.539411 -10.108094 0.611266
v 2.543790 -10.186555 0.648211
v 2.560062 -10.478490 0.785678
v 2.086180 -10.533141 0.725725
v 0.749183 -10.468600 0.563911
v 0.752502 -10.528174 0.591968
v 2.564433 -10.556947 0.822629
v 2.090550 -10.611608 0.762669
v 1.119977 -9.102704 3.742601
v 0.917272 -9.171643 3.623888
v 1.069448 -9.196694 3.476530
v 1.243388 -9.121459 3.635142
v 1.407091 -9.023822 3.883021
v 2.284141 -8.793302 3.669884
v 2.044405 -8.694104 3.844279
v 2.367639 -8.709060 3.784005
v 1.712434 -8.713304 3.833296
v 1.392422 -8.769298 3.761788
v 1.231545 -8.917256 3.537899
v 1.105993 -8.857356 3.625680
v 1.064662 -9.034253 3.395527
v 0.917962 -8.923646 3.493347
v 1.726418 -8.975860 3.958091
v 2.057808 -8.948773 3.965349
v 2.295022 -8.999946 3.768088
v 2.380685 -8.957309 3.902122
v 2.514813 -9.030000 3.659405
v 2.616480 -8.975675 3.838883
v 2.592352 -8.730540 3.705202
v 2.502842 -8.868390 3.577499
v 2.543308 -9.240468 3.787794
v 2.586354 -9.238793 3.872088
v 2.622184 -9.163545 3.916256
v 2.563316 -8.565398 3.590083
v 2.520006 -8.567040 3.505923
v 2.484004 -8.642251 3.461840
v 2.921156 -8.750253 3.295300
v 2.882971 -8.804185 3.269421
v 2.965022 -8.751731 3.351398
v 3.012115 -8.961429 3.498463
v 3.010887 -9.202161 3.597276
v 2.972782 -9.256116 3.571325
v 2.929044 -9.254674 3.515123
v 2.903582 -9.094216 3.416112
v 3.266337 -9.240720 3.150564
v 3.296581 -9.232965 3.172350
v 3.301984 -9.132598 3.130973
v 3.287269 -9.046170 3.079122
v 3.257006 -9.053910 3.057361
v 2.891883 -8.976407 3.352311
v 3.413146 -9.226684 2.936488
v 2.458105 -10.736213 -0.103340
v 2.520985 -10.744264 -0.036371
v 2.455096 -10.788507 -0.027444
v 2.440107 -10.749585 0.054801
v 2.428115 -10.658376 0.061154
v 2.516492 -10.672509 -0.071143
v 2.431125 -10.606084 -0.014743
v 2.446116 -10.644996 -0.096987
v 2.380237 -10.689240 -0.088066
v 2.384723 -10.760995 -0.053295
v 3.824931 -10.107429 1.121751
v 3.821610 -10.047853 1.093700
v 3.846386 -10.111405 0.955795
v 3.849707 -10.170983 0.983845
v 0.934968 -9.358129 3.702778
v 0.996473 -9.422149 3.670925
v 1.058179 -9.411746 3.599881
v 1.060177 -8.806462 3.281687
v 0.998537 -8.742497 3.313417
v 0.936640 -8.752999 3.384266
v 0.767532 -9.048158 3.001762
v 0.713067 -9.004910 3.015919
v 0.658240 -9.017770 3.059532
v 0.624674 -9.236773 3.196391
v 0.655473 -9.473809 3.299253
v 0.709882 -9.517093 3.285008
v 0.764623 -9.504294 3.241270
v 0.777025 -9.339473 3.147045
v 0.533044 -9.555943 2.804724
v 0.497426 -9.555785 2.818182
v 0.480008 -9.458053 2.773917
v 0.487267 -9.369081 2.724851
v 0.522898 -9.369229 2.711419
v 0.777339 -9.220271 3.084764
v 0.444079 -9.569097 2.560814
v -3.051829 -8.477414 1.317601
v -3.064478 -8.465878 1.247677
v -3.040838 -8.034280 1.331071
v -3.028329 -8.048383 1.400500
v -3.119358 -8.469398 1.294127
v -3.095849 -8.040156 1.377066
v -3.125160 -9.320741 1.255858
v -3.138734 -9.319894 1.185159
v -3.192762 -9.313584 1.232321
v -3.233729 -10.146991 1.332317
v -3.248739 -10.157063 1.262628
v -3.301445 -10.140710 1.308858
v -3.377578 -10.956498 1.546999
v -3.394413 -10.976804 1.480007
v -3.445446 -10.951043 1.523753
v -3.556791 -11.749503 1.900072
v -3.575617 -11.778676 1.837020
v -3.624815 -11.744771 1.877151
v -3.771421 -12.526118 2.391765
v -3.792241 -12.562497 2.333260
v -3.839609 -12.521966 2.369212
v -4.021526 -13.286309 3.022261
v -4.044194 -13.328309 2.968401
v -4.089865 -13.282611 3.000080
v -4.161363 -13.664063 3.393445
v -4.179041 -13.692891 3.326586
v -4.231182 -13.664485 3.375171
v -4.119708 -14.279323 3.450997
v -4.147204 -14.282826 3.384437
v -4.186141 -14.360307 3.449342
v -2.593607 -14.484067 1.869193
v -2.619516 -14.490209 1.802115
v -2.580964 -14.544684 1.830108
v -1.296276 -13.910218 0.769387
v -1.306551 -13.906137 0.697011
v -1.261340 -13.955468 0.723439
v -0.075216 -12.964616 0.111569
v -0.067214 -12.942122 0.042550
v -0.023793 -12.993112 0.069023
v 1.302547 -11.670993 -0.288900
v 1.314207 -11.644280 -0.365946
v 1.361187 -11.704474 -0.335954
v 2.051586 -10.902812 -0.086087
v 2.056299 -10.888253 -0.164208
v 2.100416 -10.944613 -0.132661
v 2.339508 -10.524865 0.206390
v 2.387136 -10.427535 0.251150
v 2.420079 -10.499650 0.245027
v 2.251303 -10.639464 0.240822
v 2.174517 -10.696162 0.332182
v 2.247704 -10.717921 0.313314
v 2.325621 -10.604737 -0.097796
v 2.272476 -10.650392 -0.114141
v 2.338890 -10.675317 -0.102118
vn -0.0449 0.8914 -0.4509
vn -0.0540 0.8907 -0.4514
vn -0.0275 0.8879 -0.4592
vn -0.0274 0.8879 -0.4593
vn -0.0458 0.8914 -0.4510
vn 0.0366 -0.8850 0.4641
vn 0.0281 -0.8891 0.4568
vn 0.0334 -0.8866 0.4614
vn 0.0424 -0.8822 0.4690
vn -0.9915 -0.0971 -0.0861
vn -0.9915 -0.0992 -0.0838
vn -0.9915 -0.0986 -0.0845
vn -0.9915 -0.0963 -0.0869
vn -0.9915 -0.0970 -0.0862
vn -0.0585 0.9133 -0.4032
vn -0.0650 0.9142 -0.4001
vn -0.0609 0.9136 -0.4020
vn -0.0540 0.9126 -0.4053
vn -0.0585 0.9132 -0.4032
vn 0.9776 0.1326 0.1632
vn 0.9772 0.1361 0.1630
vn 0.9773 0.1350 0.1630
vn 0.9778 0.1314 0.1633
vn 0.0588 -0.9309 0.3604
vn 0.0584 -0.9352 0.3491
vn 0.0509 -0.9068 0.4184
vn 0.0516 -0.9068 0.4185
vn 0.9900 0.0823 0.1149
vn 0.9888 0.1049 0.1057
vn 0.9889 0.1038 0.1062
vn 0.9889 0.1037 0.1062
vn 0.9900 0.0815 0.1152
vn -0.9833 -0.1207 -0.1359
vn -0.4558 -0.4431 -0.7720
vn -0.4647 -0.4354 -0.7710
vn -0.9834 -0.1192 -0.1367
vn -0.1610 0.4131 0.8963
vn -0.1610 0.4132 0.8963
vn -0.1611 0.4131 0.8963
vn -0.1957 0.4088 0.8914
vn -0.1263 0.4168 0.9002
vn -0.2323 0.4038 0.8849
vn 0.1610 -0.4131 -0.8964
vn 0.1610 -0.4130 -0.8964
vn 0.1610 -0.4131 -0.8963
vn 0.1262 -0.4168 -0.9002
vn 0.1957 -0.4088 -0.8914
vn 0.0890 -0.4203 -0.9030
vn 0.1611 -0.4131 -0.8963
vn 0.1611 -0.4132 -0.8963
vn -0.9857 -0.1137 -0.1247
vn -0.9857 -0.1136 -0.1247
vn -0.0504 0.9036 -0.4255
vn 0.0504 -0.9036 0.4255
vn -0.1449 0.8884 -0.4355
vn -0.1449 0.8885 -0.4355
vn -0.0447 -0.9103 0.4115
vn 0.1256 -0.9445 0.3036
vn 0.6281 -0.3327 0.7034
vn 0.5422 -0.5262 0.6551
vn 0.1130 -0.9451 0.3067
vn 0.0796 -0.9453 0.3164
vn -0.0181 0.8218 -0.5695
vn -0.0194 0.8675 -0.4970
vn -0.0633 0.7936 -0.6052
vn -0.0396 0.8943 -0.4457
vn -0.0711 0.8676 -0.4922
vn -0.0314 0.8221 -0.5684
vn 0.0320 0.8062 -0.5908
vn 0.5269 0.8481 -0.0562
vn 0.6402 0.7619 0.0986
vn -0.7582 0.3391 0.5569
vn -0.7498 0.2644 0.6066
vn -0.5381 0.3533 0.7653
vn -0.5546 0.3319 0.7630
vn -0.3787 0.3802 0.8438
vn -0.3788 0.3801 0.8438
vn -0.1614 0.4166 0.8946
vn -0.1611 0.4167 0.8947
vn 0.0655 -0.9430 0.3262
vn 0.0310 -0.9543 0.2971
vn 0.0179 -0.9571 0.2892
vn -0.5548 -0.6527 0.5159
vn -0.6907 -0.4848 0.5366
vn 0.5814 -0.3261 -0.7454
vn 0.5765 -0.3293 -0.7478
vn 0.7574 -0.3003 -0.5798
vn 0.7641 -0.2719 -0.5850
vn 0.0618 -0.9439 0.3243
vn -0.7959 0.5989 -0.0886
vn -0.6700 0.7113 -0.2126
vn -0.2928 -0.4283 -0.8549
vn -0.5159 -0.4195 -0.7469
vn -0.5045 -0.4458 -0.7394
vn -0.2937 -0.4204 -0.8585
vn -0.1353 -0.4223 -0.8963
vn -0.1326 -0.4180 -0.8987
vn 0.2612 0.4258 0.8663
vn 0.0648 0.4312 0.8999
vn 0.0643 0.4313 0.8999
vn 0.2402 0.4429 0.8638
vn 0.5017 0.4843 0.7168
vn 0.4987 0.4084 0.7645
vn -0.8801 0.1567 0.4483
vn -0.8808 0.1572 0.4467
vn -0.8797 0.1569 0.4488
vn -0.8793 0.1569 0.4497
vn -0.8791 0.1570 0.4501
vn -0.3908 0.1430 -0.9093
vn 0.1016 0.8408 -0.5317
vn 0.1365 0.7881 -0.6003
vn -0.4103 0.1056 -0.9058
vn 0.6049 0.7840 0.1396
vn 0.5162 0.8268 0.2233
vn 0.7130 0.3874 0.5844
vn 0.7132 -0.2140 0.6675
vn 0.6152 -0.1791 0.7677
vn 0.3135 -0.8966 0.3128
vn 0.2719 -0.8770 0.3963
vn -0.3160 -0.8761 -0.3642
vn -0.2769 -0.8968 -0.3450
vn -0.5819 -0.4608 -0.6701
vn -0.3135 -0.8970 -0.3116
vn 0.7023 -0.5615 0.4376
vn 0.8521 0.2707 0.4479
vn 0.6964 0.7056 -0.1312
vn -0.2794 0.3071 -0.9097
vn -0.5833 -0.4025 -0.7055
vn 0.5578 -0.3506 -0.7523
vn 0.1626 -0.4220 -0.8919
vn 0.8751 -0.4775 -0.0781
vn 0.1030 -0.9946 0.0090
vn -0.0507 -0.5967 0.8009
vn 0.7556 -0.0918 0.6486
vn -0.1651 0.4194 0.8927
vn 0.8205 0.3353 -0.4630
vn 0.7089 0.6468 0.2813
vn -0.1189 0.9922 0.0387
vn 0.0312 0.6287 -0.7771
vn -0.7442 0.1294 -0.6552
vn -0.8911 0.4410 0.1067
vn -0.8479 -0.2874 0.4456
vn -0.6929 -0.6780 -0.2453
vn -0.0890 0.4202 0.9030
vn 0.2322 -0.4037 -0.8849
vn 0.9857 0.1137 0.1247
vn 0.9857 0.1136 0.1247
vn 0.0447 0.9103 -0.4115
vn 0.0446 0.9103 -0.4115
vn 0.1449 -0.8885 0.4355
vn 0.6856 0.3378 0.6448
vn 0.6856 0.3378 0.6449
vn 0.6846 0.3371 0.6463
vn 0.6833 0.3371 0.6477
vn 0.6835 0.3371 0.6474
vn 0.6841 0.3373 0.6467
vn 0.5600 0.2527 -0.7890
vn 0.5859 0.2205 -0.7798
vn -0.1578 0.7541 -0.6375
vn -0.1536 0.8114 -0.5639
vn -0.7804 0.6242 -0.0356
vn -0.7270 0.6834 0.0660
vn -0.9029 0.2010 0.3800
vn -0.7887 -0.3872 0.4775
vn -0.7288 -0.3341 0.5977
vn -0.1716 -0.9526 0.2514
vn -0.1573 -0.9264 0.3420
vn 0.5838 -0.7723 -0.2504
vn 0.5469 -0.8018 -0.2408
vn 0.8168 -0.2995 -0.4932
vn 0.5733 -0.7947 -0.1994
vn -0.6440 -0.7168 0.2672
vn -0.9744 0.0600 0.2168
vn -0.7826 0.5350 -0.3184
vn 0.4184 0.3876 -0.8214
vn 0.8137 -0.2414 -0.5287
vn -0.2625 -0.4452 -0.8561
vn 0.6657 -0.1448 0.7320
vn 0.3351 0.1013 -0.9367
vn 0.3411 0.1603 -0.9263
vn 0.6423 -0.1792 0.7452
vn -0.9867 0.0490 0.1552
vn -0.9833 0.0189 0.1810
vn 0.6812 -0.0675 0.7290
vn 0.3213 -0.0439 -0.9460
vn -0.9832 0.1086 0.1465
vn 0.6928 0.0210 0.7208
vn 0.2993 -0.2111 -0.9305
vn -0.9745 0.1751 0.1404
vn 0.7060 0.1049 0.7004
vn 0.2716 -0.3680 -0.8892
vn -0.9630 0.2382 0.1264
vn 0.7197 0.1791 0.6708
vn 0.2414 -0.5042 -0.8291
vn -0.9498 0.2944 0.1060
vn 0.7332 0.2410 0.6359
vn 0.2111 -0.6154 -0.7594
vn -0.9362 0.3417 0.0819
vn 0.7403 0.2896 0.6066
vn 0.1865 -0.6937 -0.6957
vn -0.9227 0.3801 0.0644
vn 0.5761 0.2920 0.7634
vn 0.1978 -0.4217 -0.8849
vn -0.9097 0.2596 0.3240
vn 0.6124 0.1118 0.7826
vn -0.4276 0.2915 -0.8557
vn -0.5566 -0.7169 0.4198
vn 0.5385 0.5766 0.6145
vn -0.7086 0.2298 -0.6672
vn 0.2044 -0.9785 0.0274
vn 0.2281 0.6000 0.7668
vn -0.6557 0.2125 -0.7245
vn 0.4469 -0.8872 -0.1147
vn -0.0184 0.5009 0.8653
vn -0.5832 0.2934 -0.7575
vn 0.5909 -0.7950 -0.1374
vn -0.2653 0.3358 0.9038
vn -0.3983 0.3971 -0.8268
vn 0.6532 -0.7217 -0.2290
vn -0.5851 0.0271 0.8105
vn -0.1302 0.5965 -0.7920
vn 0.8101 -0.5673 -0.1481
vn -0.9462 -0.1191 0.3009
vn 0.2039 0.9676 0.1491
vn 0.9936 -0.0421 0.1048
vn -0.0265 0.7617 -0.6473
vn -0.7694 -0.2158 0.6012
vn 0.3854 -0.7756 0.4999
vn 0.3200 0.9328 0.1659
vn -0.9594 -0.1663 -0.2276
vn 0.6394 -0.7664 0.0617
s 1
f 1//1 2//2 3//3
f 3//4 4//5 1//1
f 5//6 6//7 7//8
f 7//8 8//9 5//6
f 9//10 10//11 6//12
f 6//12 5//13 9//14
f 11//15 12//16 10//17
f 10//17 9//18 11//19
f 8//20 7//21 12//22
f 12//22 11//23 8//20
f 13//24 14//25 15//26
f 15//26 16//27 13//24
f 13//28 16//29 4//30
f 4//31 3//32 13//28
f 15//33 14//34 2//35
f 2//35 1//36 15//33
f 17//37 18//38 19//39
f 19//39 20//39 17//37
f 21//40 22//41 17//41
f 17//41 20//40 21//40
f 23//42 21//40 20//40
f 20//40 24//42 23//42
f 21//39 25//39 26//39
f 26//39 22//39 21//39
f 27//43 28//44 29//45
f 29//45 30//45 27//43
f 27//46 30//47 31//47
f 31//47 32//46 27//46
f 33//48 27//46 32//46
f 32//46 34//48 33//48
f 31//49 35//50 36//43
f 36//43 32//43 31//49
f 20//51 19//51 28//51
f 28//51 27//51 20//51
f 32//52 36//52 25//51
f 25//51 21//51 32//52
f 19//53 18//53 29//53
f 29//53 28//53 19//53
f 36//54 35//54 26//54
f 26//54 25//54 36//54
f 24//52 33//52 34//52
f 34//52 23//52 24//52
f 27//55 33//56 24//56
f 24//56 20//55 27//55
f 32//57 21//57 23//57
f 23//57 34//57 32//57
f 37//58 38//59 39//60
f 39//60 40//61 37//58
f 41//62 37//58 40//61
f 40//61 14//25 41//62
f 42//63 3//3 43//64
f 43//64 44//65 42//63
f 45//66 43//64 3//3
f 45//66 3//3 2//2
f 2//2 46//67 45//66
f 46//67 2//2 47//68
f 47//68 48//69 46//67
f 48//69 47//68 49//70
f 49//70 50//71 48//69
f 50//72 38//73 37//74
f 37//74 48//75 50//72
f 48//75 37//74 41//76
f 41//76 46//77 48//75
f 46//77 41//76 51//78
f 51//78 45//79 46//77
f 52//80 13//24 53//81
f 53//81 54//82 52//80
f 54//82 53//81 55//83
f 55//83 56//84 54//82
f 2//35 14//34 40//85
f 40//85 47//86 2//35
f 47//86 40//85 39//87
f 39//87 49//88 47//86
f 14//25 51//89 41//62
f 51//89 14//25 13//24
f 52//80 51//89 13//24
f 44//65 57//90 58//91
f 58//91 42//63 44//65
f 42//92 58//93 55//94
f 55//94 53//95 42//92
f 3//96 42//92 53//95
f 53//95 13//97 3//96
f 44//98 43//99 52//100
f 52//100 54//101 44//98
f 57//102 44//98 54//101
f 54//101 56//103 57//102
f 43//99 45//79 51//78
f 51//78 52//100 43//99
f 56//84 55//83 59//104
f 56//84 59//104 60//105
f 56//84 60//105 61//105
f 58//91 57//90 62//106
f 58//91 62//106 63//107
f 58//91 63//107 64//108
f 64//109 63//110 65//111
f 65//111 66//112 64//109
f 67//113 65//111 63//110
f 63//110 62//114 67//113
f 67//113 62//114 57//102
f 57//102 68//115 67//113
f 69//116 68//115 56//103
f 56//103 61//117 69//116
f 70//118 69//116 61//117
f 61//117 60//119 70//118
f 71//120 70//118 60//119
f 60//119 59//121 71//120
f 71//120 59//121 55//94
f 55//94 72//122 71//120
f 73//123 74//124 69//116
f 69//116 70//118 73//123
f 73//123 70//118 71//120
f 73//123 71//120 72//122
f 74//124 75//125 68//115
f 68//115 69//116 74//124
f 68//115 75//125 76//126
f 76//126 67//113 68//115
f 77//127 78//128 66//112
f 77//127 66//112 65//111
f 76//126 77//127 65//111
f 65//111 67//113 76//126
f 79//129 76//126 75//125
f 79//129 77//127 76//126
f 79//129 73//123 77//127
f 78//128 77//127 73//123
f 73//123 72//122 78//128
f 79//129 74//124 73//123
f 79//129 75//125 74//124
f 64//109 66//112 78//128
f 78//128 58//93 64//109
f 55//94 58//93 78//128
f 78//128 72//122 55//94
f 57//102 56//103 68//115
f 80//130 81//131 82//132
f 83//133 82//132 81//131
f 81//131 7//134 83//133
f 84//135 83//133 7//134
f 80//130 85//136 81//131
f 7//134 81//131 85//136
f 85//136 12//137 7//134
f 84//135 7//134 12//137
f 84//135 12//137 86//138
f 87//139 86//138 12//137
f 12//137 85//136 87//139
f 80//130 87//139 85//136
f 80//130 88//140 87//139
f 86//138 87//139 88//140
f 88//140 10//141 86//138
f 84//135 86//138 10//141
f 84//135 10//141 6//142
f 89//143 6//142 10//141
f 10//141 88//140 89//143
f 80//130 89//143 88//140
f 80//130 82//132 89//143
f 6//142 89//143 82//132
f 82//132 83//133 6//142
f 84//135 6//142 83//133
f 90//144 91//144 17//41
f 17//41 22//41 90//144
f 92//145 93//145 31//47
f 31//47 30//47 92//145
f 17//146 30//146 29//146
f 29//146 18//146 17//146
f 31//146 22//146 26//146
f 26//146 35//146 31//146
f 91//146 90//146 93//146
f 93//146 92//147 91//146
f 30//148 17//148 91//149
f 91//149 92//149 30//148
f 31//150 93//150 90//150
f 90//150 22//150 31//150
f 38//59 94//151 95//152
f 38//59 95//152 96//153
f 38//59 96//153 39//60
f 49//70 97//154 98//155
f 49//70 98//155 99//156
f 49//70 99//156 50//71
f 97//157 100//158 101//159
f 101//159 98//160 97//157
f 102//161 99//162 98//160
f 98//160 101//159 102//161
f 102//161 103//163 50//72
f 50//72 99//162 102//161
f 104//164 94//165 38//73
f 38//73 103//163 104//164
f 105//166 95//167 94//165
f 94//165 104//164 105//166
f 106//168 96//169 95//167
f 95//167 105//166 106//168
f 106//168 107//170 39//87
f 39//87 96//169 106//168
f 108//171 105//166 104//164
f 104//164 109//172 108//171
f 108//171 106//168 105//166
f 108//171 107//170 106//168
f 109//172 104//164 103//163
f 103//163 110//173 109//172
f 103//163 102//161 111//174
f 111//174 110//173 103//163
f 112//175 100//158 113//176
f 112//175 101//159 100//158
f 111//174 102//161 101//159
f 101//159 112//175 111//174
f 114//177 110//173 111//174
f 114//177 111//174 112//175
f 114//177 112//175 108//171
f 113//176 107//170 108//171
f 108//171 112//175 113//176
f 114//177 108//171 109//172
f 114//177 109//172 110//173
f 97//157 49//88 113//176
f 113//176 100//158 97//157
f 39//87 107//170 113//176
f 113//176 49//88 39//87
f 50//72 103//163 38//73
f 115//178 116//179 117//180
f 117//180 118//181 115//178
f 119//182 115//178 118//181
f 118//181 120//183 119//182
f 116//179 119//182 120//183
f 120//183 117//180 116//179
f 116//179 115//178 121//184
f 121//184 122//185 116//179
f 115//178 119//182 123//186
f 123//186 121//184 115//178
f 119//182 116//179 122//185
f 122//185 123//186 119//182
f 122//185 121//184 124//187
f 124//187 125//188 122//185
f 121//184 123//186 126//189
f 126//189 124//187 121//184
f 123//186 122//185 125//188
f 125//188 126//189 123//186
f 125//188 124//187 127//190
f 127//190 128//191 125//188
f 124//187 126//189 129//192
f 129//192 127//190 124//187
f 126//189 125//188 128//191
f 128//191 129//192 126//189
f 128//191 127//190 130//193
f 130//193 131//194 128//191
f 127//190 129//192 132//195
f 132//195 130//193 127//190
f 129//192 128//191 131//194
f 131//194 132//195 129//192
f 131//194 130//193 133//196
f 133//196 134//197 131//194
f 130//193 132//195 135//198
f 135//198 133//196 130//193
f 132//195 131//194 134//197
f 134//197 135//198 132//195
f 134//197 133//196 136//199
f 136//199 137//200 134//197
f 133//196 135//198 138//201
f 138//201 136//199 133//196
f 135//198 134//197 137//200
f 137//200 138//201 135//198
f 139//202 140//203 137//200
f 137//200 136//199 139//202
f 141//204 139//202 136//199
f 136//199 138//201 141//204
f 140//203 141//204 138//201
f 138//201 137//200 140//203
f 142//205 143//206 140//203
f 140//203 139//202 142//205
f 144//207 142//205 139//202
f 139//202 141//204 144//207
f 143//206 144//207 141//204
f 141//204 140//203 143//206
f 145//208 146//209 143//206
f 143//206 142//205 145//208
f 147//210 145//208 142//205
f 142//205 144//207 147//210
f 146//209 147//210 144//207
f 144//207 143//206 146//209
f 148//211 149//212 146//209
f 146//209 145//208 148//211
f 150//213 148//211 145//208
f 145//208 147//210 150//213
f 149//212 150//213 147//210
f 147//210 146//209 149//212
f 151//214 152//215 149//212
f 149//212 148//211 151//214
f 153//216 151//214 148//211
f 148//211 150//213 153//216
f 152//215 153//216 150//213
f 150//213 149//212 152//215
f 154//217 155//218 152//215
f 152//215 151//214 154//217
f 156//219 154//217 151//214
f 151//214 153//216 156//219
f 155//218 156//219 153//216
f 153//216 152//215 155//218
f 157//220 158//221 155//218
f 155//218 154//217 157//220
f 159//222 157//220 154//217
f 154//217 156//219 159//222
f 158//221 159//222 156//219
f 156//219 155//218 158//221
f 160//223 161//224 158//221
f 158//221 157//220 160//223
f 162//225 160//223 157//220
f 157//220 159//222 162//225
f 161//224 162//225 159//222
f 159//222 158//221 161//224
f 163//226 164//227 161//224
f 161//224 160//223 163//226
f 165//228 163//226 160//223
f 160//223 162//225 165//228
f 164//227 165//228 162//225
f 162//225 161//224 164//227
f 166//229 167//230 164//227
f 164//227 163//226 166//229
f 168//231 166//229 163//226
f 163//226 165//228 168//231
f 167//230 168//231 165//228
f 165//228 164//227 167//230
