# Blender v2.90.1 OBJ File: ''
# www.blender.org
v 0.148961 33.960861 6.503351
v 2.286363 33.210342 4.950457
v -0.667437 33.210346 3.990693
v 3.785352 31.182938 3.861390
v 4.423777 31.577511 6.503351
v -2.493023 33.210331 6.503351
v -0.667437 33.210346 9.016009
v 2.286363 33.210342 8.056247
v 4.928374 28.935497 4.950450
v -1.239989 31.182941 2.228529
v 1.469973 31.577522 2.437773
v 0.148961 28.935497 1.477986
v -4.345857 31.182919 6.503351
v -3.309442 31.577515 3.990684
v -4.630452 28.935497 4.950450
v -1.239989 31.182940 10.778173
v -3.309442 31.577515 9.016018
v -2.804876 28.935497 10.568954
v 3.785352 31.182938 9.145313
v 1.469973 31.577520 10.568930
v 3.102798 28.935497 10.568954
v 3.102798 28.935497 2.437747
v -2.804876 28.935497 2.437747
v -4.630452 28.935497 8.056252
v 0.148961 28.935497 11.528716
v 4.928374 28.935497 8.056252
v 1.537911 26.688055 2.228529
v 3.607364 26.293480 3.990684
v 0.965359 24.660648 3.990693
v -3.487430 26.688057 3.861390
v -1.172051 26.293474 2.437773
v -1.988441 24.660650 4.950456
v -3.487430 26.688057 9.145313
v -4.125854 26.293484 6.503351
v -1.988441 24.660650 8.056246
v 1.537911 26.688053 10.778173
v -1.172051 26.293472 10.568930
v 0.965359 24.660648 9.016008
v 4.643779 26.688076 6.503351
v 3.607364 26.293480 9.016018
v 2.790945 24.660664 6.503351
v 0.148961 23.910133 6.503351
v 0.708444 33.921059 6.211082
v 0.796508 33.003010 3.624061
v -1.813773 33.391930 5.261517
v 0.691152 30.869999 1.897048
v 3.159451 31.060450 3.086361
v -1.053912 33.483105 8.271585
v 2.026019 33.150551 8.494399
v 3.169610 32.853828 5.622076
v 1.999391 28.455387 1.855804
v -3.749756 31.531677 4.682871
v -1.823953 31.598562 2.725787
v -3.690868 29.176882 3.270437
v -2.456975 31.686790 9.803924
v -3.674376 32.078667 7.373343
v -4.074580 29.564789 9.152875
v 2.782938 31.121010 10.183023
v 0.165429 31.837282 10.606237
v 1.378488 29.083036 11.373751
v 4.728543 30.616196 5.296298
v 4.388981 31.207996 7.956718
v 5.132406 28.397388 6.863916
v -1.080566 28.787958 1.632952
v -4.834484 29.473606 6.142786
v -1.701469 29.415607 11.150898
v 3.988790 28.694113 9.736266
v 4.372502 28.306206 3.853827
v -2.485017 26.749987 2.823679
v 0.132493 26.033712 2.400465
v -1.728097 24.720444 4.512303
v -4.430621 27.254799 7.710404
v -4.091059 26.662998 5.049984
v -2.871687 25.017164 7.384626
v -0.393230 27.000996 11.109653
v -2.861528 26.810545 9.920341
v -0.498586 24.867985 9.382641
v 4.047678 26.339317 8.323831
v 2.121875 26.272432 10.280915
v 2.111695 24.479063 7.745187
v 2.754897 26.184204 3.202779
v 3.972299 25.792330 5.633360
v 1.351833 24.387890 4.735118
v -0.410522 23.949932 6.795621
vn 0.1024 0.9435 -0.3151
vn 0.7002 0.6617 -0.2680
vn -0.2680 0.9435 -0.1947
vn -0.2680 0.9435 0.1947
vn 0.1024 0.9435 0.3151
vn 0.9050 0.3304 -0.2680
vn 0.0247 0.3304 -0.9435
vn -0.8897 0.3304 -0.3151
vn -0.5746 0.3304 0.7488
vn 0.5346 0.3304 0.7779
vn 0.8026 0.1256 -0.5831
vn -0.3066 0.1256 -0.9435
vn -0.9921 0.1256 0.0000
vn -0.3066 0.1256 0.9435
vn 0.8026 0.1256 0.5831
vn 0.4089 -0.6617 -0.6284
vn -0.4713 -0.6617 -0.5831
vn -0.7002 -0.6617 0.2680
vn 0.0385 -0.6617 0.7488
vn 0.7240 -0.6617 0.1947
vn 0.2680 -0.9435 0.1947
vn 0.4911 -0.7947 0.3568
vn 0.4089 -0.6617 0.6284
vn -0.1024 -0.9435 0.3151
vn -0.1876 -0.7947 0.5773
vn -0.4713 -0.6617 0.5831
vn -0.3313 -0.9435 0.0000
vn -0.6071 -0.7947 0.0000
vn -0.7002 -0.6617 -0.2680
vn -0.1024 -0.9435 -0.3151
vn -0.1876 -0.7947 -0.5773
vn 0.0385 -0.6617 -0.7488
vn 0.2680 -0.9435 -0.1947
vn 0.4911 -0.7947 -0.3568
vn 0.7240 -0.6617 -0.1947
vn 0.8897 -0.3304 0.3151
vn 0.7947 -0.1876 0.5773
vn 0.5746 -0.3304 0.7488
vn -0.0247 -0.3304 0.9435
vn -0.3035 -0.1876 0.9342
vn -0.5346 -0.3304 0.7779
vn -0.9050 -0.3304 0.2680
vn -0.9822 -0.1876 0.0000
vn -0.9050 -0.3304 -0.2680
vn -0.5346 -0.3304 -0.7779
vn -0.3035 -0.1876 -0.9342
vn -0.0247 -0.3304 -0.9435
vn 0.5746 -0.3304 -0.7488
vn 0.7947 -0.1876 -0.5773
vn 0.8897 -0.3304 -0.3151
vn 0.3066 -0.1256 0.9435
vn 0.3035 0.1876 0.9342
vn 0.0247 0.3304 0.9435
vn -0.8026 -0.1256 0.5831
vn -0.7947 0.1876 0.5773
vn -0.8897 0.3304 0.3151
vn -0.8026 -0.1256 -0.5831
vn -0.7947 0.1876 -0.5773
vn -0.5746 0.3304 -0.7488
vn 0.3066 -0.1256 -0.9435
vn 0.3035 0.1876 -0.9342
vn 0.5346 0.3304 -0.7779
vn 0.9921 -0.1256 0.0000
vn 0.9822 0.1876 0.0000
vn 0.9050 0.3304 0.2680
vn 0.4713 0.6617 0.5831
vn 0.1876 0.7947 0.5773
vn -0.0385 0.6617 0.7488
vn -0.4089 0.6617 0.6284
vn -0.4911 0.7947 0.3568
vn -0.7240 0.6617 0.1947
vn -0.7240 0.6617 -0.1947
vn -0.4911 0.7947 -0.3568
vn -0.4089 0.6617 -0.6284
vn 0.7002 0.6617 0.2680
vn 0.6071 0.7947 0.0000
vn 0.3313 0.9435 0.0000
vn -0.0385 0.6617 -0.7488
vn 0.1876 0.7947 -0.5773
vn 0.4713 0.6617 -0.5831
vn -0.0707 0.9393 -0.3357
vn 0.3138 0.5881 -0.7455
vn -0.2141 0.9765 0.0245
vn 0.0835 0.9578 0.2750
vn 0.4109 0.9090 0.0697
vn 0.4070 0.2356 -0.8825
vn -0.6684 0.3702 -0.6451
vn -0.7693 0.4462 0.4573
vn 0.2438 0.3585 0.9011
vn 0.9708 0.2284 0.0731
vn 0.0784 0.0595 -0.9951
vn -0.9018 0.2055 -0.3803
vn -0.6164 0.2398 0.7500
vn 0.5401 0.1149 0.8337
vn 0.9695 0.0035 -0.2449
vn -0.2940 -0.6737 -0.6780
vn -0.8187 -0.5737 0.0231
vn -0.3138 -0.5881 0.7455
vn 0.5229 -0.6969 0.4908
vn 0.5352 -0.7498 -0.3890
vn 0.2141 -0.9765 -0.0245
vn 0.4962 -0.8625 -0.0991
vn 0.6664 -0.7341 0.1306
vn 0.0707 -0.9393 0.3357
vn 0.2335 -0.7943 0.5608
vn 0.0724 -0.6298 0.7734
vn -0.3156 -0.8976 0.3078
vn -0.4742 -0.7179 0.5096
vn -0.7234 -0.5623 0.4006
vn -0.4109 -0.9090 -0.0697
vn -0.6488 -0.7389 -0.1820
vn -0.6213 -0.6250 -0.4726
vn -0.0835 -0.9578 -0.2750
vn -0.0490 -0.8282 -0.5582
vn 0.2376 -0.7311 -0.6395
vn 0.7693 -0.4462 -0.4573
vn 0.9252 -0.3061 -0.2243
vn 0.9005 -0.4304 0.0623
vn 0.6684 -0.3702 0.6451
vn 0.5000 -0.1958 0.8436
vn 0.2179 -0.3031 0.9277
vn -0.4070 -0.2356 0.8825
vn -0.6450 -0.0721 0.7607
vn -0.8166 -0.2099 0.5376
vn -0.9708 -0.2284 -0.0731
vn -0.9275 -0.1060 -0.3583
vn -0.7734 -0.2796 -0.5689
vn -0.2438 -0.3585 -0.9011
vn 0.0429 -0.2506 -0.9671
vn 0.2878 -0.4159 -0.8627
vn 0.9018 -0.2055 0.3803
vn 0.9275 0.1060 0.3583
vn 0.7734 0.2796 0.5689
vn -0.0784 -0.0595 0.9951
vn -0.0429 0.2506 0.9671
vn -0.2878 0.4159 0.8627
vn -0.9695 -0.0035 0.2449
vn -0.9252 0.3061 0.2243
vn -0.9005 0.4304 -0.0623
vn -0.5401 -0.1149 -0.8337
vn -0.5000 0.1958 -0.8436
vn -0.2179 0.3031 -0.9277
vn 0.6164 -0.2398 -0.7500
vn 0.6450 0.0721 -0.7607
vn 0.8166 0.2099 -0.5376
vn 0.8187 0.5737 -0.0231
vn 0.6488 0.7389 0.1820
vn 0.6213 0.6250 0.4726
vn 0.2940 0.6737 0.6780
vn 0.0490 0.8282 0.5582
vn -0.2376 0.7311 0.6395
vn -0.5352 0.7498 0.3890
vn -0.4962 0.8625 0.0991
vn -0.6664 0.7341 -0.1306
vn 0.7234 0.5623 -0.4006
vn 0.4742 0.7179 -0.5096
vn 0.3156 0.8976 -0.3078
vn -0.5229 0.6969 -0.4908
vn -0.2335 0.7943 -0.5608
vn -0.0724 0.6298 -0.7734
s 1
f 1//1 2//1 3//1
f 4//2 2//2 5//2
f 1//3 3//3 6//3
f 1//4 6//4 7//4
f 1//5 7//5 8//5
f 4//6 5//6 9//6
f 10//7 11//7 12//7
f 13//8 14//8 15//8
f 16//9 17//9 18//9
f 19//10 20//10 21//10
f 4//11 9//11 22//11
f 10//12 12//12 23//12
f 13//13 15//13 24//13
f 16//14 18//14 25//14
f 19//15 21//15 26//15
f 27//16 28//16 29//16
f 30//17 31//17 32//17
f 33//18 34//18 35//18
f 36//19 37//19 38//19
f 39//20 40//20 41//20
f 41//21 38//21 42//21
f 41//22 40//22 38//22
f 40//23 36//23 38//23
f 38//24 35//24 42//24
f 38//25 37//25 35//25
f 37//26 33//26 35//26
f 35//27 32//27 42//27
f 35//28 34//28 32//28
f 34//29 30//29 32//29
f 32//30 29//30 42//30
f 32//31 31//31 29//31
f 31//32 27//32 29//32
f 29//33 41//33 42//33
f 29//34 28//34 41//34
f 28//35 39//35 41//35
f 26//36 40//36 39//36
f 26//37 21//37 40//37
f 21//38 36//38 40//38
f 25//39 37//39 36//39
f 25//40 18//40 37//40
f 18//41 33//41 37//41
f 24//42 34//42 33//42
f 24//43 15//43 34//43
f 15//44 30//44 34//44
f 23//45 31//45 30//45
f 23//46 12//46 31//46
f 12//47 27//47 31//47
f 22//48 28//48 27//48
f 22//49 9//49 28//49
f 9//50 39//50 28//50
f 21//51 25//51 36//51
f 21//52 20//52 25//52
f 20//53 16//53 25//53
f 18//54 24//54 33//54
f 18//55 17//55 24//55
f 17//56 13//56 24//56
f 15//57 23//57 30//57
f 15//58 14//58 23//58
f 14//59 10//59 23//59
f 12//60 22//60 27//60
f 12//61 11//61 22//61
f 11//62 4//62 22//62
f 9//63 26//63 39//63
f 9//64 5//64 26//64
f 5//65 19//65 26//65
f 8//66 20//66 19//66
f 8//67 7//67 20//67
f 7//68 16//68 20//68
f 7//69 17//69 16//69
f 7//70 6//70 17//70
f 6//71 13//71 17//71
f 6//72 14//72 13//72
f 6//73 3//73 14//73
f 3//74 10//74 14//74
f 5//75 8//75 19//75
f 5//76 2//76 8//76
f 2//77 1//77 8//77
f 3//78 11//78 10//78
f 3//79 2//79 11//79
f 2//80 4//80 11//80
f 43//81 44//81 45//81
f 46//82 44//82 47//82
f 43//83 45//83 48//83
f 43//84 48//84 49//84
f 43//85 49//85 50//85
f 46//86 47//86 51//86
f 52//87 53//87 54//87
f 55//88 56//88 57//88
f 58//89 59//89 60//89
f 61//90 62//90 63//90
f 46//91 51//91 64//91
f 52//92 54//92 65//92
f 55//93 57//93 66//93
f 58//94 60//94 67//94
f 61//95 63//95 68//95
f 69//96 70//96 71//96
f 72//97 73//97 74//97
f 75//98 76//98 77//98
f 78//99 79//99 80//99
f 81//100 82//100 83//100
f 83//101 80//101 84//101
f 83//102 82//102 80//102
f 82//103 78//103 80//103
f 80//104 77//104 84//104
f 80//105 79//105 77//105
f 79//106 75//106 77//106
f 77//107 74//107 84//107
f 77//108 76//108 74//108
f 76//109 72//109 74//109
f 74//110 71//110 84//110
f 74//111 73//111 71//111
f 73//112 69//112 71//112
f 71//113 83//113 84//113
f 71//114 70//114 83//114
f 70//115 81//115 83//115
f 68//116 82//116 81//116
f 68//117 63//117 82//117
f 63//118 78//118 82//118
f 67//119 79//119 78//119
f 67//120 60//120 79//120
f 60//121 75//121 79//121
f 66//122 76//122 75//122
f 66//123 57//123 76//123
f 57//124 72//124 76//124
f 65//125 73//125 72//125
f 65//126 54//126 73//126
f 54//127 69//127 73//127
f 64//128 70//128 69//128
f 64//129 51//129 70//129
f 51//130 81//130 70//130
f 63//131 67//131 78//131
f 63//132 62//132 67//132
f 62//133 58//133 67//133
f 60//134 66//134 75//134
f 60//135 59//135 66//135
f 59//136 55//136 66//136
f 57//137 65//137 72//137
f 57//138 56//138 65//138
f 56//139 52//139 65//139
f 54//140 64//140 69//140
f 54//141 53//141 64//141
f 53//142 46//142 64//142
f 51//143 68//143 81//143
f 51//144 47//144 68//144
f 47//145 61//145 68//145
f 50//146 62//146 61//146
f 50//147 49//147 62//147
f 49//148 58//148 62//148
f 49//149 59//149 58//149
f 49//150 48//150 59//150
f 48//151 55//151 59//151
f 48//152 56//152 55//152
f 48//153 45//153 56//153
f 45//154 52//154 56//154
f 47//155 50//155 61//155
f 47//156 44//156 50//156
f 44//157 43//157 50//157
f 45//158 53//158 52//158
f 45//159 44//159 53//159
f 44//160 46//160 53//160
