# Blender v2.90.1 OBJ File: ''
# www.blender.org
v 0.509753 4.323421 4.325939
v 0.072049 3.967166 4.553315
v 0.499961 3.967634 4.308171
v 0.337858 4.009687 3.842576
v 0.097897 4.361516 4.864556
v 0.494443 3.845597 3.916585
v 0.322216 3.680503 3.914937
v 0.165630 3.844594 3.840928
v 0.450812 4.084371 3.145183
v 0.595106 4.078675 3.179801
v 0.445418 3.888359 3.135394
v 0.589709 3.882658 3.170011
v 0.583331 3.996693 2.991519
v 0.339470 3.859252 4.537422
v 0.380646 3.778132 4.774295
v 0.125482 3.805080 5.842301
v 0.165105 3.896688 4.693116
v 0.389812 3.829123 4.744485
v -0.230482 3.937838 5.777788
v 0.126367 4.359173 4.930728
v -0.173254 4.278130 5.826075
v 0.352687 4.350233 4.985025
v 0.033382 3.907205 4.751733
v 0.769006 3.939635 4.720525
v 0.866308 4.280667 3.980911
v 0.634452 4.340319 4.993283
v 0.691142 4.126272 3.931902
v 0.843146 3.944658 3.960767
v 1.018312 4.099054 4.009775
v 1.101186 4.339994 3.250556
v 0.956894 4.345693 3.215939
v 1.109482 4.154935 3.185507
v 0.965188 4.160632 3.150889
v 1.052531 4.316000 3.036270
v 0.530591 3.851704 4.583274
v 0.617745 3.878807 4.801710
v 0.427665 3.936750 5.964019
v 0.579008 4.341293 5.039322
v 0.433502 4.254164 5.971644
v 0.708991 3.880516 4.913820
v 0.108565 4.158099 5.970933
vn 0.4963 -0.0569 0.8663
vn -0.0778 0.8005 -0.5942
vn -0.7358 0.5960 -0.3215
vn 0.0241 0.8790 -0.4761
vn 0.9591 -0.2610 -0.1100
vn 0.8082 -0.5260 0.2647
vn -0.0840 -0.9638 0.2531
vn -0.9851 -0.1721 -0.0018
vn -0.9735 -0.0366 -0.2258
vn -0.0635 0.9819 0.1787
vn -0.6154 0.7752 -0.1426
vn -0.9394 -0.1896 -0.2857
vn 0.6718 0.7171 0.1856
vn -0.6521 -0.6322 -0.4185
vn 0.0333 -0.9840 -0.1748
vn 0.7269 -0.6836 -0.0659
vn 0.9596 -0.1796 0.2166
vn 0.9984 -0.0249 -0.0516
vn 0.0961 -0.8372 -0.5383
vn 0.1324 0.9057 -0.4027
vn -0.7408 0.0538 -0.6696
vn -0.3755 -0.8949 -0.2412
vn -0.3335 -0.7405 -0.5835
vn -0.0323 -0.9990 -0.0297
vn -0.2689 -0.9594 -0.0857
vn -0.9337 0.0987 -0.3443
vn 0.0164 0.9953 0.0956
vn -0.8235 -0.4784 -0.3050
vn -0.9753 0.1727 -0.1379
vn -0.8584 -0.4201 -0.2943
vn -0.3100 -0.8917 -0.3299
vn -0.8376 -0.0042 0.5462
vn 0.2691 0.9448 -0.1869
vn -0.3649 0.8833 -0.2944
vn 0.7915 0.5635 0.2364
vn -0.7531 0.0522 -0.6558
vn -0.5821 -0.7494 -0.3155
vn 0.0753 -0.9718 -0.2236
vn 0.8914 -0.3315 0.3091
vn 0.9815 -0.0801 0.1740
vn 0.0489 0.9820 0.1827
vn 0.9723 -0.1337 0.1918
vn 0.7263 0.6697 0.1550
vn -0.6796 0.7151 -0.1635
vn 0.6728 -0.7328 -0.1021
vn -0.0298 -0.9820 -0.1863
vn -0.6173 -0.6818 -0.3925
vn -0.9727 0.0225 -0.2310
vn -0.8660 0.1308 -0.4826
vn 0.1549 -0.6414 -0.7514
vn 0.0694 0.9895 -0.1266
vn 0.9644 0.1251 -0.2330
vn 0.2494 -0.9531 -0.1713
vn 0.3761 -0.9246 -0.0609
vn 0.2063 -0.9565 -0.2065
vn 0.5054 -0.7736 -0.3823
vn 0.3427 -0.8514 -0.3970
vn 0.2708 -0.8759 -0.3993
vn 0.2061 -0.9781 0.0282
vn 0.9869 -0.0003 0.1614
vn 0.8340 -0.5439 0.0926
vn 0.8646 -0.4882 0.1191
vn 0.9417 0.0970 0.3221
vn 0.3583 -0.9181 -0.1695
vn 0.0581 -0.9176 -0.3932
vn 0.0420 -0.9430 -0.3302
vn 0.6795 -0.4815 0.5536
vn -0.3344 -0.9385 -0.0863
vn -0.9346 0.1990 -0.2948
vn 0.2689 0.9307 0.2480
vn -0.0067 0.9818 0.1897
vn -0.8903 -0.4195 0.1770
vn 0.3613 -0.9265 0.1053
vn 0.9881 -0.0218 0.1522
vn -0.2818 0.9524 0.1158
s 1
f 1//1 2//1 3//1
f 4//2 5//3 1//4
f 4//2 1//4 6//5
f 1//4 3//6 6//5
f 6//5 3//6 7//7
f 3//6 2//8 7//7
f 7//7 2//8 8//9
f 4//2 8//9 5//3
f 5//3 8//9 2//8
f 4//10 9//11 8//12
f 9//11 4//10 10//13
f 9//11 11//14 8//12
f 8//12 11//14 7//15
f 11//14 12//16 7//15
f 7//15 12//16 6//17
f 4//10 6//17 10//13
f 12//16 10//13 6//17
f 12//18 13//18 10//18
f 12//19 11//19 13//19
f 9//20 10//20 13//20
f 11//21 9//21 13//21
f 14//22 15//22 2//22
f 2//23 3//23 14//23
f 16//24 17//25 18//24
f 19//26 20//26 17//26
f 21//27 22//27 20//27
f 23//28 5//29 2//30
f 15//31 23//28 2//30
f 1//32 3//32 24//32
f 25//33 1//34 26//35
f 25//33 27//36 1//34
f 1//34 27//36 3//37
f 27//36 28//38 3//37
f 3//37 28//38 24//39
f 28//38 29//40 24//39
f 25//33 26//35 29//40
f 26//35 24//39 29//40
f 25//41 29//42 30//43
f 30//43 31//44 25//41
f 30//43 29//42 32//45
f 29//42 28//46 32//45
f 32//45 28//46 33//47
f 28//46 27//48 33//47
f 25//41 31//44 27//48
f 33//47 27//48 31//44
f 33//49 31//49 34//49
f 33//50 34//50 32//50
f 30//51 34//51 31//51
f 32//52 34//52 30//52
f 35//53 24//54 15//55
f 24//56 35//57 3//58
f 16//24 18//24 36//59
f 37//60 36//60 38//60
f 39//27 38//27 22//27
f 40//61 24//62 26//63
f 15//64 24//62 40//61
f 14//65 3//58 35//57
f 15//55 14//66 35//53
f 1//67 5//67 2//67
f 16//68 19//68 17//68
f 19//69 21//69 20//69
f 21//70 41//71 22//71
f 1//72 24//72 26//72
f 16//73 36//73 37//73
f 37//74 38//74 39//74
f 39//75 22//71 41//71
