# Blender v2.90.1 OBJ File: ''
# www.blender.org
v 0.231960 3.851408 6.068451
v 0.247221 3.882131 6.192814
v 0.228382 3.796435 6.068614
v 0.228755 4.033074 6.081766
v 0.180533 4.110462 6.257592
v 0.122713 4.202641 6.207157
v -0.023229 4.225677 6.150198
v 0.134543 4.132831 6.030763
v 0.077770 4.164966 6.393292
v 0.046270 3.920555 6.470767
v 0.168189 3.894808 6.397725
v 0.078589 3.794708 6.377757
v 0.106017 3.820873 6.280562
v 0.080771 3.781446 6.315710
v 0.151344 3.699687 6.233324
v 0.201513 3.889866 6.307162
v 0.161079 3.754359 6.198181
v 0.122662 3.721941 6.190929
v 0.220477 3.790855 6.157197
v 0.185561 3.746591 6.156126
v 0.174441 3.748238 6.140032
v 0.179125 3.741607 6.133399
v 0.170906 3.747938 6.165289
v 0.182384 3.749007 6.109038
v 0.208420 3.761356 6.086853
v -0.082561 4.254952 6.279591
v -0.107047 4.186925 6.399587
v -0.202361 4.075093 6.285178
v 0.189661 4.118121 5.900177
v 0.003711 4.090857 5.980269
v 0.058830 4.076147 5.849684
v 0.022212 3.934420 5.850193
v 0.122816 3.832956 5.886047
v 0.066503 3.798326 6.004595
v 0.096718 3.754195 6.017797
v -0.035048 3.791572 6.083874
v -0.032907 3.949129 5.980779
v -0.152164 4.003724 6.129189
v -0.133759 4.120358 6.108172
v -0.106034 3.871693 6.411986
v -0.120655 3.802139 6.286248
v -0.003496 3.768373 6.346076
v 0.026634 3.795404 6.249925
v 0.090789 3.680260 6.209952
v 0.040259 3.768448 6.300075
v -0.082199 3.798844 6.197665
v 0.078612 3.727902 6.166354
v 0.058412 3.738860 6.094648
v 0.109624 3.727443 6.115016
v 0.093898 3.717181 6.120750
v 0.114308 3.720811 6.108384
v 0.096312 3.724006 6.136500
v 0.123590 3.730145 6.086348
v 0.115381 3.731508 6.050945
v -0.158475 4.033829 6.413091
v -0.006173 4.082691 6.471870
v 0.253649 3.874929 5.936542
v -0.048456 3.723316 6.399418
v 0.174803 3.975595 6.419157
v -0.144901 3.798017 6.307848
v 0.094431 3.792994 6.457633
vn 0.9923 -0.0649 -0.1057
vn 0.9914 0.0269 -0.1283
vn 0.9026 0.4303 0.0140
vn 0.8987 0.4351 0.0550
vn 0.9589 0.2348 0.1596
vn 0.6104 0.7643 -0.2080
vn 0.2740 0.9004 -0.3380
vn 0.6104 0.7643 -0.2079
vn 0.6202 0.7427 -0.2524
vn 0.7253 0.6194 0.3005
vn 0.5339 0.1922 0.8234
vn 0.8160 0.2814 0.5049
vn 0.3701 -0.4888 0.7900
vn 0.7830 0.0512 0.6199
vn 0.9234 0.1656 0.3463
vn 0.9245 0.1651 0.3437
vn 0.9193 0.1675 0.3561
vn 0.9288 0.1631 0.3329
vn 0.5584 -0.5166 -0.6490
vn 0.8726 0.1445 0.4665
vn 0.7866 -0.1028 0.6088
vn 0.7223 -0.2158 0.6570
vn 0.5245 -0.8176 0.2376
vn 0.5202 -0.8165 0.2503
vn 0.5203 -0.8166 0.2499
vn 0.6012 -0.3757 0.7052
vn 0.6764 -0.5210 -0.5206
vn 0.2569 -0.5867 0.7680
vn 0.4636 -0.3850 0.7980
vn 0.7825 -0.6171 -0.0828
vn 0.6229 -0.7116 0.3250
vn 0.6484 -0.6871 0.3279
vn 0.6036 -0.7291 0.3227
vn 0.6767 -0.4312 0.5968
vn 0.9504 -0.3041 0.0657
vn 0.8787 -0.4748 0.0485
vn 0.5713 -0.7872 0.2322
vn 0.5754 -0.7532 0.3189
vn 0.2027 0.9710 -0.1267
vn -0.1858 0.9366 -0.2971
vn 0.3242 0.9089 0.2622
vn -0.8214 0.5516 0.1451
vn -0.8324 0.5541 -0.0089
vn -0.8317 0.5522 -0.0578
vn 0.1187 0.8532 0.5079
vn -0.2272 0.9524 -0.2032
vn -0.4667 0.6640 -0.5842
vn -0.1365 0.9064 -0.3999
vn -0.6436 0.6815 -0.3484
vn -0.8876 0.2279 -0.4003
vn -0.5424 -0.7013 -0.4625
vn -0.1093 -0.9390 -0.3262
vn 0.0364 -0.9638 -0.2643
vn -0.1718 -0.3885 -0.9053
vn 0.0903 -0.2282 -0.9694
vn -0.4946 -0.5421 -0.6794
vn -0.5271 -0.4603 -0.7144
vn -0.7686 -0.1059 -0.6309
vn -0.7918 -0.3269 -0.5160
vn -0.7940 -0.1079 -0.5983
vn -0.6283 0.3669 -0.6860
vn -0.2587 0.7363 -0.6252
vn -0.9362 0.0863 -0.3408
vn -0.9253 -0.2760 0.2602
vn -0.9432 -0.2830 -0.1740
vn -0.4577 -0.7544 0.4705
vn -0.2396 -0.6799 0.6931
vn -0.2593 -0.6890 0.6768
vn -0.8764 -0.4812 -0.0205
vn -0.2529 -0.7586 0.6005
vn -0.5055 -0.7411 0.4418
vn -0.8503 -0.4034 -0.3382
vn -0.8548 -0.4017 -0.3285
vn -0.8490 -0.4038 -0.3408
vn -0.8439 -0.4056 -0.3513
vn 0.3312 -0.5895 -0.7367
vn 0.3900 -0.6121 -0.6879
vn 0.3928 -0.6132 -0.6854
vn -0.8832 -0.4188 -0.2110
vn -0.7261 -0.6805 0.0980
vn -0.7927 -0.6096 -0.0007
vn -0.0409 -0.9990 0.0194
vn -0.0465 -0.9984 0.0312
vn -0.0467 -0.9984 0.0315
vn -0.6015 -0.7616 0.2410
vn 0.1517 -0.6491 -0.7454
vn 0.3423 -0.8000 -0.4929
vn 0.2308 -0.7197 -0.6548
vn -0.2255 -0.7639 0.6046
vn -0.3752 -0.7744 0.5094
vn -0.1790 -0.7560 0.6296
vn -0.1114 -0.9829 0.1468
vn -0.6693 -0.6388 0.3794
vn -0.4357 -0.7996 0.4132
vn 0.0897 -0.9301 -0.3562
vn -0.1741 -0.8782 -0.4454
vn 0.1613 -0.9313 -0.3266
vn -0.2098 -0.9777 0.0032
vn -0.3077 -0.9497 -0.0584
vn -0.4917 -0.8707 0.0055
vn -0.4222 -0.8253 -0.3751
vn 0.0900 -0.7975 -0.5965
vn -0.3873 -0.8478 -0.3622
vn 0.0552 -0.8092 -0.5849
vn 0.1535 -0.9854 -0.0735
vn -0.1334 -0.9910 -0.0072
vn 0.0428 -0.9979 -0.0483
vn 0.2292 -0.9621 -0.1475
vn -0.5407 0.7325 -0.4137
vn -0.8213 0.5414 -0.1798
vn -0.8581 0.3234 0.3988
vn 0.1012 0.6312 0.7690
vn 0.4471 -0.6312 -0.6338
vn -0.0338 -0.7237 0.6892
vn 0.2237 -0.9515 0.2113
vn -0.1081 -0.6087 0.7860
vn -0.3263 -0.1119 0.9386
vn -0.4111 0.2162 0.8856
vn 0.3419 -0.9332 -0.1102
vn 0.2192 -0.9501 0.2219
vn 0.1495 -0.9154 0.3737
vn 0.4099 -0.8343 -0.3686
vn -0.0368 -0.7196 0.6934
vn 0.3748 -0.8998 -0.2232
vn 0.3436 -0.9320 -0.1155
vn 0.4482 -0.5997 -0.6629
vn 0.3674 -0.0266 -0.9297
vn 0.3674 -0.0267 -0.9297
vn -0.2981 -0.1948 0.9344
vn 0.4430 0.3403 0.8295
vn -0.9473 -0.1745 0.2687
vn -0.8239 -0.2699 0.4984
vn 0.3330 0.1013 0.9375
vn -0.7729 -0.3450 0.5326
vn 0.3579 0.0391 0.9329
vn 0.5726 0.1798 0.7999
vn 0.8830 -0.4517 0.1276
vn 0.7419 -0.6699 0.0290
vn 0.5163 -0.8155 0.2615
vn -0.7844 -0.5594 -0.2681
vn -0.9275 -0.3015 0.2210
vn -0.0916 -0.9918 -0.0887
vn -0.0950 -0.9912 -0.0920
vn -0.3748 -0.8553 -0.3579
vn -0.1179 -0.9457 -0.3028
vn -0.0518 -0.9978 0.0423
vn 0.2237 -0.9515 0.2112
s 1
f 1//1 2//1 3//1
f 4//2 2//2 1//2
f 4//3 5//4 2//5
f 6//6 5//4 4//3
f 7//7 6//8 8//9
f 4//3 8//9 6//6
f 5//10 6//10 9//10
f 10//11 11//11 9//11
f 9//12 11//12 5//12
f 11//13 10//13 12//13
f 13//14 14//14 15//14
f 5//15 16//16 2//17
f 5//15 11//18 16//16
f 17//19 15//19 18//19
f 15//20 17//21 13//22
f 11//23 13//24 16//25
f 2//26 13//22 17//21
f 19//27 20//27 21//27
f 21//28 22//28 19//28
f 23//29 20//29 19//29
f 22//30 24//30 19//30
f 23//31 19//32 17//33
f 17//34 19//34 2//34
f 2//35 19//35 3//35
f 25//36 3//36 19//36
f 24//37 25//37 19//37
f 17//33 18//38 23//31
f 6//39 7//40 26//40
f 6//41 26//41 9//41
f 27//42 26//43 28//44
f 26//45 27//45 9//45
f 29//46 30//47 8//48
f 30//47 31//49 32//50
f 32//51 33//52 34//53
f 34//54 35//55 36//56
f 37//57 34//57 36//57
f 37//58 36//59 38//60
f 39//61 37//58 38//60
f 7//62 30//47 39//61
f 37//58 39//61 30//47
f 38//63 28//63 39//63
f 40//64 28//64 41//64
f 28//65 38//65 41//65
f 41//66 42//67 40//68
f 43//69 44//70 45//71
f 38//72 36//73 46//74
f 38//72 46//74 41//75
f 47//76 18//77 44//78
f 44//79 43//80 47//81
f 41//82 46//83 43//84
f 36//85 47//81 43//80
f 48//86 49//87 50//88
f 49//89 48//90 51//91
f 52//92 48//93 50//94
f 51//95 48//96 53//97
f 52//92 47//98 48//99
f 47//100 36//100 48//100
f 36//101 35//101 48//101
f 54//102 48//103 35//104
f 53//105 48//106 54//107
f 47//98 52//92 18//108
f 39//109 26//40 7//40
f 39//110 28//44 26//43
f 28//111 55//111 27//111
f 56//112 9//112 27//112
f 7//62 8//48 30//47
f 18//77 15//113 44//78
f 44//70 15//114 14//114
f 14//115 12//115 42//115
f 12//116 10//116 40//68
f 40//117 10//117 56//117
f 56//118 27//118 55//118
f 34//53 57//119 1//119
f 23//120 18//108 52//92
f 52//92 20//121 23//120
f 50//88 21//122 20//122
f 49//89 22//123 21//123
f 51//95 24//124 22//124
f 24//125 54//125 25//125
f 54//102 3//126 25//126
f 35//55 1//127 3//128
f 40//129 58//129 10//129
f 59//130 9//130 56//130
f 55//131 28//131 60//131
f 55//132 60//132 40//132
f 10//133 59//133 56//133
f 60//134 58//134 40//134
f 59//135 10//135 61//135
f 10//136 9//136 56//136
f 14//137 13//137 12//137
f 12//138 13//138 11//138
f 2//139 16//25 13//24
f 29//46 31//49 30//47
f 30//50 32//50 37//50
f 32//140 34//140 37//140
f 40//141 55//141 28//141
f 45//142 42//143 43//144
f 42//145 41//145 43//145
f 36//146 43//84 46//83
f 44//70 14//114 45//71
f 14//147 42//143 45//142
f 12//116 40//68 42//67
f 40//117 56//117 55//117
f 34//53 33//52 57//119
f 52//92 50//94 20//121
f 50//88 49//87 21//122
f 49//89 51//91 22//123
f 51//95 53//97 24//124
f 24//125 53//105 54//107
f 54//102 35//104 3//126
f 35//55 34//54 1//127
