# Blender v2.90.1 OBJ File: ''
# www.blender.org
v -71.306938 133.176636 14.606151
v -71.275543 132.690018 11.819071
v -69.177757 134.591232 15.819223
v -67.017487 135.519012 14.245047
v -71.327942 133.187057 14.728893
v -69.230148 135.088257 18.729044
v -73.488510 132.259079 16.302896
v -69.198761 134.601639 15.941965
v -69.115273 133.617798 10.244895
v -71.403259 134.679977 23.214504
v -71.371864 134.193359 20.427425
v -67.082413 136.535736 20.066317
v -69.211594 135.121140 18.853243
v -56.152489 143.776764 26.179417
v -58.313061 142.848770 27.753422
v -56.121399 143.289948 23.392166
v -66.786552 134.246613 6.495609
v -66.183861 134.690338 7.078310
v -66.914261 134.191223 6.585581
v -73.519600 132.745880 19.090149
v -71.390427 134.160477 20.303221
v -66.939255 135.587479 14.380795
v -64.810074 137.002075 15.593870
v -69.099525 134.659698 15.954972
v -69.130920 135.146301 18.742052
v -67.001740 136.560898 19.955126
v -64.841164 137.488876 18.381119
v -67.113510 137.022537 22.853571
v -69.274078 136.094574 24.427578
v -68.229645 137.080185 26.635052
v -68.706284 136.984238 27.583529
v -69.237297 136.631439 27.280991
v -69.206207 136.144638 24.493734
v -67.045631 137.072617 22.919729
v -67.177925 137.513947 25.769585
v -58.250576 141.875351 22.179094
v -60.410847 140.947571 23.753271
v -60.442238 141.434174 26.540350
v -60.551807 141.382278 26.593388
v -62.712376 140.454300 28.167397
v -60.520710 140.895462 23.806139
v -64.916451 138.487198 24.132803
v -66.644798 137.868149 26.073326
v -64.947845 138.973816 26.919880
v -66.950447 137.930054 27.363857
v -67.217010 137.752960 27.211988
v -67.856491 137.377350 27.119881
v -67.881760 137.311310 26.833256
v -64.841560 139.039703 26.954321
v -64.802849 137.526031 18.467552
v -62.673672 138.940613 19.680624
v -66.963120 136.598251 20.041733
v -64.865334 138.499451 24.041883
v -62.704765 139.427429 22.467876
v -66.994514 137.084854 22.828812
v -64.810165 138.553101 24.167242
v -62.649895 139.480881 22.593063
v -58.224674 141.372986 19.321989
v -56.064106 142.300980 17.747980
v -58.255772 141.859802 22.109241
v -67.108116 138.046036 28.494064
v -67.427086 137.834106 28.312334
v -60.179077 137.994659 6.712349
v -58.018990 138.922409 5.138527
v -55.889809 140.337006 6.351602
v -62.625656 139.477661 22.500120
v -62.594566 138.990860 19.712868
v -58.336205 141.820038 22.139015
v -60.496475 140.892258 23.713192
v -55.920719 140.823837 9.138494
v -58.081291 139.895874 10.712501
v -60.210476 138.481277 9.499426
v -58.304810 141.333435 19.351933
v -60.433987 139.918839 18.138859
v -55.903816 140.860031 9.286039
v -53.774635 142.274612 10.499113
v -58.064091 139.932251 10.860215
v -58.235355 140.331985 13.601051
v -61.468197 138.691589 14.564144
v -62.493713 137.502792 11.174905
v -60.333443 138.430573 9.600727
v -58.204262 139.845169 10.813802
v -58.095306 140.418884 13.646942
v -53.805733 142.761429 13.286362
v -55.966122 141.833481 14.860016
v -58.259525 141.342545 19.261816
v -60.388702 139.927948 18.048744
v -58.197037 140.369125 13.687488
v -60.395924 139.403992 15.175058
v -62.525105 137.989410 13.961984
v -56.099251 142.270325 17.687639
v -66.893967 135.596603 14.290674
v -66.862572 135.109985 11.503596
v -64.764786 137.011185 15.503750
v -52.096695 144.095398 15.357277
v -52.070297 144.142593 15.536261
v -53.522720 143.265961 15.197031
v -53.859558 143.757095 18.956802
v -55.988735 142.342499 17.743729
v -62.431293 136.503143 5.455755
v -60.302414 137.917526 6.668656
v -64.591866 135.575165 7.029760
v -60.333504 138.404343 9.455908
v -62.494080 137.476364 11.029913
v -56.126591 143.274399 23.322315
v -53.934921 143.715561 18.961056
v -53.966316 144.202179 21.748135
v -55.957344 141.855896 14.956650
v -52.357346 143.877380 14.960936
v -53.583813 143.107254 14.509358
v -53.524658 143.260941 15.175282
v -53.797073 142.783676 13.382471
v -53.542889 143.128723 14.501066
v -52.292351 143.784882 14.248026
v -56.067860 141.783722 14.900560
v -51.677650 144.349533 15.461925
v -51.699287 144.684875 17.382624
v -69.008232 133.154510 7.352001
v -69.039627 133.641113 10.139083
v -66.168938 134.697128 7.069553
v -65.615486 134.949081 6.745077
v -64.749878 135.983688 9.778146
v -64.718781 135.496887 6.990896
v -65.615562 134.949005 6.744878
v -65.751389 134.810837 6.402580
v -65.628746 134.935608 6.711678
v -66.521080 134.361786 6.308542
v -64.622955 136.061966 9.817011
v -66.910446 135.055710 11.352157
v -66.986099 135.032394 11.457967
v -62.604214 137.939163 13.929743
v -62.573120 137.452362 11.142494
v -64.702301 136.037766 9.929419
v -60.357613 139.441147 15.261492
vn 0.4835 -0.8614 0.1558
vn 0.4835 -0.8614 0.1559
vn 0.4835 -0.8613 0.1560
vn 0.4835 -0.8613 0.1561
vn 0.4897 -0.8575 0.1576
vn 0.4834 -0.8613 0.1563
vn 0.4869 -0.8592 0.1570
vn 0.4835 -0.8614 0.1557
s 1
f 1//1 2//1 3//1
f 3//1 2//1 4//1
f 5//1 6//1 7//1
f 8//1 6//1 5//1
f 4//1 2//1 9//1
f 10//1 11//1 12//1
f 13//1 12//1 11//1
f 14//1 15//1 16//1
f 17//2 18//1 19//2
f 20//1 7//1 6//1
f 21//1 20//1 6//1
f 22//1 23//1 24//1
f 25//1 24//1 26//1
f 23//1 27//1 24//1
f 27//1 26//1 24//1
f 28//1 29//1 12//1
f 10//1 12//1 29//1
f 30//1 31//1 32//1
f 33//1 34//1 35//1
f 32//1 33//1 30//1
f 36//1 16//1 37//1
f 15//1 38//1 16//1
f 37//1 16//1 38//1
f 39//1 40//1 41//1
f 34//1 42//1 35//1
f 43//1 44//1 45//1
f 46//1 43//1 45//1
f 47//1 48//1 35//1
f 30//1 35//1 48//1
f 44//1 43//1 42//1
f 49//1 41//1 40//1
f 30//1 33//1 35//1
f 43//1 35//1 42//1
f 50//1 51//1 52//1
f 53//1 52//1 54//1
f 55//1 52//1 53//1
f 49//1 56//1 41//1
f 57//1 41//1 56//1
f 54//1 52//1 51//1
f 58//1 59//1 60//1
f 44//1 61//1 45//1
f 62//1 45//1 61//1
f 63//1 64//1 65//1
f 66//1 67//1 68//1
f 69//1 66//1 68//1
f 65//1 70//1 63//1
f 70//1 71//1 63//1
f 72//1 63//1 71//1
f 73//1 68//1 74//1
f 74//1 68//1 67//1
f 75//1 76//1 77//1
f 78//1 79//1 80//1
f 81//1 82//1 80//1
f 78//1 80//1 82//1
f 77//1 76//1 83//1
f 84//1 85//1 76//1
f 83//1 76//1 85//1
f 86//1 87//1 88//1
f 89//1 79//1 78//1
f 80//1 79//1 90//1
f 88//1 91//1 86//1
f 92//1 93//1 94//1
f 95//1 96//1 97//3
f 96//1 98//1 97//3
f 99//1 97//3 98//1
f 100//1 101//1 102//1
f 103//1 102//1 101//1
f 103//1 104//1 102//1
f 105//1 60//1 59//1
f 106//1 107//1 59//1
f 105//1 59//1 107//1
f 99//1 108//1 97//3
f 109//2 95//1 97//3
f 110//1 111//4 108//1
f 112//1 110//1 108//1
f 111//4 97//3 108//1
f 110//1 112//1 113//1
f 114//2 113//1 112//1
f 91//1 88//1 115//1
f 116//1 117//1 96//1
f 98//1 96//1 117//1
f 118//1 19//2 119//1
f 120//1 121//5 122//1
f 123//6 122//1 121//5
f 121//5 124//7 123//6
f 125//1 123//6 126//8
f 124//7 126//8 123//6
f 18//1 119//1 19//2
f 17//2 127//1 18//1
f 128//1 102//1 104//1
f 119//1 18//1 129//1
f 129//1 18//1 122//1
f 4//1 9//1 130//1
f 131//1 93//1 132//1
f 133//1 132//1 93//1
f 131//1 94//1 93//1
f 134//1 88//1 87//1
