# Blender v2.90.1 OBJ File: ''
# www.blender.org
v 123.153465 97.334198 73.778214
v 123.153465 48.269291 77.885551
v 123.153465 97.334198 77.885551
v -128.708923 97.334198 77.885513
v -128.708923 48.269291 73.778175
v -128.708923 97.334198 73.778175
v -128.708923 48.269291 77.885513
v 123.153465 48.269291 73.778214
v 130.301941 44.695057 84.105103
v 130.301941 100.908432 75.474136
v 130.301941 100.908432 84.105103
v -135.857391 44.695057 75.474091
v -135.857391 100.908432 84.105064
v -135.857391 100.908432 75.474091
v -135.857391 44.695057 84.105064
v 130.301941 44.695057 75.474136
vn -1.0000 0.0000 0.0000
vn 1.0000 0.0000 0.0000
vn 0.0000 0.0000 -1.0000
vn 0.0000 -1.0000 0.0000
vn 0.0000 1.0000 0.0000
vn -0.0000 0.0000 1.0000
vn 0.0000 0.4287 -0.9035
vn 0.2308 0.0000 -0.9730
vn 0.0000 -0.4287 -0.9035
vn -0.2308 0.0000 -0.9730
s 1
f 1//1 2//1 3//1
f 4//2 5//2 6//2
f 3//3 7//3 4//3
f 3//4 6//4 1//4
f 7//5 8//5 5//5
f 9//2 10//2 11//2
f 12//1 13//1 14//1
f 15//6 11//6 13//6
f 14//5 11//5 10//5
f 16//4 15//4 12//4
f 6//7 10//7 1//7
f 10//8 8//8 1//8
f 8//9 12//9 5//9
f 5//10 14//10 6//10
f 1//1 8//1 2//1
f 4//2 7//2 5//2
f 3//3 2//3 7//3
f 3//4 4//4 6//4
f 7//5 2//5 8//5
f 9//2 16//2 10//2
f 12//1 15//1 13//1
f 15//6 9//6 11//6
f 14//5 13//5 11//5
f 16//4 9//4 15//4
f 6//7 14//7 10//7
f 10//8 16//8 8//8
f 8//9 16//9 12//9
f 5//10 12//10 14//10
