# Blender v2.90.1 OBJ File: ''
# www.blender.org
v 0.000000 1.000000 -1.000000
v 0.098017 0.995185 -1.000000
v 0.195090 0.980785 -1.000000
v 0.290285 0.956940 -1.000000
v 0.382683 0.923880 -1.000000
v 0.471397 0.881921 -1.000000
v 0.555570 0.831470 -1.000000
v 0.634393 0.773010 -1.000000
v 0.707107 0.707107 -1.000000
v 0.773010 0.634393 -1.000000
v 0.831470 0.555570 -1.000000
v 0.881921 0.471397 -1.000000
v 0.923880 0.382683 -1.000000
v 0.956940 0.290285 -1.000000
v 0.980785 0.195090 -1.000000
v 0.995185 0.098017 -1.000000
v 1.000000 -0.000000 -1.000000
v 0.995185 -0.098017 -1.000000
v 0.980785 -0.195091 -1.000000
v 0.956940 -0.290285 -1.000000
v 0.923879 -0.382684 -1.000000
v 0.881921 -0.471397 -1.000000
v 0.831469 -0.555571 -1.000000
v 0.773010 -0.634394 -1.000000
v 0.707106 -0.707107 -1.000000
v 0.634393 -0.773011 -1.000000
v 0.555570 -0.831470 -1.000000
v 0.471396 -0.881922 -1.000000
v 0.382683 -0.923880 -1.000000
v 0.290284 -0.956941 -1.000000
v 0.195090 -0.980785 -1.000000
v 0.098016 -0.995185 -1.000000
v -0.000001 -1.000000 -1.000000
v -0.098018 -0.995185 -1.000000
v -0.195091 -0.980785 -1.000000
v -0.290286 -0.956940 -1.000000
v -0.382684 -0.923879 -1.000000
v -0.471398 -0.881921 -1.000000
v -0.555571 -0.831469 -1.000000
v -0.634394 -0.773010 -1.000000
v -0.707108 -0.707106 -1.000000
v -0.773011 -0.634393 -1.000000
v -0.831470 -0.555570 -1.000000
v -0.881922 -0.471396 -1.000000
v -0.923880 -0.382683 -1.000000
v -0.956940 -0.290285 -1.000000
v -0.980785 -0.195090 -1.000000
v -0.995185 -0.098017 -1.000000
v -1.000000 -0.000000 -1.000000
v -0.995185 0.098016 -1.000000
v -0.980785 0.195089 -1.000000
v -0.956941 0.290284 -1.000000
v -0.923880 0.382682 -1.000000
v -0.881922 0.471395 -1.000000
v -0.831471 0.555569 -1.000000
v -0.773012 0.634392 -1.000000
v -0.707108 0.707105 -1.000000
v -0.634395 0.773009 -1.000000
v -0.555572 0.831468 -1.000000
v -0.471399 0.881920 -1.000000
v -0.382686 0.923878 -1.000000
v -0.290288 0.956939 -1.000000
v -0.195093 0.980785 -1.000000
v -0.098021 0.995184 -1.000000
v 0.000000 0.000000 1.000000
vn 0.0439 0.8936 0.4468
vn 0.1313 0.8850 0.4468
vn 0.2174 0.8678 0.4468
vn 0.3014 0.8423 0.4468
vn 0.3825 0.8087 0.4468
vn 0.4599 0.7674 0.4468
vn 0.5329 0.7186 0.4468
vn 0.6008 0.6629 0.4468
vn 0.6629 0.6008 0.4468
vn 0.7186 0.5329 0.4468
vn 0.7674 0.4599 0.4468
vn 0.8087 0.3825 0.4468
vn 0.8423 0.3014 0.4468
vn 0.8678 0.2174 0.4468
vn 0.8850 0.1313 0.4468
vn 0.8936 0.0439 0.4468
vn 0.8936 -0.0439 0.4468
vn 0.8850 -0.1313 0.4468
vn 0.8678 -0.2174 0.4468
vn 0.8423 -0.3014 0.4468
vn 0.8087 -0.3825 0.4468
vn 0.7674 -0.4599 0.4468
vn 0.7186 -0.5329 0.4468
vn 0.6629 -0.6008 0.4468
vn 0.6008 -0.6629 0.4468
vn 0.5329 -0.7186 0.4468
vn 0.4599 -0.7674 0.4468
vn 0.3825 -0.8087 0.4468
vn 0.3014 -0.8423 0.4468
vn 0.2174 -0.8678 0.4468
vn 0.1313 -0.8850 0.4468
vn 0.0439 -0.8936 0.4468
vn -0.0439 -0.8936 0.4468
vn -0.1313 -0.8850 0.4468
vn -0.2174 -0.8678 0.4468
vn -0.3014 -0.8423 0.4468
vn -0.3825 -0.8087 0.4468
vn -0.4599 -0.7674 0.4468
vn -0.5329 -0.7186 0.4468
vn -0.6008 -0.6629 0.4468
vn -0.6629 -0.6008 0.4468
vn -0.7186 -0.5329 0.4468
vn -0.7674 -0.4599 0.4468
vn -0.8087 -0.3825 0.4468
vn -0.8423 -0.3014 0.4468
vn -0.8678 -0.2174 0.4468
vn -0.8850 -0.1313 0.4468
vn -0.8936 -0.0439 0.4468
vn -0.8936 0.0439 0.4468
vn -0.8850 0.1313 0.4468
vn -0.8678 0.2174 0.4468
vn -0.8423 0.3014 0.4468
vn -0.8087 0.3825 0.4468
vn -0.7674 0.4599 0.4468
vn -0.7186 0.5329 0.4468
vn -0.6629 0.6008 0.4468
vn -0.6008 0.6629 0.4468
vn -0.5329 0.7186 0.4468
vn -0.4599 0.7674 0.4468
vn -0.3825 0.8087 0.4468
vn -0.3014 0.8423 0.4468
vn -0.2174 0.8678 0.4468
vn 0.0000 0.0000 -1.0000
vn -0.1313 0.8850 0.4468
vn -0.0439 0.8936 0.4468
s off
f 1//1 65//1 2//1
f 2//2 65//2 3//2
f 3//3 65//3 4//3
f 4//4 65//4 5//4
f 5//5 65//5 6//5
f 6//6 65//6 7//6
f 7//7 65//7 8//7
f 8//8 65//8 9//8
f 9//9 65//9 10//9
f 10//10 65//10 11//10
f 11//11 65//11 12//11
f 12//12 65//12 13//12
f 13//13 65//13 14//13
f 14//14 65//14 15//14
f 15//15 65//15 16//15
f 16//16 65//16 17//16
f 17//17 65//17 18//17
f 18//18 65//18 19//18
f 19//19 65//19 20//19
f 20//20 65//20 21//20
f 21//21 65//21 22//21
f 22//22 65//22 23//22
f 23//23 65//23 24//23
f 24//24 65//24 25//24
f 25//25 65//25 26//25
f 26//26 65//26 27//26
f 27//27 65//27 28//27
f 28//28 65//28 29//28
f 29//29 65//29 30//29
f 30//30 65//30 31//30
f 31//31 65//31 32//31
f 32//32 65//32 33//32
f 33//33 65//33 34//33
f 34//34 65//34 35//34
f 35//35 65//35 36//35
f 36//36 65//36 37//36
f 37//37 65//37 38//37
f 38//38 65//38 39//38
f 39//39 65//39 40//39
f 40//40 65//40 41//40
f 41//41 65//41 42//41
f 42//42 65//42 43//42
f 43//43 65//43 44//43
f 44//44 65//44 45//44
f 45//45 65//45 46//45
f 46//46 65//46 47//46
f 47//47 65//47 48//47
f 48//48 65//48 49//48
f 49//49 65//49 50//49
f 50//50 65//50 51//50
f 51//51 65//51 52//51
f 52//52 65//52 53//52
f 53//53 65//53 54//53
f 54//54 65//54 55//54
f 55//55 65//55 56//55
f 56//56 65//56 57//56
f 57//57 65//57 58//57
f 58//58 65//58 59//58
f 59//59 65//59 60//59
f 60//60 65//60 61//60
f 61//61 65//61 62//61
f 62//62 65//62 63//62
f 64//63 16//63 32//63
f 63//64 65//64 64//64
f 64//65 65//65 1//65
f 64//63 1//63 2//63
f 2//63 3//63 64//63
f 3//63 4//63 64//63
f 4//63 5//63 6//63
f 6//63 7//63 8//63
f 8//63 9//63 10//63
f 10//63 11//63 12//63
f 12//63 13//63 16//63
f 13//63 14//63 16//63
f 14//63 15//63 16//63
f 16//63 17//63 20//63
f 17//63 18//63 20//63
f 18//63 19//63 20//63
f 20//63 21//63 24//63
f 21//63 22//63 24//63
f 22//63 23//63 24//63
f 24//63 25//63 28//63
f 25//63 26//63 28//63
f 26//63 27//63 28//63
f 28//63 29//63 30//63
f 30//63 31//63 32//63
f 32//63 33//63 36//63
f 33//63 34//63 36//63
f 34//63 35//63 36//63
f 36//63 37//63 40//63
f 37//63 38//63 40//63
f 38//63 39//63 40//63
f 40//63 41//63 42//63
f 42//63 43//63 44//63
f 44//63 45//63 46//63
f 46//63 47//63 48//63
f 48//63 49//63 50//63
f 50//63 51//63 52//63
f 52//63 53//63 54//63
f 54//63 55//63 56//63
f 56//63 57//63 58//63
f 58//63 59//63 60//63
f 60//63 61//63 64//63
f 61//63 62//63 64//63
f 62//63 63//63 64//63
f 4//63 6//63 64//63
f 6//63 8//63 64//63
f 8//63 10//63 12//63
f 28//63 30//63 32//63
f 40//63 42//63 44//63
f 44//63 46//63 40//63
f 46//63 48//63 40//63
f 48//63 50//63 56//63
f 50//63 52//63 56//63
f 52//63 54//63 56//63
f 56//63 58//63 64//63
f 58//63 60//63 64//63
f 8//63 12//63 16//63
f 16//63 20//63 24//63
f 24//63 28//63 16//63
f 28//63 32//63 16//63
f 32//63 36//63 40//63
f 64//63 8//63 16//63
f 32//63 40//63 48//63
f 48//63 56//63 32//63
f 56//63 64//63 32//63
