# Blender v2.80 (sub 75) OBJ File: 'naboo.blend'
# www.blender.org
v 0.245843 -6.189834 28.914612
v 0.170262 -6.308753 28.739578
v 0.123778 -6.320972 28.894493
v 0.275192 -5.283495 29.851673
v 0.192625 -5.472810 29.825510
v -0.019545 -5.578176 29.960340
v -0.119282 -5.622076 30.017197
v -0.112270 -5.392959 30.109367
v -0.040034 -5.643213 29.941132
v 0.143803 -5.726381 29.725464
v -0.119300 -5.902862 29.855850
v 0.469388 -5.518160 29.509867
v 0.476117 -5.572474 29.456158
v 0.182861 -5.743567 29.666775
v 0.505274 -5.884294 28.951075
v 0.201306 -6.294409 28.661430
v 0.283119 -6.202457 28.694689
v 0.432885 -5.748440 29.341911
v 0.353088 -5.933591 29.216721
v 0.156075 -6.010473 29.445114
v 0.616906 -5.747944 28.965635
v 0.470066 -5.214221 29.700619
v 0.360730 -5.386219 29.715059
v -0.119714 -5.683132 29.989384
v 0.641550 -5.750586 28.881992
v 0.506331 -5.947620 28.785088
v 0.297807 -5.468095 29.729895
v 0.655781 -5.747997 28.843319
v 0.294267 -6.032516 29.176147
v 0.053647 -6.321097 29.096239
v 0.022069 -6.309885 29.201721
v 0.467958 -5.251678 29.683317
v 0.471756 -5.373112 29.615711
v 0.470617 -5.431702 29.579643
v 0.103673 -6.325068 28.958412
v -0.051199 -6.251803 29.436258
v -0.072449 -6.215352 29.523144
v 0.230540 -6.182343 28.974016
v 0.454717 -5.851211 29.153753
v 0.355181 -6.040196 28.988865
v 0.555289 -5.733507 29.138031
v 0.051656 -5.347558 30.001726
v 0.483978 -5.617925 29.408386
v 0.197382 -5.894114 29.518246
v 0.590519 -5.745610 29.053888
v 0.601802 -5.746970 29.015198
v 0.467869 -5.482271 29.541534
v 0.005559 -6.298949 29.269142
v 0.073199 -6.232813 29.261124
v -0.039426 -5.909226 29.780811
v 0.504563 -5.677207 29.313103
v 0.520196 -5.699269 29.252453
v 0.540392 -5.722223 29.182125
v 0.470816 -5.327752 29.640697
v -0.106255 -6.093399 29.690763
v -0.112572 -5.959331 29.814663
v -0.092990 -6.156090 29.618458
vn 0.7349 -0.6626 0.1446
vn 0.7103 -0.6856 0.1591
vn 0.7116 -0.6846 0.1578
vn 0.6293 -0.3562 0.6907
vn 0.5843 -0.3241 0.7440
vn 0.6260 -0.3680 0.6875
vn 0.6151 -0.4031 0.6776
vn 0.6114 -0.4091 0.6773
vn 0.6261 -0.3972 0.6710
vn 0.5777 -0.3162 0.7525
vn 0.5717 -0.3212 0.7549
vn 0.6791 -0.4718 0.5622
vn 0.6696 -0.4873 0.5604
vn 0.6774 -0.4750 0.5616
vn 0.7564 -0.6399 0.1355
vn 0.7190 -0.6738 0.1701
vn 0.6661 -0.6892 0.2850
vn 0.7178 -0.5749 0.3927
vn 0.6926 -0.5943 0.4086
vn 0.7058 -0.5820 0.4039
vn 0.7246 -0.6567 0.2089
vn 0.6433 -0.3604 0.6755
vn 0.6454 -0.3534 0.6771
vn 0.7224 -0.6468 0.2443
vn 0.4750 -0.6287 0.6157
vn 0.6403 -0.3931 0.6599
vn 0.7449 -0.6254 0.2322
vn 0.7297 -0.6384 0.2447
vn 0.6981 -0.6593 0.2791
vn 0.6992 -0.6594 0.2760
vn 0.6431 -0.3521 0.6800
vn 0.6501 -0.4035 0.6438
vn 0.6617 -0.4300 0.6141
vn 0.7020 -0.6587 0.2705
vn 0.6813 -0.6005 0.4185
vn 0.6842 -0.6027 0.4107
vn 0.7111 -0.6511 0.2653
vn 0.7469 -0.6165 0.2489
vn 0.7020 -0.6398 0.3128
vn 0.7031 -0.6243 0.3403
vn 0.5860 -0.3149 0.7465
vn 0.6659 -0.4928 0.5600
vn 0.6748 -0.4760 0.5639
vn 0.7091 -0.6344 0.3077
vn 0.7331 -0.6378 0.2362
vn 0.6138 -0.4091 0.6751
vn 0.6755 -0.4668 0.5707
vn 0.6735 -0.6079 0.4205
vn 0.6647 -0.6076 0.4348
vn 0.6452 -0.5083 0.5703
vn 0.7207 -0.5726 0.3906
vn 0.7190 -0.5728 0.3936
vn 0.7191 -0.5728 0.3934
vn 0.6454 -0.3547 0.6765
vn 0.6243 -0.5141 0.5881
vn 0.6464 -0.5114 0.5662
vn 0.6523 -0.5101 0.5605
s 1
f 1//1 3//2 2//3
f 4//4 6//5 5//6
f 9//7 11//8 10//9
f 6//5 8//10 7//11
f 12//12 14//13 13//14
f 15//15 1//1 16//16
f 15//15 16//16 17//17
f 18//18 20//19 19//20
f 21//21 15//15 17//17
f 4//4 23//22 22//23
f 21//21 17//17 25//24
f 25//24 17//17 26//25
f 27//26 9//7 10//9
f 1//1 2//3 16//16
f 28//27 25//24 26//25
f 29//28 31//29 30//30
f 22//23 23//22 32//31
f 33//32 10//9 34//33
f 29//28 30//30 35//34
f 20//19 37//35 36//36
f 29//28 35//34 38//37
f 39//38 29//28 38//37
f 39//38 38//37 40//39
f 41//40 39//38 40//39
f 4//4 42//41 6//5
f 13//14 44//42 43//43
f 45//44 41//40 40//39
f 45//44 40//39 46//45
f 9//7 24//46 11//8
f 34//33 10//9 47//47
f 48//48 20//19 36//36
f 13//14 14//13 44//42
f 20//19 48//48 49//49
f 19//20 20//19 49//49
f 14//13 50//50 44//42
f 23//22 4//4 5//6
f 18//18 19//20 51//51
f 27//26 10//9 33//32
f 52//52 51//51 19//20
f 52//52 19//20 53//53
f 32//31 23//22 54//54
f 42//41 8//10 6//5
f 50//50 56//55 55//56
f 50//50 55//56 57//57
f 50//50 57//57 44//42
