# Blender v2.80 (sub 75) OBJ File: 'naboo.blend'
# www.blender.org
v -33.936203 -58.735916 60.012550
v -33.350685 -49.456310 49.376369
v -42.996712 -48.087429 62.037632
v -12.727341 -62.531277 76.580666
v -23.960686 -64.442009 68.229149
v -24.727186 -59.579941 83.427841
v -37.193413 -57.349083 73.689217
v -10.359852 -53.927879 87.533417
v -5.563616 -19.148211 77.348480
v -6.149087 -28.427851 87.984650
v -17.913954 -18.320265 84.157906
v -20.990150 -31.075108 93.272224
v -35.357307 -36.727116 89.166626
v -30.812569 -23.651966 86.344299
v -41.160580 -27.465540 77.515121
v -38.785942 -22.587479 62.488976
v -26.772480 -15.352846 60.780373
v -30.380157 -16.089460 74.419502
v 0.420839 -42.551697 84.437805
v -10.797155 -40.848186 92.854782
v -23.592636 -46.834846 92.993393
v -35.240242 -50.463985 85.869873
v -39.920609 -35.332466 52.923206
v -45.113449 -34.707165 66.047020
v -29.140001 -23.956284 49.827614
v -14.772633 -18.304182 53.933201
v -2.306402 -20.535110 63.671833
v -15.539141 -13.442162 69.131844
v 4.263294 -34.658886 60.124832
v 5.613634 -43.176964 71.314018
v 3.496893 -29.796696 75.323402
v 1.660803 -50.418556 59.845886
v -0.713821 -55.296684 74.872040
v -9.119665 -61.794670 62.941532
v -21.585873 -59.563904 53.203083
v -18.509653 -46.809032 44.088768
v -15.907192 -31.049324 44.367599
v -28.702669 -37.035984 44.506203
v -4.142458 -41.157047 48.194389
v -4.259523 -27.420170 51.491142
v -26.569016 -26.017769 63.483734
v -32.187614 -29.676600 68.669662
v -30.545479 -32.441185 59.639568
v -34.091080 -36.103130 73.858879
v -33.575932 -44.516048 72.960175
v -34.966908 -38.369217 65.737915
v -22.000637 -28.996284 56.994610
v -31.297308 -40.806488 58.495941
v -31.933771 -47.280594 63.930092
v -25.637814 -46.860107 56.714653
v -14.842250 -53.360977 65.755577
v -7.312208 -48.207523 68.691376
v -10.420956 -47.432968 59.657211
v -5.408733 -41.781059 63.502167
v -9.562939 -38.261742 57.005440
v -16.759933 -34.945663 53.996063
v -17.092960 -43.415268 54.069706
v -18.219612 -50.548653 58.507500
v -24.246881 -53.006893 63.936832
v -4.532890 -39.514915 71.623077
v -12.595934 -29.350281 58.813225
v -24.779839 -37.688911 54.062916
v -17.499187 -48.887886 80.366379
v -12.930828 -51.866398 73.877296
v -21.138205 -53.781528 72.971031
v -5.923847 -33.368050 64.400826
v -7.566050 -30.603535 73.430946
v -18.361622 -24.102644 64.389969
v -29.936863 -39.622395 80.355560
v -22.739853 -42.938484 83.364990
v -26.903870 -48.533852 78.547775
v -8.954347 -45.442986 77.721420
v -14.719980 -40.195213 83.298126
v -8.202490 -37.077709 78.865067
v -29.078867 -30.451160 77.703827
v -13.862036 -31.024061 80.646378
v -22.406828 -34.468884 83.291351
v -21.280207 -27.335472 78.853539
v -13.480881 -26.502155 57.132557
v -5.765793 -29.115524 62.739777
v -13.823759 -22.063059 65.962662
v -2.227596 -34.664165 70.121498
v -3.049168 -39.921486 61.786068
v -2.813772 -44.345036 72.054291
v -26.666714 -39.205360 51.962383
v -30.452339 -31.179432 56.327095
v -34.114933 -41.611298 58.006783
v -12.833031 -38.678761 85.398636
v -9.047457 -46.704758 81.033905
v -19.369177 -46.099342 85.294838
v -30.640730 -32.997894 81.851074
v -22.085756 -35.293423 86.248627
v -29.836178 -42.760239 83.209679
v -23.563112 -55.218544 61.756363
v -32.290592 -51.023598 63.763603
v -25.676052 -55.821129 71.398384
v -15.354420 -56.426540 67.137413
v -33.734005 -48.768562 74.621269
v -26.018911 -51.382000 80.228500
v -36.450676 -37.962681 75.574966
v -16.797939 -54.171478 77.994972
v -15.589749 -52.003109 56.869026
v -26.056835 -48.663906 54.783920
v -5.384892 -36.272827 79.354256
v -36.686047 -33.539089 65.306740
v -37.272205 -43.219971 67.239494
v -32.788189 -27.530788 73.895180
v -24.145424 -21.457623 70.223618
v -23.910049 -25.881021 80.491974
v -15.936710 -22.665585 75.604675
v -6.711657 -50.353378 63.465851
v -8.458702 -52.411903 72.979309
v -8.859051 -44.886196 55.509926
v -20.130627 -31.784794 52.066154
v -22.701849 -23.712713 59.366035
v -31.041096 -25.472229 64.381683
v -9.663643 -35.123894 54.151356
v -7.209230 -26.860533 73.597435
v -6.312546 -36.032444 53.233654
v -16.548290 -34.187157 48.811558
v -11.581467 -45.767181 50.951187
v -36.329273 -26.585806 68.965744
v -29.765123 -23.143932 77.498062
v -37.393410 -33.389462 77.927628
v -27.740330 -33.762135 50.324203
v -34.191662 -28.634563 58.058601
v -35.080772 -41.000969 54.956093
v -2.106361 -44.494698 59.433384
v -20.209530 -24.420992 83.396545
v -15.323400 -33.451424 88.119995
v -27.918358 -32.116989 86.409798
v -11.759459 -44.122013 87.036850
v -5.308128 -49.249592 79.302452
v -16.761818 -53.460686 83.099815
v -19.290291 -53.463139 53.964489
v -30.113796 -52.580952 57.095840
v -21.188292 -58.951206 63.660477
v -32.092499 -55.519512 69.375549
v -22.656664 -58.462570 74.855911
v -29.356716 -52.126190 81.389702
v -38.282310 -45.755894 74.825165
v -33.187279 -41.851727 84.127335
v -22.951511 -43.696980 88.549438
v -11.713397 -57.678749 72.142677
v -24.176369 -44.432693 49.241070
v -4.419033 -36.883167 82.404900
v -9.734672 -54.740154 59.862980
v -3.170494 -51.298306 68.395317
v -40.129169 -36.782833 65.913391
v -37.841766 -47.624813 63.687561
v -9.385948 -25.303167 80.265182
v -1.658039 -30.259325 73.673431
v -7.407309 -22.364628 67.985443
v -10.143106 -25.757940 55.971336
v -16.843157 -19.421555 62.505116
v -22.737986 -24.423450 54.261177
v -31.812241 -32.578320 87.527977
v -22.705303 -40.403580 91.709923
v -34.870670 -44.732418 85.385529
v -12.715622 -47.792274 89.013184
v -2.135471 -45.767563 82.258789
v -10.932899 -56.990177 80.417297
v -27.715914 -17.087193 69.045471
v -37.912029 -24.472601 67.267960
v -28.566874 -20.893986 56.943718
v -7.687541 -45.305771 49.833027
v -16.794481 -37.480576 45.651138
v -18.863922 -51.310059 48.996174
v -11.783908 -60.796928 68.315567
v -7.977528 -55.528515 57.387741
v -21.271675 -60.415462 59.859859
v -23.098270 -61.318832 74.092827
v -30.088562 -42.367561 48.123192
v -30.304817 -53.620018 54.038883
v -39.433693 -45.946125 58.447346
v -33.984585 -57.100357 65.701149
v -41.260353 -46.849449 72.680283
v -33.412422 -55.156845 78.253403
v -1.587738 -53.411560 70.093048
v 0.820116 -44.306095 59.229256
v -4.629150 -33.151707 51.975502
v -23.646002 -53.674942 86.258530
v -9.411242 -35.516571 89.237808
v -5.515264 -20.783812 71.659882
v -6.087366 -22.727306 59.107655
v 1.760534 -31.034676 64.680763
vn -0.7094 -0.5113 -0.4851
vn -0.0621 -0.9515 0.3013
vn -0.7673 -0.6302 -0.1188
vn 0.1428 -0.7931 0.5921
vn 0.3868 0.6842 0.6183
vn -0.3741 0.3181 0.8712
vn -0.6780 0.3725 0.6337
vn -0.5233 0.8471 -0.0927
vn 0.6061 0.0833 0.7910
vn 0.1809 -0.3654 0.9131
vn 0.0079 -0.6007 0.7994
vn -0.3012 -0.5551 0.7753
vn -0.8664 0.3468 -0.3593
vn -0.6708 0.4825 -0.5632
vn -0.5046 0.7286 -0.4632
vn 0.3676 0.8910 -0.2665
vn 0.5427 -0.3009 0.7842
vn -0.7871 -0.2216 -0.5757
vn 0.9877 0.1563 -0.0002
vn 0.8851 -0.4654 -0.0112
vn 0.1730 -0.9849 -0.0074
vn -0.3868 -0.6842 -0.6183
vn 0.9600 -0.1544 -0.2334
vn -0.0207 0.0211 -0.9996
vn 0.2856 -0.0302 -0.9579
vn 0.4614 0.2108 -0.8618
vn -0.7069 0.6300 -0.3214
vn -0.9891 -0.0742 0.1274
vn -0.4511 0.6471 -0.6146
vn -0.6630 -0.4420 -0.6042
vn 0.6137 -0.7402 -0.2746
vn 0.8064 -0.4973 -0.3201
vn 0.3767 -0.0229 -0.9261
vn -0.0534 -0.5214 -0.8516
vn -0.2331 -0.7623 -0.6039
vn -0.5192 -0.6976 -0.4937
vn 0.9542 -0.2985 -0.0196
vn 0.4896 0.3303 -0.8069
vn -0.4159 0.4072 -0.8132
vn 0.1452 -0.8565 0.4953
vn 0.9891 0.0742 -0.1274
vn 0.9485 0.3069 0.0785
vn -0.1452 0.8565 -0.4953
vn -0.9542 0.2985 0.0196
vn -0.4896 -0.3303 0.8069
vn 0.4511 -0.6471 0.6146
vn 0.4159 -0.4072 0.8132
vn 0.6066 -0.1610 0.7786
vn -0.8064 0.4973 0.3201
vn 0.4833 0.2011 0.8520
vn 0.1901 0.2563 0.9477
vn 0.0534 0.5214 0.8516
vn 0.5259 0.7680 -0.3656
vn 0.9960 -0.0710 -0.0534
vn -0.6469 0.1055 -0.7552
vn 0.3459 -0.3171 0.8831
vn -0.4365 0.0886 0.8953
vn -0.4567 -0.8760 -0.1548
vn -0.0921 -0.9923 -0.0822
vn -0.6154 -0.4868 0.6199
vn -0.8040 -0.2498 0.5396
vn -0.7457 0.0312 0.6656
vn -0.0256 -0.6750 0.7374
vn 0.1250 -0.9102 -0.3949
vn -0.4649 -0.7220 -0.5125
vn 0.6470 -0.1055 0.7552
vn -0.9458 -0.0076 -0.3247
vn -0.8283 0.2070 -0.5206
vn -0.4258 0.8274 0.3662
vn -0.1250 0.9102 0.3949
vn 0.8205 -0.5710 0.0271
vn 0.9204 -0.3509 -0.1723
vn 0.8092 -0.3590 -0.4651
vn -0.3459 0.3171 -0.8831
vn -0.2768 0.5945 -0.7549
vn -0.4692 0.7040 -0.5331
vn 0.0921 0.9923 0.0822
vn 0.6154 0.4868 -0.6199
vn 0.6399 0.7649 -0.0738
vn 0.3967 0.0005 -0.9180
vn -0.7461 0.5700 0.3441
vn -0.6693 0.2257 -0.7079
vn 0.6687 -0.1936 -0.7179
vn -0.0767 0.4292 0.8999
vn 0.4368 -0.5379 0.7210
vn -0.2160 -0.8310 -0.5126
vn -0.2990 -0.9542 0.0024
vn -0.4166 -0.8666 -0.2745
vn -0.4529 -0.8257 0.3363
vn -0.7125 -0.4162 0.5649
vn 0.1045 -0.4334 0.8951
vn 0.4394 -0.7517 0.4918
vn -0.2723 -0.5575 -0.7842
vn -0.8639 -0.0633 0.4997
vn 0.6693 -0.2257 0.7079
vn 0.7461 -0.5700 -0.3441
vn 0.6182 -0.4862 -0.6176
vn -0.9183 -0.1161 -0.3784
vn -0.8654 0.1796 -0.4678
vn -0.6687 0.1936 0.7179
vn -0.6182 0.4862 0.6176
vn -0.3487 0.6233 0.6999
vn 0.7297 0.4136 0.5445
vn 0.6734 0.6870 0.2729
vn 0.1641 0.7869 -0.5948
vn -0.4483 -0.0446 0.8928
vn 0.5274 -0.5233 0.6693
vn -0.5479 0.8083 -0.2157
vn 0.2100 -0.2594 -0.9427
vn 0.2678 -0.9011 -0.3411
vn 0.0147 -0.9980 -0.0615
vn -0.2857 -0.4416 -0.8505
vn -0.0996 -0.2198 -0.9704
vn -0.6301 -0.3518 -0.6923
vn -0.6953 -0.5985 -0.3980
vn -0.8502 -0.5072 -0.1413
vn -0.7634 -0.6322 0.1327
vn 0.1877 -0.9407 0.2827
vn 0.5973 -0.7838 -0.1698
vn -0.7782 -0.4251 0.4622
vn 0.5479 -0.8083 0.2157
vn 0.6840 -0.6034 0.4099
vn 0.7432 -0.0697 -0.6655
vn -0.4833 -0.5394 0.6895
vn -0.3370 -0.3372 0.8790
vn 0.5529 -0.1638 0.8170
vn 0.7634 0.6322 -0.1327
s 1
f 1//1 3//1 2//1
f 4//2 6//2 5//2
f 1//3 7//3 3//3
f 4//4 8//4 6//4
f 9//5 11//5 10//5
f 12//6 14//6 13//6
f 13//7 14//7 15//7
f 16//8 18//8 17//8
f 19//9 10//9 20//9
f 8//10 20//10 21//10
f 8//11 21//11 6//11
f 6//12 21//12 22//12
f 23//13 24//13 16//13
f 23//14 16//14 25//14
f 25//15 16//15 17//15
f 26//16 28//16 27//16
f 19//17 20//17 8//17
f 3//18 23//18 2//18
f 29//19 31//19 30//19
f 32//20 30//20 33//20
f 34//21 4//21 5//21
f 35//22 1//22 2//22
f 29//23 30//23 32//23
f 36//24 38//24 37//24
f 36//25 37//25 39//25
f 39//26 37//26 40//26
f 41//27 43//27 42//27
f 44//28 46//28 45//28
f 41//29 47//29 43//29
f 48//30 50//30 49//30
f 51//31 53//31 52//31
f 52//32 53//32 54//32
f 55//33 57//33 56//33
f 57//34 58//34 50//34
f 50//35 58//35 59//35
f 50//36 59//36 49//36
f 60//37 52//37 54//37
f 61//38 55//38 56//38
f 47//39 62//39 43//39
f 63//40 65//40 64//40
f 60//41 54//41 66//41
f 60//42 66//42 67//42
f 68//43 47//43 41//43
f 42//44 46//44 44//44
f 69//45 71//45 70//45
f 63//46 64//46 72//46
f 63//47 72//47 73//47
f 73//48 72//48 74//48
f 75//49 42//49 44//49
f 73//50 74//50 76//50
f 73//51 76//51 77//51
f 77//52 76//52 78//52
f 79//53 81//53 80//53
f 82//54 84//54 83//54
f 85//55 87//55 86//55
f 88//56 90//56 89//56
f 91//57 93//57 92//57
f 94//58 96//58 95//58
f 97//59 96//59 94//59
f 98//60 99//60 93//60
f 98//61 93//61 100//61
f 100//62 93//62 91//62
f 90//63 99//63 101//63
f 102//64 97//64 94//64
f 103//65 94//65 95//65
f 104//66 88//66 89//66
f 87//67 106//67 105//67
f 87//68 105//68 86//68
f 107//69 109//69 108//69
f 108//70 109//70 110//70
f 84//71 112//71 111//71
f 84//72 111//72 83//72
f 83//73 111//73 113//73
f 114//74 85//74 86//74
f 114//75 86//75 115//75
f 115//76 86//76 116//76
f 81//77 108//77 110//77
f 80//78 117//78 79//78
f 81//79 118//79 80//79
f 119//80 121//80 120//80
f 122//81 124//81 123//81
f 125//82 127//82 126//82
f 119//83 128//83 121//83
f 129//84 131//84 130//84
f 132//85 134//85 133//85
f 135//86 137//86 136//86
f 137//87 139//87 138//87
f 137//88 138//88 136//88
f 138//89 139//89 140//89
f 141//90 140//90 142//90
f 143//91 134//91 132//91
f 134//92 144//92 133//92
f 145//93 135//93 136//93
f 124//94 141//94 142//94
f 146//95 132//95 133//95
f 128//96 148//96 147//96
f 128//97 147//97 121//97
f 127//98 150//98 149//98
f 127//99 149//99 126//99
f 124//100 142//100 131//100
f 124//101 131//101 123//101
f 123//102 131//102 129//102
f 151//103 146//103 152//103
f 153//104 151//104 152//104
f 154//105 156//105 155//105
f 157//106 159//106 158//106
f 160//107 162//107 161//107
f 163//108 165//108 164//108
f 166//109 168//109 167//109
f 169//110 171//110 170//110
f 172//111 171//111 169//111
f 168//112 174//112 173//112
f 168//113 173//113 167//113
f 173//114 174//114 175//114
f 175//115 174//115 176//115
f 175//116 176//116 177//116
f 177//117 176//117 178//117
f 162//118 172//118 169//118
f 179//119 169//119 170//119
f 159//120 177//120 178//120
f 162//121 169//121 179//121
f 162//122 179//122 161//122
f 180//123 166//123 181//123
f 159//124 178//124 182//124
f 159//125 182//125 158//125
f 183//126 160//126 161//126
f 184//127 186//127 185//127
