# Blender v2.90.1 OBJ File: 'matters.blend'
# www.blender.org
v -58.120636 -18.744461 -6.185908
v -58.120636 -18.744461 3.814092
v -58.120636 -8.744461 -6.185908
v -58.120636 -8.744461 3.814092
v -48.120636 -18.744461 -6.185908
v -48.120636 -18.744461 3.814092
v -48.120636 -8.744461 -6.185908
v -48.120636 -8.744461 3.814092
v -58.120636 -30.744461 -2.414383
v -58.120636 -30.744461 7.585616
v -58.120636 -20.744461 -2.414383
v -58.120636 -20.744461 7.585616
v -48.120636 -30.744461 -2.414383
v -48.120636 -30.744461 7.585616
v -48.120636 -20.744461 -2.414383
v -48.120636 -20.744461 7.585616
v -70.120636 -30.744461 -0.763580
v -70.120636 -30.744461 9.236421
v -70.120636 -20.744461 -0.763580
v -70.120636 -20.744461 9.236421
v -60.120636 -30.744461 -0.763580
v -60.120636 -30.744461 9.236421
v -60.120636 -20.744461 -0.763580
v -60.120636 -20.744461 9.236421
v -67.981689 -28.605515 17.351017
v -67.981689 -22.883408 17.351017
v -62.259583 -22.883408 17.351017
v -62.259583 -28.605515 17.351017
v -67.981689 -28.605515 18.378815
v -67.981689 -22.883408 18.378815
v -62.259583 -22.883408 18.378815
v -62.259583 -28.605515 18.378815
v -82.120636 -30.744461 -2.414383
v -82.120636 -30.744461 7.585616
v -82.120636 -20.744461 -2.414383
v -82.120636 -20.744461 7.585616
v -72.120636 -30.744461 -2.414383
v -72.120636 -30.744461 7.585616
v -72.120636 -20.744461 -2.414383
v -72.120636 -20.744461 7.585616
v -70.120636 -18.744461 -4.660981
v -70.120636 -18.744461 5.339019
v -70.120636 -8.744461 -4.660981
v -70.120636 -8.744461 5.339019
v -60.120636 -18.744461 -4.660981
v -60.120636 -18.744461 5.339019
v -60.120636 -8.744461 -4.660981
v -60.120636 -8.744461 5.339019
v -82.120636 -18.744461 -7.627959
v -82.120636 -18.744461 2.372041
v -82.120636 -8.744461 -7.627959
v -82.120636 -8.744461 2.372041
v -72.120636 -18.744461 -7.627959
v -72.120636 -18.744461 2.372041
v -72.120636 -8.744461 -7.627959
v -72.120636 -8.744461 2.372041
v -94.120636 -18.744461 -4.222791
v -94.120636 -18.744461 5.777209
v -94.120636 -8.744461 -4.222791
v -94.120636 -8.744461 5.777209
v -84.120636 -18.744461 -4.222791
v -84.120636 -18.744461 5.777209
v -84.120636 -8.744461 -4.222791
v -84.120636 -8.744461 5.777209
v -58.120636 -42.744461 0.766089
v -58.120636 -42.744461 10.766089
v -58.120636 -32.744461 0.766089
v -58.120636 -32.744461 10.766089
v -48.120636 -42.744461 0.766089
v -48.120636 -42.744461 10.766089
v -48.120636 -32.744461 0.766089
v -48.120636 -32.744461 10.766089
v -70.120636 -42.744461 3.914764
v -70.120636 -42.744461 13.914764
v -70.120636 -32.744461 3.914764
v -70.120636 -32.744461 13.914764
v -60.120636 -42.744461 3.914764
v -60.120636 -42.744461 13.914764
v -60.120636 -32.744461 3.914764
v -60.120636 -32.744461 13.914764
vn -1.0000 0.0000 0.0000
vn 0.0000 1.0000 0.0000
vn 1.0000 0.0000 0.0000
vn 0.0000 -1.0000 0.0000
vn 0.0000 0.0000 -1.0000
vn 0.0000 0.0000 1.0000
vn -0.9670 0.0000 0.2549
vn 0.0000 -0.9670 0.2549
vn 0.0000 0.9670 0.2549
vn 0.9670 0.0000 0.2549
s off
f 2//1 3//1 1//1
f 4//2 7//2 3//2
f 8//3 5//3 7//3
f 6//4 1//4 5//4
f 7//5 1//5 3//5
f 4//6 6//6 8//6
f 10//1 11//1 9//1
f 12//2 15//2 11//2
f 16//3 13//3 15//3
f 14//4 9//4 13//4
f 15//5 9//5 11//5
f 12//6 14//6 16//6
f 18//1 19//1 17//1
f 20//2 23//2 19//2
f 24//3 21//3 23//3
f 22//4 17//4 21//4
f 23//5 17//5 19//5
f 18//7 26//7 20//7
f 28//4 29//4 25//4
f 22//8 25//8 18//8
f 20//9 27//9 24//9
f 24//10 28//10 22//10
f 30//6 32//6 31//6
f 26//2 31//2 27//2
f 27//3 32//3 28//3
f 25//1 30//1 26//1
f 34//1 35//1 33//1
f 36//2 39//2 35//2
f 40//3 37//3 39//3
f 38//4 33//4 37//4
f 39//5 33//5 35//5
f 36//6 38//6 40//6
f 42//1 43//1 41//1
f 44//2 47//2 43//2
f 48//3 45//3 47//3
f 46//4 41//4 45//4
f 47//5 41//5 43//5
f 44//6 46//6 48//6
f 50//1 51//1 49//1
f 52//2 55//2 51//2
f 56//3 53//3 55//3
f 54//4 49//4 53//4
f 55//5 49//5 51//5
f 52//6 54//6 56//6
f 58//1 59//1 57//1
f 60//2 63//2 59//2
f 64//3 61//3 63//3
f 62//4 57//4 61//4
f 63//5 57//5 59//5
f 60//6 62//6 64//6
f 66//1 67//1 65//1
f 68//2 71//2 67//2
f 72//3 69//3 71//3
f 70//4 65//4 69//4
f 71//5 65//5 67//5
f 68//6 70//6 72//6
f 74//1 75//1 73//1
f 76//2 79//2 75//2
f 80//3 77//3 79//3
f 78//4 73//4 77//4
f 79//5 73//5 75//5
f 76//6 78//6 80//6
f 2//1 4//1 3//1
f 4//2 8//2 7//2
f 8//3 6//3 5//3
f 6//4 2//4 1//4
f 7//5 5//5 1//5
f 4//6 2//6 6//6
f 10//1 12//1 11//1
f 12//2 16//2 15//2
f 16//3 14//3 13//3
f 14//4 10//4 9//4
f 15//5 13//5 9//5
f 12//6 10//6 14//6
f 18//1 20//1 19//1
f 20//2 24//2 23//2
f 24//3 22//3 21//3
f 22//4 18//4 17//4
f 23//5 21//5 17//5
f 18//7 25//7 26//7
f 28//4 32//4 29//4
f 22//8 28//8 25//8
f 20//9 26//9 27//9
f 24//10 27//10 28//10
f 30//6 29//6 32//6
f 26//2 30//2 31//2
f 27//3 31//3 32//3
f 25//1 29//1 30//1
f 34//1 36//1 35//1
f 36//2 40//2 39//2
f 40//3 38//3 37//3
f 38//4 34//4 33//4
f 39//5 37//5 33//5
f 36//6 34//6 38//6
f 42//1 44//1 43//1
f 44//2 48//2 47//2
f 48//3 46//3 45//3
f 46//4 42//4 41//4
f 47//5 45//5 41//5
f 44//6 42//6 46//6
f 50//1 52//1 51//1
f 52//2 56//2 55//2
f 56//3 54//3 53//3
f 54//4 50//4 49//4
f 55//5 53//5 49//5
f 52//6 50//6 54//6
f 58//1 60//1 59//1
f 60//2 64//2 63//2
f 64//3 62//3 61//3
f 62//4 58//4 57//4
f 63//5 61//5 57//5
f 60//6 58//6 62//6
f 66//1 68//1 67//1
f 68//2 72//2 71//2
f 72//3 70//3 69//3
f 70//4 66//4 65//4
f 71//5 69//5 65//5
f 68//6 66//6 70//6
f 74//1 76//1 75//1
f 76//2 80//2 79//2
f 80//3 78//3 77//3
f 78//4 74//4 73//4
f 79//5 77//5 73//5
f 76//6 74//6 78//6
