# Blender v2.90.1 OBJ File: 'matters.blend'
# www.blender.org
v 1.222382 2.092174 0.856390
v 1.344482 1.720449 0.972215
v 1.321348 1.790878 1.060355
v 1.263604 1.966680 1.041547
v 1.227296 2.077219 0.968652
v 1.343485 1.723483 0.841659
v 1.323608 1.783999 0.814671
v 1.270693 1.945097 0.812244
v 1.222383 -2.092175 0.856390
v 1.344482 -1.720449 0.972215
v 1.321349 -1.790878 1.060355
v 1.263605 -1.966680 1.041547
v 1.227297 -2.077219 0.968652
v 1.343485 -1.723483 0.841659
v 1.323608 -1.783999 0.814671
v 1.270693 -1.945097 0.812244
vn -0.9501 -0.3121 0.0000
vn -0.9501 0.3121 0.0000
s off
f 5//1 8//1 4//1
f 4//1 2//1 3//1
f 2//1 7//1 6//1
f 8//1 7//1 2//1
f 16//2 13//2 12//2
f 14//2 12//2 11//2
f 15//2 16//2 14//2
f 4//1 8//1 2//1
f 5//1 1//1 8//1
f 11//2 10//2 14//2
f 16//2 9//2 13//2
f 14//2 16//2 12//2
