# Blender v2.90.1 OBJ File: 'matters.blend'
# www.blender.org
v -33.325508 18.560354 2.179449
v -33.318111 18.541294 2.166258
v -33.123726 18.521770 2.082551
v -33.183002 18.531317 2.019813
v -33.745708 18.593306 1.876980
v -33.654610 18.609980 1.796346
v -33.811771 18.597115 1.890063
v -32.231987 18.530722 1.451661
v -31.989605 18.461550 1.503226
v -32.101791 18.547432 1.406307
v -32.365696 18.557184 1.280399
v -32.391006 18.506350 1.328847
v -33.289749 18.790653 2.148306
v -33.293358 18.773233 2.164226
v -33.195221 18.757727 2.132601
v -32.288929 18.613852 1.319591
v -32.337135 18.652653 1.425278
v -32.373600 18.660973 1.284492
v -32.384804 18.466063 1.279106
v -32.376362 18.706356 1.283099
v -32.321430 18.425859 1.508712
v -32.423477 18.431330 1.476119
v -32.063385 18.364382 1.372636
v -32.148628 18.429745 1.516984
v -32.312744 18.467701 1.605811
v -31.917955 18.407938 1.488556
v -32.303791 18.512085 1.618413
v -32.135078 18.512066 1.510845
v -32.585461 18.579744 1.680419
v -32.615662 18.570194 1.779134
v -32.524845 18.477509 1.506637
v -32.465866 18.533924 1.481303
v -33.106026 18.504395 1.996439
v -33.156887 18.558722 1.999233
v -32.970360 18.483288 1.247654
v -32.979050 18.504807 1.177756
v -32.849808 18.511356 1.013610
v -32.679962 18.473236 1.051310
v -32.874348 18.491585 1.251489
v -32.615482 18.474407 1.092470
v -32.610649 18.507484 1.145952
v -32.884525 18.557751 1.281253
v -32.894455 18.578783 1.233113
v -32.781868 18.599031 1.098085
v -32.925175 18.571514 1.093131
v -33.061081 18.568071 1.258677
v -33.558067 18.593828 1.668686
v -32.686184 18.751381 1.702450
v -32.378601 18.722128 1.615448
v -32.233940 18.769230 1.349413
v -32.430008 18.747215 1.461750
v -32.452370 18.706520 1.449787
v -32.690304 18.713226 1.677045
v -32.419182 18.641691 1.648874
v -32.157879 18.630083 1.447043
v -31.963650 18.652826 1.499398
v -33.043316 18.722998 1.981647
v -32.204128 18.671864 1.576176
v -32.322006 18.684946 1.620481
v -32.916412 18.693890 1.274891
v -32.830868 18.667271 1.101015
v -32.652218 18.666113 1.166210
v -33.561806 18.771496 1.759329
v -33.623199 18.777153 1.746160
v -33.028950 18.721640 1.250799
v -32.819180 18.712692 1.249299
v -32.946209 18.785887 1.189052
v -33.785622 18.814802 1.884541
v -32.602531 18.762108 1.070777
v -32.932610 18.728636 1.092578
v -33.041859 18.752741 1.238377
v -33.136768 18.571487 2.099714
v -33.127682 18.582497 2.021766
v -33.128399 18.757885 2.002205
v -33.159210 18.781223 2.096489
v -33.418411 18.800142 1.656974
v -33.793636 18.812836 1.910801
v -32.290859 18.406279 1.233221
v -32.093838 18.594683 1.409150
v -31.711494 18.648359 1.518500
v -32.628479 18.571077 1.156925
v -32.958397 18.544340 1.126852
v -31.791191 18.770418 1.421379
v -32.287640 18.758591 1.233249
v -32.796810 18.753395 1.223735
vn 0.3150 -0.4559 0.8324
vn 0.3140 -0.4535 0.8341
vn 0.3125 -0.4550 0.8339
vn -0.7144 0.1890 -0.6738
vn -0.7152 0.1811 -0.6750
vn -0.7170 0.1858 -0.6719
vn 0.1183 0.9376 0.3271
vn 0.1181 0.9370 0.3287
vn 0.1199 0.9371 0.3278
vn 0.1108 0.8000 0.5897
vn 0.0761 0.8110 0.5801
vn 0.0816 0.7803 0.6201
vn -0.4975 0.7164 0.4892
vn -0.4919 0.7063 0.5091
vn -0.4812 0.7230 0.4957
vn 0.3324 0.6033 0.7250
vn 0.3310 0.6001 0.7282
vn 0.3283 0.6011 0.7286
vn -0.5280 -0.8451 0.0834
vn -0.5097 -0.8571 0.0748
vn -0.5034 -0.8591 0.0925
vn -0.9348 0.2028 -0.2917
vn -0.9434 0.1845 -0.2757
vn -0.9385 0.2152 -0.2701
vn -0.9617 -0.0741 0.2640
vn -0.9662 -0.0403 0.2545
vn -0.9692 -0.0502 0.2410
vn -0.1201 -0.9706 0.2088
vn -0.1182 -0.9701 0.2118
vn -0.1274 -0.9683 0.2147
vn 0.0034 -0.9111 0.4122
vn -0.0051 -0.9082 0.4185
vn -0.0068 -0.9147 0.4041
vn 0.0041 -0.9202 0.3915
vn 0.0038 -0.9177 0.3973
vn -0.0100 -0.9170 0.3987
vn -0.0289 -0.9219 0.3863
vn -0.0367 -0.9153 0.4010
vn -0.0789 -0.9214 0.3804
vn 0.1220 -0.1226 0.9849
vn 0.0702 -0.1086 0.9916
vn 0.1157 -0.1526 0.9815
vn 0.1927 -0.6039 0.7734
vn 0.1929 -0.5931 0.7817
vn 0.1575 -0.6048 0.7806
vn 0.1566 0.9868 0.0410
vn 0.1642 0.9852 0.0499
vn 0.1653 0.9854 0.0414
vn 0.2054 0.9661 0.1563
vn 0.2045 0.9665 0.1550
vn 0.1971 0.9674 0.1589
vn -0.7178 0.5423 -0.4366
vn -0.7100 0.5433 -0.4481
vn -0.7116 0.5405 -0.4489
vn -0.4776 -0.7018 -0.5286
vn -0.4799 -0.7000 -0.5289
vn -0.4773 -0.7006 -0.5304
vn -0.5754 0.2522 -0.7780
vn -0.5726 0.2509 -0.7805
vn -0.5769 0.2501 -0.7776
vn -0.2728 -0.9282 -0.2531
vn -0.2713 -0.9287 -0.2527
vn -0.2824 -0.9299 -0.2357
vn -0.1705 -0.9639 -0.2046
vn -0.1580 -0.9688 -0.1911
vn -0.1805 -0.9626 -0.2023
vn 0.2498 -0.8338 0.4924
vn 0.2277 -0.8153 0.5325
vn 0.2054 -0.8582 0.4703
vn 0.3177 -0.3309 0.8886
vn 0.3687 -0.3354 0.8669
vn 0.3689 -0.3321 0.8681
vn 0.5378 -0.2767 0.7964
vn 0.5404 -0.2752 0.7951
vn 0.5379 -0.2738 0.7973
vn -0.1882 0.9821 -0.0119
vn -0.2014 0.9795 -0.0035
vn -0.1769 0.9842 0.0006
vn -0.0717 0.9967 -0.0369
vn -0.0736 0.9971 -0.0215
vn -0.0688 0.9970 -0.0368
vn 0.2841 0.8980 0.3360
vn 0.2852 0.8987 0.3333
vn 0.2824 0.8996 0.3331
vn -0.6215 0.1707 -0.7646
vn -0.6230 0.1718 -0.7632
vn -0.6207 0.1715 -0.7651
vn 0.1647 0.9524 0.2567
vn 0.1626 0.9528 0.2564
vn 0.1602 0.9520 0.2610
vn -0.2776 0.9112 -0.3044
vn -0.2822 0.9050 -0.3183
vn -0.2873 0.9047 -0.3146
vn -0.7733 0.5187 -0.3647
vn -0.7819 0.5313 -0.3261
vn -0.7678 0.5326 -0.3560
vn -0.4529 -0.7708 -0.4480
vn -0.4607 -0.7645 -0.4508
vn -0.4522 -0.7668 -0.4556
vn -0.5867 0.5124 -0.6271
vn -0.5846 0.5074 -0.6331
vn -0.5973 0.4981 -0.6286
vn 0.0761 -0.9855 0.1519
vn 0.0753 -0.9838 0.1627
vn 0.0363 -0.9868 0.1579
vn -0.1123 -0.9894 -0.0919
vn -0.1101 -0.9903 -0.0843
vn -0.1234 -0.9885 -0.0878
vn -0.1936 -0.9747 -0.1118
vn -0.1909 -0.9744 -0.1189
vn -0.1881 -0.9750 -0.1183
vn 0.2723 0.0827 0.9586
vn 0.3064 0.0672 0.9495
vn 0.3110 0.0812 0.9469
vn 0.3212 -0.1398 0.9366
vn 0.3362 -0.1451 0.9306
vn 0.3367 -0.1393 0.9312
vn -0.0500 -0.9911 0.1237
vn -0.0498 -0.9898 0.1334
vn -0.0649 -0.9902 0.1236
vn -0.1005 -0.9945 0.0309
vn -0.0978 -0.9948 0.0275
vn -0.0970 -0.9949 0.0288
vn -0.2085 -0.9680 -0.1397
vn -0.2114 -0.9672 -0.1408
vn -0.2076 -0.9678 -0.1420
vn 0.2930 -0.8024 0.5199
vn 0.2887 -0.8045 0.5190
vn 0.2931 -0.8045 0.5166
vn 0.0955 0.9928 0.0720
vn 0.0945 0.9930 0.0702
vn 0.0754 0.9939 0.0810
vn -0.5027 0.7103 -0.4927
vn -0.5034 0.7139 -0.4867
vn -0.4996 0.7117 -0.4938
vn -0.7328 -0.4928 -0.4692
vn -0.7379 -0.4914 -0.4627
vn -0.7334 -0.4908 -0.4703
vn -0.5257 0.5410 -0.6565
vn -0.5247 0.5397 -0.6583
vn -0.5279 0.5396 -0.6558
vn -0.0154 -0.9808 0.1945
vn -0.0129 -0.9809 0.1939
vn -0.0154 -0.9804 0.1963
vn -0.0719 -0.9962 0.0497
vn -0.0679 -0.9965 0.0484
vn -0.0698 -0.9963 0.0506
vn 0.4634 -0.3274 0.8235
vn 0.4601 -0.3238 0.8267
vn 0.4587 -0.3317 0.8243
vn 0.4712 0.4203 0.7754
vn 0.4765 0.4189 0.7730
vn 0.4771 0.4197 0.7722
vn -0.3169 0.8268 -0.4648
vn -0.3192 0.8280 -0.4611
vn -0.3145 0.8288 -0.4629
vn -0.3955 0.8382 -0.3756
vn -0.3935 0.8402 -0.3732
vn -0.3919 0.8391 -0.3771
vn -0.0311 -0.9901 0.1366
vn -0.0307 -0.9904 0.1345
vn -0.0296 -0.9903 0.1356
vn -0.1341 0.9651 -0.2249
vn -0.1354 0.9652 -0.2236
vn -0.1343 0.9655 -0.2230
vn -0.6524 -0.1321 -0.7463
vn -0.6542 -0.1309 -0.7449
vn -0.6525 -0.1311 -0.7463
vn -0.4742 0.5225 -0.7086
vn -0.4744 0.5251 -0.7065
vn -0.4716 0.5232 -0.7099
vn -0.0179 -0.9775 0.2100
vn -0.0148 -0.9780 0.2080
vn -0.0150 -0.9775 0.2103
vn -0.1237 -0.9867 0.1050
vn -0.1232 -0.9871 0.1027
vn -0.1202 -0.9874 0.1030
vn -0.5848 -0.3149 -0.7476
vn -0.5858 -0.3179 -0.7455
vn -0.5916 -0.3139 -0.7426
vn 0.4840 0.4315 0.7613
vn 0.4781 0.4317 0.7649
vn 0.4834 0.4304 0.7623
vn 0.5687 0.0780 0.8188
vn 0.5699 0.0797 0.8178
vn 0.5659 0.0798 0.8206
vn 0.1063 0.9885 0.1077
vn 0.1070 0.9887 0.1047
vn 0.1041 0.9888 0.1072
vn -0.6587 -0.0850 -0.7476
vn -0.6576 -0.0844 -0.7486
vn -0.6562 -0.0852 -0.7497
vn -0.7195 0.1780 -0.6713
vn -0.1906 -0.9817 0.0008
vn -0.1810 -0.9835 0.0013
vn -0.1795 -0.9836 0.0177
vn -0.0553 0.9805 0.1885
vn -0.0985 0.9770 0.1888
vn -0.0446 0.9771 0.2078
vn -0.6501 -0.4335 -0.6240
vn -0.6511 -0.4347 -0.6222
vn -0.6528 -0.4339 -0.6210
vn 0.3303 0.6051 0.7244
vn -0.3655 -0.9133 -0.1795
vn -0.3641 -0.9134 -0.1821
vn -0.3637 -0.9140 -0.1796
vn -0.1537 -0.9420 0.2982
vn -0.1622 -0.9481 0.2736
vn -0.1473 -0.9501 0.2751
vn -0.2463 -0.8846 0.3959
vn -0.2800 -0.8802 0.3833
vn -0.2617 -0.8898 0.3739
vn -0.0636 -0.8199 0.5689
vn -0.0438 -0.7932 0.6073
vn -0.1083 -0.7987 0.5919
vn -0.4668 -0.8553 -0.2247
vn -0.4617 -0.8532 -0.2425
vn -0.4605 -0.8540 -0.2422
vn 0.3941 -0.3280 0.8586
vn 0.3954 -0.3207 0.8607
vn 0.3815 -0.3197 0.8673
vn 0.3144 0.8175 0.4824
vn 0.2803 0.8238 0.4926
vn 0.3093 0.8140 0.4916
vn 0.4639 0.4848 0.7414
vn 0.4711 0.4843 0.7372
vn 0.4678 0.4893 0.7360
vn 0.3128 0.9234 -0.2226
vn 0.2810 0.9349 -0.2168
vn 0.3173 0.9241 -0.2132
vn -0.0074 0.9829 -0.1841
vn -0.0172 0.9827 -0.1845
vn -0.0081 0.9854 -0.1702
vn -0.0153 0.9719 -0.2347
vn -0.0237 0.9727 -0.2308
vn -0.0150 0.9728 -0.2312
vn -0.7368 0.4768 -0.4793
vn -0.7437 0.4657 -0.4796
vn -0.7446 0.4811 -0.4627
vn -0.0551 -0.9977 0.0385
vn -0.0065 -0.9992 0.0395
vn -0.0083 -0.9987 0.0497
vn 0.0759 -0.9711 0.2265
vn 0.0328 -0.9680 0.2489
vn 0.0745 -0.9716 0.2246
vn 0.4398 -0.0325 0.8975
vn 0.4000 0.0017 0.9165
vn 0.4222 -0.0502 0.9051
vn 0.1347 0.9186 0.3716
vn 0.1103 0.9177 0.3817
vn 0.1357 0.9176 0.3736
vn 0.0933 0.9709 0.2207
vn 0.0673 0.9733 0.2196
vn 0.0958 0.9671 0.2358
vn -0.0919 0.9803 -0.1746
vn -0.0901 0.9805 -0.1749
vn -0.0893 0.9803 -0.1763
vn -0.7639 0.1599 -0.6252
vn -0.7744 0.1556 -0.6132
vn -0.7614 0.1641 -0.6271
vn -0.7768 -0.3035 -0.5517
vn -0.7809 -0.3030 -0.5463
vn -0.7783 -0.3021 -0.5504
vn -0.0449 0.9595 0.2781
vn -0.0642 0.9567 0.2838
vn -0.0466 0.9570 0.2864
vn 0.4798 0.7819 0.3980
vn 0.4759 0.7857 0.3952
vn 0.4767 0.7813 0.4030
vn -0.1333 0.9905 -0.0331
vn -0.1312 0.9913 -0.0127
vn -0.1177 0.9922 -0.0414
vn -0.6062 0.7090 -0.3603
vn -0.6257 0.7048 -0.3343
vn -0.5973 0.7298 -0.3326
vn -0.4548 -0.8661 -0.2075
vn -0.4445 -0.8711 -0.2088
vn -0.4525 -0.8741 -0.1763
vn -0.6002 0.4894 -0.6326
vn -0.5929 0.4912 -0.6381
vn -0.5949 0.4879 -0.6388
vn 0.3179 0.2004 0.9267
vn 0.2982 0.1576 0.9414
vn 0.3252 0.1644 0.9312
vn 0.3539 0.0115 0.9352
vn 0.3369 -0.0054 0.9415
vn 0.3567 -0.0022 0.9342
vn -0.5051 -0.8545 -0.1211
vn -0.5014 -0.8577 -0.1133
vn -0.5120 -0.8514 -0.1143
vn -0.2045 -0.9643 -0.1682
vn -0.2006 -0.9654 -0.1664
vn -0.2040 -0.9659 -0.1591
vn 0.3052 -0.4261 0.8516
vn 0.3093 -0.4230 0.8517
vn 0.2946 -0.4214 0.8577
vn 0.0942 0.9841 0.1503
vn 0.0966 0.9838 0.1514
vn 0.0954 0.9842 0.1491
vn 0.5676 0.1852 0.8022
vn 0.5724 0.1878 0.7982
vn 0.5700 0.1911 0.7991
vn 0.4995 0.5150 0.6966
vn 0.5170 0.5152 0.6836
vn 0.5126 0.5196 0.6835
vn -0.0185 0.9983 -0.0556
vn -0.0006 0.9977 -0.0683
vn -0.0028 0.9976 -0.0686
vn 0.1606 -0.9107 0.3807
vn 0.1573 -0.9131 0.3763
vn 0.1623 -0.9115 0.3778
vn 0.0287 -0.9788 0.2028
vn 0.0298 -0.9785 0.2043
vn 0.0261 -0.9785 0.2048
vn 0.3903 -0.2077 0.8969
vn 0.3930 -0.2070 0.8959
vn 0.3905 -0.2063 0.8972
vn 0.4847 -0.1702 0.8579
vn 0.4846 -0.1688 0.8583
vn 0.4789 -0.1693 0.8614
vn -0.2047 0.9190 -0.3368
vn -0.2078 0.9187 -0.3358
vn -0.2082 0.9194 -0.3336
vn -0.0004 0.9899 0.1419
vn 0.0025 0.9903 0.1388
vn -0.0001 0.9903 0.1393
vn 0.1119 0.9920 0.0587
vn 0.1116 0.9921 0.0571
vn 0.1094 0.9923 0.0584
vn -0.3723 -0.3061 -0.8762
vn -0.3738 -0.3026 -0.8768
vn -0.3702 -0.3036 -0.8780
vn -0.5689 -0.5024 -0.6511
vn -0.5723 -0.5011 -0.6491
vn -0.5710 -0.5000 -0.6512
vn -0.3960 -0.8666 -0.3037
vn -0.3971 -0.8655 -0.3054
vn -0.3943 -0.8661 -0.3074
vn 0.0738 -0.9631 0.2590
vn 0.0708 -0.9633 0.2589
vn 0.0739 -0.9635 0.2575
vn -0.3116 -0.9183 -0.2440
vn -0.3101 -0.9187 -0.2446
vn -0.3108 -0.9190 -0.2424
vn 0.4834 0.5721 0.6627
vn 0.4807 0.5721 0.6645
vn 0.4830 0.5713 0.6636
vn -0.2624 0.9130 -0.3124
vn -0.2608 0.9130 -0.3138
vn -0.2623 0.9126 -0.3138
vn 0.4106 0.7027 0.5811
vn 0.4115 0.7035 0.5795
vn 0.4056 0.7052 0.5815
vn -0.3891 0.7102 -0.5868
vn -0.3875 0.7113 -0.5865
vn -0.3871 0.7100 -0.5883
vn -0.4285 -0.8308 -0.3552
vn -0.4251 -0.8316 -0.3574
vn -0.4260 -0.8323 -0.3547
vn -0.4300 -0.7840 -0.4477
vn -0.4281 -0.7854 -0.4471
vn -0.4352 -0.7844 -0.4420
vn 0.4280 -0.4401 0.7894
vn 0.4267 -0.4381 0.7912
vn 0.4218 -0.4410 0.7922
vn -0.1136 -0.9886 0.0983
vn -0.1104 -0.9892 0.0967
vn -0.1116 -0.9888 0.0990
vn 0.5573 0.1312 0.8199
vn 0.5604 0.1310 0.8178
vn 0.5580 0.1328 0.8192
vn -0.5826 -0.4991 -0.6415
vn -0.5835 -0.4967 -0.6425
vn -0.5815 -0.4982 -0.6431
vn -0.1080 -0.7939 0.5984
vn -0.0628 -0.7888 0.6114
vn -0.0733 -0.7760 0.6264
vn -0.5918 -0.7673 -0.2472
vn -0.6152 -0.7505 -0.2416
vn -0.6035 -0.7561 -0.2532
vn 0.0805 0.9895 0.1201
vn 0.0801 0.9893 0.1217
vn 0.0828 0.9894 0.1193
vn 0.0791 0.9966 0.0218
vn 0.0811 0.9965 0.0204
vn 0.0795 0.9966 0.0201
s 1
f 1//1 2//2 3//3
f 2//4 1//5 4//6
f 5//7 6//8 7//9
f 8//10 9//11 10//12
f 8//13 11//14 12//15
f 13//16 14//17 15//18
f 16//19 17//20 18//21
f 12//22 11//23 19//24
f 20//25 18//26 17//27
f 21//28 22//29 23//30
f 21//31 23//32 24//33
f 25//34 21//35 24//36
f 24//37 23//38 26//39
f 24//40 26//41 9//42
f 27//43 24//44 9//45
f 28//46 8//47 29//48
f 29//49 30//50 28//51
f 12//52 31//53 32//54
f 31//55 22//56 33//57
f 31//58 34//59 32//60
f 35//61 36//62 37//63
f 35//64 37//65 38//66
f 39//67 40//68 41//69
f 41//70 42//71 39//72
f 42//73 5//74 39//75
f 43//76 44//77 45//78
f 43//79 45//80 46//81
f 43//82 6//83 42//84
f 46//85 36//86 47//87
f 48//88 49//89 50//90
f 51//91 48//92 50//93
f 51//94 20//95 52//96
f 52//97 17//98 53//99
f 52//100 48//101 51//102
f 54//103 55//104 56//105
f 54//106 17//107 55//108
f 17//109 54//110 57//111
f 56//112 58//113 54//114
f 58//115 59//116 54//117
f 60//118 61//119 62//120
f 60//121 63//122 64//123
f 65//124 60//125 64//126
f 60//127 66//128 63//129
f 67//130 68//131 69//132
f 67//133 70//134 71//135
f 71//136 70//137 65//138
f 71//139 68//140 67//141
f 3//142 2//143 33//144
f 21//145 33//146 22//147
f 3//148 25//149 27//150
f 27//151 30//152 72//153
f 73//154 32//155 34//156
f 73//157 34//158 1//159
f 35//160 5//161 7//162
f 6//163 46//164 47//165
f 47//166 36//167 7//168
f 48//169 53//170 74//171
f 54//172 15//173 57//174
f 57//175 15//176 14//177
f 74//178 53//179 17//180
f 15//181 59//182 75//183
f 76//184 63//185 66//186
f 68//187 77//188 76//189
f 71//190 64//191 68//192
f 4//6 1//5 34//193
f 23//194 22//195 78//196
f 8//197 10//198 11//199
f 14//200 13//201 74//202
f 75//203 13//16 15//18
f 64//204 77//205 68//206
f 16//207 55//208 17//209
f 16//210 79//211 55//212
f 56//213 79//214 80//215
f 19//216 22//217 31//218
f 27//219 25//220 24//221
f 27//222 9//223 28//224
f 28//225 30//226 27//227
f 28//228 9//229 8//230
f 32//231 8//232 12//233
f 29//234 8//235 32//236
f 31//237 12//238 19//239
f 40//240 35//241 38//242
f 35//243 40//244 39//245
f 42//246 41//247 81//248
f 42//249 81//250 43//251
f 43//252 81//253 44//254
f 43//255 46//256 6//257
f 46//258 45//259 82//260
f 46//261 82//262 36//263
f 59//264 83//265 50//266
f 49//267 59//268 50//269
f 50//270 84//271 51//272
f 51//273 84//274 20//275
f 17//276 52//277 20//278
f 52//279 53//280 48//281
f 56//282 83//283 58//284
f 58//285 83//286 59//287
f 60//288 70//289 61//290
f 60//291 65//292 70//293
f 66//294 60//295 62//296
f 30//297 73//298 72//299
f 85//300 76//301 66//302
f 69//303 76//304 85//305
f 69//306 68//307 76//308
f 21//309 25//310 3//311
f 3//312 33//313 21//314
f 72//315 1//316 3//317
f 72//318 3//319 27//320
f 73//321 29//322 32//323
f 73//324 1//325 72//326
f 48//327 75//328 49//329
f 34//330 33//331 4//332
f 34//333 31//334 33//335
f 4//336 33//337 2//338
f 35//339 39//340 5//341
f 35//342 7//343 36//344
f 5//345 42//346 6//347
f 47//348 7//349 6//350
f 49//351 75//352 59//353
f 48//354 74//355 13//356
f 57//357 14//358 74//359
f 57//360 74//361 17//362
f 15//363 54//364 59//365
f 63//366 77//367 64//368
f 76//369 77//370 63//371
f 71//372 65//373 64//374
f 56//375 55//376 79//377
f 19//378 78//379 22//380
f 30//381 29//382 73//383
f 48//384 13//385 75//386
