# Blender v2.90.1 OBJ File: 'matters.blend'
# www.blender.org
v -10.342113 4.776654 3.454044
v -10.185406 4.609097 2.704044
v -9.893978 4.828043 3.454044
v -9.704586 4.500000 3.454044
v -9.824635 4.223346 3.454044
v -10.126842 4.357090 2.704044
v -10.272770 4.171957 3.454044
v -10.158062 4.370638 2.704044
v -10.228870 4.466187 2.704044
v -10.462170 4.500000 3.454044
v -10.232746 4.500000 2.704044
v -10.272770 4.828043 3.454044
v -9.973156 4.862401 3.454044
v -9.714420 4.585747 3.454044
v -9.893978 4.171957 3.454044
v -10.193600 4.137599 3.454044
v -10.452335 4.414253 3.454044
v -10.158062 4.629362 2.704044
v -10.008686 4.629362 2.704044
v -10.039913 4.642911 2.704044
v -9.937878 4.533814 2.704044
v -9.934002 4.500000 2.704044
v -9.981342 4.390903 2.704044
v -10.008686 4.370638 2.704044
v -26.342113 4.776654 3.454044
v -26.185406 4.609097 2.704044
v -25.893978 4.828043 3.454044
v -25.704586 4.500000 3.454044
v -25.824635 4.223346 3.454044
v -26.126842 4.357090 2.704044
v -26.272770 4.171957 3.454044
v -26.158062 4.370638 2.704044
v -26.228870 4.466187 2.704044
v -26.462170 4.500000 3.454044
v -26.232746 4.500000 2.704044
v -26.272770 4.828043 3.454044
v -25.973156 4.862401 3.454044
v -25.714420 4.585747 3.454044
v -25.893978 4.171957 3.454044
v -26.193600 4.137599 3.454044
v -26.452335 4.414253 3.454044
v -26.158062 4.629362 2.704044
v -26.008686 4.629362 2.704044
v -26.039913 4.642911 2.704044
v -25.937878 4.533814 2.704044
v -25.934002 4.500000 2.704044
v -25.981342 4.390903 2.704044
v -26.008686 4.370638 2.704044
v -42.342113 4.776654 3.454044
v -42.185406 4.609097 2.704044
v -41.893978 4.828043 3.454044
v -41.704586 4.500000 3.454044
v -41.824635 4.223346 3.454044
v -42.126842 4.357090 2.704044
v -42.272770 4.171957 3.454044
v -42.158062 4.370638 2.704044
v -42.228870 4.466187 2.704044
v -42.462170 4.500000 3.454044
v -42.232746 4.500000 2.704044
v -42.272770 4.828043 3.454044
v -41.973156 4.862401 3.454044
v -41.714420 4.585747 3.454044
v -41.893978 4.171957 3.454044
v -42.193600 4.137599 3.454044
v -42.452335 4.414253 3.454044
v -42.158062 4.629362 2.704044
v -42.008686 4.629362 2.704044
v -42.039913 4.642911 2.704044
v -41.937878 4.533814 2.704044
v -41.934002 4.500000 2.704044
v -41.981342 4.390903 2.704044
v -42.008686 4.370638 2.704044
v -58.342113 4.776654 3.454044
v -58.185406 4.609097 2.704044
v -57.893978 4.828043 3.454044
v -57.704586 4.500000 3.454044
v -57.824635 4.223346 3.454044
v -58.126842 4.357090 2.704044
v -58.272770 4.171957 3.454044
v -58.158062 4.370638 2.704044
v -58.228870 4.466187 2.704044
v -58.462170 4.500000 3.454044
v -58.232746 4.500000 2.704044
v -58.272770 4.828043 3.454044
v -57.973156 4.862401 3.454044
v -57.714420 4.585747 3.454044
v -57.893978 4.171957 3.454044
v -58.193600 4.137599 3.454044
v -58.452335 4.414253 3.454044
v -58.158062 4.629362 2.704044
v -58.008686 4.629362 2.704044
v -58.039913 4.642911 2.704044
v -57.937878 4.533814 2.704044
v -57.934002 4.500000 2.704044
v -57.981342 4.390903 2.704044
v -58.008686 4.370638 2.704044
vn 0.1097 -0.9565 -0.2702
vn -0.7735 -0.5733 -0.2702
vn -0.8832 0.3833 -0.2702
vn -0.7736 -0.5733 -0.2702
vn 0.7736 0.5733 -0.2702
vn 0.8832 -0.3833 -0.2702
vn -0.1097 0.9565 -0.2702
vn -0.7736 -0.5732 -0.2702
vn 0.7736 0.5732 -0.2702
vn 0.8832 -0.3832 -0.2702
vn 0.7735 0.5733 -0.2702
s off
f 24//1 16//1 6//1
f 17//2 8//2 7//2
f 1//3 11//3 10//3
f 24//1 15//1 16//1
f 17//4 9//4 8//4
f 1//3 2//3 11//3
s 1
f 14//5 19//5 3//5
f 4//6 23//6 22//6
f 13//7 18//7 12//7
f 14//5 21//5 19//5
f 4//6 5//6 23//6
f 13//7 20//7 18//7
s off
f 48//1 40//1 30//1
f 41//2 32//2 31//2
f 25//3 35//3 34//3
f 48//1 39//1 40//1
f 41//8 33//8 32//8
f 25//3 26//3 35//3
s 1
f 38//5 43//9 27//5
f 28//6 47//6 46//10
f 37//7 42//7 36//7
f 38//5 45//9 43//9
f 28//6 29//6 47//6
f 37//7 44//7 42//7
s off
f 72//1 64//1 54//1
f 65//2 56//2 55//2
f 49//3 59//3 58//3
f 72//1 63//1 64//1
f 65//8 57//8 56//8
f 49//3 50//3 59//3
s 1
f 62//5 67//9 51//5
f 52//6 71//6 70//10
f 61//7 66//7 60//7
f 62//5 69//9 67//9
f 52//6 53//6 71//6
f 61//7 68//7 66//7
s off
f 78//1 87//1 88//1
f 89//2 80//2 79//2
f 73//3 83//3 82//3
f 78//1 96//1 87//1
f 89//2 81//2 80//2
f 73//3 74//3 83//3
s 1
f 86//11 91//9 75//11
f 76//6 95//6 94//6
f 85//7 90//7 84//7
f 86//11 93//9 91//9
f 76//6 77//6 95//6
f 85//7 92//7 90//7
