# Blender v2.90.1 OBJ File: 'matters.blend'
# www.blender.org
v 0.424884 1.635774 1.336473
v 0.370859 1.662391 1.410994
v 0.453573 1.664852 1.334129
v 0.334064 1.537984 1.358767
v 0.275775 1.529469 1.493560
v 0.272083 1.440518 1.490658
v 0.347789 1.353336 1.512999
v 0.344912 1.430406 1.370148
v 0.265969 1.500104 1.622646
v 0.381919 1.646507 1.666594
v 0.352290 1.686427 1.571533
v 0.450989 1.700683 1.586727
v 0.449028 1.667528 1.516724
v 0.497794 1.738075 1.460955
v 0.472055 1.690099 1.545892
v 0.360972 1.674809 1.501249
v 0.475012 1.700988 1.438867
v 0.511852 1.701685 1.446939
v 0.437898 1.691656 1.392576
v 0.477244 1.702153 1.402355
v 0.486031 1.692012 1.396649
v 0.488623 1.695511 1.390195
v 0.481566 1.698438 1.413901
v 0.489518 1.685318 1.374110
v 0.476103 1.681969 1.350907
v 0.330327 1.353045 1.619512
v 0.345594 1.417429 1.699810
v 0.476709 1.407354 1.656944
v 0.357631 1.420621 1.265534
v 0.443336 1.387089 1.386167
v 0.543628 1.441564 1.286189
v 0.456055 1.377304 1.281552
v 0.549356 1.580992 1.356731
v 0.534256 1.548007 1.262674
v 0.583208 1.568934 1.445553
v 0.552622 1.621258 1.350249
v 0.530909 1.451349 1.390804
v 0.526061 1.419316 1.534294
v 0.465026 1.355603 1.522059
v 0.496496 1.596080 1.685241
v 0.569585 1.590793 1.606898
v 0.512741 1.673506 1.596777
v 0.508748 1.641245 1.526443
v 0.543349 1.718026 1.468369
v 0.502532 1.676686 1.550853
v 0.574406 1.580874 1.535985
v 0.537051 1.673684 1.448964
v 0.559819 1.637998 1.412418
v 0.546202 1.671805 1.413578
v 0.534792 1.670552 1.404585
v 0.537385 1.674051 1.398131
v 0.537682 1.673741 1.423034
v 0.533748 1.665851 1.381309
v 0.546095 1.651164 1.362298
v 0.442833 1.486112 1.717579
v 0.328257 1.536538 1.698932
v 0.435832 1.591325 1.246655
v 0.543749 1.696975 1.644653
v 0.303989 1.650785 1.588095
v 0.578224 1.590113 1.629612
v 0.423797 1.732018 1.630753
vn -0.5862 0.5288 -0.6138
vn -0.6385 0.4507 -0.6239
vn -0.8936 0.1612 -0.4190
vn -0.9081 0.1723 -0.3818
vn -0.8517 0.3960 -0.3433
vn -0.8429 -0.3324 -0.4232
vn -0.6631 -0.6643 -0.3450
vn -0.8201 -0.3292 -0.4680
vn -0.9969 0.0435 -0.0658
vn -0.7643 0.4740 0.4373
vn -0.9040 0.4266 0.0284
vn -0.1936 0.8816 0.4305
vn -0.7690 0.6276 0.1214
vn -0.8457 0.5049 -0.1730
vn -0.8452 0.5047 -0.1758
vn -0.8475 0.5054 -0.1624
vn -0.8430 0.5041 -0.1875
vn 0.1872 0.4152 -0.8903
vn -0.8385 0.5428 -0.0466
vn -0.6660 0.7398 0.0957
vn -0.5647 0.8097 0.1595
vn 0.1075 0.9829 -0.1492
vn 0.1054 0.9851 -0.1362
vn 0.1054 0.9850 -0.1365
vn -0.3944 0.8847 0.2486
vn 0.0674 0.5330 -0.8434
vn -0.0456 0.8858 0.4619
vn -0.3276 0.8568 0.3983
vn -0.0890 0.8391 -0.5367
vn -0.0581 0.9915 -0.1165
vn -0.0923 0.9878 -0.1251
vn -0.0328 0.9934 -0.1101
vn -0.3715 0.9216 0.1121
vn -0.4584 0.7548 -0.4691
vn -0.2919 0.8373 -0.4623
vn 0.0580 0.9828 -0.1753
vn 0.0032 0.9949 -0.1008
vn -0.7337 -0.6684 -0.1221
vn -0.3928 -0.9172 -0.0669
vn -0.9062 -0.3995 0.1384
vn 0.1370 -0.7854 0.6037
vn 0.1950 -0.8558 0.4791
vn 0.2125 -0.8740 0.4371
vn -0.8152 -0.3663 0.4487
vn -0.4074 -0.9125 0.0358
vn 0.0729 -0.9792 -0.1892
vn -0.3710 -0.9105 -0.1826
vn 0.0998 -0.9895 0.1047
vn 0.5803 -0.8013 0.1455
vn 0.9834 0.0480 -0.1747
vn 0.8038 0.5092 -0.3076
vn 0.7015 0.6298 -0.3335
vn 0.6788 -0.1701 -0.7144
vn 0.4194 -0.1775 -0.8903
vn 0.9200 -0.1336 -0.3685
vn 0.8996 -0.2262 -0.3736
vn 0.7992 -0.5838 -0.1435
vn 0.9215 -0.3844 -0.0547
vn 0.8064 -0.5823 -0.1027
vn 0.4118 -0.8846 -0.2190
vn -0.1003 -0.9401 -0.3257
vn 0.6861 -0.6972 0.2081
vn 0.7138 -0.1765 0.6778
vn 0.8779 -0.3576 0.3184
vn 0.6448 0.5125 0.5670
vn 0.3739 0.6628 0.6488
vn 0.3987 0.6526 0.6444
vn 0.9118 -0.1121 0.3950
vn 0.4662 0.6767 0.5699
vn 0.6779 0.4657 0.5689
vn 0.9508 -0.2858 0.1194
vn 0.9495 -0.2855 0.1301
vn 0.9512 -0.2859 0.1165
vn 0.9525 -0.2861 0.1048
vn 0.4174 0.3139 -0.8528
vn 0.3764 0.3817 -0.8442
vn 0.3743 0.3849 -0.8436
vn 0.9399 -0.2398 0.2429
vn 0.9024 0.1641 0.3983
vn 0.9338 0.0358 0.3561
vn 0.6802 0.7309 -0.0560
vn 0.6796 0.7323 -0.0430
vn 0.6796 0.7323 -0.0427
vn 0.8239 0.3485 0.4469
vn 0.5800 0.2601 -0.7720
vn 0.4661 0.5760 -0.6716
vn 0.5428 0.3913 -0.7431
vn 0.4500 0.6968 0.5585
vn 0.5896 0.5868 0.5550
vn 0.4052 0.7256 0.5562
vn 0.6735 0.7336 0.0903
vn 0.7413 0.2776 0.6111
vn 0.6794 0.5345 0.5027
vn 0.6748 0.5954 -0.4361
vn 0.8476 0.3812 -0.3690
vn 0.6175 0.6462 -0.4485
vn 0.7849 0.6193 0.0205
vn 0.8529 0.5217 0.0219
vn 0.9024 0.3918 0.1796
vn 0.9549 0.2396 -0.1753
vn 0.9550 0.2392 -0.1752
vn 0.9550 0.2395 -0.1747
vn 0.6687 0.3988 -0.6275
vn 0.9421 0.2800 -0.1844
vn 0.6958 0.3939 -0.6006
vn 0.5726 0.7855 -0.2350
vn 0.7460 0.6653 -0.0295
vn 0.6464 0.7466 -0.1570
vn 0.5315 0.7779 -0.3351
vn 0.0193 -0.9998 0.0004
vn 0.2540 -0.9102 0.3272
vn 0.2261 -0.5313 0.8164
vn -0.7456 -0.1037 0.6583
vn 0.3323 0.4480 -0.8300
vn 0.2663 0.8025 0.5340
vn 0.4064 0.9133 -0.0271
vn 0.2072 0.7170 0.6656
vn -0.0262 0.2938 0.9555
vn -0.1680 -0.0172 0.9856
vn 0.4243 0.8311 -0.3596
vn 0.4049 0.9142 -0.0156
vn 0.3772 0.9135 0.1528
vn 0.4012 0.6880 -0.6048
vn 0.2641 0.7995 0.5395
vn 0.4186 0.7774 -0.4694
vn 0.4242 0.8288 -0.3648
vn 0.3206 0.4134 -0.8522
vn 0.0872 -0.1652 -0.9824
vn 0.0110 0.3687 0.9295
vn -0.8031 0.3182 0.5038
vn 0.6586 -0.2603 0.7060
vn 0.5609 -0.0304 0.8273
vn -0.6084 0.4822 0.6303
vn 0.5647 0.0664 0.8226
vn -0.5824 0.5399 0.6077
vn -0.7740 0.4941 0.3960
vn -0.3369 0.8545 -0.3953
vn -0.0648 0.9026 -0.4257
vn 0.1035 0.9868 -0.1244
vn 0.9858 -0.1062 0.1298
vn 0.7455 -0.1746 0.6433
vn 0.7462 0.6548 -0.1205
vn 0.7491 0.6512 -0.1215
vn 0.9372 0.2939 -0.1880
vn 0.8061 0.5192 -0.2839
vn 0.6790 0.7335 -0.0308
vn 0.4242 0.8288 -0.3649
s 1
f 1//1 2//1 3//1
f 4//2 2//2 1//2
f 4//3 5//4 2//5
f 6//6 5//4 4//3
f 7//7 6//6 8//8
f 4//3 8//8 6//6
f 5//9 6//9 9//9
f 10//10 11//10 9//10
f 9//11 11//11 5//11
f 11//12 10//12 12//12
f 13//13 15//13 14//13
f 5//14 16//15 2//16
f 5//14 11//17 16//15
f 17//18 14//18 18//18
f 14//19 17//20 13//21
f 11//22 13//23 16//24
f 2//25 13//21 17//20
f 19//26 20//26 21//26
f 21//27 22//27 19//27
f 23//28 20//28 19//28
f 22//29 24//29 19//29
f 23//30 19//31 17//32
f 17//33 19//33 2//33
f 2//34 19//34 3//34
f 25//35 3//35 19//35
f 24//36 25//36 19//36
f 17//32 18//37 23//30
f 6//38 7//39 26//39
f 6//40 26//40 9//40
f 27//41 26//42 28//43
f 26//44 27//44 9//44
f 29//45 30//46 8//47
f 30//46 32//48 31//49
f 31//50 34//51 33//52
f 33//53 36//54 35//55
f 37//56 33//56 35//56
f 37//57 35//58 38//59
f 39//60 37//57 38//59
f 7//61 30//46 39//60
f 37//57 39//60 30//46
f 38//62 28//62 39//62
f 40//63 28//63 41//63
f 28//64 38//64 41//64
f 41//65 42//66 40//67
f 43//68 44//69 45//70
f 38//71 35//72 46//73
f 38//71 46//73 41//74
f 47//75 18//76 44//77
f 44//78 43//79 47//80
f 41//81 46//82 43//83
f 35//84 47//80 43//79
f 48//85 50//86 49//87
f 50//88 48//89 51//90
f 52//91 48//92 49//93
f 51//94 48//95 53//96
f 52//91 47//97 48//98
f 47//99 35//99 48//99
f 35//100 36//101 48//102
f 54//103 48//104 36//105
f 53//106 48//107 54//108
f 47//97 52//91 18//109
f 39//110 26//39 7//39
f 39//111 28//43 26//42
f 28//112 55//112 27//112
f 56//113 9//113 27//113
f 7//61 8//47 30//46
f 18//76 14//114 44//77
f 44//69 14//115 15//115
f 15//116 12//116 42//116
f 12//117 10//117 40//67
f 40//118 10//118 56//118
f 56//119 27//119 55//119
f 33//52 57//120 1//120
f 23//121 18//109 52//91
f 52//91 20//122 23//121
f 49//87 21//123 20//123
f 50//88 22//124 21//124
f 51//94 24//125 22//125
f 24//126 54//126 25//126
f 54//103 3//127 25//127
f 36//54 1//128 3//128
f 40//129 58//129 10//129
f 59//130 9//130 56//130
f 55//131 28//131 60//131
f 55//132 60//132 40//132
f 10//133 59//133 56//133
f 60//134 58//134 40//134
f 59//135 10//135 61//135
f 10//136 9//136 56//136
f 15//137 13//137 12//137
f 12//138 13//138 11//138
f 2//139 16//24 13//23
f 29//45 32//48 30//46
f 30//49 31//49 37//49
f 31//140 33//140 37//140
f 40//141 55//141 28//141
f 45//142 42//143 43//144
f 42//145 41//145 43//145
f 35//146 43//83 46//82
f 44//69 15//115 45//70
f 15//116 42//143 45//142
f 12//117 40//67 42//66
f 40//118 56//118 55//118
f 33//52 34//51 57//120
f 52//91 49//93 20//122
f 49//87 50//86 21//123
f 50//88 51//90 22//124
f 51//94 53//96 24//125
f 24//147 53//106 54//108
f 54//103 36//105 3//127
f 36//54 33//53 1//128
