# Blender v2.90.1 OBJ File: 'matters.blend'
# www.blender.org
v -17.124622 16.835480 -1.194469
v -20.095562 9.204630 -1.194469
v -13.106732 8.454891 -1.194469
v -22.762505 16.996513 -1.194469
v -19.632206 17.211102 -1.194469
v -21.196953 14.817015 -1.194469
v -20.676037 17.204731 -1.194469
v -22.346172 17.194523 -1.194469
v -12.897962 8.456169 -1.194469
v -12.690389 8.652906 -1.194469
v -12.077222 10.806797 -1.194469
v -12.081996 11.588640 -1.194469
v -12.086774 12.370487 -1.194469
v -20.643799 11.927282 -1.194469
v -23.981678 11.515961 -1.194469
v -16.914661 16.641296 -1.194469
v -12.723813 14.125805 -1.194469
v -16.287167 16.449661 -1.194469
v -14.143395 7.275749 -1.194469
v -23.985249 12.102337 -1.194469
v -23.345829 9.956104 -1.194469
v -20.852566 11.926006 -1.194469
v -20.641411 11.536358 -1.194469
v -13.313104 8.062693 -1.194469
v -13.314301 8.258160 -1.194469
v -15.660869 16.453485 -1.194469
v -15.242145 16.260574 -1.194469
v -12.512666 13.736166 -1.194469
v -12.300317 13.151056 -1.194469
v -20.258503 17.207275 -1.194469
v -20.049740 17.208553 -1.194469
v -23.576084 13.473122 -1.194469
v -23.582047 14.450420 -1.194469
v -15.391213 6.486254 -1.194469
v -16.435047 6.479879 -1.194469
v -12.934970 14.515455 -1.194469
v -12.299123 12.955595 -1.194469
v -12.691583 8.848362 -1.194469
v -12.278823 9.632757 -1.194469
v -21.035061 7.624590 -1.194469
v -20.826302 7.625868 -1.194469
v -14.195928 15.876032 -1.194469
v -17.687641 6.472229 -1.194469
v -24.217899 16.010284 -1.194469
v -20.850178 11.535086 -1.194469
v -12.282405 10.219141 -1.194469
v -13.937016 7.667948 -1.194469
v -22.554932 17.193249 -1.194469
v -14.974877 6.684269 -1.194469
v -14.768498 7.076464 -1.194469
v -18.795944 17.020742 -1.194469
v -18.587177 17.022015 -1.194469
v -19.004711 17.019464 -1.194469
v -18.378414 17.023291 -1.194469
v -18.169651 17.024569 -1.194469
v -23.182426 17.384884 -1.194469
v -23.599960 17.382336 -1.194469
v -21.929836 17.392538 -1.194469
v -21.303532 17.396368 -1.194469
v -13.566045 15.293472 -1.194469
v -13.776006 15.487659 -1.194469
v -13.146123 14.905099 -1.194469
v -15.033381 16.261854 -1.194469
v -13.104339 8.063969 -1.194469
v -13.089843 8.259523 -1.185779
v -18.315136 6.663862 -1.194469
v -18.942631 6.855499 -1.194469
v -21.060139 11.729268 -1.194469
v -23.343433 9.565174 -1.194469
v -20.198811 7.434229 -1.194469
v -17.960880 17.025841 -1.194469
v -17.752113 17.027115 -1.194469
v -17.543350 17.028393 -1.194469
v -24.223866 16.987585 -1.194469
v -24.220287 16.401207 -1.194469
v -23.781269 12.885460 -1.194469
v -17.268913 6.279316 -1.194469
v -17.060150 6.280592 -1.194469
v -23.778877 12.494539 -1.194469
v -14.350965 7.079014 -1.194469
v -23.770523 11.126314 -1.194469
v -13.520677 7.865959 -1.194469
v -13.729444 7.864683 -1.194469
v -23.808720 17.381058 -1.194469
v -24.017487 17.379786 -1.194469
v -12.725011 14.321270 -1.194469
v -17.896408 6.470953 -1.194469
v -18.732666 6.661316 -1.194469
v -19.361359 7.048416 -1.194469
v -19.151394 6.854225 -1.194469
v -20.407574 7.432957 -1.194469
v -21.453793 7.817503 -1.194469
v -23.795589 15.230989 -1.194469
v -23.768127 10.735380 -1.194469
v -23.132278 9.175528 -1.194469
v -22.082474 8.204590 -1.194469
v -21.663754 8.011688 -1.194469
vn -0.0056 0.0164 0.9998
vn 0.0081 0.0058 0.9999
vn 0.0000 0.0000 1.0000
vn -0.6259 0.6032 -0.4943
vn -0.0093 -0.0001 1.0000
vn 0.0028 -0.0284 0.9996
vn 0.0196 -0.0141 0.9997
vn -0.9062 -0.0085 0.4228
s 1
f 3//1 9//2 10//3
f 37//3 12//3 13//3
f 2//3 37//3 17//3
f 16//3 6//3 18//3
f 81//3 21//3 6//3
f 21//3 22//3 6//3
f 30//3 6//3 31//3
f 42//4 17//3 36//3
f 3//1 38//3 39//3
f 40//3 41//3 2//3
f 1//3 6//3 16//3
f 68//3 21//3 45//3
f 3//1 39//3 46//3
f 2//3 3//1 37//3
f 48//3 6//3 8//3
f 31//3 6//3 5//3
f 51//3 6//3 52//3
f 53//3 6//3 51//3
f 54//3 1//3 55//3
f 52//3 6//3 54//3
f 57//3 6//3 56//3
f 58//3 6//3 59//3
f 6//3 17//3 61//3
f 25//5 64//6 65//7
f 3//1 25//5 65//7
f 37//3 11//3 12//3
f 20//3 81//3 6//3
f 69//3 2//3 21//3
f 71//3 1//3 72//3
f 55//3 1//3 71//3
f 72//3 1//3 73//3
f 2//3 77//3 78//3
f 79//3 20//3 6//3
f 14//3 2//3 6//3
f 2//3 25//5 3//1
f 2//3 83//3 25//5
f 18//3 6//3 26//3
f 17//3 37//3 28//3
f 84//3 6//3 57//3
f 85//3 6//3 84//3
f 7//3 6//3 30//3
f 17//3 86//3 36//3
f 17//3 42//4 60//8
f 82//3 24//3 25//5
f 65//7 9//2 3//1
f 64//6 9//2 65//7
f 47//3 2//3 19//3
f 47//3 83//3 2//3
f 80//3 19//3 2//3
f 49//3 50//3 2//3
f 2//3 34//3 49//3
f 35//3 2//3 78//3
f 2//3 43//3 77//3
f 2//3 66//3 87//3
f 2//3 67//3 88//3
f 2//3 89//3 90//3
f 2//3 70//3 89//3
f 2//3 41//3 91//3
f 2//3 92//3 40//3
f 46//3 11//3 37//3
f 42//4 36//3 62//3
f 17//3 60//8 61//3
f 6//3 61//3 42//3
f 27//3 6//3 63//3
f 6//3 42//3 63//3
f 6//3 27//3 26//3
f 53//3 5//3 6//3
f 7//3 59//3 6//3
f 6//3 48//3 4//3
f 6//3 4//3 56//3
f 6//3 58//3 8//3
f 6//3 85//3 74//3
f 93//3 6//3 44//3
f 33//3 6//3 93//3
f 6//3 32//3 76//3
f 2//3 69//3 95//3
f 2//3 95//3 96//3
f 2//3 96//3 97//3
f 2//3 97//3 92//3
f 14//3 23//3 2//3
f 21//3 68//3 22//3
f 28//3 37//3 29//3
f 2//3 35//3 34//3
f 2//3 87//3 43//3
f 45//3 21//3 23//3
f 21//3 2//3 23//3
f 6//3 2//3 17//3
f 33//3 32//3 6//3
f 54//3 6//3 1//3
f 25//5 24//3 64//6
f 3//1 10//3 38//3
f 37//3 3//1 46//3
f 2//3 88//3 66//3
f 2//3 90//3 67//3
f 6//3 22//3 14//3
f 2//3 91//3 70//3
f 75//3 44//3 6//3
f 74//3 75//3 6//3
f 76//3 79//3 6//3
f 2//3 50//3 80//3
f 20//3 15//3 81//3
f 81//3 94//3 21//3
f 25//5 83//3 82//3
