# Blender v2.90.1 OBJ File: 'matters.blend'
# www.blender.org
v -62.924789 2.800000 -0.736144
v -62.924789 3.200000 -0.936144
v -62.924789 2.800000 -0.936144
v -62.924789 3.200000 -0.736144
v 54.695145 3.200000 -0.936144
v 54.695145 3.200000 -0.736144
v 54.695145 2.800000 -0.936144
v 54.695145 2.800000 -0.736144
v -62.924789 -3.228571 -0.736144
v -62.924789 -2.828571 -0.936144
v -62.924789 -3.228571 -0.936144
v -62.924789 -2.828571 -0.736144
v 54.695145 -2.828571 -0.936144
v 54.695145 -3.228571 -0.736144
v 54.695145 -3.900000 -0.936144
v 54.695145 -2.828571 -0.736144
vn -1.0000 0.0000 0.0000
vn 0.0000 1.0000 0.0000
vn 1.0000 0.0000 0.0000
vn 0.0000 -1.0000 0.0000
vn 0.0000 0.0000 -1.0000
vn 0.0000 0.0000 1.0000
vn -0.0016 -0.2855 0.9584
s 1
f 1//1 2//1 3//1
f 4//2 5//2 2//2
f 6//3 7//3 5//3
f 8//4 3//4 7//4
f 5//5 3//5 2//5
f 4//6 8//6 6//6
f 9//1 10//1 11//1
f 12//2 13//2 10//2
f 13//3 14//3 15//3
f 14//7 11//7 15//7
f 13//5 11//5 10//5
f 12//6 14//6 16//6
f 1//1 4//1 2//1
f 4//2 6//2 5//2
f 6//3 8//3 7//3
f 8//4 1//4 3//4
f 5//5 7//5 3//5
f 4//6 1//6 8//6
f 9//1 12//1 10//1
f 12//2 16//2 13//2
f 13//3 16//3 14//3
f 14//4 9//4 11//4
f 13//5 15//5 11//5
f 12//6 9//6 14//6
