# Blender v2.90.1 OBJ File: 'matters.blend'
# www.blender.org
v 37.322964 -32.666565 39.173042
v 24.259268 -29.357943 20.246857
v 24.190563 -49.979366 30.950241
v 45.782497 -54.290604 38.367542
v 59.195541 -36.333431 32.248314
v 45.893333 -20.924370 21.049103
v 24.644958 -48.937504 7.744059
v 37.947166 -64.346565 18.943268
v 59.581230 -55.912994 19.745514
v 59.649937 -35.291569 9.042130
v 38.058002 -30.980331 1.624828
v 46.517536 -52.604370 0.819328
v 28.796856 -41.092476 37.706680
v 28.837234 -28.971600 31.415434
v 21.118160 -39.147766 26.582150
v 33.874741 -22.069756 20.762413
v 41.553329 -24.014503 31.886978
v 41.488201 -43.626602 42.066460
v 33.769230 -53.802837 37.233257
v 49.372108 -33.071663 38.469658
v 54.344551 -45.781994 37.996243
v 54.409714 -26.169777 27.816681
v 29.269234 -27.980402 9.345054
v 41.985378 -23.023287 9.816600
v 21.344805 -50.656361 19.233196
v 21.385120 -38.535351 12.941874
v 41.855122 -62.247650 30.175770
v 29.163620 -59.713657 25.815954
v 62.455379 -46.735584 27.050497
v 54.571266 -57.290535 30.647316
v 54.676880 -25.557278 14.176416
v 62.495697 -34.614574 20.759174
v 29.495949 -39.488941 1.996128
v 29.430786 -59.101158 12.175689
v 49.965759 -63.201180 19.229958
v 62.722340 -46.123169 13.410222
v 50.071270 -31.468098 2.759113
v 34.468391 -52.199272 1.522711
v 42.352299 -41.644333 -2.074087
v 42.287170 -61.256432 8.105392
v 55.003265 -56.299335 8.576937
v 55.043644 -44.178459 2.285692
v 54.758095 -27.534124 29.763737
v 31.656342 -27.363731 32.231056
v 44.247757 -44.324924 41.904957
v 61.556984 -49.618141 27.338308
v 59.663128 -35.928078 8.661851
v 41.183475 -22.174240 11.685877
v 24.177372 -49.342857 31.330521
v 42.657024 -63.096695 28.306494
v 52.184158 -57.907204 7.761312
v 39.592743 -40.946011 -1.912586
v 22.283516 -35.652794 12.654062
v 29.082405 -57.736809 10.228635
v 50.834236 -34.752121 38.614983
v 43.433235 -24.782658 32.928852
v 37.255352 -34.652012 40.065292
v 35.454239 -21.632246 22.302975
v 49.033104 -21.732370 20.852783
v 61.008312 -37.863426 30.052994
v 54.830563 -47.732838 37.189400
v 59.895096 -29.816614 19.075321
v 63.891449 -42.797314 17.649673
v 51.916168 -26.666170 8.449368
v 24.345047 -29.554657 22.872025
v 29.944939 -26.504360 10.795908
v 32.859306 -47.571022 39.536026
v 25.458193 -37.601440 33.849888
v 53.895561 -58.766575 29.196463
v 43.721401 -55.655384 37.758602
v 58.382309 -47.669495 6.142483
v 59.495453 -55.716278 17.120346
v 40.119099 -29.615551 2.233768
v 50.981194 -37.699913 0.456343
v 19.949051 -42.473621 22.342697
v 31.924332 -58.604767 31.543003
v 48.386261 -63.638687 17.689396
v 46.585148 -50.618923 -0.072920
v 29.009937 -37.538097 2.802973
v 23.945410 -55.454319 20.917049
v 22.832188 -47.407509 9.939377
v 34.807396 -63.538567 19.139587
v 40.407265 -60.488277 7.063519
v 33.006264 -50.518810 1.377392
vn -0.5204 0.3948 0.7572
vn -0.5969 0.7721 0.2180
vn -0.2974 0.1365 0.9450
vn 0.0653 0.2778 0.9584
vn 0.0664 0.6235 0.7790
vn -0.5893 0.7896 -0.1710
vn -0.9547 -0.1733 0.2419
vn -0.0957 -0.6907 0.7168
vn 0.8006 -0.0476 0.5974
vn 0.4955 0.8672 0.0486
vn -0.8095 0.4994 -0.3089
vn -0.8129 -0.5358 0.2284
vn 0.2709 -0.7522 0.6007
vn 0.9442 0.1492 0.2935
vn 0.2765 0.9227 -0.2686
vn -0.5699 -0.1932 -0.7986
vn -0.2642 -0.8944 -0.3608
vn 0.5969 -0.7721 -0.2180
vn 0.8234 0.0047 -0.5675
vn 0.1022 0.3625 -0.9264
vn 0.2974 -0.1365 -0.9450
vn 0.3505 0.1714 -0.9207
vn 0.6004 0.2630 -0.7552
vn 0.5204 -0.3948 -0.7572
vn 0.7591 -0.3019 -0.5767
vn 0.8218 -0.4711 -0.3205
vn 0.2955 -0.6958 -0.6546
vn 0.3471 -0.8534 -0.3888
vn 0.0978 -0.9667 -0.2365
vn -0.0664 -0.6235 -0.7790
vn -0.3161 -0.7210 -0.6166
vn -0.5711 -0.5389 -0.6192
vn -0.0653 -0.2778 -0.9584
vn -0.3140 -0.0876 -0.9454
vn -0.2605 0.2211 -0.9398
vn 0.0957 0.6907 -0.7168
vn 0.3387 0.7728 -0.5367
vn 0.5939 0.5912 -0.5457
vn 0.9547 0.1733 -0.2419
vn 0.9998 0.0070 0.0199
vn 0.9531 -0.3025 0.0051
vn 0.5893 -0.7896 0.1710
vn 0.3332 -0.8855 0.3240
vn 0.0902 -0.9842 0.1525
vn -0.4955 -0.8672 -0.0486
vn -0.7399 -0.6712 -0.0446
vn -0.8024 -0.5117 -0.3070
vn -0.8006 0.0476 -0.5974
vn -0.7365 0.3537 -0.5766
vn -0.4911 0.4619 -0.7385
vn 0.8129 0.5358 -0.2284
vn 0.7399 0.6712 0.0446
vn 0.8024 0.5117 0.3070
vn 0.8095 -0.4994 0.3089
vn 0.7365 -0.3537 0.5766
vn 0.4911 -0.4619 0.7385
vn -0.2765 -0.9227 0.2686
vn -0.3387 -0.7728 0.5367
vn -0.5939 -0.5912 0.5457
vn -0.9442 -0.1492 -0.2935
vn -0.9998 -0.0070 -0.0199
vn -0.9531 0.3025 -0.0051
vn -0.2709 0.7522 -0.6007
vn -0.3332 0.8855 -0.3240
vn -0.0902 0.9842 -0.1525
vn 0.2642 0.8944 0.3608
vn 0.3161 0.7210 0.6166
vn 0.5711 0.5389 0.6192
vn 0.5699 0.1932 0.7986
vn 0.3140 0.0876 0.9454
vn 0.2605 -0.2211 0.9398
vn -0.1022 -0.3625 0.9264
vn -0.3505 -0.1714 0.9207
vn -0.6004 -0.2630 0.7552
vn -0.0978 0.9667 0.2365
vn -0.3471 0.8534 0.3888
vn -0.2955 0.6958 0.6546
vn -0.8234 -0.0047 0.5675
vn -0.7591 0.3019 0.5767
vn -0.8218 0.4711 0.3205
vn 0.3470 0.6456 0.6803
vn -0.2178 0.8790 0.4241
vn 0.6568 0.4150 0.6296
vn 0.8165 0.5020 0.2852
vn 0.6054 0.7864 0.1230
vn -0.5542 0.7949 0.2469
vn -0.2123 0.0322 0.9767
vn 0.6883 -0.4629 0.5586
vn 0.9030 -0.0063 -0.4296
vn 0.1351 0.7711 -0.6223
vn -0.7304 0.5134 0.4504
vn -0.0984 -0.3380 0.9360
vn 0.7705 -0.6037 0.2048
vn 0.6754 0.0835 -0.7327
vn -0.2522 0.7739 -0.5809
vn -0.9296 -0.3084 0.2017
vn -0.2922 -0.9100 0.2941
vn 0.2178 -0.8790 -0.4241
vn -0.1045 -0.2582 -0.9604
vn -0.8136 0.0945 -0.5736
vn -0.6568 -0.4150 -0.6296
vn -0.6607 -0.1220 -0.7407
vn -0.4143 -0.0276 -0.9097
vn -0.3470 -0.6456 -0.6803
vn -0.0930 -0.5445 -0.8336
vn 0.1860 -0.6495 -0.7372
vn -0.3152 -0.8751 -0.3672
vn -0.0349 -0.9650 -0.2599
vn -0.0020 -0.9988 0.0499
vn -0.6054 -0.7864 -0.1230
vn -0.5665 -0.8024 0.1875
vn -0.7186 -0.5927 0.3638
vn -0.8165 -0.5020 -0.2852
vn -0.9533 -0.2814 -0.1096
vn -0.9733 0.0075 -0.2292
vn -0.6883 0.4629 -0.5586
vn -0.4309 0.5530 -0.7130
vn -0.2889 0.3408 -0.8946
vn 0.2123 -0.0322 -0.9767
vn 0.4875 -0.1305 -0.8633
vn 0.5029 -0.4236 -0.7535
vn 0.5542 -0.7949 -0.2469
vn 0.5816 -0.8109 0.0649
vn 0.3344 -0.9146 0.2272
vn -0.1351 -0.7711 0.6223
vn -0.2787 -0.5478 0.7888
vn -0.5614 -0.4537 0.6920
vn -0.9030 0.0063 0.4296
vn -0.9044 0.2951 0.3080
vn -0.9467 0.3222 -0.0013
vn 0.0984 0.3380 -0.9360
vn 0.2787 0.5478 -0.7888
vn 0.5614 0.4537 -0.6920
vn 0.7304 -0.5134 -0.4504
vn 0.9044 -0.2951 -0.3080
vn 0.9467 -0.3222 0.0013
vn 0.2522 -0.7739 0.5809
vn 0.4309 -0.5530 0.7130
vn 0.2889 -0.3408 0.8946
vn -0.6754 -0.0835 0.7327
vn -0.4875 0.1305 0.8633
vn -0.5029 0.4236 0.7535
vn -0.7705 0.6037 -0.2048
vn -0.5816 0.8109 -0.0649
vn -0.3344 0.9146 -0.2272
vn 0.2922 0.9100 -0.2941
vn 0.5665 0.8024 -0.1875
vn 0.7186 0.5927 -0.3638
vn 0.9296 0.3084 -0.2017
vn 0.9533 0.2814 0.1096
vn 0.9733 -0.0075 0.2292
vn 0.8136 -0.0945 0.5736
vn 0.6607 0.1220 0.7407
vn 0.4143 0.0276 0.9097
vn 0.0020 0.9988 -0.0499
vn 0.0349 0.9650 0.2599
vn 0.3152 0.8751 0.3672
vn 0.1045 0.2582 0.9604
vn 0.0930 0.5445 0.8336
vn -0.1860 0.6495 0.7372
s off
f 1//1 14//1 13//1
f 2//2 14//2 16//2
f 1//3 13//3 18//3
f 1//4 18//4 20//4
f 1//5 20//5 17//5
f 2//6 16//6 23//6
f 3//7 15//7 25//7
f 4//8 19//8 27//8
f 5//9 21//9 29//9
f 6//10 22//10 31//10
f 2//11 23//11 26//11
f 3//12 25//12 28//12
f 4//13 27//13 30//13
f 5//14 29//14 32//14
f 6//15 31//15 24//15
f 7//16 33//16 38//16
f 8//17 34//17 40//17
f 9//18 35//18 41//18
f 10//19 36//19 42//19
f 11//20 37//20 39//20
f 39//21 42//21 12//21
f 39//22 37//22 42//22
f 37//23 10//23 42//23
f 42//24 41//24 12//24
f 42//25 36//25 41//25
f 36//26 9//26 41//26
f 41//27 40//27 12//27
f 41//28 35//28 40//28
f 35//29 8//29 40//29
f 40//30 38//30 12//30
f 40//31 34//31 38//31
f 34//32 7//32 38//32
f 38//33 39//33 12//33
f 38//34 33//34 39//34
f 33//35 11//35 39//35
f 24//36 37//36 11//36
f 24//37 31//37 37//37
f 31//38 10//38 37//38
f 32//39 36//39 10//39
f 32//40 29//40 36//40
f 29//41 9//41 36//41
f 30//42 35//42 9//42
f 30//43 27//43 35//43
f 27//44 8//44 35//44
f 28//45 34//45 8//45
f 28//46 25//46 34//46
f 25//47 7//47 34//47
f 26//48 33//48 7//48
f 26//49 23//49 33//49
f 23//50 11//50 33//50
f 31//51 32//51 10//51
f 31//52 22//52 32//52
f 22//53 5//53 32//53
f 29//54 30//54 9//54
f 29//55 21//55 30//55
f 21//56 4//56 30//56
f 27//57 28//57 8//57
f 27//58 19//58 28//58
f 19//59 3//59 28//59
f 25//60 26//60 7//60
f 25//61 15//61 26//61
f 15//62 2//62 26//62
f 23//63 24//63 11//63
f 23//64 16//64 24//64
f 16//65 6//65 24//65
f 17//66 22//66 6//66
f 17//67 20//67 22//67
f 20//68 5//68 22//68
f 20//69 21//69 5//69
f 20//70 18//70 21//70
f 18//71 4//71 21//71
f 18//72 19//72 4//72
f 18//73 13//73 19//73
f 13//74 3//74 19//74
f 16//75 17//75 6//75
f 16//76 14//76 17//76
f 14//77 1//77 17//77
f 13//78 15//78 3//78
f 13//79 14//79 15//79
f 14//80 2//80 15//80
f 43//81 56//81 55//81
f 44//82 56//82 58//82
f 43//83 55//83 60//83
f 43//84 60//84 62//84
f 43//85 62//85 59//85
f 44//86 58//86 65//86
f 45//87 57//87 67//87
f 46//88 61//88 69//88
f 47//89 63//89 71//89
f 48//90 64//90 73//90
f 44//91 65//91 68//91
f 45//92 67//92 70//92
f 46//93 69//93 72//93
f 47//94 71//94 74//94
f 48//95 73//95 66//95
f 49//96 75//96 80//96
f 50//97 76//97 82//97
f 51//98 77//98 83//98
f 52//99 78//99 84//99
f 53//100 79//100 81//100
f 81//101 84//101 54//101
f 81//102 79//102 84//102
f 79//103 52//103 84//103
f 84//104 83//104 54//104
f 84//105 78//105 83//105
f 78//106 51//106 83//106
f 83//107 82//107 54//107
f 83//108 77//108 82//108
f 77//109 50//109 82//109
f 82//110 80//110 54//110
f 82//111 76//111 80//111
f 76//112 49//112 80//112
f 80//113 81//113 54//113
f 80//114 75//114 81//114
f 75//115 53//115 81//115
f 66//116 79//116 53//116
f 66//117 73//117 79//117
f 73//118 52//118 79//118
f 74//119 78//119 52//119
f 74//120 71//120 78//120
f 71//121 51//121 78//121
f 72//122 77//122 51//122
f 72//123 69//123 77//123
f 69//124 50//124 77//124
f 70//125 76//125 50//125
f 70//126 67//126 76//126
f 67//127 49//127 76//127
f 68//128 75//128 49//128
f 68//129 65//129 75//129
f 65//130 53//130 75//130
f 73//131 74//131 52//131
f 73//132 64//132 74//132
f 64//133 47//133 74//133
f 71//134 72//134 51//134
f 71//135 63//135 72//135
f 63//136 46//136 72//136
f 69//137 70//137 50//137
f 69//138 61//138 70//138
f 61//139 45//139 70//139
f 67//140 68//140 49//140
f 67//141 57//141 68//141
f 57//142 44//142 68//142
f 65//143 66//143 53//143
f 65//144 58//144 66//144
f 58//145 48//145 66//145
f 59//146 64//146 48//146
f 59//147 62//147 64//147
f 62//148 47//148 64//148
f 62//149 63//149 47//149
f 62//150 60//150 63//150
f 60//151 46//151 63//151
f 60//152 61//152 46//152
f 60//153 55//153 61//153
f 55//154 45//154 61//154
f 58//155 59//155 48//155
f 58//156 56//156 59//156
f 56//157 43//157 59//157
f 55//158 57//158 45//158
f 55//159 56//159 57//159
f 56//160 44//160 57//160
