<svg version="1.1" id="Layer_1" xmlns="http://www.w3.org/2000/svg" xmlns:xlink="http://www.w3.org/1999/xlink" x="0px" y="0px"
	 width="100%" viewBox="0 0 410 410" enable-background="new 0 0 410 410" xml:space="preserve">
<path fill="#FBFCFA" opacity="1.000000" stroke="none" 
	d="
M1.000000,155.000000 
	C1.000000,103.348930 1.000000,52.197861 1.000000,1.023395 
	C137.609406,1.023395 274.218842,1.023395 410.914124,1.023395 
	C410.914124,137.567703 410.914124,274.135468 410.914124,410.851624 
	C274.333466,410.851624 137.666748,410.851624 1.000000,410.851624 
	C1.000000,325.781250 1.000000,240.640625 1.000000,155.000000 
M389.151764,225.042389 
	C389.087891,219.027328 389.024017,213.012283 389.154205,206.109299 
	C389.103027,203.110855 389.051849,200.112396 389.186218,196.177872 
	C389.186218,136.977509 389.186218,77.777138 389.186218,18.204760 
	C387.061493,18.204760 385.593597,18.204550 384.125702,18.204788 
	C361.314148,18.208500 338.502563,18.204037 315.691010,18.217716 
	C266.406433,18.247271 217.121857,18.286142 166.985001,18.012001 
	C144.667358,18.009775 122.349709,18.007551 99.102699,17.839897 
	C73.050591,17.839897 46.998478,17.839897 20.776722,17.839897 
	C20.776722,35.147472 20.751684,51.622791 20.782505,68.098007 
	C20.830458,93.732056 20.916384,119.366035 20.819101,145.925064 
	C20.828917,162.262863 20.838734,178.600662 20.514660,195.613220 
	C20.678658,205.642502 20.842655,215.671768 20.790825,226.655396 
	C20.790825,281.130280 20.790825,335.605133 20.790825,390.327240 
	C28.922672,390.327240 36.395576,390.324585 43.868484,390.327759 
	C63.820881,390.336151 83.773277,390.347046 104.662270,390.620667 
	C125.865219,390.592987 147.068161,390.565277 169.161682,390.681671 
	C206.157974,390.705994 243.154251,390.747803 280.150543,390.739807 
	C287.470612,390.738220 294.790649,390.545044 303.006714,390.666107 
	C331.437653,390.666107 359.868591,390.666107 388.794159,390.666107 
	C388.794159,384.541168 388.796844,378.928619 388.793762,373.316101 
	C388.767151,324.523193 388.739502,275.730316 388.942108,226.465195 
	C388.926727,226.290543 388.911316,226.115875 389.151764,225.042389 
z"/>
<path fill="#FE0503" opacity="1.000000" stroke="none" 
	d="
M167.837280,18.321201 
	C217.121857,18.286142 266.406433,18.247271 315.691010,18.217716 
	C338.502563,18.204037 361.314148,18.208500 384.125702,18.204788 
	C385.593597,18.204550 387.061493,18.204760 389.186218,18.204760 
	C389.186218,77.777138 389.186218,136.977509 388.625488,196.636292 
	C377.733490,197.048920 367.402252,197.003159 356.894775,196.892197 
	C356.718597,196.826996 356.349884,196.892838 356.278015,196.436279 
	C356.206146,147.597137 356.206146,99.214539 356.206146,50.439152 
	C353.476959,50.439152 351.501526,50.438282 349.526062,50.439274 
	C293.226196,50.467510 236.926331,50.503090 180.626465,50.510201 
	C176.308151,50.510746 171.989807,50.310547 167.697327,49.723442 
	C167.761215,38.935886 167.799240,28.628544 167.837280,18.321201 
z"/>
<path fill="#1804FC" opacity="1.000000" stroke="none" 
	d="
M388.712158,226.937424 
	C388.739502,275.730316 388.767151,324.523193 388.793762,373.316101 
	C388.796844,378.928619 388.794159,384.541168 388.794159,390.666107 
	C359.868591,390.666107 331.437653,390.666107 302.541962,390.125000 
	C301.992859,385.340424 301.908508,381.097015 301.807190,376.392090 
	C301.701324,370.612000 301.612396,365.293396 301.631317,359.563721 
	C303.201538,358.556763 304.657593,357.462524 306.127350,357.443817 
	C317.939728,357.293091 329.754700,357.344086 341.568878,357.335815 
	C346.334961,357.332489 351.101044,357.335266 356.216095,357.335266 
	C356.216095,354.875549 356.215546,353.078308 356.216156,351.281036 
	C356.226532,320.830261 356.256714,290.379517 356.236145,259.928741 
	C356.229614,250.285782 356.087677,240.642914 356.113831,230.599426 
	C356.323944,228.827408 356.427948,227.455978 356.844574,226.122162 
	C357.782257,226.077133 358.407288,225.994507 359.435516,226.013031 
	C366.899414,226.222687 373.960144,226.331192 381.437073,226.546585 
	C383.563965,226.594208 385.274597,226.534958 387.258301,226.602295 
	C387.924927,226.798401 388.318512,226.867920 388.712158,226.937424 
z"/>
<path fill="#03EF02" opacity="1.000000" stroke="none" 
	d="
M103.725670,390.356934 
	C83.773277,390.347046 63.820881,390.336151 43.868484,390.327759 
	C36.395576,390.324585 28.922672,390.327240 20.790825,390.327240 
	C20.790825,335.605133 20.790825,281.130280 21.365301,226.188751 
	C31.809004,225.773163 41.678230,225.824234 51.636600,226.349945 
	C51.824875,242.216553 51.924011,257.608551 51.923740,273.460022 
	C51.824333,301.747559 51.824333,329.575562 51.824333,358.030060 
	C69.640251,358.030060 86.716263,358.030060 103.788116,358.496613 
	C103.764519,369.427765 103.745094,379.892365 103.725670,390.356934 
z"/>
<path fill="#F2FC11" opacity="1.000000" stroke="none" 
	d="
M20.986216,145.000046 
	C20.916384,119.366035 20.830458,93.732056 20.782505,68.098007 
	C20.751684,51.622791 20.776722,35.147472 20.776722,17.839897 
	C46.998478,17.839897 73.050591,17.839897 99.561821,18.390926 
	C100.020920,29.466707 100.020889,39.991459 99.566238,50.645489 
	C83.426056,50.774769 67.740509,50.774769 51.503979,50.774769 
	C51.503979,68.484428 51.503979,85.245163 51.139290,101.991684 
	C49.856865,100.995239 48.360985,100.140076 48.112785,99.010704 
	C46.109764,89.896523 45.143814,89.044327 35.619282,87.729309 
	C34.727699,87.606216 33.381618,85.451302 33.485744,84.357750 
	C33.946793,79.515823 34.860603,74.717003 35.538624,70.364410 
	C33.480282,67.730293 31.622089,65.352318 29.901463,63.150383 
	C30.618141,62.198063 30.833179,61.945782 31.011469,61.669762 
	C31.896875,60.299004 32.772602,58.921993 33.651733,57.547180 
	C32.992153,57.150940 31.790121,56.363071 31.752182,56.415630 
	C30.756607,57.794617 29.648430,59.167221 29.023605,60.726826 
	C24.884615,71.058067 26.856861,82.008644 26.819998,92.579185 
	C26.800468,98.179436 25.430798,103.466995 25.440536,108.966591 
	C25.455687,117.524155 25.192518,126.094536 24.656677,134.634979 
	C24.426790,138.299026 25.545528,142.746811 20.986216,145.000046 
z"/>
<path fill="#F3FD08" opacity="1.000000" stroke="none" 
	d="
M20.902658,145.462555 
	C25.545528,142.746811 24.426790,138.299026 24.656677,134.634979 
	C25.192518,126.094536 25.455687,117.524155 25.440536,108.966591 
	C25.430798,103.466995 26.800468,98.179436 26.819998,92.579185 
	C26.856861,82.008644 24.884615,71.058067 29.023605,60.726826 
	C29.648430,59.167221 30.756607,57.794617 31.752182,56.415630 
	C31.790121,56.363071 32.992153,57.150940 33.651733,57.547180 
	C32.772602,58.921993 31.896875,60.299004 31.011469,61.669762 
	C30.833179,61.945782 30.618141,62.198063 29.901463,63.150383 
	C31.622089,65.352318 33.480282,67.730293 35.538624,70.364410 
	C34.860603,74.717003 33.946793,79.515823 33.485744,84.357750 
	C33.381618,85.451302 34.727699,87.606216 35.619282,87.729309 
	C45.143814,89.044327 46.109764,89.896523 48.112785,99.010704 
	C48.360985,100.140076 49.856865,100.995239 51.232765,102.451523 
	C51.728886,120.027252 51.808899,137.128983 51.791443,154.230606 
	C51.777550,167.837463 51.644585,181.444183 51.123573,195.030457 
	C40.737961,194.986099 30.793257,194.962280 20.848551,194.938461 
	C20.838734,178.600662 20.828917,162.262863 20.902658,145.462555 
z"/>
<path fill="#024BFE" opacity="1.000000" stroke="none" 
	d="
M301.824158,376.853577 
	C301.908508,381.097015 301.992859,385.340424 302.093933,390.012024 
	C294.790649,390.545044 287.470612,390.738220 280.150543,390.739807 
	C243.154251,390.747803 206.157974,390.705994 168.694946,390.173065 
	C168.312943,381.781372 168.397705,373.898285 168.786499,365.951721 
	C169.934189,365.112793 170.777878,364.337341 171.621567,363.561890 
	C170.583328,363.030579 169.545090,362.499298 168.402008,361.581909 
	C168.272659,360.128479 168.248154,359.061127 168.609787,357.897217 
	C170.331161,357.840759 171.666428,357.880890 173.049835,358.262207 
	C174.598190,360.635193 175.511826,360.182312 176.457184,357.815491 
	C183.613831,357.751404 190.311325,357.790619 197.038895,358.190430 
	C200.323532,361.102966 204.147552,361.740540 208.059525,361.256622 
	C208.832611,361.160980 209.353012,359.022766 210.430908,357.716095 
	C221.138504,357.605682 231.405121,357.605682 242.223083,357.605682 
	C242.223083,364.796906 242.223083,371.588501 242.169891,378.794312 
	C242.731598,380.107574 243.346512,381.006622 243.961426,381.905670 
	C244.974762,380.935394 245.988098,379.965118 247.461517,378.901978 
	C253.146927,378.809143 258.372253,378.809143 264.409210,378.809143 
	C264.409210,374.569611 264.409210,370.840546 264.821167,367.105469 
	C267.467407,366.007324 271.690491,369.259888 272.374756,364.003052 
	C274.346985,364.356384 275.959137,364.701874 277.656433,365.502411 
	C277.741608,370.055878 277.741608,374.154266 277.741608,379.217346 
	C286.214539,378.385712 294.019348,377.619629 301.824158,376.853577 
M221.401443,379.064941 
	C216.435074,373.343475 211.341339,367.786285 203.278183,364.365082 
	C203.484283,368.145142 203.633392,370.880310 203.797760,373.894958 
	C192.161407,370.166260 184.091187,371.147064 182.304276,376.415009 
	C183.088776,376.605103 183.972366,377.136383 184.589706,376.917328 
	C188.587784,375.498688 190.713867,376.412872 191.390762,380.984192 
	C191.568039,382.181427 194.441910,384.010620 195.831039,383.813507 
	C201.061356,383.071442 206.190002,381.613037 211.595444,380.367889 
	C213.648285,384.453003 217.056412,384.517578 221.401443,379.064941 
M227.986481,377.448669 
	C227.933716,376.371521 227.880951,375.294342 227.828201,374.217194 
	C226.902512,374.380005 225.619598,374.231476 225.139313,374.782471 
	C224.503342,375.512177 224.495026,376.788910 224.216949,377.830566 
	C225.294464,377.882324 226.371979,377.934113 227.986481,377.448669 
M180.887924,368.575623 
	C179.748245,368.284424 178.608566,367.993256 177.468903,367.702057 
	C177.537674,368.449554 177.606461,369.197021 177.675232,369.944489 
	C178.752945,369.735291 179.830658,369.526093 180.887924,368.575623 
z"/>
<path fill="#FBD00B" opacity="1.000000" stroke="none" 
	d="
M100.020866,50.516209 
	C100.020889,39.991459 100.020920,29.466707 100.026505,18.473642 
	C122.349709,18.007551 144.667358,18.009775 167.411133,18.166601 
	C167.799240,28.628544 167.761215,38.935886 167.344452,49.881809 
	C144.650772,50.518993 122.335823,50.517601 100.020866,50.516209 
z"/>
<path fill="#2AFAE8" opacity="1.000000" stroke="none" 
	d="
M168.482452,366.015198 
	C168.397705,373.898285 168.312943,381.781372 168.249664,390.101013 
	C147.068161,390.565277 125.865219,390.592987 104.193970,390.488831 
	C103.745094,379.892365 103.764519,369.427765 104.268280,358.419769 
	C125.909630,357.915497 147.066650,357.954620 168.223663,357.993774 
	C168.248154,359.061127 168.272659,360.128479 168.279053,361.976379 
	C168.334793,363.842987 168.408630,364.929108 168.482452,366.015198 
z"/>
<path fill="#FDD702" opacity="1.000000" stroke="none" 
	d="
M20.681606,195.275848 
	C30.793257,194.962280 40.737961,194.986099 51.238205,195.033722 
	C51.793747,195.057510 52.014790,194.996704 51.932411,195.459412 
	C51.749176,205.906525 51.648319,215.890915 51.547462,225.875320 
	C41.678230,225.824234 31.809004,225.773163 21.473213,225.711578 
	C20.842655,215.671768 20.678658,205.642502 20.681606,195.275848 
z"/>
<path fill="#DC1670" opacity="1.000000" stroke="none" 
	d="
M357.070984,196.957397 
	C367.402252,197.003159 377.733490,197.048920 388.532715,197.104324 
	C389.051849,200.112396 389.103027,203.110855 388.820068,206.555969 
	C388.485962,207.002640 388.011749,207.006989 387.998169,206.748215 
	C387.971252,206.317261 387.957886,206.145081 387.953552,205.598740 
	C387.962982,204.476105 387.963440,203.727631 387.984314,202.550873 
	C388.511505,198.855637 387.015167,197.722000 383.868195,197.989182 
	C381.604279,198.181381 379.312897,198.049255 376.571594,198.041183 
	C372.409760,198.008377 368.710083,197.996155 364.664551,197.982376 
	C363.510132,198.310440 362.701569,198.640076 361.504730,198.976959 
	C359.767975,198.308594 358.419464,197.632996 357.070984,196.957397 
z"/>
<path fill="#E51463" opacity="1.000000" stroke="none" 
	d="
M388.011749,207.006989 
	C388.011749,207.006989 388.485962,207.002640 388.723053,206.999939 
	C389.024017,213.012283 389.087891,219.027328 388.719482,225.487976 
	C387.882904,225.903351 387.478607,225.873108 387.046844,225.405182 
	C387.008392,221.970932 386.997345,218.974350 387.157074,215.613739 
	C387.555786,212.502151 387.783783,209.754562 388.011749,207.006989 
z"/>
<path fill="#CC147E" opacity="1.000000" stroke="none" 
	d="
M387.074280,225.842865 
	C387.478607,225.873108 387.882904,225.903351 388.591553,225.937378 
	C388.911316,226.115875 388.926727,226.290543 388.827118,226.701309 
	C388.318512,226.867920 387.924927,226.798401 387.266693,226.442291 
	C387.002075,226.155685 387.074280,225.842865 387.074280,225.842865 
z"/>
<path fill="#FBFBFA" opacity="1.000000" stroke="none" 
	d="
M99.566238,50.645489 
	C122.335823,50.517601 144.650772,50.518993 167.318604,50.362022 
	C171.989807,50.310547 176.308151,50.510746 180.626465,50.510201 
	C236.926331,50.503090 293.226196,50.467510 349.526062,50.439274 
	C351.501526,50.438282 353.476959,50.439152 356.206146,50.439152 
	C356.206146,99.214539 356.206146,147.597137 356.182068,196.898407 
	C356.233124,202.224564 356.308258,206.632034 356.304291,211.495499 
	C356.279510,216.286469 356.333893,220.621460 356.339447,225.249268 
	C356.371094,225.722916 356.451538,225.903732 356.531952,226.084549 
	C356.427948,227.455978 356.323944,228.827408 355.721741,230.598785 
	C349.264160,231.829346 350.665100,225.044296 346.367798,222.260773 
	C346.367798,224.396484 346.304230,225.542892 346.380798,226.679886 
	C346.547272,229.151703 347.739136,232.130905 346.756866,233.960449 
	C345.475861,236.346313 342.494873,237.819427 340.245361,239.685272 
	C339.139221,238.342743 338.040253,236.994217 336.925110,235.659210 
	C335.622620,234.099976 334.306000,232.552551 332.890503,230.628006 
	C332.643097,228.992111 332.500702,227.728210 332.520630,225.984161 
	C332.634888,220.348175 332.586792,215.192307 332.644958,209.606384 
	C332.694489,207.122101 332.637726,205.067856 332.673279,202.579376 
	C332.688477,200.669876 332.611298,199.194626 332.610962,197.275177 
	C332.687836,155.608917 332.687836,114.386856 332.687836,73.273209 
	C308.419342,73.273209 284.845032,73.273209 261.016235,73.273209 
	C261.016235,84.372444 261.016235,95.092171 261.016235,106.349869 
	C274.308899,106.349869 287.363922,106.349869 300.761444,106.349869 
	C300.761444,115.008224 300.735229,123.132393 300.766449,131.256348 
	C300.851562,153.392258 300.960938,175.528076 300.965393,198.095154 
	C300.964569,199.679031 301.059052,200.831696 301.106201,202.438171 
	C301.120819,205.938293 301.182770,208.984589 301.139587,212.485504 
	C301.206085,217.395081 301.377747,221.850021 301.454681,226.744064 
	C301.249359,235.788925 301.138733,244.394699 300.607483,253.002899 
	C299.129486,253.907242 297.345001,254.685089 297.165527,255.736832 
	C296.787140,257.954163 297.134125,260.327759 297.388580,262.614441 
	C298.089111,268.908936 296.166626,274.010773 291.087585,277.871674 
	C287.601318,275.991425 286.136414,273.860382 288.258392,270.151154 
	C288.773865,269.250061 288.323761,266.755005 287.584442,266.357880 
	C284.368286,264.630432 280.881348,263.407104 277.387665,261.542542 
	C277.142212,248.875122 277.001862,236.665756 276.999237,224.219727 
	C277.241211,223.632584 277.345520,223.282104 277.661743,222.587891 
	C277.718475,215.840775 277.563354,209.437393 277.337830,202.695297 
	C277.186218,201.903702 277.105072,201.450806 277.111755,200.578491 
	C277.147705,198.734940 277.095764,197.310822 277.037659,195.502045 
	C276.704132,192.898041 276.376801,190.678665 276.441345,188.201843 
	C276.833252,173.754272 276.833252,159.564178 276.833252,144.989731 
	C265.135010,144.989731 253.561707,144.989731 241.723969,144.887634 
	C241.086029,144.769211 240.712494,144.752884 240.307220,144.285950 
	C240.275497,135.577316 240.275497,127.319305 240.275497,119.097641 
	C216.008087,119.097641 192.335648,119.097641 167.943314,119.097641 
	C167.943314,128.260208 167.943314,137.028839 167.494690,145.780518 
	C156.737762,145.636307 146.429352,145.517960 136.121292,145.374435 
	C134.000717,145.344925 132.143204,145.323669 132.154251,148.352798 
	C132.199722,160.816833 132.123596,173.281326 132.037354,186.127625 
	C131.259445,187.929413 130.578552,189.372681 129.804443,190.764099 
	C128.258667,193.542496 128.959457,195.016327 132.090729,195.543045 
	C131.988312,205.924255 132.010788,215.856796 131.917114,226.259125 
	C131.777634,236.843231 131.865936,246.959717 131.668823,257.070618 
	C131.602112,260.492340 132.628326,261.733215 136.179260,261.699188 
	C146.116898,261.604034 156.057892,261.862183 166.104935,262.195068 
	C166.632034,262.607391 167.051773,262.805573 167.583389,263.328735 
	C167.630539,264.102173 167.565811,264.550629 167.144897,265.018066 
	C165.861526,266.427917 164.400436,267.714447 164.104370,269.228729 
	C163.101898,274.356079 162.512039,279.564056 161.728958,284.987335 
	C158.905396,284.739136 156.712357,284.546326 155.462738,284.436493 
	C154.335831,287.947845 153.394958,290.879486 152.392822,294.002045 
	C144.564774,294.002045 137.149612,294.002045 129.372513,294.002045 
	C129.328934,293.790894 129.074905,293.020081 129.022919,292.235901 
	C128.602661,285.896912 126.792999,284.946899 121.214821,288.175018 
	C117.915871,290.084137 113.400871,288.239502 111.659554,284.755890 
	C110.893921,283.224152 109.041283,282.235748 107.546211,280.548248 
	C107.267937,261.970123 107.125626,243.844452 107.075882,225.279022 
	C107.168449,214.975098 107.168449,205.110947 107.168449,194.819809 
	C96.699951,194.819809 87.140419,194.759949 77.584351,194.914856 
	C76.656410,194.929916 75.749992,196.272736 74.445015,196.989197 
	C67.865707,194.542419 62.911369,199.549683 57.216534,199.505066 
	C55.554127,198.064255 53.784458,196.530472 52.014790,194.996704 
	C52.014790,194.996704 51.793747,195.057510 51.679115,195.054230 
	C51.644585,181.444183 51.777550,167.837463 51.791443,154.230606 
	C51.808899,137.128983 51.728886,120.027252 51.597454,102.465736 
	C51.503979,85.245163 51.503979,68.484428 51.503979,50.774769 
	C67.740509,50.774769 83.426056,50.774769 99.566238,50.645489 
M75.753471,142.922211 
	C75.753471,150.828857 75.753471,158.735504 75.753471,166.948853 
	C86.036156,166.948853 95.874046,166.948853 105.990868,166.948853 
	C105.990868,159.473114 105.990868,152.236679 106.169914,144.076950 
	C106.169914,131.505264 106.169914,118.933571 106.169914,105.992180 
	C118.985527,105.992180 131.075165,105.992180 143.355957,105.992180 
	C143.355957,94.902634 143.355957,84.195930 143.355957,73.477325 
	C120.746613,73.477325 98.502441,73.477325 75.930176,73.477325 
	C75.930176,96.514267 75.930176,119.256241 75.753471,142.922211 
M191.313324,71.772469 
	C183.865128,71.772469 176.416946,71.772469 168.691162,71.772469 
	C168.691162,80.701317 168.691162,89.244133 168.691162,97.879845 
	C177.728088,97.879845 186.557953,97.879845 195.718384,97.879845 
	C195.718384,90.011993 195.627182,82.549667 195.766953,75.091667 
	C195.817123,72.415352 194.781189,71.459427 191.313324,71.772469 
M234.319183,72.351608 
	C227.748703,72.351608 221.178207,72.351608 214.577866,72.351608 
	C214.577866,81.570496 214.577866,90.246834 214.577866,98.847397 
	C223.456100,98.847397 231.968811,98.847397 240.462112,98.847397 
	C240.462112,89.888802 240.462112,81.354912 240.462112,72.362144 
	C238.510056,72.362144 236.885971,72.362144 234.319183,72.351608 
z"/>
<path fill="#D33089" opacity="1.000000" stroke="none" 
	d="
M356.383423,211.039520 
	C356.308258,206.632034 356.233124,202.224564 356.253937,197.354950 
	C356.349884,196.892838 356.718597,196.826996 356.894775,196.892197 
	C358.419464,197.632996 359.767975,198.308594 361.567627,199.347183 
	C362.658295,201.807327 363.297791,203.904480 363.645538,206.042236 
	C363.566589,207.076843 363.779327,208.070877 363.987183,209.377625 
	C363.986725,210.107300 363.991119,210.524246 363.979248,211.196213 
	C363.951141,211.621140 363.939301,211.791077 363.541748,211.961090 
	C360.898529,211.653931 358.640961,211.346725 356.383423,211.039520 
z"/>
<path fill="#FBFCFA" opacity="1.000000" stroke="none" 
	d="
M107.682182,281.000671 
	C109.041283,282.235748 110.893921,283.224152 111.659554,284.755890 
	C113.400871,288.239502 117.915871,290.084137 121.214821,288.175018 
	C126.792999,284.946899 128.602661,285.896912 129.022919,292.235901 
	C129.074905,293.020081 129.328934,293.790894 129.372513,294.002045 
	C137.149612,294.002045 144.564774,294.002045 152.392822,294.002045 
	C153.394958,290.879486 154.335831,287.947845 155.462738,284.436493 
	C156.712357,284.546326 158.905396,284.739136 161.728958,284.987335 
	C162.512039,279.564056 163.101898,274.356079 164.104370,269.228729 
	C164.400436,267.714447 165.861526,266.427917 167.251495,265.475708 
	C167.832047,272.604095 167.949814,279.293823 168.176956,286.318542 
	C169.823303,286.671295 171.360260,286.689056 173.371521,286.730103 
	C194.871552,286.699890 215.897293,286.646393 237.328918,286.708405 
	C239.146042,286.759216 240.557297,286.694519 241.939606,286.631165 
	C241.939606,280.118439 241.939606,274.044922 241.971008,267.963379 
	C242.002411,267.955353 241.949966,267.917267 242.177185,267.711609 
	C242.539749,267.352844 242.675125,267.199768 243.240082,267.201385 
	C254.671371,268.027893 265.673065,268.699768 276.885498,269.384491 
	C277.146179,266.215240 277.319489,264.107910 277.492798,262.000580 
	C280.881348,263.407104 284.368286,264.630432 287.584442,266.357880 
	C288.323761,266.755005 288.773865,269.250061 288.258392,270.151154 
	C286.136414,273.860382 287.601318,275.991425 291.087585,277.871674 
	C296.166626,274.010773 298.089111,268.908936 297.388580,262.614441 
	C297.134125,260.327759 296.787140,257.954163 297.165527,255.736832 
	C297.345001,254.685089 299.129486,253.907242 300.716125,253.460754 
	C301.371399,262.268127 301.497406,270.620087 301.485291,279.423767 
	C301.347168,287.280151 301.347168,294.684753 301.347168,302.800079 
	C288.468201,302.800079 276.222290,302.800079 263.583160,302.669006 
	C256.725189,302.537964 250.260406,302.537964 243.553223,302.537964 
	C243.553223,313.472565 243.553223,323.876740 243.553223,334.339844 
	C273.379517,334.339844 302.909760,334.339844 332.746216,334.339844 
	C332.746216,318.441010 332.714325,302.956146 332.754364,287.471497 
	C332.803070,268.647583 332.912384,249.823822 332.995483,231.000000 
	C334.306000,232.552551 335.622620,234.099976 336.925110,235.659210 
	C338.040253,236.994217 339.139221,238.342743 340.245361,239.685272 
	C342.494873,237.819427 345.475861,236.346313 346.756866,233.960449 
	C347.739136,232.130905 346.547272,229.151703 346.380798,226.679886 
	C346.304230,225.542892 346.367798,224.396484 346.367798,222.260773 
	C350.665100,225.044296 349.264160,231.829346 355.615662,230.999359 
	C356.087677,240.642914 356.229614,250.285782 356.236145,259.928741 
	C356.256714,290.379517 356.226532,320.830261 356.216156,351.281036 
	C356.215546,353.078308 356.216095,354.875549 356.216095,357.335266 
	C351.101044,357.335266 346.334961,357.332489 341.568878,357.335815 
	C329.754700,357.344086 317.939728,357.293091 306.127350,357.443817 
	C304.657593,357.462524 303.201538,358.556763 301.264221,359.552551 
	C293.424194,356.832825 285.884430,357.734497 278.003021,358.768585 
	C276.132599,358.536041 274.589020,358.511932 272.610931,358.360077 
	C269.652344,358.232330 267.128235,358.232330 264.524811,358.232330 
	C264.366882,359.739014 264.208038,360.525970 264.217316,361.310913 
	C264.240112,363.244934 264.340179,365.178009 264.409210,367.111481 
	C264.409210,370.840546 264.409210,374.569611 264.409210,378.809143 
	C258.372253,378.809143 253.146927,378.809143 247.070282,378.799927 
	C244.886993,378.653839 243.555038,378.516968 242.223083,378.380096 
	C242.223083,371.588501 242.223083,364.796906 242.223083,357.605682 
	C231.405121,357.605682 221.138504,357.605682 209.981567,357.594147 
	C205.063782,357.665009 201.036285,357.747406 197.008804,357.829803 
	C190.311325,357.790619 183.613831,357.751404 176.090546,357.705261 
	C174.510376,357.772522 173.756027,357.846771 173.001678,357.921021 
	C171.666428,357.880890 170.331161,357.840759 168.609787,357.897217 
	C147.066650,357.954620 125.909630,357.915497 104.272446,357.953217 
	C86.716263,358.030060 69.640251,358.030060 51.824333,358.030060 
	C51.824333,329.575562 51.824333,301.747559 52.267204,273.494507 
	C54.671021,272.959595 56.631962,272.849701 59.698853,272.677795 
	C60.223236,275.875732 60.581005,279.327545 61.460514,282.640808 
	C61.721386,283.623566 63.495907,284.932312 64.499062,284.868530 
	C69.814339,284.530518 70.511826,287.628693 71.187912,291.936035 
	C71.739487,295.450104 70.285461,300.344727 75.636734,302.460999 
	C75.737610,313.375519 75.737610,323.831482 75.737610,334.500214 
	C77.172157,334.634583 78.131798,334.802673 79.091507,334.802979 
	C107.082375,334.812592 135.073257,334.813049 163.064072,334.772980 
	C164.175659,334.771393 165.286636,334.358582 166.792572,334.335510 
	C175.529602,334.531128 183.871948,334.528625 192.664246,334.589386 
	C201.035385,334.652649 208.956589,334.652649 216.648666,334.652649 
	C216.648666,324.530426 216.648666,314.995941 216.648666,305.617004 
	C208.150589,305.617004 200.202484,305.617004 191.947495,305.529175 
	C190.834396,305.670013 190.028183,305.898621 188.744781,306.086365 
	C185.065292,306.108765 181.862991,306.172058 178.221481,306.198730 
	C174.190247,306.201660 170.598206,306.241211 166.705780,306.111359 
	C166.905838,305.028931 167.406281,304.115967 168.324814,302.440247 
	C147.744644,302.440247 127.664360,302.440247 107.682182,302.440247 
	C107.682182,294.819427 107.682182,287.910034 107.682182,281.000671 
z"/>
<path fill="#F3F3FB" opacity="1.000000" stroke="none" 
	d="
M278.329865,358.977020 
	C285.884430,357.734497 293.424194,356.832825 301.156433,359.963623 
	C301.612396,365.293396 301.701324,370.612000 301.807190,376.392090 
	C294.019348,377.619629 286.214539,378.385712 277.741608,379.217346 
	C277.741608,374.154266 277.741608,370.055878 277.763611,365.077728 
	C277.967041,362.457642 278.148438,360.717346 278.329865,358.977020 
z"/>
<path fill="#CC147E" opacity="1.000000" stroke="none" 
	d="
M363.995544,210.941208 
	C363.991119,210.524246 363.986725,210.107300 364.355652,209.409668 
	C366.757751,211.853394 368.786469,214.577789 371.084442,217.663696 
	C371.681793,217.117584 372.839661,216.059006 374.314331,214.841187 
	C379.204193,210.849487 381.072937,210.913284 383.995056,215.381683 
	C382.999512,219.320923 382.010193,222.880310 381.020874,226.439697 
	C373.960144,226.331192 366.899414,226.222687 359.242188,225.790771 
	C357.893219,225.297073 357.140717,225.126755 356.388245,224.956451 
	C356.333893,220.621460 356.279510,216.286469 356.304291,211.495499 
	C358.640961,211.346725 360.898529,211.653931 363.713684,212.190918 
	C364.690460,212.384079 365.109680,212.347458 365.528870,212.310837 
	C365.017761,211.854294 364.506653,211.397751 363.995544,210.941208 
M365.087311,214.771423 
	C364.775696,215.106415 364.464081,215.441406 364.152466,215.776382 
	C364.457153,216.048004 364.761810,216.319641 365.066467,216.591278 
	C365.208710,216.116425 365.350952,215.641571 365.087311,214.771423 
z"/>
<path fill="#D70F70" opacity="1.000000" stroke="none" 
	d="
M381.437073,226.546570 
	C382.010193,222.880310 382.999512,219.320923 384.312073,215.406311 
	C385.418976,215.359970 386.202667,215.668869 386.986328,215.977768 
	C386.997345,218.974350 387.008392,221.970932 387.046844,225.405182 
	C387.074280,225.842865 387.002075,226.155685 386.993652,226.315704 
	C385.274597,226.534958 383.563965,226.594208 381.437073,226.546570 
z"/>
<path fill="#D33089" opacity="1.000000" stroke="none" 
	d="
M356.339447,225.249268 
	C357.140717,225.126755 357.893219,225.297073 358.839020,225.689621 
	C358.407288,225.994507 357.782257,226.077133 356.844574,226.122162 
	C356.451538,225.903732 356.371094,225.722916 356.339447,225.249268 
z"/>
<path fill="#F7FBF8" opacity="1.000000" stroke="none" 
	d="
M75.535866,302.002411 
	C70.285461,300.344727 71.739487,295.450104 71.187912,291.936035 
	C70.511826,287.628693 69.814339,284.530518 64.499062,284.868530 
	C63.495907,284.932312 61.721386,283.623566 61.460514,282.640808 
	C60.581005,279.327545 60.223236,275.875732 59.698853,272.677795 
	C56.631962,272.849701 54.671021,272.959595 52.366611,273.035004 
	C51.924011,257.608551 51.824875,242.216553 51.636604,226.349945 
	C51.648319,215.890915 51.749176,205.906525 51.932411,195.459412 
	C53.784458,196.530472 55.554127,198.064255 57.216534,199.505066 
	C62.911369,199.549683 67.865707,194.542419 74.515503,197.453384 
	C75.206627,207.237076 75.438698,216.546585 75.535431,226.315002 
	C75.400764,228.932999 75.398438,231.092102 75.402565,233.251205 
	C75.446411,256.168274 75.491280,279.085327 75.535866,302.002411 
z"/>
<path fill="#0953FD" opacity="1.000000" stroke="none" 
	d="
M221.534622,379.391541 
	C217.056412,384.517578 213.648285,384.453003 211.595444,380.367889 
	C206.190002,381.613037 201.061356,383.071442 195.831039,383.813507 
	C194.441910,384.010620 191.568039,382.181427 191.390762,380.984192 
	C190.713867,376.412872 188.587784,375.498688 184.589706,376.917328 
	C183.972366,377.136383 183.088776,376.605103 182.304276,376.415009 
	C184.091187,371.147064 192.161407,370.166260 203.797760,373.894958 
	C203.633392,370.880310 203.484283,368.145142 203.278183,364.365082 
	C211.341339,367.786285 216.435074,373.343475 221.534622,379.391541 
M203.535263,379.862244 
	C203.739502,378.859406 203.943741,377.856567 204.147980,376.853729 
	C203.419815,376.824036 202.691650,376.794373 201.963486,376.764679 
	C202.255371,377.773254 202.547256,378.781830 203.535263,379.862244 
z"/>
<path fill="#3781FE" opacity="1.000000" stroke="none" 
	d="
M264.821167,367.105469 
	C264.340179,365.178009 264.240112,363.244934 264.217316,361.310913 
	C264.208038,360.525970 264.366882,359.739014 264.524811,358.232330 
	C267.128235,358.232330 269.652344,358.232330 272.534302,358.700745 
	C272.599670,360.777832 272.307190,362.386505 272.014679,363.995148 
	C271.690491,369.259888 267.467407,366.007324 264.821167,367.105469 
z"/>
<path fill="#0953FD" opacity="1.000000" stroke="none" 
	d="
M197.038895,358.190430 
	C201.036285,357.747406 205.063782,357.665009 209.540604,357.704559 
	C209.353012,359.022766 208.832611,361.160980 208.059525,361.256622 
	C204.147552,361.740540 200.323532,361.102966 197.038895,358.190430 
z"/>
<path fill="#195AFE" opacity="1.000000" stroke="none" 
	d="
M272.374756,364.003052 
	C272.307190,362.386505 272.599670,360.777832 272.968811,358.828491 
	C274.589020,358.511932 276.132599,358.536041 278.003021,358.768585 
	C278.148438,360.717346 277.967041,362.457642 277.678467,364.622650 
	C275.959137,364.701874 274.346985,364.356384 272.374756,364.003052 
z"/>
<path fill="#0953FD" opacity="1.000000" stroke="none" 
	d="
M227.717987,377.717285 
	C226.371979,377.934113 225.294464,377.882324 224.216949,377.830566 
	C224.495026,376.788910 224.503342,375.512177 225.139313,374.782471 
	C225.619598,374.231476 226.902512,374.380005 227.828201,374.217194 
	C227.880951,375.294342 227.933716,376.371521 227.717987,377.717285 
z"/>
<path fill="#0953FD" opacity="1.000000" stroke="none" 
	d="
M180.898163,368.946259 
	C179.830658,369.526093 178.752945,369.735291 177.675232,369.944519 
	C177.606461,369.197021 177.537674,368.449554 177.468903,367.702057 
	C178.608566,367.993256 179.748245,368.284424 180.898163,368.946259 
z"/>
<path fill="#0953FD" opacity="1.000000" stroke="none" 
	d="
M242.169891,378.794312 
	C243.555038,378.516968 244.886993,378.653839 246.610199,378.892761 
	C245.988098,379.965118 244.974762,380.935394 243.961426,381.905670 
	C243.346512,381.006622 242.731598,380.107574 242.169891,378.794312 
z"/>
<path fill="#0953FD" opacity="1.000000" stroke="none" 
	d="
M168.786484,365.951721 
	C168.408630,364.929108 168.334793,363.842987 168.383911,362.362457 
	C169.545090,362.499298 170.583328,363.030579 171.621567,363.561890 
	C170.777878,364.337341 169.934189,365.112793 168.786484,365.951721 
z"/>
<path fill="#0953FD" opacity="1.000000" stroke="none" 
	d="
M173.049835,358.262207 
	C173.756027,357.846771 174.510376,357.772522 175.631378,357.808533 
	C175.511826,360.182312 174.598190,360.635193 173.049835,358.262207 
z"/>
<path fill="#BC1585" opacity="1.000000" stroke="none" 
	d="
M373.997559,215.000443 
	C372.839661,216.059006 371.681793,217.117584 371.084442,217.663696 
	C368.786469,214.577789 366.757751,211.853394 364.360535,209.096954 
	C363.779327,208.070877 363.566589,207.076843 363.956268,205.781830 
	C364.709290,202.981857 364.859863,200.482910 365.010406,197.983948 
	C368.710083,197.996155 372.409760,198.008377 376.606781,198.396835 
	C379.685242,202.857224 383.246796,204.409958 387.963898,202.979156 
	C387.963440,203.727631 387.962982,204.476105 387.563354,205.607666 
	C385.126282,206.596664 382.934601,208.013855 381.078369,207.661850 
	C374.566711,206.427063 374.730164,211.015976 373.997559,215.000443 
z"/>
<path fill="#C9137D" opacity="1.000000" stroke="none" 
	d="
M374.314331,214.841187 
	C374.730164,211.015976 374.566711,206.427063 381.078369,207.661850 
	C382.934601,208.013855 385.126282,206.596664 387.554352,205.981842 
	C387.957886,206.145081 387.971252,206.317261 387.998169,206.748215 
	C387.783783,209.754562 387.555786,212.502151 387.157074,215.613739 
	C386.202667,215.668869 385.418976,215.359970 384.318268,215.026459 
	C381.072937,210.913284 379.204193,210.849487 374.314331,214.841187 
z"/>
<path fill="#B01094" opacity="1.000000" stroke="none" 
	d="
M387.984314,202.550873 
	C383.246796,204.409958 379.685242,202.857224 377.068939,198.417435 
	C379.312897,198.049255 381.604279,198.181381 383.868195,197.989182 
	C387.015167,197.722000 388.511505,198.855637 387.984314,202.550873 
z"/>
<path fill="#B01094" opacity="1.000000" stroke="none" 
	d="
M364.664551,197.982376 
	C364.859863,200.482910 364.709290,202.981857 364.247986,205.741226 
	C363.297791,203.904480 362.658295,201.807327 361.955933,199.339951 
	C362.701569,198.640076 363.510132,198.310440 364.664551,197.982376 
z"/>
<path fill="#05EF03" opacity="1.000000" stroke="none" 
	d="
M75.636734,302.460999 
	C75.491280,279.085327 75.446411,256.168274 75.402565,233.251205 
	C75.398438,231.092102 75.400764,228.932999 75.953186,226.297607 
	C86.665291,225.787140 96.824303,225.752960 106.983322,225.718765 
	C107.125626,243.844452 107.267937,261.970123 107.546211,280.548248 
	C107.682182,287.910034 107.682182,294.819427 107.682182,302.440247 
	C127.664360,302.440247 147.744644,302.440247 168.324814,302.440247 
	C167.406281,304.115967 166.905838,305.028931 166.476273,306.439819 
	C166.497406,316.004272 166.447662,325.070831 166.397919,334.137360 
	C165.286636,334.358582 164.175659,334.771393 163.064072,334.772980 
	C135.073257,334.813049 107.082375,334.812592 79.091507,334.802979 
	C78.131798,334.802673 77.172157,334.634583 75.737610,334.500214 
	C75.737610,323.831482 75.737610,313.375519 75.636734,302.460999 
z"/>
<path fill="#FD0804" opacity="1.000000" stroke="none" 
	d="
M301.060730,197.663940 
	C300.960938,175.528076 300.851562,153.392258 300.766449,131.256348 
	C300.735229,123.132393 300.761444,115.008224 300.761444,106.349869 
	C287.363922,106.349869 274.308899,106.349869 261.016235,106.349869 
	C261.016235,95.092171 261.016235,84.372444 261.016235,73.273209 
	C284.845032,73.273209 308.419342,73.273209 332.687836,73.273209 
	C332.687836,114.386856 332.687836,155.608917 332.173218,197.263153 
	C321.459290,197.684845 311.260010,197.674393 301.060730,197.663940 
z"/>
<path fill="#1401FC" opacity="1.000000" stroke="none" 
	d="
M332.890503,230.628021 
	C332.912384,249.823822 332.803070,268.647583 332.754364,287.471497 
	C332.714325,302.956146 332.746216,318.441010 332.746216,334.339844 
	C302.909760,334.339844 273.379517,334.339844 243.553223,334.339844 
	C243.553223,323.876740 243.553223,313.472565 243.553223,302.537964 
	C250.260406,302.537964 256.725189,302.537964 263.728516,302.948395 
	C269.600708,306.081848 275.030334,308.082916 281.247192,307.058594 
	C287.696136,305.996033 294.201843,304.652252 300.682922,304.651184 
	C304.416779,304.650574 305.104645,303.508423 304.974976,300.599426 
	C304.695709,294.333954 304.405609,288.064972 303.869415,281.818939 
	C303.783051,280.813110 302.404572,279.918213 301.623413,278.972046 
	C301.497406,270.620087 301.371399,262.268127 301.136749,253.458328 
	C301.138733,244.394699 301.249359,235.788925 301.652039,226.838440 
	C301.944122,226.493713 302.339752,226.680664 302.689514,226.812988 
	C310.956696,226.826431 318.874146,226.707581 327.181885,226.489105 
	C329.167572,226.414429 330.762939,226.439362 332.358307,226.464294 
	C332.500702,227.728210 332.643097,228.992111 332.890503,230.628021 
z"/>
<path fill="#F5FC13" opacity="1.000000" stroke="none" 
	d="
M75.930176,141.998215 
	C75.930176,119.256241 75.930176,96.514267 75.930176,73.477325 
	C98.502441,73.477325 120.746613,73.477325 143.355957,73.477325 
	C143.355957,84.195930 143.355957,94.902634 143.355957,105.992180 
	C131.075165,105.992180 118.985527,105.992180 106.169914,105.992180 
	C106.169914,118.933571 106.169914,131.505264 105.737640,144.482971 
	C102.087860,142.342499 99.515930,140.390259 94.471550,142.599747 
	C87.726456,145.554169 85.680641,144.044434 81.584229,137.829727 
	C79.686127,139.229111 77.808151,140.613663 75.930176,141.998215 
z"/>
<path fill="#FD0803" opacity="1.000000" stroke="none" 
	d="
M167.943329,145.797470 
	C167.943314,137.028839 167.943314,128.260208 167.943314,119.097641 
	C192.335648,119.097641 216.008087,119.097641 240.275497,119.097641 
	C240.275497,127.319305 240.275497,135.577316 240.225586,144.759140 
	C240.111526,150.011963 240.047379,154.340958 239.634674,158.666534 
	C227.102600,152.604660 214.586426,147.787476 200.607132,149.793655 
	C189.224503,151.427170 178.265961,154.452835 168.528839,160.792084 
	C168.240570,155.530060 168.091949,150.663757 167.943329,145.797470 
z"/>
<path fill="#0250FD" opacity="1.000000" stroke="none" 
	d="
M168.067581,285.983521 
	C167.949814,279.293823 167.832047,272.604095 167.607666,265.456726 
	C167.565811,264.550629 167.630539,264.102173 167.700943,263.092957 
	C167.741074,262.360016 167.775543,262.187775 168.086792,261.920044 
	C168.751526,261.819427 169.139511,261.814362 169.910309,261.971527 
	C171.653885,262.372345 173.014648,262.610901 175.741226,263.088959 
	C174.643845,259.215637 173.902573,256.453827 173.075623,253.717911 
	C172.081741,250.429703 171.014908,247.163559 170.306458,243.995224 
	C176.733795,250.791901 184.462402,254.413254 193.291901,255.544189 
	C210.279205,257.720032 226.979828,258.402649 240.106384,244.068848 
	C240.682343,250.191544 240.915222,256.040375 241.097382,262.277161 
	C241.388077,263.855682 241.729507,265.046204 242.092499,266.306702 
	C242.114059,266.376709 242.037323,266.501495 241.984833,266.853546 
	C241.938202,267.442810 241.944077,267.680054 241.949966,267.917267 
	C241.949966,267.917267 242.002411,267.955353 241.567291,267.990570 
	C240.462845,268.612946 239.306244,269.124176 239.201065,269.799225 
	C238.331558,275.379974 237.656754,280.991028 236.923035,286.592896 
	C215.897293,286.646393 194.871552,286.699890 173.115112,286.484985 
	C170.945480,286.138916 169.506531,286.061218 168.067581,285.983521 
z"/>
<path fill="#1903F9" opacity="1.000000" stroke="none" 
	d="
M242.037323,266.501495 
	C242.037323,266.501495 242.114059,266.376709 242.107422,265.877869 
	C242.086487,264.261810 242.072189,263.144653 242.292480,261.690125 
	C242.197128,253.821243 241.867172,246.289688 241.676483,238.362823 
	C242.377060,233.642593 242.938370,229.317688 243.932846,224.925705 
	C255.197861,224.724548 266.029694,224.590454 276.861542,224.456360 
	C277.001862,236.665756 277.142212,248.875122 277.387665,261.542542 
	C277.319489,264.107910 277.146179,266.215240 276.885498,269.384491 
	C265.673065,268.699768 254.671371,268.027893 243.143097,267.074036 
	C242.427475,266.687134 242.234421,266.590302 242.037323,266.501495 
z"/>
<path fill="#FD0803" opacity="1.000000" stroke="none" 
	d="
M241.988388,144.989731 
	C253.561707,144.989731 265.135010,144.989731 276.833252,144.989731 
	C276.833252,159.564178 276.833252,173.754272 275.984985,188.079941 
	C264.736694,188.232727 254.336716,188.249939 243.731781,187.862793 
	C242.773651,182.015076 242.020477,176.571732 241.467728,170.845886 
	C241.532272,169.000000 241.396408,167.436615 241.251114,165.455139 
	C241.205688,163.363831 241.169693,161.690582 241.327347,159.662170 
	C241.676788,154.534576 241.832596,149.762161 241.988388,144.989731 
z"/>
<path fill="#F4FB10" opacity="1.000000" stroke="none" 
	d="
M167.494690,145.780518 
	C168.091949,150.663757 168.240570,155.530060 168.599991,161.226349 
	C168.789459,165.381287 167.993210,168.940704 168.913223,171.980759 
	C170.658752,177.748566 166.472900,181.354095 164.536423,185.847260 
	C153.412628,185.761566 142.752396,185.753601 132.092194,185.745651 
	C132.123596,173.281326 132.199722,160.816833 132.154251,148.352798 
	C132.143204,145.323669 134.000717,145.344925 136.121292,145.374435 
	C146.429352,145.517960 156.737762,145.636307 167.494690,145.780518 
z"/>
<path fill="#04F005" opacity="1.000000" stroke="none" 
	d="
M169.527481,261.809296 
	C169.139511,261.814362 168.751526,261.819427 167.785797,261.841980 
	C166.804535,261.899963 166.401062,261.940430 165.997574,261.980896 
	C156.057892,261.862183 146.116898,261.604034 136.179260,261.699188 
	C132.628326,261.733215 131.602112,260.492340 131.668823,257.070618 
	C131.865936,246.959717 131.777634,236.843231 132.382111,226.249420 
	C144.220901,225.938034 155.478577,226.106186 166.876480,226.650116 
	C167.650482,232.280197 168.284241,237.534485 168.851639,243.246887 
	C169.032684,249.739761 169.280075,255.774536 169.527481,261.809296 
z"/>
<path fill="#FBD805" opacity="1.000000" stroke="none" 
	d="
M166.736237,226.274323 
	C155.478577,226.106186 144.220901,225.938034 132.498245,225.779602 
	C132.010788,215.856796 131.988312,205.924255 132.542664,195.579544 
	C144.078598,195.136993 155.037704,195.106613 166.252289,195.397278 
	C166.583923,205.903671 166.660080,216.088989 166.736237,226.274323 
z"/>
<path fill="#FBD804" opacity="1.000000" stroke="none" 
	d="
M107.075882,225.279022 
	C96.824303,225.752960 86.665291,225.787140 76.088516,225.838715 
	C75.438698,216.546585 75.206627,207.237076 74.904068,197.463379 
	C75.749992,196.272736 76.656410,194.929916 77.584351,194.914856 
	C87.140419,194.759949 96.699951,194.819809 107.168449,194.819809 
	C107.168449,205.110947 107.168449,214.975098 107.075882,225.279022 
z"/>
<path fill="#FD0B08" opacity="1.000000" stroke="none" 
	d="
M191.789703,71.773064 
	C194.781189,71.459427 195.817123,72.415352 195.766953,75.091667 
	C195.627182,82.549667 195.718384,90.011993 195.718384,97.879845 
	C186.557953,97.879845 177.728088,97.879845 168.691162,97.879845 
	C168.691162,89.244133 168.691162,80.701317 168.691162,71.772469 
	C176.416946,71.772469 183.865128,71.772469 191.789703,71.773064 
z"/>
<path fill="#F5FB0B" opacity="1.000000" stroke="none" 
	d="
M75.841827,142.460205 
	C77.808151,140.613663 79.686127,139.229111 81.584229,137.829727 
	C85.680641,144.044434 87.726456,145.554169 94.471550,142.599747 
	C99.515930,140.390259 102.087860,142.342499 105.648117,144.944611 
	C105.990868,152.236679 105.990868,159.473114 105.990868,166.948853 
	C95.874046,166.948853 86.036156,166.948853 75.753471,166.948853 
	C75.753471,158.735504 75.753471,150.828857 75.841827,142.460205 
z"/>
<path fill="#FC0A09" opacity="1.000000" stroke="none" 
	d="
M234.790527,72.356873 
	C236.885971,72.362144 238.510056,72.362144 240.462112,72.362144 
	C240.462112,81.354912 240.462112,89.888802 240.462112,98.847397 
	C231.968811,98.847397 223.456100,98.847397 214.577866,98.847397 
	C214.577866,90.246834 214.577866,81.570496 214.577866,72.351608 
	C221.178207,72.351608 227.748703,72.351608 234.790527,72.356873 
z"/>
<path fill="#D1107C" opacity="1.000000" stroke="none" 
	d="
M332.520630,225.984161 
	C330.762939,226.439362 329.167572,226.414429 326.750732,226.350372 
	C318.066071,226.434402 310.202911,226.557526 302.339752,226.680664 
	C302.339752,226.680664 301.944122,226.493713 301.746765,226.399353 
	C301.377747,221.850021 301.206085,217.395081 301.560303,212.477844 
	C303.580078,211.979050 305.202454,212.306885 306.542480,211.834244 
	C309.874298,210.659042 312.693268,210.298187 313.836700,215.725479 
	C314.941498,212.382523 315.622040,210.323349 316.479980,207.727295 
	C319.665070,211.108597 315.183685,217.628387 322.686829,217.741974 
	C322.686829,214.596466 322.686829,211.641205 322.686829,208.699524 
	C325.242584,209.046356 328.890625,209.541412 332.538696,210.036453 
	C332.586792,215.192307 332.634888,220.348175 332.520630,225.984161 
z"/>
<path fill="#E90A55" opacity="1.000000" stroke="none" 
	d="
M276.999237,224.219711 
	C266.029694,224.590454 255.197861,224.724548 243.938141,224.553741 
	C243.589890,223.525589 243.669510,222.802307 244.047409,221.982208 
	C247.426666,219.168564 252.014038,217.466049 250.967896,211.656052 
	C249.953140,210.548386 248.975708,209.779984 247.995056,208.633057 
	C247.991852,206.893539 247.991852,205.532516 247.991852,204.171509 
	C248.416489,203.901947 248.841125,203.632401 249.265747,203.362839 
	C250.510620,204.910187 251.755493,206.457535 253.044739,208.333176 
	C253.392776,210.330139 253.942062,211.997772 253.949158,213.667694 
	C253.964081,217.179169 255.945374,217.976517 258.229889,216.164261 
	C260.002197,214.758316 260.785583,212.105728 262.351105,210.061646 
	C263.129120,211.077606 263.564545,212.039169 263.744446,213.212494 
	C263.723511,214.216522 263.958130,215.008789 264.192749,215.801056 
	C264.800049,215.201630 265.407349,214.602203 266.379578,213.956909 
	C267.497528,212.275635 268.250610,210.640228 269.246124,209.004547 
	C269.488556,209.004257 269.973389,209.015305 270.129242,209.316010 
	C272.154999,210.770142 274.024933,211.923569 275.964539,213.488251 
	C276.506104,216.910202 276.977966,219.920914 277.449829,222.931625 
	C277.345520,223.282104 277.241211,223.632584 276.999237,224.219711 
z"/>
<path fill="#F7FCFD" opacity="1.000000" stroke="none" 
	d="
M165.996811,195.076233 
	C155.037704,195.106613 144.078598,195.136993 132.667557,195.130859 
	C128.959457,195.016327 128.258667,193.542496 129.804443,190.764099 
	C130.578552,189.372681 131.259445,187.929413 132.037338,186.127625 
	C142.752396,185.753601 153.412628,185.761566 164.544739,186.262543 
	C165.343353,189.529114 165.670074,192.302689 165.996811,195.076233 
z"/>
<path fill="#C3178D" opacity="1.000000" stroke="none" 
	d="
M332.644958,209.606384 
	C328.890625,209.541412 325.242584,209.046356 322.686829,208.699524 
	C322.686829,211.641205 322.686829,214.596466 322.686829,217.741974 
	C315.183685,217.628387 319.665070,211.108597 316.479980,207.727295 
	C315.622040,210.323349 314.941498,212.382523 313.836700,215.725479 
	C312.693268,210.298187 309.874298,210.659042 306.542480,211.834244 
	C305.202454,212.306885 303.580078,211.979050 301.665466,212.023224 
	C301.182770,208.984589 301.120819,205.938293 301.560730,202.443542 
	C312.235382,202.334610 322.408173,202.674118 332.580963,203.013626 
	C332.637726,205.067856 332.694489,207.122101 332.644958,209.606384 
z"/>
<path fill="#E6D2DC" opacity="1.000000" stroke="none" 
	d="
M243.936737,188.267151 
	C254.336716,188.249939 264.736694,188.232727 275.593079,188.337402 
	C276.376801,190.678665 276.704132,192.898041 276.567200,195.487061 
	C270.750000,195.922028 265.397095,195.987350 259.576660,195.976913 
	C253.795486,195.997070 248.481857,196.092987 243.128632,195.786240 
	C243.371597,193.011429 243.654160,190.639282 243.936737,188.267151 
z"/>
<path fill="#A014B7" opacity="1.000000" stroke="none" 
	d="
M332.673279,202.579376 
	C322.408173,202.674118 312.235382,202.334610 301.608063,201.989731 
	C301.059052,200.831696 300.964569,199.679031 300.965393,198.095154 
	C311.260010,197.674393 321.459290,197.684845 332.096344,197.707336 
	C332.611298,199.194626 332.688477,200.669876 332.673279,202.579376 
z"/>
<path fill="#7E1EF1" opacity="1.000000" stroke="none" 
	d="
M260.044189,196.052673 
	C265.397095,195.987350 270.750000,195.922028 276.573364,195.871704 
	C277.095764,197.310822 277.147705,198.734940 276.666199,200.535522 
	C273.437683,201.356796 270.742615,201.801620 267.741577,202.025803 
	C266.322571,201.018829 265.209564,200.232468 263.899872,199.307144 
	C263.087585,201.288452 262.539795,202.624557 261.705872,203.862518 
	C260.825378,202.766968 260.231018,201.769562 259.728699,200.306412 
	C259.895172,198.578018 259.969666,197.315338 260.044189,196.052673 
z"/>
<path fill="#E90A72" opacity="1.000000" stroke="none" 
	d="
M268.047577,202.246429 
	C270.742615,201.801620 273.437683,201.356796 276.578308,200.954941 
	C277.105072,201.450806 277.186218,201.903702 277.221558,203.021408 
	C276.853241,204.482361 276.530701,205.278503 275.812958,206.087677 
	C273.613068,206.400879 271.808350,206.701050 269.997375,206.652924 
	C269.343231,204.951904 268.695404,203.599167 268.047577,202.246429 
z"/>
<path fill="#E6D2DC" opacity="1.000000" stroke="none" 
	d="
M276.208160,206.074646 
	C276.530701,205.278503 276.853241,204.482361 277.291992,203.360107 
	C277.563354,209.437393 277.718475,215.840775 277.661743,222.587891 
	C276.977966,219.920914 276.506104,216.910202 276.036163,213.050858 
	C276.094788,210.159698 276.151459,208.117172 276.208160,206.074646 
z"/>
<path fill="#F87A79" opacity="1.000000" stroke="none" 
	d="
M241.723969,144.887634 
	C241.832596,149.762161 241.676788,154.534576 241.087204,159.481339 
	C240.430023,159.327103 240.206619,158.998535 239.983215,158.669968 
	C240.047379,154.340958 240.111526,150.011963 240.257324,145.209747 
	C240.712494,144.752884 241.086029,144.769211 241.723969,144.887634 
z"/>
<path fill="#FBFCFA" opacity="1.000000" stroke="none" 
	d="
M166.104935,262.195038 
	C166.401062,261.940430 166.804535,261.899963 167.509033,261.937531 
	C167.775543,262.187775 167.741074,262.360016 167.589066,262.768005 
	C167.051773,262.805573 166.632034,262.607391 166.104935,262.195038 
z"/>
<path fill="#BC1585" opacity="1.000000" stroke="none" 
	d="
M363.979279,211.196213 
	C364.506653,211.397751 365.017761,211.854294 365.528870,212.310837 
	C365.109680,212.347458 364.690460,212.384079 364.099365,212.190857 
	C363.939301,211.791077 363.951141,211.621140 363.979279,211.196213 
z"/>
<path fill="#044FFE" opacity="1.000000" stroke="none" 
	d="
M192.254395,305.617004 
	C200.202484,305.617004 208.150589,305.617004 216.648666,305.617004 
	C216.648666,314.995941 216.648666,324.530426 216.648666,334.652649 
	C208.956589,334.652649 201.035385,334.652649 192.581787,334.159546 
	C192.117722,324.316620 192.186066,314.966827 192.254395,305.617004 
z"/>
<path fill="#6190FA" opacity="1.000000" stroke="none" 
	d="
M191.947495,305.529175 
	C192.186066,314.966827 192.117722,324.316620 192.131836,334.096283 
	C183.871948,334.528625 175.529602,334.531128 166.792587,334.335510 
	C166.447662,325.070831 166.497406,316.004272 166.776672,306.609253 
	C170.598206,306.241211 174.190247,306.201660 178.371948,306.517487 
	C183.678253,311.256134 186.211746,311.072021 189.221985,306.127258 
	C190.028183,305.898621 190.834396,305.670013 191.947495,305.529175 
z"/>
<path fill="#1D0AFA" opacity="1.000000" stroke="none" 
	d="
M301.485291,279.423767 
	C302.404572,279.918213 303.783051,280.813110 303.869415,281.818939 
	C304.405609,288.064972 304.695709,294.333954 304.974976,300.599426 
	C305.104645,303.508423 304.416779,304.650574 300.682922,304.651184 
	C294.201843,304.652252 287.696136,305.996033 281.247192,307.058594 
	C275.030334,308.082916 269.600708,306.081848 264.121765,303.079468 
	C276.222290,302.800079 288.468201,302.800079 301.347168,302.800079 
	C301.347168,294.684753 301.347168,287.280151 301.485291,279.423767 
z"/>
<path fill="#2271F8" opacity="1.000000" stroke="none" 
	d="
M237.328903,286.708435 
	C237.656754,280.991028 238.331558,275.379974 239.201065,269.799225 
	C239.306244,269.124176 240.462845,268.612946 241.535889,267.998596 
	C241.939606,274.044922 241.939606,280.118439 241.939606,286.631165 
	C240.557297,286.694519 239.146042,286.759216 237.328903,286.708435 
z"/>
<path fill="#D6DEE3" opacity="1.000000" stroke="none" 
	d="
M188.744781,306.086365 
	C186.211746,311.072021 183.678253,311.256134 178.811157,306.554138 
	C181.862991,306.172058 185.065292,306.108765 188.744781,306.086365 
z"/>
<path fill="#2271F8" opacity="1.000000" stroke="none" 
	d="
M168.176956,286.318542 
	C169.506531,286.061218 170.945480,286.138916 172.640839,286.461731 
	C171.360260,286.689056 169.823303,286.671295 168.176956,286.318542 
z"/>
<path fill="#2271F8" opacity="1.000000" stroke="none" 
	d="
M241.984833,266.853546 
	C242.234421,266.590302 242.427475,266.687134 242.713501,266.919373 
	C242.675125,267.199768 242.539749,267.352844 242.177185,267.711609 
	C241.944077,267.680054 241.938202,267.442810 241.984833,266.853546 
z"/>
<path fill="#BC1585" opacity="1.000000" stroke="none" 
	d="
M365.290253,214.969086 
	C365.350952,215.641571 365.208710,216.116425 365.066467,216.591278 
	C364.761810,216.319641 364.457153,216.048004 364.152466,215.776398 
	C364.464081,215.441406 364.775696,215.106415 365.290253,214.969086 
z"/>
<path fill="#024BFE" opacity="1.000000" stroke="none" 
	d="
M203.187195,379.826324 
	C202.547256,378.781830 202.255371,377.773254 201.963486,376.764679 
	C202.691650,376.794373 203.419815,376.824036 204.147980,376.853729 
	C203.943741,377.856567 203.739502,378.859406 203.187195,379.826324 
z"/>
<path fill="#1D0AFA" opacity="1.000000" stroke="none" 
	d="
M302.689514,226.812973 
	C310.202911,226.557526 318.066071,226.434402 326.360413,226.449982 
	C318.874146,226.707581 310.956696,226.826431 302.689514,226.812973 
z"/>
<path fill="#FBFCFC" opacity="1.000000" stroke="none" 
	d="
M239.634674,158.666534 
	C240.206619,158.998535 240.430023,159.327103 240.893555,159.836517 
	C241.169693,161.690582 241.205688,163.363831 241.112167,165.878784 
	C241.077530,168.189804 241.172424,169.659088 241.267319,171.128372 
	C242.020477,176.571732 242.773651,182.015076 243.731766,187.862793 
	C243.654160,190.639282 243.371597,193.011429 243.131714,196.152191 
	C243.254761,197.642944 243.335129,198.365051 243.331390,199.542618 
	C243.414581,207.358398 243.581863,214.718704 243.749146,222.079025 
	C243.669510,222.802307 243.589890,223.525589 243.504974,224.620819 
	C242.938370,229.317688 242.377060,233.642593 241.450714,238.607040 
	C240.644882,240.762711 240.204117,242.278839 239.763336,243.794968 
	C226.979828,258.402649 210.279205,257.720032 193.291901,255.544189 
	C184.462402,254.413254 176.733795,250.791901 170.255493,243.715836 
	C169.557800,243.148972 169.237900,242.968872 168.917984,242.788757 
	C168.284241,237.534485 167.650482,232.280197 166.876480,226.650116 
	C166.660080,216.088989 166.583923,205.903671 166.252289,195.397293 
	C165.670074,192.302689 165.343353,189.529114 165.008301,186.340271 
	C166.472900,181.354095 170.658752,177.748566 168.913223,171.980759 
	C167.993210,168.940704 168.789459,165.381287 168.739624,161.622101 
	C178.265961,154.452835 189.224503,151.427170 200.607132,149.793655 
	C214.586426,147.787476 227.102600,152.604660 239.634674,158.666534 
z"/>
<path fill="#01B2EF" opacity="1.000000" stroke="none" 
	d="
M168.851639,243.246887 
	C169.237900,242.968872 169.557800,243.148972 169.928680,243.608475 
	C171.014908,247.163559 172.081741,250.429703 173.075623,253.717911 
	C173.902573,256.453827 174.643845,259.215637 175.741226,263.088959 
	C173.014648,262.610901 171.653885,262.372345 169.910309,261.971527 
	C169.280075,255.774536 169.032684,249.739761 168.851639,243.246887 
z"/>
<path fill="#4683EF" opacity="1.000000" stroke="none" 
	d="
M240.106400,244.068848 
	C240.204117,242.278839 240.644882,240.762711 241.311432,239.002365 
	C241.867172,246.289688 242.197128,253.821243 242.065155,261.653656 
	C241.603210,261.954529 241.148117,261.889191 241.148117,261.889191 
	C240.915222,256.040375 240.682343,250.191544 240.106400,244.068848 
z"/>
<path fill="#2271F8" opacity="1.000000" stroke="none" 
	d="
M241.097382,262.277161 
	C241.148117,261.889191 241.603210,261.954529 241.830536,261.990997 
	C242.072189,263.144653 242.086487,264.261810 242.085861,265.807861 
	C241.729507,265.046204 241.388077,263.855682 241.097382,262.277161 
z"/>
<path fill="#F87A79" opacity="1.000000" stroke="none" 
	d="
M241.467728,170.845886 
	C241.172424,169.659088 241.077530,168.189804 241.121597,166.296875 
	C241.396408,167.436615 241.532272,169.000000 241.467728,170.845886 
z"/>
<path fill="#E91376" opacity="1.000000" stroke="none" 
	d="
M244.047394,221.982208 
	C243.581863,214.718704 243.414581,207.358398 243.745483,199.529480 
	C247.407227,199.669617 250.570801,200.278351 254.020477,201.054611 
	C255.194366,203.138229 256.082123,205.054352 257.194153,207.134247 
	C255.945755,207.533646 254.473068,207.769272 253.000366,208.004883 
	C251.755493,206.457535 250.510620,204.910187 249.265747,203.362839 
	C248.841125,203.632401 248.416489,203.901947 247.991852,204.171509 
	C247.991852,205.532516 247.991852,206.893539 248.028107,208.972855 
	C249.044647,210.459213 250.024918,211.227264 251.005203,211.995316 
	C252.014038,217.466049 247.426666,219.168564 244.047394,221.982208 
z"/>
<path fill="#EC065F" opacity="1.000000" stroke="none" 
	d="
M267.741577,202.025803 
	C268.695404,203.599167 269.343231,204.951904 269.994934,206.652008 
	C269.998779,206.999390 269.992096,206.995392 269.701050,207.029633 
	C269.274597,207.710861 269.139160,208.357849 269.003723,209.004822 
	C268.250610,210.640228 267.497528,212.275635 266.118347,213.850021 
	C264.994781,213.526230 264.497406,213.263489 264.000000,213.000748 
	C263.564545,212.039169 263.129120,211.077606 262.351105,209.651672 
	C261.991669,208.095062 261.974823,207.002823 261.968994,205.586792 
	C261.984009,204.828888 261.988007,204.394775 261.992004,203.960663 
	C262.539795,202.624557 263.087585,201.288452 263.899872,199.307144 
	C265.209564,200.232468 266.322571,201.018829 267.741577,202.025803 
z"/>
<path fill="#E60C65" opacity="1.000000" stroke="none" 
	d="
M261.957947,205.910568 
	C261.974823,207.002823 261.991669,208.095062 262.008545,209.597290 
	C260.785583,212.105728 260.002197,214.758316 258.229889,216.164261 
	C255.945374,217.976517 253.964081,217.179169 253.949158,213.667694 
	C253.942062,211.997772 253.392776,210.330139 253.044739,208.333176 
	C254.473068,207.769272 255.945755,207.533646 257.254944,206.834061 
	C258.713593,206.216919 260.335785,206.063751 261.957947,205.910568 
z"/>
<path fill="#E4027C" opacity="1.000000" stroke="none" 
	d="
M275.812958,206.087677 
	C276.151459,208.117172 276.094788,210.159698 275.966492,212.639618 
	C274.024933,211.923569 272.154999,210.770142 270.135620,208.979218 
	C269.988159,207.892960 269.990143,207.444183 269.992096,206.995392 
	C269.992096,206.995392 269.998779,206.999390 270.001221,207.000305 
	C271.808350,206.701050 273.613068,206.400879 275.812958,206.087677 
z"/>
<path fill="#E60C65" opacity="1.000000" stroke="none" 
	d="
M263.744446,213.212494 
	C264.497406,213.263489 264.994781,213.526230 265.753418,213.895874 
	C265.407349,214.602203 264.800049,215.201630 264.192749,215.801056 
	C263.958130,215.008789 263.723511,214.216522 263.744446,213.212494 
z"/>
<path fill="#E60C65" opacity="1.000000" stroke="none" 
	d="
M250.967896,211.656052 
	C250.024918,211.227264 249.044647,210.459213 248.031311,209.351379 
	C248.975708,209.779984 249.953140,210.548386 250.967896,211.656052 
z"/>
<path fill="#E60C65" opacity="1.000000" stroke="none" 
	d="
M269.701050,207.029633 
	C269.990143,207.444183 269.988159,207.892960 269.979797,208.678528 
	C269.973389,209.015305 269.488556,209.004257 269.246155,209.004547 
	C269.139160,208.357849 269.274597,207.710861 269.701050,207.029633 
z"/>
<path fill="#6529F1" opacity="1.000000" stroke="none" 
	d="
M253.734344,200.887085 
	C250.570801,200.278351 247.407227,199.669617 243.829590,199.074020 
	C243.335129,198.365051 243.254761,197.642944 243.171310,196.554871 
	C248.481857,196.092987 253.795486,195.997070 259.576660,195.976913 
	C259.969666,197.315338 259.895172,198.578018 259.550049,200.243179 
	C259.279388,200.645676 259.046173,200.346603 258.910217,200.043335 
	C258.192993,199.487091 257.611725,199.234116 256.656189,198.974274 
	C255.432739,199.607300 254.583542,200.247192 253.734344,200.887085 
z"/>
<path fill="#F30648" opacity="1.000000" stroke="none" 
	d="
M259.046173,200.346603 
	C259.046173,200.346603 259.279388,200.645676 259.458038,200.708908 
	C260.231018,201.769562 260.825378,202.766968 261.705872,203.862518 
	C261.988007,204.394775 261.984009,204.828888 261.968994,205.586792 
	C260.335785,206.063751 258.713593,206.216919 257.030640,206.670273 
	C256.082123,205.054352 255.194366,203.138229 254.020477,201.054596 
	C254.583542,200.247192 255.432739,199.607300 256.843323,199.227325 
	C257.951874,199.773682 258.499023,200.060135 259.046173,200.346603 
z"/>
<path fill="#7E1EF1" opacity="1.000000" stroke="none" 
	d="
M258.910217,200.043335 
	C258.499023,200.060135 257.951874,199.773682 257.217590,199.234177 
	C257.611725,199.234116 258.192993,199.487091 258.910217,200.043335 
z"/>
</svg>