# Blender v2.90.1 OBJ File: 'escape.blend'
# www.blender.org
v 0.068316 -10.680269 -4.511526
v -0.178773 -9.202344 -1.715611
v 0.117452 -9.233074 -1.669787
v 0.250607 -10.698674 -4.488495
v 0.179976 -11.171234 -5.223285
v 0.183684 -11.249214 -5.371281
v 0.306991 -11.263810 -5.355306
v 0.289136 -11.182260 -5.209494
v 0.188608 -11.117618 -5.248814
v 0.193484 -11.186878 -5.401430
v 0.297777 -11.128649 -5.235029
v 0.317271 -11.198473 -5.386889
v 0.072001 -9.473644 -1.556988
v -0.209712 -9.440509 -1.590507
v 0.046187 -10.817561 -4.446145
v 0.228481 -10.835979 -4.423112
v 0.435698 -10.611316 -4.429389
v 0.448196 -10.533733 -4.466342
v -0.026412 -10.485802 -4.526295
v -0.038910 -10.563385 -4.489349
v -0.085438 -10.852043 -4.351884
v 0.389175 -10.899979 -4.291921
v -1.373825 -10.646968 -4.659437
v -1.364328 -10.588061 -4.687494
v -0.097935 -10.929626 -4.314938
v 0.376671 -10.977558 -4.254978
v -0.014915 -10.715696 -4.801052
v -0.002413 -10.638105 -4.837998
v 0.472195 -10.686040 -4.778045
v 0.459697 -10.763622 -4.741100
v 0.413174 -11.052286 -4.603633
v -0.061435 -11.004353 -4.663586
v -1.353714 -10.655442 -4.825400
v -1.363210 -10.714348 -4.797343
v 0.400669 -11.129863 -4.566682
v -0.073942 -11.081940 -4.626642
v -0.699453 -9.400412 -1.646710
v -0.912211 -9.424416 -1.765423
v -0.768910 -9.481424 -1.912781
v -0.582906 -9.445119 -1.754169
v -0.402113 -9.384741 -1.506290
v 0.503943 -9.347073 -1.719427
v 0.290960 -9.198912 -1.545032
v 0.603522 -9.282632 -1.605306
v -0.037439 -9.146688 -1.556015
v -0.362023 -9.132965 -1.627523
v -0.550815 -9.243106 -1.851412
v -0.660656 -9.157746 -1.763631
v -0.738854 -9.321716 -1.993784
v -0.858512 -9.182301 -1.895964
v -0.079916 -9.406162 -1.431220
v 0.249603 -9.450558 -1.423962
v 0.470390 -9.551265 -1.621223
v 0.563188 -9.527929 -1.487189
v 0.678673 -9.627617 -1.729906
v 0.789604 -9.596286 -1.550428
v 0.818446 -9.351661 -1.684109
v 0.701532 -9.467185 -1.811812
v 0.661508 -9.839311 -1.601517
v 0.703917 -9.846878 -1.517223
v 0.755007 -9.781031 -1.473055
v 0.825390 -9.184130 -1.799228
v 0.782730 -9.176474 -1.883388
v 0.731480 -9.242248 -1.927471
v 1.135432 -9.441219 -2.094011
v 1.086598 -9.485740 -2.119890
v 1.177967 -9.452042 -2.037913
v 1.179136 -9.666960 -1.890848
v 1.126465 -9.901862 -1.792035
v 1.077705 -9.946423 -1.817986
v 1.035287 -9.935662 -1.874188
v 1.044722 -9.773472 -1.973199
v 1.367764 -9.994147 -2.238747
v 1.398967 -9.993038 -2.216961
v 1.425704 -9.896147 -2.258338
v 1.429809 -9.808572 -2.310189
v 1.398590 -9.809663 -2.331950
v 1.058481 -9.655885 -2.037000
v 1.514179 -10.011825 -2.452823
v 0.258471 -11.282249 -5.492651
v 0.318176 -11.303558 -5.425682
v 0.244351 -11.332691 -5.416755
v 0.238030 -11.291465 -5.334510
v 0.245817 -11.199800 -5.328157
v 0.329129 -11.232503 -5.460454
v 0.259938 -11.149362 -5.404054
v 0.266263 -11.190578 -5.486298
v 0.192447 -11.219715 -5.477377
v 0.181488 -11.290769 -5.442606
v 1.728130 -10.960246 -4.267560
v 1.737623 -10.901338 -4.295611
v 1.748239 -10.968719 -4.433516
v 1.738744 -11.027629 -4.405466
v -0.934796 -9.610373 -1.686533
v -0.888402 -9.686062 -1.718386
v -0.825898 -9.689094 -1.789430
v -0.694531 -9.098234 -2.107624
v -0.741070 -9.022569 -2.075894
v -0.803781 -9.019594 -2.005045
v -1.032086 -9.271770 -2.387549
v -1.076044 -9.217877 -2.373392
v -1.132353 -9.218717 -2.329779
v -1.211968 -9.425480 -2.192920
v -1.232562 -9.663619 -2.090058
v -1.188665 -9.717535 -2.104303
v -1.132454 -9.716737 -2.148041
v -1.085098 -9.558378 -2.242266
v -1.369721 -9.717677 -2.584587
v -1.404481 -9.709908 -2.571129
v -1.400600 -9.610711 -2.615394
v -1.374486 -9.525348 -2.664460
v -1.339711 -9.533112 -2.677892
v -1.059305 -9.441999 -2.304547
v -1.459440 -9.711505 -2.828497
v -4.641095 -7.897609 -4.071710
v -4.650985 -7.883636 -4.141634
v -4.535612 -7.467072 -4.058240
v -4.526407 -7.483523 -3.988811
v -4.705348 -7.875340 -4.095184
v -4.590607 -7.461051 -4.012245
v -4.893042 -8.705755 -4.133453
v -4.906121 -8.702025 -4.204152
v -4.957550 -8.684310 -4.156990
v -5.175759 -9.489685 -4.056994
v -5.192576 -9.496316 -4.126683
v -5.240567 -9.469071 -4.080453
v -5.489363 -10.249717 -3.842312
v -5.510150 -10.265953 -3.909304
v -5.554495 -10.229877 -3.865558
v -5.833984 -10.986066 -3.489239
v -5.858612 -11.010539 -3.552291
v -5.899423 -10.966899 -3.512160
v -6.209698 -11.698833 -2.997546
v -6.237815 -11.729918 -3.056051
v -6.275422 -11.680197 -3.020099
v -6.616556 -12.387970 -2.367050
v -6.647679 -12.424151 -2.420910
v -6.682524 -12.369745 -2.389231
v -6.833926 -12.727090 -1.995866
v -6.857359 -12.751472 -2.062725
v -6.902221 -12.712574 -2.014140
v -6.924783 -13.337028 -1.938314
v -6.952393 -13.334572 -2.004874
v -7.006994 -13.401935 -1.939969
v -5.477749 -13.863333 -3.520118
v -5.504372 -13.863792 -3.587197
v -5.478358 -13.925251 -3.559203
v -4.087724 -13.580135 -4.619924
v -4.096889 -13.573951 -4.692300
v -4.063271 -13.631808 -4.665872
v -2.692721 -12.917474 -5.277742
v -2.680095 -12.897211 -5.346761
v -2.648580 -12.956306 -5.320288
v -1.070230 -11.948344 -5.678211
v -1.053128 -11.924743 -5.755257
v -1.020105 -11.993589 -5.725265
v -0.174268 -11.358079 -5.475398
v -0.166551 -11.344864 -5.553519
v -0.135504 -11.409354 -5.521972
v 0.187805 -11.050432 -5.182921
v 0.255142 -10.965536 -5.138161
v 0.271904 -11.043027 -5.144284
v 0.077137 -11.143522 -5.148489
v -0.009996 -11.182491 -5.057129
v 0.056847 -11.219396 -5.075997
v 0.157161 -11.125488 -5.487107
v 0.095484 -11.158724 -5.503452
v 0.155033 -11.197272 -5.491429
vn 0.1467 0.8804 -0.4509
vn 0.1377 0.8816 -0.4514
vn 0.1630 0.8733 -0.4592
vn 0.1631 0.8732 -0.4593
vn 0.1459 0.8805 -0.4510
vn -0.1535 -0.8724 0.4641
vn -0.1627 -0.8746 0.4568
vn -0.1570 -0.8732 0.4614
vn -0.1472 -0.8708 0.4690
vn -0.9894 0.1171 -0.0861
vn -0.9898 0.1151 -0.0838
vn -0.9897 0.1157 -0.0845
vn -0.9892 0.1179 -0.0869
vn -0.9894 0.1172 -0.0862
vn 0.1381 0.9046 -0.4032
vn 0.1319 0.9069 -0.4001
vn 0.1359 0.9055 -0.4020
vn 0.1424 0.9030 -0.4053
vn 0.9834 -0.0795 0.1632
vn 0.9837 -0.0760 0.1630
vn 0.9836 -0.0771 0.1630
vn 0.9833 -0.0807 0.1633
vn -0.1416 -0.9220 0.3604
vn -0.1429 -0.9261 0.3491
vn -0.1441 -0.8967 0.4184
vn -0.1435 -0.8968 0.4185
vn 0.9847 -0.1313 0.1149
vn 0.9884 -0.1089 0.1057
vn 0.9882 -0.1100 0.1062
vn 0.9882 -0.1101 0.1062
vn 0.9845 -0.1320 0.1152
vn -0.9864 0.0924 -0.1359
vn -0.5400 -0.3354 -0.7720
vn -0.5470 -0.3260 -0.7710
vn -0.5471 -0.3260 -0.7710
vn -0.9862 0.0938 -0.1367
vn -0.9864 0.0923 -0.1359
vn -0.0690 0.4380 0.8963
vn -0.1037 0.4412 0.8914
vn -0.0342 0.4342 0.9002
vn -0.1406 0.4441 0.8849
vn 0.0690 -0.4379 -0.8964
vn 0.0690 -0.4380 -0.8963
vn 0.0342 -0.4342 -0.9002
vn 0.1037 -0.4412 -0.8914
vn -0.0029 -0.4296 -0.9030
vn -0.9872 0.0996 -0.1247
vn -0.9872 0.0997 -0.1247
vn 0.1440 0.8934 -0.4255
vn -0.1440 -0.8934 0.4255
vn 0.0484 0.8989 -0.4355
vn -0.2383 -0.8797 0.4115
vn -0.0793 -0.9495 0.3036
vn 0.5424 -0.4593 0.7034
vn 0.4171 -0.6300 0.6551
vn -0.0917 -0.9474 0.3067
vn -0.1243 -0.9404 0.3164
vn 0.1580 0.8066 -0.5695
vn 0.1665 0.8516 -0.4970
vn 0.1078 0.7888 -0.6052
vn 0.1525 0.8821 -0.4456
vn 0.1160 0.8627 -0.4922
vn 0.1451 0.8098 -0.5684
vn 0.2036 0.7807 -0.5908
vn 0.6960 0.7158 -0.0562
vn 0.7883 0.6074 0.0986
vn -0.6681 0.4934 0.5569
vn -0.6759 0.4186 0.6066
vn -0.4501 0.4602 0.7653
vn -0.4709 0.4428 0.7630
vn -0.2887 0.4524 0.8438
vn -0.2887 0.4523 0.8438
vn -0.0686 0.4415 0.8946
vn -0.0683 0.4415 0.8947
vn -0.1377 -0.9352 0.3262
vn -0.1738 -0.9389 0.2972
vn -0.1872 -0.9388 0.2892
vn -0.6815 -0.5189 0.5159
vn -0.7784 -0.3259 0.5366
vn 0.4982 -0.4429 -0.7454
vn 0.4928 -0.4449 -0.7478
vn 0.6757 -0.4553 -0.5798
vn 0.6883 -0.4290 -0.5850
vn -0.1415 -0.9353 0.3243
vn -0.6495 0.7552 -0.0886
vn -0.5024 0.8381 -0.2126
vn -0.3776 -0.3558 -0.8549
vn -0.5937 -0.2995 -0.7469
vn -0.5882 -0.3276 -0.7394
vn -0.3768 -0.3478 -0.8585
vn -0.2225 -0.3836 -0.8963
vn -0.2189 -0.3800 -0.8987
vn 0.3462 0.3601 0.8663
vn 0.1555 0.4074 0.8999
vn 0.1551 0.4076 0.8999
vn 0.3294 0.3813 0.8638
vn 0.5937 0.3658 0.7168
vn 0.5745 0.2923 0.7645
vn -0.8262 0.3413 0.4483
vn -0.8268 0.3419 0.4467
vn -0.8258 0.3414 0.4488
vn -0.8254 0.3413 0.4497
vn -0.8252 0.3413 0.4501
vn -0.3511 0.2233 -0.9093
vn 0.2790 0.7997 -0.5317
vn 0.3018 0.7407 -0.6003
vn -0.3782 0.1909 -0.9058
vn 0.7585 0.6365 0.1396
vn 0.6811 0.6973 0.2233
vn 0.7794 0.2260 0.5844
vn 0.6509 -0.3615 0.6675
vn 0.5627 -0.3065 0.7677
vn 0.1146 -0.9429 0.3128
vn 0.0781 -0.9148 0.3963
vn -0.4960 -0.7882 -0.3643
vn -0.4623 -0.8169 -0.3450
vn -0.6670 -0.3257 -0.6701
vn -0.4981 -0.8092 -0.3116
vn 0.5660 -0.6987 0.4376
vn 0.8903 0.0822 0.4479
vn 0.8311 0.5404 -0.1312
vn -0.2073 0.3597 -0.9097
vn -0.6559 -0.2685 -0.7055
vn 0.4699 -0.4617 -0.7523
vn 0.0686 -0.4470 -0.8919
vn 0.7528 -0.6536 -0.0781
vn -0.1121 -0.9937 0.0090
vn -0.1771 -0.5721 0.8009
vn 0.7185 -0.2512 0.6486
vn -0.0716 0.4450 0.8927
vn 0.8732 0.1521 -0.4630
vn 0.8308 0.4803 0.2813
vn 0.0960 0.9946 0.0387
vn 0.1649 0.6074 -0.7771
vn -0.6994 0.2856 -0.6552
vn -0.7762 0.6213 0.1067
vn -0.8897 -0.0994 0.4456
vn -0.8219 -0.5142 -0.2453
vn 0.0029 0.4296 0.9030
vn 0.1406 -0.4440 -0.8849
vn 0.9872 -0.0996 0.1247
vn 0.9872 -0.0997 0.1247
vn 0.2383 0.8797 -0.4115
vn 0.2382 0.8797 -0.4115
vn -0.0484 -0.8989 0.4355
vn 0.7420 0.1834 0.6448
vn 0.7419 0.1834 0.6449
vn 0.7409 0.1830 0.6463
vn 0.7395 0.1833 0.6477
vn 0.7398 0.1832 0.6474
vn 0.7404 0.1832 0.6467
vn 0.6011 0.1271 -0.7890
vn 0.6195 0.0901 -0.7798
vn 0.0071 0.7704 -0.6375
vn 0.0235 0.8255 -0.5639
vn -0.6289 0.7766 -0.0356
vn -0.5641 0.8231 0.0661
vn -0.8390 0.3894 0.3800
vn -0.8533 -0.2096 0.4775
vn -0.7834 -0.1705 0.5977
vn -0.3713 -0.8938 0.2514
vn -0.3518 -0.8714 0.3420
vn 0.4052 -0.8793 -0.2504
vn 0.3628 -0.9002 -0.2408
vn 0.7338 -0.4672 -0.4932
vn 0.3901 -0.8989 -0.1994
vn -0.7824 -0.5625 0.2672
vn -0.9390 0.2670 0.2168
vn -0.6501 0.6900 -0.3184
vn 0.4916 0.2891 -0.8214
vn 0.7433 -0.4098 -0.5287
vn -0.3516 -0.3788 -0.8561
vn 0.6194 -0.2837 0.7320
vn 0.3490 0.0273 -0.9367
vn 0.3674 0.0837 -0.9263
vn 0.5891 -0.3124 0.7452
vn -0.9534 0.2588 0.1552
vn -0.9565 0.2287 0.1810
vn 0.6510 -0.2116 0.7290
vn 0.3045 -0.1116 -0.9460
vn -0.9373 0.3163 0.1465
vn 0.6813 -0.1276 0.7208
vn 0.2473 -0.2703 -0.9305
vn -0.9145 0.3794 0.1404
vn 0.7121 -0.0485 0.7004
vn 0.1867 -0.4176 -0.8892
vn -0.8898 0.4386 0.1264
vn 0.7413 0.0211 0.6708
vn 0.1280 -0.5442 -0.8291
vn -0.8649 0.4906 0.1060
vn 0.7677 0.0787 0.6359
vn 0.0747 -0.6463 -0.7594
vn -0.8415 0.5340 0.0819
vn 0.7852 0.1246 0.6066
vn 0.0339 -0.7175 -0.6957
vn -0.8201 0.5686 0.0645
vn 0.6252 0.1621 0.7634
vn 0.1031 -0.4542 -0.8849
vn -0.8332 0.4481 0.3240
vn 0.6221 -0.0218 0.7826
vn -0.3554 0.3762 -0.8557
vn -0.6970 -0.5813 0.4198
vn 0.6493 0.4481 0.6145
vn -0.6430 0.3760 -0.6672
vn -0.0096 -0.9996 0.0274
vn 0.3511 0.5373 0.7668
vn -0.5951 0.3477 -0.7245
vn 0.2468 -0.9622 -0.1147
vn 0.0891 0.4932 0.8653
vn -0.5069 0.4113 -0.7575
vn 0.4072 -0.9029 -0.1374
vn -0.1874 0.3848 0.9038
vn -0.3042 0.4731 -0.8268
vn 0.4838 -0.8447 -0.2290
vn -0.5658 0.1516 0.8105
vn 0.0003 0.6105 -0.7920
vn 0.6700 -0.7274 -0.1481
vn -0.9498 0.0860 0.3009
vn 0.4061 0.9016 0.1492
vn 0.9616 -0.2536 0.1048
vn 0.1370 0.7498 -0.6474
vn -0.7977 -0.0463 0.6012
vn 0.2106 -0.8401 0.4999
vn 0.5120 0.8428 0.1659
vn -0.9728 0.0426 -0.2276
vn 0.4608 -0.8854 0.0617
s 1
f 1//1 2//2 3//3
f 3//4 4//5 1//1
f 5//6 6//7 7//8
f 7//8 8//9 5//6
f 9//10 10//11 6//12
f 6//12 5//13 9//14
f 11//15 12//16 10//17
f 10//17 9//18 11//15
f 8//19 7//20 12//21
f 12//21 11//22 8//19
f 13//23 14//24 15//25
f 15//25 16//26 13//23
f 13//27 16//28 4//29
f 4//30 3//31 13//27
f 15//32 14//33 2//34
f 2//35 1//36 15//37
f 17//38 18//38 19//38
f 19//38 20//38 17//38
f 21//39 22//40 17//40
f 17//40 20//39 21//39
f 23//41 21//39 20//39
f 20//39 24//41 23//41
f 21//38 25//38 26//38
f 26//38 22//38 21//38
f 27//42 28//42 29//43
f 29//43 30//43 27//42
f 27//44 30//45 31//45
f 31//45 32//44 27//44
f 33//46 27//44 32//44
f 32//44 34//46 33//46
f 31//43 35//43 36//42
f 36//42 32//42 31//43
f 20//47 19//47 28//48
f 28//48 27//48 20//47
f 32//48 36//48 25//47
f 25//47 21//47 32//48
f 19//49 18//49 29//49
f 29//49 28//49 19//49
f 36//50 35//50 26//50
f 26//50 25//50 36//50
f 24//48 33//48 34//48
f 34//48 23//48 24//48
f 27//51 33//51 24//51
f 24//51 20//51 27//51
f 32//52 21//52 23//52
f 23//52 34//52 32//52
f 37//53 38//54 39//55
f 39//55 40//56 37//53
f 41//57 37//53 40//56
f 40//56 14//24 41//57
f 42//58 3//3 43//59
f 43//59 44//60 42//58
f 45//61 43//59 3//3
f 45//61 3//3 2//2
f 2//2 46//62 45//61
f 46//62 2//2 47//63
f 47//63 48//64 46//62
f 48//64 47//63 49//65
f 49//65 50//66 48//64
f 50//67 38//68 37//69
f 37//69 48//70 50//67
f 48//70 37//69 41//71
f 41//71 46//72 48//70
f 46//72 41//71 51//73
f 51//73 45//74 46//72
f 52//75 13//23 53//76
f 53//76 54//77 52//75
f 54//77 53//76 55//78
f 55//78 56//79 54//77
f 2//34 14//33 40//80
f 40//80 47//81 2//34
f 47//81 40//80 39//82
f 39//82 49//83 47//81
f 14//24 51//84 41//57
f 51//84 14//24 13//23
f 52//75 51//84 13//23
f 44//60 57//85 58//86
f 58//86 42//58 44//60
f 42//87 58//88 55//89
f 55//89 53//90 42//87
f 3//91 42//87 53//90
f 53//90 13//92 3//91
f 44//93 43//94 52//95
f 52//95 54//96 44//93
f 57//97 44//93 54//96
f 54//96 56//98 57//97
f 43//94 45//74 51//73
f 51//73 52//95 43//94
f 56//79 55//78 59//99
f 56//79 59//99 60//100
f 56//79 60//100 61//100
f 58//86 57//85 62//101
f 58//86 62//101 63//102
f 58//86 63//102 64//103
f 64//104 63//105 65//106
f 65//106 66//107 64//104
f 67//108 65//106 63//105
f 63//105 62//109 67//108
f 67//108 62//109 57//97
f 57//97 68//110 67//108
f 69//111 68//110 56//98
f 56//98 61//112 69//111
f 70//113 69//111 61//112
f 61//112 60//114 70//113
f 71//115 70//113 60//114
f 60//114 59//116 71//115
f 71//115 59//116 55//89
f 55//89 72//117 71//115
f 73//118 74//119 69//111
f 69//111 70//113 73//118
f 73//118 70//113 71//115
f 73//118 71//115 72//117
f 74//119 75//120 68//110
f 68//110 69//111 74//119
f 68//110 75//120 76//121
f 76//121 67//108 68//110
f 77//122 78//123 66//107
f 77//122 66//107 65//106
f 76//121 77//122 65//106
f 65//106 67//108 76//121
f 79//124 76//121 75//120
f 79//124 77//122 76//121
f 79//124 73//118 77//122
f 78//123 77//122 73//118
f 73//118 72//117 78//123
f 79//124 74//119 73//118
f 79//124 75//120 74//119
f 64//104 66//107 78//123
f 78//123 58//88 64//104
f 55//89 58//88 78//123
f 78//123 72//117 55//89
f 57//97 56//98 68//110
f 80//125 81//126 82//127
f 83//128 82//127 81//126
f 81//126 7//129 83//128
f 84//130 83//128 7//129
f 80//125 85//131 81//126
f 7//129 81//126 85//131
f 85//131 12//132 7//129
f 84//130 7//129 12//132
f 84//130 12//132 86//133
f 87//134 86//133 12//132
f 12//132 85//131 87//134
f 80//125 87//134 85//131
f 80//125 88//135 87//134
f 86//133 87//134 88//135
f 88//135 10//136 86//133
f 84//130 86//133 10//136
f 84//130 10//136 6//137
f 89//138 6//137 10//136
f 10//136 88//135 89//138
f 80//125 89//138 88//135
f 80//125 82//127 89//138
f 6//137 89//138 82//127
f 82//127 83//128 6//137
f 84//130 6//137 83//128
f 90//139 91//139 17//40
f 17//40 22//40 90//139
f 92//140 93//140 31//45
f 31//45 30//45 92//140
f 17//141 30//141 29//141
f 29//141 18//141 17//141
f 31//142 22//142 26//142
f 26//142 35//142 31//142
f 91//142 90//142 93//142
f 93//142 92//142 91//142
f 30//143 17//143 91//143
f 91//143 92//144 30//143
f 31//145 93//145 90//145
f 90//145 22//145 31//145
f 38//54 94//146 95//147
f 38//54 95//147 96//148
f 38//54 96//148 39//55
f 49//65 97//149 98//150
f 49//65 98//150 99//151
f 49//65 99//151 50//66
f 97//152 100//153 101//154
f 101//154 98//155 97//152
f 102//156 99//157 98//155
f 98//155 101//154 102//156
f 102//156 103//158 50//67
f 50//67 99//157 102//156
f 104//159 94//160 38//68
f 38//68 103//158 104//159
f 105//161 95//162 94//160
f 94//160 104//159 105//161
f 106//163 96//164 95//162
f 95//162 105//161 106//163
f 106//163 107//165 39//82
f 39//82 96//164 106//163
f 108//166 105//161 104//159
f 104//159 109//167 108//166
f 108//166 106//163 105//161
f 108//166 107//165 106//163
f 109//167 104//159 103//158
f 103//158 110//168 109//167
f 103//158 102//156 111//169
f 111//169 110//168 103//158
f 112//170 100//153 113//171
f 112//170 101//154 100//153
f 111//169 102//156 101//154
f 101//154 112//170 111//169
f 114//172 110//168 111//169
f 114//172 111//169 112//170
f 114//172 112//170 108//166
f 113//171 107//165 108//166
f 108//166 112//170 113//171
f 114//172 108//166 109//167
f 114//172 109//167 110//168
f 97//152 49//83 113//171
f 113//171 100//153 97//152
f 39//82 107//165 113//171
f 113//171 49//83 39//82
f 50//67 103//158 38//68
f 115//173 116//174 117//175
f 117//175 118//176 115//173
f 119//177 115//173 118//176
f 118//176 120//178 119//177
f 116//174 119//177 120//178
f 120//178 117//175 116//174
f 116//174 115//173 121//179
f 121//179 122//180 116//174
f 115//173 119//177 123//181
f 123//181 121//179 115//173
f 119//177 116//174 122//180
f 122//180 123//181 119//177
f 122//180 121//179 124//182
f 124//182 125//183 122//180
f 121//179 123//181 126//184
f 126//184 124//182 121//179
f 123//181 122//180 125//183
f 125//183 126//184 123//181
f 125//183 124//182 127//185
f 127//185 128//186 125//183
f 124//182 126//184 129//187
f 129//187 127//185 124//182
f 126//184 125//183 128//186
f 128//186 129//187 126//184
f 128//186 127//185 130//188
f 130//188 131//189 128//186
f 127//185 129//187 132//190
f 132//190 130//188 127//185
f 129//187 128//186 131//189
f 131//189 132//190 129//187
f 131//189 130//188 133//191
f 133//191 134//192 131//189
f 130//188 132//190 135//193
f 135//193 133//191 130//188
f 132//190 131//189 134//192
f 134//192 135//193 132//190
f 134//192 133//191 136//194
f 136//194 137//195 134//192
f 133//191 135//193 138//196
f 138//196 136//194 133//191
f 135//193 134//192 137//195
f 137//195 138//196 135//193
f 139//197 140//198 137//195
f 137//195 136//194 139//197
f 141//199 139//197 136//194
f 136//194 138//196 141//199
f 140//198 141//199 138//196
f 138//196 137//195 140//198
f 142//200 143//201 140//198
f 140//198 139//197 142//200
f 144//202 142//200 139//197
f 139//197 141//199 144//202
f 143//201 144//202 141//199
f 141//199 140//198 143//201
f 145//203 146//204 143//201
f 143//201 142//200 145//203
f 147//205 145//203 142//200
f 142//200 144//202 147//205
f 146//204 147//205 144//202
f 144//202 143//201 146//204
f 148//206 149//207 146//204
f 146//204 145//203 148//206
f 150//208 148//206 145//203
f 145//203 147//205 150//208
f 149//207 150//208 147//205
f 147//205 146//204 149//207
f 151//209 152//210 149//207
f 149//207 148//206 151//209
f 153//211 151//209 148//206
f 148//206 150//208 153//211
f 152//210 153//211 150//208
f 150//208 149//207 152//210
f 154//212 155//213 152//210
f 152//210 151//209 154//212
f 156//214 154//212 151//209
f 151//209 153//211 156//214
f 155//213 156//214 153//211
f 153//211 152//210 155//213
f 157//215 158//216 155//213
f 155//213 154//212 157//215
f 159//217 157//215 154//212
f 154//212 156//214 159//217
f 158//216 159//217 156//214
f 156//214 155//213 158//216
f 160//218 161//219 158//216
f 158//216 157//215 160//218
f 162//220 160//218 157//215
f 157//215 159//217 162//220
f 161//219 162//220 159//217
f 159//217 158//216 161//219
f 163//221 164//222 161//219
f 161//219 160//218 163//221
f 165//223 163//221 160//218
f 160//218 162//220 165//223
f 164//222 165//223 162//220
f 162//220 161//219 164//222
f 166//224 167//225 164//222
f 164//222 163//221 166//224
f 168//226 166//224 163//221
f 163//221 165//223 168//226
f 167//225 168//226 165//223
f 165//223 164//222 167//225
