# Blender v2.90.1 OBJ File: 'escape.blend'
# www.blender.org
v 0.704111 -1.844289 -5.133558
v -0.535821 -1.981227 -4.293248
v 0.207599 -2.568326 -5.060623
v -0.305222 -2.281663 -6.133453
v 0.194612 -1.186870 -3.675300
v -0.164984 -2.829749 -5.966767
v -0.732384 -2.938989 -5.848586
v -0.872624 -2.390901 -6.015272
v -0.335800 -2.308532 -7.889166
v -0.032601 -2.513757 -7.862523
v -0.609341 -2.707424 -7.848985
v -0.306154 -2.912655 -7.822343
v -0.260885 -2.675378 -8.287165
v -0.142923 -2.566435 -4.406799
v -0.044332 -2.780148 -3.825367
v 0.021366 -2.335459 -1.147553
v -0.367763 -2.247000 -3.971023
v 0.025976 -2.688205 -3.917217
v -0.559903 -1.582578 -1.200110
v 0.283296 -1.227425 -3.526184
v 0.028209 -0.953414 -1.213728
v 0.758846 -1.549327 -3.484395
v -0.591247 -2.044904 -3.778885
v 0.928647 -2.972529 -4.164556
v 1.194609 -2.428637 -6.099737
v 1.322036 -1.950032 -3.576226
v 0.610988 -2.513725 -6.098231
v 0.695725 -3.093773 -6.033315
v 1.279347 -3.008683 -6.034823
v 1.374433 -2.653322 -7.980040
v 1.071241 -2.448093 -8.006682
v 1.114709 -3.050319 -8.082496
v 0.811509 -2.845093 -8.109138
v 1.134131 -2.646174 -8.470751
v 0.258668 -2.838269 -4.371511
v 0.583337 -2.890804 -3.887445
v 0.870293 -2.465936 -1.017917
v 1.234399 -1.871229 -3.442607
v 1.303147 -1.816415 -1.101694
v 0.828362 -3.005844 -3.654137
v 0.516934 -1.576483 -0.940676
vn 0.5572 -0.3043 0.7726
vn 0.2383 0.7029 -0.6702
vn -0.3542 0.8957 -0.2688
vn 0.3882 0.7150 -0.5815
vn 0.6260 -0.7443 -0.2326
vn 0.4391 -0.8776 0.1925
vn -0.5287 -0.7570 0.3840
vn -0.9008 0.3940 0.1826
vn -0.8658 0.4974 -0.0556
vn 0.5069 0.8599 0.0603
vn -0.1229 0.9830 -0.1366
vn -0.9315 0.3496 -0.1003
vn 0.9714 0.2366 -0.0206
vn -0.9584 -0.1802 -0.2213
vn -0.5320 -0.8452 -0.0512
vn 0.2198 -0.9707 -0.0974
vn 0.7375 -0.6710 0.0764
vn 0.7959 -0.5671 -0.2120
vn -0.4779 -0.7626 -0.4358
vn 0.5065 0.6794 -0.5309
vn -0.7188 0.4385 -0.5395
vn -0.8341 -0.5483 -0.0601
vn -0.7886 -0.4477 -0.4215
vn -0.5638 -0.8194 0.1034
vn -0.7485 -0.6579 0.0825
vn -0.7858 0.5869 -0.1952
vn 0.5624 0.8261 -0.0359
vn -0.9938 0.0441 -0.1016
vn -0.7377 0.6751 0.0041
vn -0.9893 0.1122 -0.0928
vn -0.7970 -0.5829 -0.1580
vn -0.5766 0.4632 0.6730
vn 0.6844 0.6410 -0.3474
vn 0.1088 0.9341 -0.3401
vn 0.9986 0.0434 0.0290
vn -0.7269 0.4441 -0.5238
vn -0.9419 -0.3149 -0.1172
vn -0.5011 -0.8587 -0.1074
vn 0.6199 -0.7594 0.1974
vn 0.7995 -0.6004 0.0184
vn 0.6000 0.7987 0.0457
vn 0.7672 -0.6399 0.0442
vn 0.9846 0.1666 -0.0535
vn -0.2119 0.9674 -0.1388
vn 0.1418 -0.9829 -0.1176
vn -0.5852 -0.8092 -0.0523
vn -0.9509 -0.2403 -0.1953
vn -0.8347 0.5464 -0.0683
vn -0.7418 0.5746 -0.3458
vn -0.3697 -0.6344 -0.6788
vn 0.5567 0.7886 -0.2611
vn 0.8101 -0.4260 -0.4029
vn -0.3374 -0.9373 -0.0874
vn -0.1953 -0.9807 -0.0040
vn -0.3819 -0.9171 -0.1143
vn -0.0756 -0.9303 -0.3588
vn -0.2536 -0.9069 -0.3365
vn -0.3261 -0.8882 -0.3237
vn -0.3448 -0.9312 0.1180
vn 0.8438 -0.5367 -0.0049
vn 0.4150 -0.9095 0.0222
vn 0.4752 -0.8791 0.0360
vn 0.8918 -0.4278 0.1473
vn -0.2290 -0.9674 -0.1081
vn -0.5217 -0.8068 -0.2774
vn -0.5353 -0.8181 -0.2099
vn 0.4170 -0.7651 0.4906
vn -0.7914 -0.6047 0.0901
vn -0.7229 0.6723 -0.1594
vn 0.7671 0.6366 0.0797
vn 0.5558 0.8291 0.0617
vn -0.9173 0.1381 0.3734
vn -0.1739 -0.9715 0.1612
vn 0.8314 -0.5555 -0.0114
vn 0.2989 0.9535 0.0386
s 1
f 1//1 2//1 3//1
f 4//2 5//3 1//4
f 4//2 1//4 6//5
f 1//4 3//6 6//5
f 6//5 3//6 7//7
f 3//6 2//8 7//7
f 7//7 2//8 8//9
f 4//2 8//9 5//3
f 5//3 8//9 2//8
f 4//10 9//11 8//12
f 9//11 4//10 10//13
f 9//11 11//14 8//12
f 8//12 11//14 7//15
f 11//14 12//16 7//15
f 7//15 12//16 6//17
f 4//10 6//17 10//13
f 12//16 10//13 6//17
f 12//18 13//18 10//18
f 12//19 11//19 13//19
f 9//20 10//20 13//20
f 11//21 9//21 13//21
f 14//22 15//22 2//22
f 2//23 3//23 14//23
f 16//24 17//25 18//24
f 19//26 20//26 17//26
f 21//27 22//27 20//27
f 23//28 5//29 2//30
f 15//31 23//28 2//30
f 1//32 3//32 24//32
f 25//33 1//34 26//35
f 25//33 27//36 1//34
f 1//34 27//36 3//37
f 27//36 28//38 3//37
f 3//37 28//38 24//39
f 28//38 29//40 24//39
f 25//33 26//35 29//40
f 26//35 24//39 29//40
f 25//41 29//42 30//43
f 30//43 31//44 25//41
f 30//43 29//42 32//45
f 29//42 28//46 32//45
f 32//45 28//46 33//47
f 28//46 27//48 33//47
f 25//41 31//44 27//48
f 33//47 27//48 31//44
f 33//49 31//49 34//49
f 33//50 34//50 32//50
f 30//51 34//51 31//51
f 32//52 34//52 30//52
f 35//53 24//54 15//55
f 24//56 35//57 3//58
f 16//24 18//24 36//59
f 37//60 36//60 38//60
f 39//27 38//27 22//27
f 40//61 24//62 26//63
f 15//64 24//62 40//61
f 14//65 3//58 35//57
f 15//55 14//66 35//53
f 1//67 5//67 2//67
f 16//68 19//68 17//68
f 19//69 21//69 20//69
f 21//70 41//71 22//71
f 1//72 24//72 26//72
f 16//73 36//73 37//73
f 37//74 38//74 39//74
f 39//75 22//71 41//71
