# Blender v2.90.1 OBJ File: 'escape.blend'
# www.blender.org
v -60.814060 48.770466 43.617764
v -60.550930 48.348530 42.201324
v -59.842030 49.668804 44.326168
v -58.607010 50.145081 43.618034
v -60.835594 48.782501 43.679302
v -60.126694 50.102776 45.804150
v -62.070755 48.306099 44.387337
v -59.863567 49.680843 44.387707
v -59.315910 48.824806 41.493187
v -61.626450 50.073895 47.992702
v -61.363319 49.651958 46.576263
v -59.156269 51.026577 46.576530
v -60.128300 50.128235 45.868126
v -54.156338 55.620407 50.155029
v -55.391495 55.144001 50.863060
v -53.893345 55.198341 48.738487
v -57.802544 49.019802 39.685802
v -57.548630 49.311218 40.008068
v -57.875278 48.991169 39.726093
v -62.333744 48.728161 45.803879
v -61.361717 49.626503 46.512283
v -58.579380 50.192234 43.690445
v -57.607349 51.090572 44.398853
v -59.814404 49.715958 44.398582
v -60.077530 50.137890 45.815022
v -59.105499 51.036232 46.523430
v -57.870342 51.512634 45.815392
v -59.419262 51.448639 47.993073
v -60.654423 50.972237 48.701107
v -60.320629 51.663059 49.868847
v -60.646442 51.651241 50.330894
v -60.888866 51.427200 50.154217
v -60.625874 51.005138 48.737675
v -59.390713 51.481541 48.029640
v -59.710571 51.879562 49.473686
v -54.865376 54.300003 48.030079
v -56.100395 53.823727 48.738213
v -56.363525 54.245663 50.154655
v -56.423786 54.217350 50.176937
v -57.658943 53.740948 50.884972
v -56.160793 53.795288 48.760395
v -58.418682 52.379879 48.738045
v -59.467186 52.104500 49.651066
v -58.681812 52.801815 50.154488
v -59.736641 52.202778 50.294449
v -59.858334 52.090309 50.205761
v -60.174416 51.862740 50.131481
v -60.161808 51.809841 49.984592
v -58.630974 52.842606 50.176563
v -57.858578 51.538822 45.861004
v -56.886551 52.437160 46.569412
v -59.093601 51.062546 46.569141
v -58.384701 52.382820 48.693989
v -57.149544 52.859226 47.985954
v -59.356731 51.484482 47.985580
v -58.367844 52.420670 48.760124
v -57.132824 52.896946 48.051991
v -54.598820 53.865372 46.577782
v -53.363663 54.341774 45.869747
v -54.861813 54.287434 47.994324
v -59.916836 52.325539 50.862625
v -60.062454 52.190960 50.756496
v -54.471363 51.257187 40.079437
v -53.236465 51.733459 39.371475
v -52.264435 52.631798 40.079884
v -57.112289 52.890614 48.005749
v -56.849300 52.468548 46.589207
v -54.905239 54.265228 48.006020
v -56.140259 53.788952 48.714153
v -52.527306 53.053864 41.496250
v -53.762463 52.577461 42.204285
v -54.734493 51.679123 41.495876
v -54.642109 53.843292 46.589577
v -55.614136 52.944954 45.881172
v -52.531822 53.082394 41.572029
v -51.559792 53.980732 42.280437
v -53.766842 52.606117 42.280167
v -54.096794 52.974228 43.667084
v -55.821472 52.045414 44.018360
v -56.040852 51.177547 42.250271
v -54.805832 51.653824 41.542137
v -53.833801 52.552166 42.250542
v -54.029850 53.028057 43.696434
v -51.822784 54.402794 43.696976
v -53.057819 53.926395 44.404839
v -54.611153 53.844414 46.545677
v -55.583183 52.946075 45.837273
v -54.085030 53.000416 43.712696
v -55.331951 52.497826 44.375118
v -56.303982 51.599483 43.666710
v -53.376129 54.320690 45.837543
v -58.548424 50.193356 43.646545
v -58.285294 49.771420 42.230103
v -57.576393 51.091694 44.354950
v -51.139881 55.294098 44.823750
v -51.142372 55.330669 44.915928
v -51.848755 54.793617 44.681072
v -52.353039 55.264591 46.579220
v -53.325066 54.366253 45.870815
v -55.501919 50.311062 39.343616
v -54.530029 51.209274 40.051922
v -56.737076 49.834660 40.051651
v -54.793018 51.631336 41.468464
v -56.028175 51.154934 42.176495
v -53.889782 55.185776 48.702732
v -52.391632 55.240116 46.578152
v -52.654758 55.662052 47.994595
v -53.061939 53.944317 44.454376
v -51.236893 55.145672 44.610950
v -51.818733 54.666553 44.328632
v -51.847809 54.789600 44.669926
v -51.826920 54.420593 43.746239
v -51.797249 54.678917 44.326172
v -51.140701 55.056744 44.251083
v -53.113003 53.898754 44.421101
v -50.936684 55.450092 44.894955
v -51.118019 55.740868 45.871086
v -59.005035 48.411682 40.026165
v -59.268169 48.833618 41.442608
v -57.540283 49.314838 40.004253
v -57.230865 49.449089 39.862930
v -57.060978 50.208359 41.442978
v -56.797985 49.786297 40.026436
v -57.230888 49.449028 39.862823
v -57.269402 49.350624 39.682873
v -57.234631 49.439484 39.845371
v -57.651340 49.079323 39.602028
v -57.000069 50.256721 41.468189
v -58.296139 49.731956 42.151012
v -58.343880 49.723145 42.201595
v -56.341236 51.568100 43.646915
v -56.078243 51.146034 42.230377
v -57.050274 50.247696 41.521969
v -55.320190 52.524014 44.420731
vn 0.4988 -0.8009 0.3312
vn 0.4988 -0.8009 0.3313
vn 0.4990 -0.8009 0.3311
vn 0.4992 -0.8008 0.3310
vn 0.4933 -0.8159 0.3015
vn 0.4986 -0.8008 0.3317
vn 0.4959 -0.8092 0.3152
vn 0.4989 -0.8009 0.3312
s 1
f 1//1 2//1 3//1
f 3//1 2//1 4//1
f 5//1 6//1 7//1
f 8//1 6//1 5//1
f 4//1 2//1 9//1
f 10//1 11//1 12//1
f 13//1 12//1 11//1
f 14//1 15//1 16//1
f 17//1 18//1 19//1
f 20//1 7//1 6//1
f 21//1 20//1 6//1
f 22//1 23//1 24//1
f 25//1 24//1 26//1
f 23//1 27//1 24//1
f 27//1 26//1 24//1
f 28//2 29//1 12//1
f 10//1 12//1 29//1
f 30//1 31//1 32//1
f 33//1 34//1 35//1
f 32//1 33//1 30//1
f 36//1 16//1 37//1
f 15//1 38//1 16//1
f 37//1 16//1 38//1
f 39//1 40//1 41//1
f 34//1 42//1 35//1
f 43//1 44//1 45//1
f 46//2 43//1 45//1
f 47//1 48//1 35//1
f 30//1 35//1 48//1
f 44//1 43//1 42//1
f 49//1 41//1 40//1
f 30//1 33//1 35//1
f 43//1 35//1 42//1
f 50//2 51//1 52//1
f 53//1 52//1 54//1
f 55//1 52//1 53//1
f 49//1 56//1 41//1
f 57//2 41//1 56//1
f 54//1 52//1 51//1
f 58//1 59//1 60//1
f 44//1 61//1 45//1
f 62//1 45//1 61//1
f 63//1 64//1 65//1
f 66//1 67//1 68//1
f 69//2 66//1 68//1
f 65//1 70//1 63//1
f 70//1 71//1 63//1
f 72//1 63//1 71//1
f 73//1 68//1 74//1
f 74//1 68//1 67//1
f 75//1 76//1 77//1
f 78//1 79//1 80//1
f 81//1 82//1 80//1
f 78//1 80//1 82//1
f 77//1 76//1 83//1
f 84//1 85//1 76//1
f 83//1 76//1 85//1
f 86//1 87//1 88//1
f 89//2 79//1 78//1
f 80//1 79//1 90//1
f 88//1 91//1 86//1
f 92//1 93//1 94//1
f 95//1 96//1 97//3
f 96//1 98//1 97//3
f 99//1 97//3 98//1
f 100//1 101//1 102//1
f 103//1 102//1 101//1
f 103//1 104//1 102//1
f 105//1 60//1 59//1
f 106//1 107//1 59//1
f 105//1 59//1 107//1
f 99//1 108//1 97//3
f 109//1 95//1 97//3
f 110//2 111//4 108//1
f 112//1 110//2 108//1
f 111//4 97//3 108//1
f 110//2 112//1 113//1
f 114//1 113//1 112//1
f 91//1 88//1 115//1
f 116//1 117//1 96//1
f 98//1 96//1 117//1
f 118//1 19//1 119//1
f 120//1 121//5 122//1
f 123//6 122//1 121//5
f 121//5 124//7 123//6
f 125//2 123//6 126//8
f 124//7 126//8 123//6
f 18//1 119//1 19//1
f 17//1 127//2 18//1
f 128//1 102//1 104//1
f 119//1 18//1 129//1
f 129//1 18//1 122//1
f 4//1 9//1 130//1
f 131//1 93//1 132//1
f 133//1 132//1 93//1
f 131//1 94//1 93//1
f 134//1 88//1 87//1
