# Blender v2.80 (sub 75) OBJ File: 'destroyer.blend'
# www.blender.org
v 12.875551 25.822027 2.853335
v 14.459574 26.335297 5.623414
v 10.705761 22.272102 5.146983
v 9.241322 25.774405 5.422356
v 9.421465 25.636297 6.853729
v 12.067506 24.867950 8.496493
v 12.603892 23.941751 8.300882
v 12.578444 23.119619 7.872881
v 12.882836 22.559269 7.140311
v 11.438083 24.194353 8.398016
v 10.703986 25.110407 8.229880
v 12.402990 25.979773 8.180811
v 13.702213 25.797432 7.705782
v 12.808850 26.522570 7.738311
v 13.332981 26.782150 7.153415
v 11.466564 25.710775 8.295133
v 11.938540 26.592188 7.828508
v 10.920489 26.301552 7.857012
v 12.148149 27.227064 7.085577
v 10.308908 26.433914 7.357581
v 10.190442 24.037935 7.826035
v 10.081109 25.332067 7.793946
v 9.382692 24.692104 7.049864
v 9.693352 23.765465 7.130165
v 11.803196 23.539701 8.204937
v 10.892193 23.365561 7.910901
v 11.837674 22.734539 7.602337
v 11.552288 22.338154 7.043043
v 12.980639 25.290697 8.276645
v 13.471945 24.565329 8.104009
v 13.460461 23.495440 7.743876
v 14.198103 24.006332 7.370089
v 14.259909 24.979025 7.452603
v 14.362755 26.010107 6.853215
v 13.969017 26.795713 6.257830
v 13.759773 26.910877 4.727503
v 12.873771 27.370924 6.502932
v 13.553308 27.188583 5.467681
v 11.028172 27.520931 5.856549
v 11.209602 27.237730 6.964062
v 9.930908 26.702387 6.443441
v 10.267553 27.066345 5.241190
v 9.097343 25.084812 6.021822
v 9.152931 24.589987 4.921408
v 9.233415 23.911427 6.111530
v 10.391138 22.935276 7.167911
v 11.126390 22.117374 6.248010
v 11.692283 21.974844 5.599076
v 11.603316 22.163647 4.630592
v 13.498302 22.723047 6.824033
v 14.124375 23.133904 6.548981
v 14.377447 23.347418 4.935760
v 14.690685 23.869631 6.171148
v 14.701054 24.677923 6.718911
v 14.817685 24.152378 5.332914
v 12.122304 27.536236 6.437079
v 12.148089 27.654560 5.669672
v 12.777992 27.510000 5.094089
v 11.933344 27.545630 4.747274
v 11.052490 27.424093 4.900722
v 12.703342 27.151161 4.074450
v 11.277752 27.146843 4.046005
v 9.657609 26.472387 5.158054
v 9.418080 25.590693 4.449983
v 10.505467 26.846619 4.169971
v 10.066405 26.229475 3.932720
v 9.994148 22.764366 6.194978
v 9.526554 23.237562 5.566449
v 9.969520 23.018753 4.552690
v 9.490658 23.768967 4.558603
v 11.066619 22.494081 4.147950
v 12.632153 22.101503 6.239565
v 13.762255 22.639162 5.654990
v 12.431067 22.029800 5.325687
v 13.378340 22.492327 4.729149
v 12.817174 22.343632 4.428683
v 12.221795 22.411291 4.032555
v 14.908750 25.235380 5.794113
v 14.716816 25.279493 6.638277
v 14.707792 25.348463 4.619596
v 14.493709 26.071289 4.871348
v 14.759809 24.492414 4.714643
v 14.349058 24.367720 3.920949
v 13.783491 26.409822 3.948450
v 12.588000 26.638691 3.369651
v 11.605231 25.707037 2.642382
v 11.853274 26.831734 3.455981
v 10.687628 26.074524 3.189542
v 10.919171 25.453011 2.791944
v 9.845421 25.109598 3.534124
v 10.739204 24.527637 2.796519
v 11.674142 24.216900 2.541554
v 9.899672 24.182194 3.582249
v 10.461251 23.431423 3.441764
v 11.190154 23.262743 3.155442
v 13.945166 25.434219 3.465899
v 13.171065 25.122671 2.776696
v 13.592801 24.563112 3.026348
v 13.608084 23.843809 3.297952
v 12.174012 24.776321 2.474409
v 11.970742 23.035244 3.194499
v 12.988905 23.115133 3.381448
v 12.658554 24.002819 2.699146
v 14.043556 23.337357 4.199430
vn 0.8641 0.0445 0.5013
vn 0.1225 0.2367 0.9638
vn 0.3567 0.4154 0.8368
vn 0.5370 0.1669 0.8269
vn 0.5822 0.1495 0.7992
vn 0.3672 0.4150 0.8325
vn 0.4785 0.5592 0.6770
vn 0.7184 0.2946 0.6301
vn 0.2294 0.7967 0.5592
vn 0.5867 0.5522 0.5923
vn 0.8088 0.2331 0.5399
vn 0.0428 0.2609 0.9644
vn -0.3402 0.3367 0.8780
vn -0.0311 0.4806 0.8764
vn -0.1233 0.5151 0.8482
vn 0.1297 0.5665 0.8138
vn -0.1829 0.7075 0.6826
vn 0.1278 0.7359 0.6649
vn -0.0736 0.7683 0.6358
vn 0.2884 0.7822 0.5523
vn -0.3544 0.7004 0.6196
vn -0.5241 0.4050 0.7492
vn -0.7244 0.5202 0.4523
vn -0.1716 0.1115 0.9788
vn -0.1865 0.0307 0.9820
vn -0.3962 -0.1513 0.9056
vn -0.3717 -0.2761 0.8863
vn -0.4549 0.3403 0.8230
vn -0.5800 -0.0288 0.8141
vn -0.6924 0.3848 0.6103
vn -0.7099 -0.0425 0.7030
vn -0.7584 -0.2005 0.6202
vn -0.7839 0.1570 0.6008
vn -0.6107 -0.4848 0.6261
vn 0.0422 -0.1830 0.9822
vn 0.0212 -0.2719 0.9621
vn -0.2160 -0.3851 0.8973
vn 0.1263 -0.4611 0.8783
vn -0.5574 -0.4980 0.6643
vn -0.1408 -0.5971 0.7897
vn 0.0187 -0.5986 0.8009
vn 0.1570 -0.7519 0.6403
vn -0.2678 -0.7163 0.6443
vn -0.3039 -0.7211 0.6226
vn 0.0992 -0.8350 0.5412
vn 0.2579 -0.0544 0.9647
vn 0.2577 -0.0550 0.9646
vn 0.3128 -0.4462 0.8385
vn 0.4080 -0.2952 0.8639
vn 0.6658 -0.1050 0.7387
vn 0.5761 -0.2663 0.7728
vn 0.3749 -0.6546 0.6565
vn 0.4737 -0.6647 0.5777
vn 0.8343 -0.0990 0.5423
vn 0.6164 -0.5904 0.5211
vn 0.6480 -0.5503 0.5265
vn 0.9046 0.3838 0.1856
vn 0.9016 0.3954 0.1755
vn 0.8002 0.5613 0.2114
vn 0.6163 0.6480 0.4475
vn 0.7553 0.6283 -0.1863
vn 0.4956 0.7886 0.3639
vn 0.6854 0.7282 0.0015
vn 0.6905 0.7192 -0.0772
vn 0.7339 0.5813 -0.3515
vn 0.4877 0.8565 0.1693
vn 0.1598 0.8935 0.4196
vn -0.0456 0.9010 0.4314
vn -0.1558 0.9506 0.2686
vn -0.0927 0.9845 0.1487
vn -0.1322 0.9875 -0.0859
vn -0.4915 0.7594 0.4263
vn -0.1536 0.9827 -0.1035
vn -0.4677 0.8349 0.2901
vn -0.4487 0.8879 -0.1014
vn -0.5639 0.8209 0.0906
vn -0.9341 0.3244 0.1489
vn -0.9479 0.1016 0.3019
vn -0.9878 0.1171 -0.1026
vn -0.9680 -0.0945 0.2326
vn -0.8920 -0.2675 0.3644
vn -0.9656 0.1590 -0.2056
vn -0.9934 -0.1151 0.0016
vn -0.7127 -0.5811 0.3929
vn -0.4789 -0.8103 0.3377
vn -0.3761 -0.8211 0.4295
vn -0.4974 -0.8648 0.0685
vn -0.2759 -0.9607 -0.0296
vn -0.0086 -0.9623 0.2718
vn 0.1183 -0.8981 0.4235
vn -0.0092 -0.9783 0.2069
vn -0.2852 -0.9087 -0.3049
vn -0.2130 -0.9625 -0.1681
vn 0.6607 -0.7339 -0.1576
vn 0.3960 -0.8584 0.3261
vn 0.4946 -0.8518 0.1728
vn 0.5957 -0.7803 0.1905
vn 0.7729 -0.6334 0.0374
vn 0.8164 -0.4309 0.3845
vn 0.8032 -0.5939 0.0474
vn 0.8773 -0.2769 0.3920
vn 0.8822 -0.4702 -0.0249
vn 0.1992 0.9675 0.1559
vn 0.3539 0.9328 0.0680
vn 0.2874 0.9549 0.0747
vn 0.0988 0.9853 -0.1394
vn 0.4554 0.8678 -0.1986
vn 0.3988 0.8555 -0.3303
vn 0.1779 0.9241 -0.3382
vn -0.1873 0.9188 -0.3474
vn 0.0242 0.8743 -0.4848
vn -0.0159 0.8755 -0.4830
vn -0.8669 0.4738 0.1548
vn -0.8416 0.5336 0.0835
vn -0.6990 0.7149 0.0207
vn -0.8711 0.4289 -0.2394
vn -0.6475 0.7053 -0.2885
vn -0.4958 0.8225 -0.2788
vn -0.3876 0.8420 -0.3753
vn -0.6917 0.6287 -0.3554
vn -0.7846 0.5036 -0.3616
vn -0.8070 -0.5140 0.2907
vn -0.8214 -0.5293 0.2126
vn -0.6493 -0.7557 -0.0859
vn -0.9417 -0.3156 -0.1163
vn -0.6548 -0.7454 -0.1252
vn -0.9359 -0.3242 -0.1376
vn -0.8181 -0.5202 -0.2452
vn -0.5070 -0.7844 -0.3574
vn -0.8819 -0.1681 -0.4406
vn -0.7308 -0.4625 -0.5019
vn 0.0950 -0.9938 0.0571
vn 0.4172 -0.9084 -0.0289
vn 0.4269 -0.9040 -0.0230
vn 0.0021 -0.9815 -0.1915
vn 0.3396 -0.9238 -0.1770
vn 0.0923 -0.9516 -0.2932
vn 0.0911 -0.9499 -0.2991
vn 0.6564 -0.6973 -0.2881
vn 0.9818 -0.1150 0.1512
vn 0.9752 0.0041 0.2215
vn 0.9861 -0.1281 0.1062
vn 0.9855 -0.0106 -0.1696
vn 0.9269 0.3652 -0.0861
vn 0.8939 -0.3521 -0.2773
vn 0.9376 0.3227 -0.1293
vn 0.9965 0.0535 -0.0639
vn 0.8509 -0.3583 -0.3841
vn 0.7921 0.3963 -0.4642
vn 0.8879 0.0029 -0.4600
vn 0.8529 -0.3561 -0.3819
vn 0.4616 0.7524 -0.4699
vn 0.4413 0.5854 -0.6801
vn 0.4146 0.7024 -0.5786
vn 0.1375 0.7903 -0.5971
vn 0.1358 0.2557 -0.9572
vn 0.0873 0.5541 -0.8278
vn 0.0559 0.5771 -0.8148
vn -0.2978 0.6904 -0.6592
vn -0.3693 0.6955 -0.6163
vn -0.2163 0.6031 -0.7678
vn -0.5419 0.6084 -0.5798
vn -0.7688 0.3437 -0.5393
vn -0.3378 0.4147 -0.8450
vn -0.6768 0.3618 -0.6412
vn -0.6038 0.2576 -0.7543
vn -0.5888 0.1105 -0.8007
vn -0.1955 0.0572 -0.9790
vn -0.2459 0.0541 -0.9678
vn -0.2267 0.0393 -0.9732
vn -0.8991 0.0325 -0.4366
vn -0.8805 -0.0758 -0.4679
vn -0.7371 -0.4584 -0.4965
vn -0.6641 -0.0774 -0.7436
vn -0.5849 -0.2962 -0.7551
vn -0.5166 -0.7025 -0.4896
vn -0.4131 -0.3819 -0.8267
vn -0.3570 -0.3706 -0.8574
vn -0.3952 -0.7018 -0.5927
vn 0.7863 0.3737 -0.4920
vn 0.5611 0.4398 -0.7012
vn 0.8342 0.0833 -0.5452
vn 0.5554 0.3189 -0.7680
vn 0.7652 0.0152 -0.6436
vn 0.6289 0.1322 -0.7662
vn 0.7170 -0.2328 -0.6570
vn 0.2208 0.1979 -0.9550
vn 0.7372 -0.3712 -0.5646
vn 0.3889 -0.1147 -0.9141
vn 0.3140 -0.0782 -0.9462
vn 0.4716 -0.3027 -0.8282
vn -0.1100 -0.8729 -0.4753
vn -0.1919 -0.7642 -0.6157
vn -0.1153 -0.8130 -0.5708
vn 0.1740 -0.7642 -0.6211
vn -0.1029 -0.5007 -0.8595
vn 0.2702 -0.7958 -0.5420
vn 0.0371 -0.4762 -0.8786
vn 0.4552 -0.7509 -0.4785
vn 0.1923 -0.5521 -0.8113
vn 0.5197 -0.7084 -0.4776
vn 0.1089 -0.2138 -0.9708
vn 0.5784 -0.5595 -0.5937
vn 0.4218 -0.4487 -0.7879
s off
f 54//1 79//1 33//1
f 29//2 12//2 6//2
f 29//3 14//3 12//3
f 30//4 13//4 29//4
f 33//5 13//5 30//5
f 29//6 13//6 14//6
f 13//7 15//7 14//7
f 33//8 34//8 13//8
f 15//9 37//9 14//9
f 34//10 15//10 13//10
f 79//11 34//11 33//11
f 12//12 16//12 6//12
f 16//13 18//13 11//13
f 12//14 17//14 16//14
f 17//15 18//15 16//15
f 12//16 14//16 17//16
f 17//17 40//17 18//17
f 14//18 19//18 17//18
f 19//19 40//19 17//19
f 37//20 19//20 14//20
f 40//21 20//21 18//21
f 20//22 22//22 18//22
f 41//23 5//23 20//23
f 16//24 11//24 6//24
f 6//25 11//25 10//25
f 11//26 21//26 10//26
f 21//27 26//27 10//27
f 18//28 22//28 11//28
f 22//29 21//29 11//29
f 20//30 5//30 22//30
f 22//31 23//31 21//31
f 23//32 24//32 21//32
f 5//33 23//33 22//33
f 24//34 46//34 21//34
f 10//35 7//35 6//35
f 25//36 7//36 10//36
f 26//37 25//37 10//37
f 25//38 8//38 7//38
f 21//39 46//39 26//39
f 26//40 27//40 25//40
f 25//41 27//41 8//41
f 27//42 9//42 8//42
f 26//43 28//43 27//43
f 46//44 28//44 26//44
f 27//45 28//45 9//45
f 7//46 30//46 6//46
f 6//47 30//47 29//47
f 8//48 31//48 7//48
f 31//49 30//49 7//49
f 32//50 33//50 30//50
f 31//51 32//51 30//51
f 9//52 31//52 8//52
f 9//53 50//53 31//53
f 32//54 54//54 33//54
f 50//55 51//55 31//55
f 31//56 51//56 32//56
f 78//57 34//57 79//57
f 78//58 2//58 34//58
f 2//59 35//59 34//59
f 35//60 15//60 34//60
f 81//61 36//61 2//61
f 35//62 37//62 15//62
f 2//63 38//63 35//63
f 36//64 38//64 2//64
f 81//65 84//65 36//65
f 38//66 37//66 35//66
f 56//67 19//67 37//67
f 56//68 40//68 19//68
f 39//69 40//69 56//69
f 57//70 39//70 56//70
f 59//71 39//71 57//71
f 40//72 41//72 20//72
f 59//73 60//73 39//73
f 39//74 41//74 40//74
f 60//75 42//75 39//75
f 42//76 41//76 39//76
f 4//77 43//77 5//77
f 43//78 23//78 5//78
f 4//79 44//79 43//79
f 43//80 45//80 23//80
f 45//81 24//81 23//81
f 64//82 44//82 4//82
f 43//83 44//83 45//83
f 67//84 46//84 24//84
f 67//85 47//85 46//85
f 47//86 28//86 46//86
f 3//87 47//87 67//87
f 3//88 48//88 47//88
f 47//89 72//89 28//89
f 72//90 9//90 28//90
f 48//91 72//91 47//91
f 71//92 49//92 3//92
f 3//93 49//93 48//93
f 75//94 52//94 73//94
f 72//95 50//95 9//95
f 72//96 73//96 50//96
f 73//97 51//97 50//97
f 52//98 51//98 73//98
f 53//99 32//99 51//99
f 52//100 53//100 51//100
f 53//101 54//101 32//101
f 52//102 55//102 53//102
f 37//103 57//103 56//103
f 38//104 58//104 37//104
f 58//105 57//105 37//105
f 58//106 59//106 57//106
f 38//107 36//107 58//107
f 36//108 61//108 58//108
f 58//109 61//109 59//109
f 59//110 62//110 60//110
f 61//111 87//111 59//111
f 87//112 62//112 59//112
f 41//113 4//113 5//113
f 63//114 4//114 41//114
f 42//115 63//115 41//115
f 63//116 64//116 4//116
f 42//117 65//117 63//117
f 60//118 65//118 42//118
f 62//119 65//119 60//119
f 65//120 66//120 63//120
f 66//121 64//121 63//121
f 45//122 67//122 24//122
f 45//123 68//123 67//123
f 68//124 3//124 67//124
f 44//125 68//125 45//125
f 68//126 69//126 3//126
f 44//127 70//127 68//127
f 70//128 69//128 68//128
f 69//129 71//129 3//129
f 44//130 93//130 70//130
f 93//131 69//131 70//131
f 48//132 74//132 72//132
f 75//133 73//133 72//133
f 74//134 75//134 72//134
f 49//135 74//135 48//135
f 76//136 75//136 74//136
f 49//137 76//137 74//137
f 49//138 77//138 76//138
f 75//139 104//139 52//139
f 53//140 78//140 54//140
f 78//141 79//141 54//141
f 55//142 78//142 53//142
f 55//143 80//143 78//143
f 78//144 81//144 2//144
f 52//145 82//145 55//145
f 78//146 80//146 81//146
f 55//147 82//147 80//147
f 52//148 83//148 82//148
f 80//149 84//149 81//149
f 82//150 83//150 80//150
f 104//151 83//151 52//151
f 84//152 61//152 36//152
f 1//153 85//153 84//153
f 85//154 61//154 84//154
f 85//155 87//155 61//155
f 100//156 86//156 1//156
f 1//157 86//157 85//157
f 86//158 87//158 85//158
f 87//159 88//159 62//159
f 62//160 88//160 65//160
f 86//161 88//161 87//161
f 88//162 66//162 65//162
f 90//163 64//163 66//163
f 86//164 89//164 88//164
f 88//165 90//165 66//165
f 89//166 90//166 88//166
f 89//167 91//167 90//167
f 100//168 92//168 86//168
f 92//169 91//169 86//169
f 86//170 91//170 89//170
f 90//171 44//171 64//171
f 90//172 93//172 44//172
f 94//173 69//173 93//173
f 90//174 91//174 93//174
f 91//175 94//175 93//175
f 94//176 71//176 69//176
f 91//177 95//177 94//177
f 92//178 95//178 91//178
f 95//179 71//179 94//179
f 80//180 96//180 84//180
f 96//181 1//181 84//181
f 80//182 83//182 96//182
f 96//183 97//183 1//183
f 83//184 98//184 96//184
f 98//185 97//185 96//185
f 83//186 99//186 98//186
f 97//187 100//187 1//187
f 104//188 99//188 83//188
f 98//189 103//189 97//189
f 97//190 103//190 100//190
f 99//191 103//191 98//191
f 71//192 77//192 49//192
f 95//193 101//193 71//193
f 101//194 77//194 71//194
f 101//195 102//195 77//195
f 95//196 92//196 101//196
f 77//197 102//197 76//197
f 92//198 103//198 101//198
f 102//199 75//199 76//199
f 103//200 102//200 101//200
f 102//201 104//201 75//201
f 92//202 100//202 103//202
f 99//203 104//203 102//203
f 103//204 99//204 102//204
