# Blender v2.80 (sub 75) OBJ File: 'destroyer.blend'
# www.blender.org
v 11.197856 19.999680 7.784777
v 11.391858 20.031012 7.499628
v 10.691692 19.836485 8.374910
v 11.637660 20.175045 6.933494
v 11.137620 20.559467 6.816260
v 10.265912 20.385450 7.946198
v 11.701348 20.502636 5.844901
v 11.286213 20.701153 6.159658
v 10.536077 20.617874 7.362492
v 10.234906 20.433901 7.875788
v 10.199718 20.447565 7.875677
v 9.588613 21.023655 7.225547
v 9.570012 21.028925 7.181555
v 10.339024 20.961216 6.768510
v 11.915521 20.282688 6.071807
v 8.291275 15.692189 4.779244
v 10.689704 19.839075 8.371462
v 11.928857 20.290039 6.033827
v 11.439034 20.053434 7.411644
v 10.234597 20.434093 7.876036
v 10.310636 20.960716 6.782077
v 11.049582 19.953642 7.961148
v 11.693805 20.201191 6.777638
v 10.430607 20.183149 8.113770
v 9.970409 20.681581 7.634609
v 9.580410 21.011744 7.210329
v 9.886156 21.012829 7.018407
v 10.783929 20.860872 6.494895
v 11.232296 20.713017 6.192652
v 11.683759 20.510921 5.853374
v 11.649844 20.531944 5.890135
v 11.304157 21.028118 4.438661
v 11.147168 21.115234 3.636463
v 11.433778 20.819559 5.275449
v 11.767663 20.853857 4.473230
v 14.203780 18.541555 5.685452
v 14.274622 18.532734 5.551292
v 13.513809 19.058641 6.254880
v 14.345440 18.486063 5.397998
v 12.872402 19.674133 6.217350
v 13.802364 19.249994 5.300598
v 13.317389 19.674536 5.431091
v 14.355487 18.716661 4.817138
v 12.337246 20.365072 5.457437
v 11.896368 20.334089 6.075209
v 13.686356 19.638620 4.265690
v 12.852161 20.170000 4.994485
v 12.503228 20.548626 3.502840
v 12.545245 20.495895 4.279627
v 13.234552 20.041569 3.957703
v 14.359561 18.683477 4.875529
v 9.501587 15.332494 3.775533
v 14.209552 18.942595 4.689520
v 13.509272 19.053450 6.249951
v 14.182433 18.559402 5.706237
v 14.346898 18.492437 5.377359
v 11.145147 21.102051 3.642471
v 12.438355 20.558189 3.504169
v 11.657453 20.513391 5.901540
v 11.958843 20.292139 6.097480
v 12.743326 20.380716 3.651997
v 13.113725 20.124393 3.882644
v 13.417346 19.869728 4.084807
v 13.842493 19.437002 4.390278
v 13.803934 18.859209 6.031029
v 11.498561 20.731663 5.479518
v 11.349793 20.965939 4.718917
v 11.239521 21.066757 4.104815
v 11.570471 20.963531 3.594792
v 12.041381 20.764000 3.548350
v 13.076513 19.485327 6.231428
v 12.510228 19.941877 6.172421
v 11.767220 19.639584 8.109019
v 11.324532 19.365929 8.820675
v 11.956826 18.911371 8.659873
v 10.843463 20.024197 8.470635
v 11.530386 20.175743 7.583803
v 10.674489 19.729860 8.904948
v 10.858207 20.027948 8.436955
v 8.344666 15.788607 5.093190
v 11.523130 20.166737 7.584529
v 10.689991 19.753687 8.873378
v 11.889318 19.201530 8.451401
v 11.930881 18.932686 8.664131
v 11.232441 20.121859 7.989060
v 11.491011 19.250805 8.781937
v 11.077397 19.510544 8.857644
v 11.661353 19.885054 7.870636
v 11.781920 19.566660 8.159060
v 13.872922 17.359217 8.399329
v 13.519843 17.579552 8.734735
v 13.459773 18.218403 8.416786
v 13.330355 18.970795 7.889125
v 12.981293 17.867483 9.148415
v 12.906110 17.922060 9.180234
v 12.853266 17.923735 9.225199
v 12.883798 17.909821 9.206079
v 13.014320 18.756653 8.512847
v 13.902042 17.331490 8.379501
v 14.517721 16.800972 7.578924
v 14.207188 17.444788 7.825996
v 14.508238 16.881592 7.532791
v 14.592813 17.502645 6.939567
v 14.036236 18.265940 7.459656
v 13.652109 19.177633 7.013013
v 14.213141 18.617434 6.499233
v 14.558233 17.917572 6.507350
v 14.396479 18.528267 5.838222
v 14.387856 18.575981 5.742492
v 13.830796 19.280170 6.245646
v 14.400077 18.529354 5.838297
v 9.205538 15.676723 5.051542
v 14.363396 18.607956 5.764063
v 12.862860 17.953188 9.204247
v 14.435394 18.451485 5.897624
v 14.401761 18.527704 5.799524
v 14.521997 16.883522 7.500718
v 14.509581 16.799652 7.574904
v 14.514785 16.882954 7.532960
v 14.577145 17.455357 6.975391
v 14.548503 17.970898 6.448174
v 13.819390 19.278555 6.257075
v 14.068069 19.004215 6.044986
v 12.995488 18.727783 8.527042
v 13.251033 18.916744 8.035747
v 13.484880 19.070801 7.478209
v 13.670679 19.187723 6.914839
v 12.952110 18.391476 8.840879
v 13.871483 17.360729 8.390315
v 13.595908 17.525560 8.666744
v 13.212883 17.746580 8.980441
v 12.906112 17.921886 9.180680
v 14.186452 17.102293 8.036307
v 14.203579 19.540596 4.540233
v 14.515600 19.114737 4.788330
v 14.006031 19.784721 4.392050
v 12.613812 20.895794 3.513397
v 13.418026 20.310209 2.977811
v 14.158112 19.486868 2.417559
v 13.714791 20.121130 3.446794
v 14.432373 19.312901 3.065896
v 14.172892 19.665157 3.811178
v 14.476536 19.291445 3.349709
v 12.635516 20.868368 3.526971
v 9.755077 15.634146 3.673533
v 13.890684 19.816795 2.627677
v 13.203510 20.516592 3.863308
v 14.429685 19.310413 3.066216
v 14.446636 19.184687 4.727655
v 14.103211 19.655939 4.462938
v 13.737972 20.058908 4.211908
v 13.376746 20.377140 3.973359
v 13.031535 20.630344 3.760484
v 14.154184 19.480143 2.426590
v 12.835262 20.745520 3.368433
v 13.228350 20.463434 3.107692
v 13.596733 20.134630 2.848036
v 14.513165 19.247293 3.852909
v 14.513536 19.158464 4.472655
v 12.938260 18.642998 7.646895
v 12.856005 18.563953 7.821448
v 12.887355 19.212553 6.783282
v 12.192292 19.757311 6.989789
v 11.910151 20.274675 5.990087
v 11.900759 18.865206 8.595069
v 12.463555 18.313314 8.543851
v 11.717746 19.385172 8.170494
v 11.370903 20.063679 7.460943
v 11.612006 20.183681 6.869467
v 13.076168 18.697475 7.302836
v 13.359423 18.850372 6.318755
v 12.730690 19.601664 6.180145
v 11.366664 20.054743 7.443083
v 8.742012 15.290476 4.931437
v 13.353695 18.854418 6.316803
v 12.447650 18.318958 8.541124
v 11.935637 18.808594 8.585869
v 11.801419 19.132755 8.365406
v 11.670188 19.465778 8.079174
v 11.508845 19.801611 7.741443
v 12.215731 20.041809 6.057451
v 12.722761 19.593737 6.177682
v 13.112830 19.164434 6.265177
v 13.275614 18.808067 6.655748
v 13.129861 18.725323 7.135102
v 12.964212 18.652313 7.535164
v 12.749160 18.493906 8.031309
v 11.589442 20.172056 6.923723
v 11.739595 20.230169 6.512489
v 11.893949 20.267487 6.027701
vn 0.4925 0.7664 0.4123
vn 0.3994 0.7363 0.5462
vn 0.5560 0.7989 0.2294
vn 0.5556 0.7829 0.2799
vn 0.5388 0.7900 0.2924
vn 0.4597 0.7810 0.4228
vn 0.4042 0.7700 0.4937
vn 0.2711 0.8446 0.4618
vn 0.3164 0.8187 0.4791
vn 0.3127 0.8636 0.3955
vn 0.4033 0.8438 0.3540
vn 0.4178 0.8640 0.2810
vn 0.5532 -0.2098 -0.8062
vn 0.5533 -0.2097 -0.8062
vn 0.4636 0.7895 0.4022
vn 0.2901 0.8351 0.4673
vn 0.1230 0.9902 0.0666
vn 0.6531 -0.6766 0.3400
vn 0.6532 -0.6765 0.3401
vn 0.6333 -0.6824 0.3649
vn 0.6334 -0.6823 0.3650
vn 0.7517 -0.6392 0.1623
vn 0.7518 -0.6391 0.1624
vn 0.7545 -0.6378 0.1545
vn 0.7546 -0.6377 0.1546
vn -0.7674 -0.1041 0.6326
vn -0.7674 -0.1040 0.6327
vn -0.8008 -0.0610 0.5959
vn -0.8007 -0.0609 0.5959
vn -0.7340 -0.1340 0.6658
vn -0.7339 -0.1339 0.6659
vn -0.7704 -0.1010 0.6295
vn -0.7704 -0.1011 0.6295
vn -0.7703 -0.1009 0.6296
vn -0.4735 0.4584 -0.7521
vn -0.4737 0.4584 -0.7520
vn -0.4736 0.4586 -0.7519
vn -0.3902 0.4541 -0.8010
vn -0.3902 0.4542 -0.8009
vn -0.3952 0.4560 -0.7975
vn -0.3951 0.4561 -0.7974
vn 0.3345 0.9253 0.1788
vn 0.3495 0.9363 0.0333
vn 0.7267 0.5972 0.3395
vn 0.6700 0.6623 0.3354
vn 0.6350 0.6837 0.3597
vn 0.7728 0.5903 0.2330
vn 0.4790 0.7906 0.3815
vn 0.7528 0.6395 0.1558
vn 0.5526 0.7724 0.3131
vn 0.6752 0.7123 0.1918
vn 0.5563 0.7785 0.2907
vn 0.4191 0.8414 0.3413
vn 0.4129 0.8446 0.3409
vn 0.6344 0.7523 0.1777
vn 0.3857 0.9226 0.0022
vn 0.4257 0.9040 0.0383
vn 0.5586 0.8290 0.0261
vn 0.4060 0.8901 0.2071
vn 0.4475 0.8767 0.1764
vn 0.5837 0.8036 0.1157
vn 0.3871 0.8799 0.2756
vn 0.4864 0.8548 0.1808
vn 0.6100 0.7819 0.1281
vn 0.5873 -0.7612 -0.2750
vn 0.4156 -0.8280 0.3764
vn 0.8236 0.5221 0.2215
vn 0.7285 0.5913 0.3458
vn -0.5868 -0.0862 0.8052
vn 0.4295 -0.3492 -0.8328
vn 0.3157 -0.2253 -0.9217
vn 0.3733 -0.2615 -0.8901
vn 0.1345 -0.6451 0.7522
vn 0.1340 -0.6448 0.7525
vn -0.8822 0.1904 0.4306
vn -0.9291 0.2609 0.2621
vn -0.9383 0.2722 0.2132
vn -0.9385 0.2722 0.2123
vn -0.1088 0.0081 -0.9940
vn -0.0966 0.0036 -0.9953
vn -0.1064 0.0082 -0.9943
vn -0.3102 -0.2717 0.9110
vn -0.3124 -0.2697 0.9109
vn -0.3007 -0.2781 0.9123
vn 0.5680 0.5855 0.5785
vn 0.4957 0.6615 0.5627
vn 0.4445 0.6517 0.6146
vn 0.4926 0.7102 0.5029
vn 0.7920 -0.2988 -0.5324
vn -0.8576 0.5143 -0.0074
vn -0.6291 0.6759 -0.3840
vn -0.6325 0.6752 -0.3796
vn -0.2316 -0.6029 0.7634
vn -0.2366 -0.5996 0.7645
vn -0.3144 -0.5510 0.7730
vn 0.7731 -0.2235 -0.5936
vn 0.7777 -0.2341 -0.5835
vn 0.7785 -0.2365 -0.5814
vn 0.7507 0.3496 0.5606
vn 0.6825 0.3761 0.6267
vn 0.6501 0.4257 0.6294
vn 0.6042 0.4484 0.6587
vn 0.6085 0.3715 0.7012
vn 0.7005 0.4866 0.5220
vn 0.7507 0.4296 0.5018
vn 0.8914 0.2995 0.3401
vn 0.8373 0.2102 0.5046
vn 0.7797 0.3646 0.5090
vn 0.8786 0.2618 0.3993
vn 0.7832 0.3819 0.4907
vn 0.7496 0.4616 0.4744
vn 0.8497 0.3520 0.3926
vn 0.7579 0.5153 0.4000
vn 0.8563 0.4137 0.3091
vn 0.8434 0.4197 0.3355
vn 0.8010 0.4993 0.3303
vn 0.8771 0.4348 0.2041
vn 0.7907 0.5550 0.2583
vn 0.8524 0.4945 0.1697
vn 0.8268 0.5388 0.1614
vn -0.6104 0.7916 -0.0287
vn -0.6103 0.7917 -0.0285
vn 0.5840 0.4594 0.6692
vn 0.9084 0.4012 0.1182
vn 0.8826 0.2562 0.3941
vn 0.4608 -0.4219 -0.7808
vn 0.4610 -0.4218 -0.7808
vn 0.4013 -0.5228 -0.7521
vn 0.4011 -0.5230 -0.7520
vn 0.4377 -0.6514 -0.6198
vn 0.4379 -0.6512 -0.6198
vn 0.4382 -0.6307 -0.6405
vn 0.4384 -0.6305 -0.6405
vn 0.4349 -0.6089 -0.6634
vn 0.4351 -0.6087 -0.6635
vn -0.1700 0.5016 -0.8482
vn -0.1699 0.5019 -0.8481
vn -0.1595 0.4891 -0.8575
vn -0.1594 0.4893 -0.8574
vn -0.6168 0.7869 -0.0182
vn -0.6167 0.7870 -0.0179
vn -0.6084 0.7928 -0.0361
vn -0.6082 0.7929 -0.0358
vn -0.6082 0.7930 -0.0359
vn -0.7689 0.4938 0.4063
vn -0.7688 0.4936 0.4065
vn -0.7687 0.4936 0.4068
vn -0.7702 0.4854 0.4137
vn -0.7700 0.4854 0.4140
vn 0.8269 0.5402 0.1565
vn -0.0827 -0.8385 0.5385
vn -0.0824 -0.8385 0.5386
vn -0.0335 -0.8728 0.4870
vn -0.0332 -0.8727 0.4871
vn -0.0676 -0.8526 0.5182
vn -0.0673 -0.8526 0.5182
vn -0.1130 -0.8269 0.5509
vn -0.1127 -0.8269 0.5510
vn -0.2188 -0.7617 0.6099
vn -0.2185 -0.7614 0.6103
vn -0.2187 -0.7615 0.6101
vn -0.0643 -0.8545 0.5154
vn -0.0640 -0.8545 0.5154
vn 0.7840 0.6166 0.0723
vn 0.7504 0.6561 0.0805
vn 0.8049 0.5913 0.0508
vn 0.5738 0.8183 -0.0332
vn 0.6846 0.7143 -0.1453
vn 0.7146 0.6897 -0.1172
vn 0.7302 0.6799 -0.0671
vn 0.7349 0.6753 -0.0633
vn 0.6855 0.7265 0.0476
vn 0.6855 0.7265 0.0474
vn 0.6852 0.7268 0.0473
vn -0.4230 0.1971 -0.8844
vn 0.5545 -0.8004 0.2278
vn 0.5707 0.8176 -0.0757
vn 0.6462 0.7598 0.0716
vn 0.6459 0.7601 0.0710
vn 0.6460 0.7600 0.0714
vn -0.3759 0.2302 0.8976
vn -0.3713 0.2246 0.9009
vn -0.3825 0.2356 0.8934
vn -0.3803 0.2338 0.8948
vn -0.3842 0.2364 0.8925
vn -0.5014 0.2527 -0.8275
vn -0.4325 0.2082 -0.8773
vn -0.4325 0.2083 -0.8773
vn 0.5258 -0.7383 -0.4224
vn 0.6029 -0.7876 -0.1272
vn 0.6036 -0.7892 -0.1135
vn 0.6203 0.5623 0.5469
vn 0.6362 0.6608 0.3983
vn 0.5961 0.6232 0.5062
vn 0.5969 0.6646 0.4494
vn 0.5244 0.7287 0.4404
vn 0.5014 0.7851 0.3637
vn 0.5348 0.8025 0.2644
vn 0.6836 0.6271 0.3733
vn 0.7249 0.6492 0.2305
vn 0.6422 0.7092 0.2907
vn 0.5824 0.7773 0.2379
vn 0.7508 0.5849 0.3070
vn 0.6158 0.5783 0.5352
vn -0.7898 0.0861 0.6073
vn -0.8174 0.1549 0.5549
vn -0.8195 0.1598 0.5504
vn -0.8253 0.1709 0.5383
vn 0.1675 0.1097 -0.9797
vn 0.2616 0.0373 -0.9644
vn 0.2596 0.0393 -0.9649
vn 0.2588 0.0403 -0.9651
vn 0.6054 -0.7953 0.0307
vn 0.6016 -0.7975 0.0453
vn 0.5838 -0.8064 0.0945
vn 0.6167 -0.7870 0.0161
vn 0.5884 -0.8054 0.0716
vn -0.8016 0.5566 -0.2181
vn -0.8030 0.5560 -0.2146
vn -0.8035 0.5558 -0.2131
vn -0.3842 -0.4741 0.7922
s off
f 5//1 1//1 4//1
f 1//2 6//2 3//2
f 7//3 8//3 18//3
f 18//4 8//4 4//4
f 8//5 5//5 4//5
f 5//6 9//6 1//6
f 9//7 6//7 1//7
f 9//8 10//8 6//8
f 9//9 11//9 10//9
f 9//10 14//10 12//10
f 5//11 14//11 9//11
f 8//12 14//12 5//12
f 30//13 15//13 16//14
f 2//15 4//15 1//15
f 9//16 12//16 11//16
f 12//17 14//17 13//17
f 19//18 22//18 16//19
f 22//20 17//20 16//21
f 15//22 23//22 16//23
f 23//24 19//24 16//25
f 17//26 24//26 16//27
f 24//28 20//28 16//29
f 20//30 25//30 16//31
f 25//32 26//33 16//34
f 26//35 27//36 16//37
f 27//38 21//38 16//39
f 21//38 28//38 16//39
f 28//38 29//38 16//39
f 29//40 30//40 16//41
f 34//42 35//42 32//42
f 35//43 33//43 32//43
f 37//44 41//44 38//44
f 41//45 42//45 38//45
f 38//46 42//46 40//46
f 43//47 41//47 37//47
f 44//48 45//48 40//48
f 43//49 46//49 41//49
f 42//50 44//50 40//50
f 41//51 46//51 42//51
f 42//52 47//52 44//52
f 44//53 31//53 45//54
f 42//55 46//55 47//55
f 33//56 35//56 48//56
f 35//57 49//57 48//57
f 49//58 50//58 48//58
f 34//59 44//59 35//59
f 35//60 44//60 49//60
f 47//61 50//61 49//61
f 34//62 31//62 44//62
f 44//63 47//63 49//63
f 47//64 46//64 50//64
f 51//65 56//65 52//65
f 55//66 52//66 56//66
f 43//67 37//67 39//67
f 38//68 36//68 37//68
f 59//69 52//69 60//69
f 51//70 52//70 53//70
f 52//71 58//71 61//71
f 61//72 62//72 52//72
f 62//72 63//72 52//72
f 63//72 64//72 52//72
f 64//72 53//72 52//72
f 55//73 65//73 52//73
f 65//74 54//74 52//74
f 59//75 66//75 52//75
f 66//76 67//76 52//76
f 67//77 68//77 52//77
f 68//78 57//78 52//78
f 57//79 69//79 52//79
f 69//80 70//80 52//80
f 70//81 58//81 52//81
f 54//82 71//82 52//82
f 71//83 72//83 52//83
f 72//84 60//84 52//84
f 73//85 74//85 75//85
f 73//86 76//86 74//86
f 76//87 78//87 74//87
f 77//88 76//88 73//88
f 83//89 84//89 80//89
f 82//90 79//90 80//90
f 79//91 85//91 80//91
f 85//92 81//92 80//92
f 84//93 86//93 80//93
f 86//94 87//94 80//94
f 87//95 82//95 80//95
f 81//96 88//96 80//96
f 88//97 89//97 80//97
f 89//98 83//98 80//98
f 90//99 92//99 91//99
f 92//100 94//100 91//100
f 92//101 98//101 94//101
f 94//102 98//102 95//102
f 96//103 97//103 95//103
f 93//104 98//104 92//104
f 99//105 101//105 90//105
f 101//106 100//106 102//106
f 100//107 101//107 99//107
f 101//108 92//108 90//108
f 102//109 103//109 101//109
f 101//110 104//110 92//110
f 104//111 93//111 92//111
f 103//112 104//112 101//112
f 104//113 105//113 93//113
f 103//114 106//114 104//114
f 107//115 106//115 103//115
f 106//116 105//116 104//116
f 115//117 106//117 107//117
f 106//118 110//118 105//118
f 108//119 109//119 106//119
f 109//120 110//120 106//120
f 127//121 122//121 112//122
f 98//123 96//123 95//123
f 116//124 109//124 108//124
f 117//125 103//125 102//125
f 118//126 112//127 119//126
f 112//128 113//129 111//129
f 120//130 119//130 112//131
f 121//132 120//132 112//133
f 111//134 121//134 112//135
f 122//136 123//136 112//137
f 123//138 113//138 112//139
f 124//140 125//140 112//141
f 125//142 126//142 112//143
f 126//142 127//142 112//144
f 114//145 128//146 112//147
f 128//148 124//148 112//149
f 115//150 108//150 106//150
f 133//151 129//151 112//152
f 129//153 130//153 112//154
f 130//155 131//155 112//156
f 131//157 132//157 112//158
f 114//159 112//160 132//161
f 118//162 133//162 112//163
f 135//164 142//164 134//164
f 142//165 136//165 134//165
f 143//166 142//166 135//166
f 137//167 140//167 138//167
f 138//168 140//168 139//168
f 140//169 141//169 139//169
f 140//170 142//170 141//170
f 142//171 143//171 141//171
f 136//172 142//173 140//174
f 146//175 154//175 145//175
f 159//176 149//176 145//176
f 147//177 140//177 137//177
f 136//178 140//179 147//180
f 149//181 150//181 145//181
f 150//182 151//182 145//182
f 151//183 152//183 145//183
f 152//184 153//184 145//184
f 153//185 144//185 145//185
f 145//186 144//186 155//186
f 155//187 156//187 145//187
f 156//187 157//187 145//187
f 157//188 146//188 145//188
f 154//189 148//189 145//189
f 148//190 158//190 145//190
f 158//191 159//191 145//191
f 160//192 165//192 161//192
f 162//193 163//193 160//193
f 160//194 167//194 165//194
f 163//195 167//195 160//195
f 163//196 168//196 167//196
f 169//197 168//197 163//197
f 164//198 169//198 163//198
f 170//199 162//199 160//199
f 171//200 172//200 162//200
f 162//201 172//201 163//201
f 172//202 164//202 163//202
f 170//203 171//203 162//203
f 165//204 166//204 161//204
f 174//205 177//205 178//205
f 178//206 179//206 174//206
f 179//207 180//207 174//207
f 180//208 173//208 174//208
f 174//209 190//209 181//209
f 181//210 182//210 174//210
f 182//211 183//211 174//211
f 183//212 175//212 174//212
f 174//213 175//213 184//213
f 184//214 185//214 174//214
f 185//215 186//215 174//215
f 186//216 187//216 174//216
f 187//217 176//217 174//217
f 173//218 188//218 174//218
f 188//219 189//219 174//219
f 189//220 190//220 174//220
f 176//221 177//221 174//221
