# Blender v2.80 (sub 75) OBJ File: 'destroyer.blend'
# www.blender.org
v 7.047371 12.216991 2.606717
v 7.542951 11.875706 2.948868
v 7.165175 11.851799 3.794364
v 7.897087 11.567361 3.859971
v 7.391669 11.731401 4.995067
v 8.492285 11.451922 3.607515
v 8.517750 11.376911 4.366685
v 8.173828 11.470833 5.018631
v 9.306419 11.278894 4.175077
v 8.476552 11.412354 5.016918
v 9.056311 11.324338 5.031567
v 9.187319 11.292414 4.580955
v 9.664471 17.254587 4.510295
v 9.032795 11.327860 5.037428
v 7.062049 12.184114 2.684721
v 7.397146 11.742255 4.994133
v 9.281554 11.294559 4.151099
v 7.885640 11.564544 5.027112
v 8.463496 11.417182 5.011780
v 8.702852 11.399711 3.754200
v 8.247225 11.543408 3.437239
v 7.725152 11.778878 3.075059
v 7.288827 12.045253 2.773352
v 7.115144 11.962600 3.372517
v 7.212687 11.813685 4.070275
v 7.327075 11.751764 4.678705
v 7.381422 11.545748 5.059635
v 7.325222 11.571266 5.098683
v 8.054412 11.291671 5.056350
v 7.130683 11.784900 5.784365
v 8.715980 11.285349 5.863755
v 7.813272 11.599813 6.184107
v 9.039658 11.113104 5.035241
v 7.777713 11.862267 6.836509
v 6.963957 12.117231 6.573300
v 9.654063 11.257115 6.114847
v 8.864139 11.565840 6.830684
v 8.615014 11.723536 7.040174
v 6.954266 12.121590 6.543662
v 9.703950 17.043236 4.510853
v 6.974767 12.126939 6.572048
v 7.344663 11.569336 5.067109
v 9.647807 11.278298 6.116405
v 9.058142 11.116405 5.053262
v 7.182585 11.718242 5.591045
v 8.335510 11.762797 6.976679
v 8.643754 11.175476 5.044384
v 7.900249 11.356539 5.056502
v 8.715885 11.670792 6.962565
v 9.242776 11.410807 6.489556
v 9.530996 11.222481 5.898433
v 9.306017 11.154804 5.504305
v 7.030693 11.955988 6.195692
v 7.448173 11.961318 6.734313
v 7.887779 11.845783 6.862561
v 8.969989 13.005997 0.189970
v 8.386428 13.022886 0.316365
v 9.084145 12.140553 1.182816
v 9.693673 12.271404 0.955577
v 10.006023 11.907838 1.536608
v 9.936981 12.640020 0.523965
v 10.018913 11.429596 2.562990
v 10.052736 13.091911 0.083507
v 10.540908 11.690170 2.092968
v 10.743147 12.303320 1.092955
v 11.296434 12.208636 1.451496
v 10.908492 12.834768 0.495487
v 11.002874 12.701331 0.678720
v 11.056782 12.033765 1.652122
v 9.652563 17.096527 4.530310
v 10.016155 11.449312 2.559362
v 10.938315 12.823882 0.532891
v 9.980329 13.096216 0.082078
v 8.392148 13.025722 0.319735
v 11.286633 12.240846 1.424362
v 10.292347 11.567204 2.317296
v 10.641109 11.751967 2.005957
v 8.644554 12.664699 0.622073
v 9.058049 12.179907 1.153333
v 9.403484 11.857952 1.635787
v 9.699341 11.632552 2.072449
v 11.111888 12.515645 0.956394
v 10.495289 12.950952 0.287057
v 9.368389 13.029693 0.142149
v 8.896860 13.013049 0.211156
v 7.100382 11.631860 5.093696
v 6.885875 11.747766 5.090684
v 6.932989 11.855240 5.807117
v 6.419198 12.225448 5.961506
v 6.013509 12.373963 5.372118
v 5.986889 12.411915 5.402098
v 5.959415 12.425557 5.390189
v 6.803356 12.221707 6.590726
v 5.614494 12.991360 6.135857
v 5.062264 13.494985 5.696701
v 6.567711 12.606769 7.027376
v 5.985321 12.987410 6.851226
v 5.328217 13.523058 6.493573
v 6.292592 13.243610 7.594842
v 5.785734 13.652417 7.437684
v 6.235918 13.445350 7.746673
v 6.143206 13.789465 7.986530
v 6.834132 12.139088 6.446547
v 9.812613 16.944347 4.438797
v 6.141774 13.788877 7.980679
v 5.991011 12.415642 5.400011
v 7.074445 11.643944 5.078495
v 5.068619 13.498672 5.705316
v 5.293419 13.517054 6.401393
v 5.633179 13.603169 7.154905
v 5.919603 13.702281 7.650893
v 6.565371 11.956446 5.193247
v 5.735887 12.666723 5.465523
v 5.355139 13.096177 5.594648
v 6.917006 11.900424 5.904257
v 7.005249 11.746677 5.484911
v 6.203303 13.559837 7.830479
v 6.356936 13.086647 7.468780
v 6.596550 12.558477 6.973503
v 5.375309 14.967463 0.988338
v 5.883175 15.125340 0.379266
v 6.058969 14.445029 0.558332
v 6.065003 14.485540 0.539801
v 6.350565 15.294620 -0.080661
v 5.993156 15.861158 0.034440
v 6.683464 16.029991 -0.470530
v 6.588531 16.547911 -0.478396
v 5.756542 14.665818 0.737221
v 9.747071 16.884975 4.575873
v 6.589969 16.538677 -0.474892
v 6.063731 14.487089 0.542492
v 6.681664 16.066202 -0.475914
v 5.384104 14.969580 0.987328
v 6.328756 16.257633 -0.274912
v 6.010391 15.873267 0.037992
v 5.751518 15.532646 0.358304
v 5.545475 15.233498 0.679008
v 6.256963 15.039291 0.100883
v 6.502380 15.640131 -0.273978
vn -0.4439 -0.8679 -0.2229
vn -0.3424 -0.9223 -0.1791
vn -0.3601 -0.9326 -0.0256
vn -0.2256 -0.9702 -0.0883
vn -0.3160 -0.9488 -0.0036
vn -0.2844 -0.9586 -0.0119
vn -0.1119 -0.9926 0.0470
vn -0.1893 -0.9810 0.0415
vn -0.1503 -0.9886 0.0086
vn -0.2720 -0.9387 -0.2120
vn -0.1449 -0.9851 -0.0925
vn 0.9741 -0.0754 0.2132
vn 0.9431 -0.0716 0.3248
vn -0.0308 0.1000 0.9945
vn 0.0458 0.0761 0.9960
vn -0.0304 0.0918 0.9953
vn 0.5672 0.0132 -0.8235
vn 0.5735 0.0116 -0.8191
vn 0.4192 0.1093 -0.9013
vn -0.8993 0.3912 0.1954
vn -0.8979 0.3878 0.2083
vn -0.8973 0.3876 0.2110
vn -0.3509 -0.9307 0.1033
vn -0.3419 -0.9204 0.1898
vn -0.3522 -0.9192 0.1759
vn -0.2570 -0.9448 0.2032
vn -0.3774 -0.8661 0.3278
vn -0.1739 -0.9755 0.1349
vn -0.0762 -0.9817 0.1743
vn -0.2161 -0.9284 0.3024
vn -0.2448 -0.9041 0.3504
vn -0.1068 -0.9504 0.2921
vn -0.2411 -0.8912 0.3842
vn -0.4051 -0.8670 0.2903
vn -0.5068 -0.8612 0.0391
vn 0.0091 -0.0932 -0.9956
vn 0.0079 -0.0948 -0.9955
vn 0.0082 -0.0920 -0.9957
vn -0.0367 -0.0839 -0.9958
vn -0.0359 -0.0852 -0.9957
vn -0.0496 -0.0798 -0.9956
vn -0.0489 -0.0812 -0.9955
vn 0.7052 0.1829 0.6850
vn 0.7043 0.1823 0.6861
vn 0.6980 0.1858 0.6916
vn 0.6971 0.1850 0.6926
vn 0.8879 -0.1325 -0.4406
vn 0.8874 -0.1317 -0.4418
vn 0.8701 -0.1386 -0.4729
vn 0.8706 -0.1395 -0.4718
vn 0.8729 -0.1379 -0.4680
vn 0.8716 -0.1381 -0.4705
vn 0.8733 -0.1389 -0.4669
vn -0.8681 0.3371 -0.3644
vn -0.8682 0.3359 -0.3652
vn -0.8713 0.3410 -0.3529
vn -0.8715 0.3396 -0.3537
vn -0.8823 0.3652 -0.2970
vn -0.8826 0.3639 -0.2976
vn 0.1286 0.3920 0.9109
vn 0.1274 0.3913 0.9114
vn -0.1447 0.4498 0.8813
vn -0.1461 0.4493 0.8814
vn -0.1397 0.4483 0.8829
vn -0.1411 0.4476 0.8830
vn -0.1417 0.4488 0.8823
vn -0.1430 0.4480 0.8825
vn -0.0799 -0.7559 -0.6497
vn -0.0132 -0.8508 -0.5253
vn -0.0520 -0.7447 -0.6654
vn -0.0154 -0.6959 -0.7180
vn 0.0712 -0.9038 -0.4220
vn 0.1039 -0.7845 -0.6114
vn 0.0989 -0.8188 -0.5655
vn 0.1679 -0.8578 -0.4857
vn 0.1664 -0.8535 -0.4939
vn 0.1217 -0.7086 -0.6950
vn 0.1334 -0.7585 -0.6378
vn 0.1546 -0.7591 -0.6324
vn -0.0669 -0.9047 -0.4207
vn -0.1600 -0.7531 -0.6381
vn 0.2477 -0.7715 -0.5860
vn 0.7604 -0.1486 0.6323
vn 0.6925 -0.1976 0.6939
vn 0.7080 -0.1903 0.6801
vn -0.8601 -0.2131 0.4635
vn -0.8565 -0.2178 0.4679
vn -0.8534 -0.2199 0.4725
vn 0.9162 0.3832 -0.1171
vn 0.9211 0.3750 -0.1046
vn 0.4984 0.6675 -0.5532
vn 0.4276 0.6876 -0.5869
vn -0.1449 0.7304 -0.6675
vn -0.1239 0.7318 -0.6702
vn -0.1257 0.7318 -0.6698
vn -0.4709 -0.8673 0.1611
vn -0.5412 -0.8256 0.1594
vn -0.5430 -0.8231 0.1664
vn -0.6651 -0.6907 0.2838
vn -0.6384 -0.7278 0.2507
vn -0.5325 -0.7745 0.3414
vn -0.5734 -0.7428 0.3456
vn -0.5844 -0.7348 0.3443
vn -0.6173 -0.7205 0.3160
vn -0.7578 -0.5922 0.2738
vn -0.6993 -0.6181 0.3591
vn -0.6373 -0.6084 0.4730
vn -0.6373 -0.6093 0.4719
vn -0.6361 -0.6088 0.4740
vn -0.6993 -0.5784 0.4200
vn -0.7005 -0.5789 0.4173
vn -0.6997 -0.5790 0.4184
vn -0.6263 -0.5734 0.5282
vn -0.6294 -0.5513 0.5476
vn -0.5523 0.8187 0.1571
vn -0.5528 0.8183 0.1572
vn -0.4972 -0.8146 0.2987
vn -0.5782 -0.6677 0.4690
vn -0.7324 -0.6611 0.1628
vn -0.5526 0.8185 0.1569
vn -0.5532 0.8181 0.1568
vn -0.5530 0.8185 0.1558
vn -0.5536 0.8181 0.1559
vn -0.5536 0.8180 0.1559
vn -0.2217 -0.0031 -0.9751
vn -0.2219 -0.0038 -0.9751
vn -0.3012 0.0520 -0.9522
vn -0.3014 0.0514 -0.9521
vn -0.2465 0.0024 -0.9691
vn -0.2468 0.0017 -0.9691
vn -0.2818 0.0384 -0.9587
vn -0.2821 0.0378 -0.9586
vn -0.2936 0.0534 -0.9544
vn -0.2940 0.0528 -0.9543
vn 0.8607 -0.4042 0.3094
vn 0.8604 -0.4047 0.3099
vn 0.8576 -0.3976 0.3262
vn 0.8573 -0.3981 0.3266
vn 0.8714 -0.4195 0.2544
vn 0.8710 -0.4200 0.2547
vn 0.7630 -0.1983 0.6153
vn 0.7634 -0.1981 0.6148
vn 0.7676 -0.2128 0.6045
vn 0.7672 -0.2131 0.6050
vn 0.7688 -0.2158 0.6020
vn 0.7683 -0.2161 0.6025
vn 0.7889 -0.2554 0.5590
vn 0.7884 -0.2558 0.5594
vn -0.6746 -0.3460 -0.6521
vn -0.4064 -0.3293 -0.8523
vn -0.5895 -0.3502 -0.7279
vn -0.6318 -0.2495 -0.7339
vn -0.5511 -0.1822 -0.8143
vn -0.5677 -0.1164 -0.8150
vn -0.7265 -0.1995 -0.6575
vn 0.7708 -0.5071 -0.3856
vn 0.7707 -0.5094 -0.3827
vn -0.1051 -0.8097 0.5774
vn -0.1063 -0.8076 0.5801
vn -0.1893 -0.7520 0.6315
vn -0.1901 -0.7496 0.6341
vn 0.8332 0.1597 -0.5294
vn 0.8316 0.1626 -0.5310
vn -0.5741 0.7583 0.3090
vn -0.5770 0.7561 0.3088
vn -0.5871 0.7447 0.3174
vn -0.5843 0.7470 0.3173
vn -0.5844 0.7470 0.3169
vn -0.5845 0.7471 0.3166
vn -0.5907 0.7392 0.3236
vn -0.5882 0.7416 0.3225
vn 0.7528 -0.5512 -0.3598
vn 0.7531 -0.5528 -0.3566
vn 0.7574 -0.5392 -0.3683
vn 0.7574 -0.5412 -0.3653
s off
f 2//1 3//1 1//1
f 4//2 3//2 2//2
f 4//3 5//3 3//3
f 6//4 7//4 4//4
f 4//5 8//5 5//5
f 7//6 8//6 4//6
f 9//7 10//7 7//7
f 7//8 10//8 8//8
f 9//9 11//9 10//9
f 2//10 6//10 4//10
f 6//11 9//11 7//11
f 17//12 13//12 12//12
f 14//13 12//13 13//13
f 16//14 18//14 13//14
f 13//15 18//15 19//15
f 19//16 14//16 13//16
f 17//17 20//17 13//17
f 20//18 21//18 13//18
f 21//18 22//18 13//18
f 22//18 23//18 13//18
f 23//19 15//19 13//19
f 15//20 24//20 13//20
f 24//21 25//21 13//21
f 25//21 26//21 13//21
f 26//22 16//22 13//22
f 27//23 29//23 28//23
f 29//24 30//24 28//24
f 29//25 32//25 30//25
f 31//26 32//26 29//26
f 34//27 35//27 32//27
f 33//28 31//28 29//28
f 36//29 31//29 33//29
f 31//30 37//30 32//30
f 32//31 37//31 34//31
f 36//32 37//32 31//32
f 37//33 38//33 34//33
f 32//34 39//34 30//34
f 35//35 39//35 32//35
f 40//36 44//37 47//38
f 47//39 48//39 40//40
f 48//41 42//41 40//42
f 49//43 50//43 40//44
f 50//45 43//45 40//46
f 40//47 43//48 51//48
f 51//49 52//49 40//50
f 52//51 44//52 40//53
f 42//54 45//54 40//55
f 45//56 53//56 40//57
f 53//58 41//58 40//59
f 49//60 40//61 46//60
f 41//62 54//62 40//63
f 54//64 55//64 40//65
f 55//66 46//66 40//67
f 56//68 59//68 58//68
f 59//69 60//69 58//69
f 56//70 61//70 59//70
f 63//71 61//71 56//71
f 60//72 64//72 62//72
f 61//73 65//73 59//73
f 59//74 65//74 60//74
f 65//75 66//75 60//75
f 60//76 66//76 64//76
f 67//77 61//77 63//77
f 67//78 65//78 61//78
f 67//79 68//79 65//79
f 62//80 58//80 60//80
f 58//81 57//81 56//81
f 68//82 66//82 65//82
f 75//83 70//83 69//83
f 71//84 76//84 70//84
f 76//85 77//85 70//85
f 77//85 69//85 70//85
f 74//86 78//86 70//86
f 78//87 79//87 70//87
f 79//87 80//87 70//87
f 80//87 81//87 70//87
f 81//88 71//88 70//88
f 75//89 82//89 70//89
f 82//90 72//90 70//90
f 72//91 83//91 70//91
f 83//92 73//92 70//92
f 73//93 84//93 70//93
f 84//94 85//94 70//94
f 85//95 74//95 70//95
f 86//96 88//96 87//96
f 88//97 90//97 87//97
f 88//98 89//98 90//98
f 89//99 91//99 90//99
f 89//100 94//100 91//100
f 91//101 94//101 92//101
f 93//102 96//102 89//102
f 96//103 97//103 89//103
f 89//104 97//104 94//104
f 94//105 98//105 95//105
f 97//106 98//106 94//106
f 99//107 100//108 97//109
f 97//110 100//111 98//112
f 101//113 100//113 99//113
f 101//114 102//114 100//114
f 111//115 105//115 104//116
f 88//117 93//117 89//117
f 96//118 99//118 97//118
f 94//119 95//119 92//119
f 108//120 109//120 104//121
f 109//122 110//122 104//123
f 110//122 111//122 104//124
f 112//125 104//126 107//125
f 112//127 106//127 104//128
f 106//129 113//129 104//130
f 113//131 114//131 104//132
f 114//133 108//133 104//134
f 103//135 115//135 104//136
f 115//137 116//137 104//138
f 116//139 107//139 104//140
f 104//141 105//142 117//142
f 117//143 118//143 104//144
f 118//145 119//145 104//146
f 119//147 103//147 104//148
f 120//149 121//149 122//149
f 121//150 123//150 122//150
f 121//151 124//151 123//151
f 125//152 124//152 121//152
f 125//153 126//153 124//153
f 125//154 127//154 126//154
f 120//155 125//155 121//155
f 139//156 132//156 129//157
f 131//158 129//159 128//158
f 133//160 128//160 129//161
f 129//162 132//163 130//163
f 129//164 130//165 134//165
f 134//166 135//166 129//167
f 135//166 136//166 129//168
f 136//166 137//166 129//169
f 137//170 133//170 129//171
f 131//172 138//172 129//173
f 138//174 139//174 129//175
