# Blender v2.92.0 OBJ File: ''
# www.blender.org
o Cube.001
v -1.000000 -1.000000 -0.866025
v 0.000000 -1.000000 0.866025
v -1.000000 1.000000 -0.866025
v 0.000000 1.000000 0.866025
v 1.000000 -1.000000 -0.866025
v 1.000000 1.000000 -0.866025
vn -0.8660 0.0000 0.5000
vn 0.0000 1.0000 0.0000
vn 0.8660 0.0000 0.5000
vn 0.0000 -1.0000 0.0000
vn 0.0000 0.0000 -1.0000
s off
f 2//1 3//1 1//1
f 3//2 4//2 6//2
f 4//3 5//3 6//3
f 5//4 2//4 1//4
f 6//5 1//5 3//5
f 2//1 4//1 3//1
f 4//3 2//3 5//3
f 6//5 5//5 1//5
