# Blender v2.90.1 OBJ File: 'fiber.blend'
# www.blender.org
v -1.000000 0.000985 0.000174
v -1.000000 0.000940 0.000342
v -1.000000 0.000866 0.000500
v -1.000000 0.000766 0.000643
v -1.000000 0.000643 0.000766
v -1.000000 0.000500 0.000866
v -1.000000 0.000342 0.000940
v -1.000000 0.000174 0.000985
v -1.000000 0.000000 0.001000
v -1.000000 -0.000174 0.000985
v -1.000000 -0.000342 0.000940
v -1.000000 -0.000500 0.000866
v -1.000000 -0.000643 0.000766
v -1.000000 -0.000766 0.000643
v -1.000000 -0.000866 0.000500
v -1.000000 -0.000940 0.000342
v -1.000000 -0.000985 0.000174
v -1.000000 -0.001000 0.000000
v -1.000000 -0.000985 -0.000174
v -1.000000 -0.000940 -0.000342
v -1.000000 -0.000866 -0.000500
v -1.000000 -0.000766 -0.000643
v -1.000000 -0.000643 -0.000766
v -1.000000 -0.000500 -0.000866
v -1.000000 -0.000342 -0.000940
v -1.000000 -0.000174 -0.000985
v -1.000000 -0.000000 -0.001000
v -1.000000 0.000174 -0.000985
v -1.000000 0.000342 -0.000940
v -1.000000 0.000500 -0.000866
v -1.000000 0.000643 -0.000766
v -1.000000 0.000766 -0.000643
v -1.000000 0.000866 -0.000500
v -1.000000 0.000940 -0.000342
v -1.000000 0.000985 -0.000174
v -1.000000 0.001000 -0.000000
vn -1.0000 0.0000 0.0000
s 1
f 21//1 13//1 5//1
f 1//1 36//1 33//1
f 36//1 35//1 33//1
f 35//1 34//1 33//1
f 33//1 32//1 31//1
f 31//1 30//1 29//1
f 29//1 28//1 27//1
f 27//1 26//1 25//1
f 25//1 24//1 21//1
f 24//1 23//1 21//1
f 23//1 22//1 21//1
f 21//1 20//1 17//1
f 20//1 19//1 17//1
f 19//1 18//1 17//1
f 17//1 16//1 15//1
f 15//1 14//1 13//1
f 13//1 12//1 11//1
f 11//1 10//1 13//1
f 10//1 9//1 13//1
f 9//1 8//1 5//1
f 8//1 7//1 5//1
f 7//1 6//1 5//1
f 5//1 4//1 3//1
f 3//1 2//1 5//1
f 2//1 1//1 5//1
f 33//1 31//1 29//1
f 29//1 27//1 21//1
f 27//1 25//1 21//1
f 17//1 15//1 13//1
f 1//1 33//1 5//1
f 33//1 29//1 5//1
f 21//1 17//1 13//1
f 13//1 9//1 5//1
f 29//1 21//1 5//1
