# Blender v2.80 (sub 75) OBJ File: 'han.blend'
# www.blender.org
v 0.308656 -0.000000 0.000261
v 0.308677 -0.000000 0.061347
v 0.485149 -0.000000 0.068057
v 0.531557 -0.000000 0.080430
v 0.551470 -0.000000 0.109459
v 0.567348 -0.000000 0.203519
v 0.570056 -0.000000 0.390016
v 0.003081 -0.000000 0.386041
v -0.014600 -0.000000 0.440841
v 0.191774 -0.000000 0.800388
v 0.592964 -0.000000 1.427613
v 0.740326 -0.000000 1.486941
v 0.766097 -0.000000 1.474507
v 0.755475 -0.000000 1.099294
v 0.752322 -0.000000 0.521607
v 0.984154 -0.000000 0.529751
v 0.984893 -0.000000 0.384657
v 0.750616 -0.000000 0.390579
v 0.764239 -0.000000 0.104806
v 0.807268 -0.000000 0.073442
v 0.985064 -0.000000 0.060747
v 0.985158 -0.000000 0.000260
v 0.630864 -0.000000 0.009185
v 0.570056 -0.000000 0.522810
v 0.579332 -0.000000 1.267407
v 0.312701 -0.000000 0.853440
v 0.123190 -0.000000 0.522826
v -1.059990 -0.000000 0.064241
v -0.689897 -0.000000 0.452034
v -0.506764 -0.000000 0.661377
v -0.409524 -0.000000 0.825429
v -0.374808 -0.000000 0.941916
v -0.366933 -0.000000 1.045206
v -0.397205 -0.000000 1.164144
v -0.466141 -0.000000 1.252267
v -0.545437 -0.000000 1.299278
v -0.698426 -0.000000 1.316661
v -0.813793 -0.000000 1.284116
v -0.887656 -0.000000 1.232903
v -0.950952 -0.000000 1.039397
v -1.011326 -0.000000 1.039843
v -0.976276 -0.000000 1.329837
v -0.863886 -0.000000 1.422239
v -0.719069 -0.000000 1.471889
v -0.532753 -0.000000 1.474457
v -0.397776 -0.000000 1.438409
v -0.285355 -0.000000 1.361615
v -0.220084 -0.000000 1.266725
v -0.186378 -0.000000 1.175281
v -0.178353 -0.000000 1.059867
v -0.202158 -0.000000 0.926498
v -0.267066 -0.000000 0.794159
v -0.393835 -0.000000 0.632477
v -0.838338 -0.000000 0.181687
v -0.291374 -0.000000 0.181740
v -0.099491 -0.000000 0.193631
v -0.106900 -0.000000 0.075449
v -0.103237 -0.000000 0.001549
v -0.565477 -0.000000 0.010768
v -1.061857 -0.000000 0.001546
v 0.308870 -0.100000 0.001182
v 0.308660 -0.100000 0.061400
v 0.506357 -0.100000 0.070261
v 0.544050 -0.100000 0.092453
v 0.565831 -0.100000 0.179299
v 0.569832 -0.100000 0.393024
v 0.003243 -0.100000 0.384106
v -0.014587 -0.100000 0.440710
v 0.182598 -0.100000 0.785328
v 0.495229 -0.100000 1.277813
v 0.593124 -0.100000 1.427644
v 0.740306 -0.100000 1.486939
v 0.765538 -0.100000 1.474705
v 0.758367 -0.100000 1.241969
v 0.749393 -0.100000 0.522517
v 0.984257 -0.100000 0.529117
v 0.985153 -0.100000 0.383945
v 0.750842 -0.100000 0.391737
v 0.756525 -0.100000 0.164264
v 0.770208 -0.100000 0.097974
v 0.805621 -0.100000 0.073942
v 0.984887 -0.100000 0.060582
v 0.985164 -0.100000 0.000221
v 0.674848 -0.100000 0.008655
v 0.570056 -0.100000 0.522810
v 0.579467 -0.100000 1.266246
v 0.426274 -0.100000 1.037487
v 0.122129 -0.100000 0.523262
v -1.061072 -0.100000 0.062986
v -0.605268 -0.100000 0.544571
v -0.482934 -0.100000 0.696937
v -0.411202 -0.100000 0.821582
v -0.375497 -0.100000 0.938298
v -0.366772 -0.100000 1.040808
v -0.394965 -0.100000 1.159557
v -0.469084 -0.100000 1.255641
v -0.584827 -0.100000 1.312473
v -0.728550 -0.100000 1.310818
v -0.810220 -0.100000 1.285777
v -0.886827 -0.100000 1.234127
v -0.951053 -0.100000 1.039485
v -1.011525 -0.100000 1.039552
v -0.976149 -0.100000 1.329821
v -0.865972 -0.100000 1.420987
v -0.722685 -0.100000 1.471271
v -0.538992 -0.100000 1.475156
v -0.386185 -0.100000 1.434174
v -0.277973 -0.100000 1.352245
v -0.222381 -0.100000 1.271147
v -0.185253 -0.100000 1.172448
v -0.183264 -0.100000 0.994548
v -0.250811 -0.100000 0.819087
v -0.386344 -0.100000 0.640750
v -0.837598 -0.100000 0.182607
v -0.297480 -0.100000 0.181568
v -0.099532 -0.100000 0.193590
v -0.106979 -0.100000 0.078530
v -0.101885 -0.100000 0.001252
v -0.532474 -0.100000 0.010574
v -1.061026 -0.100000 0.002210
vn -0.0000 1.0000 0.0000
vn 0.0019 0.0092 1.0000
vn -0.0000 -1.0000 0.0000
vn 0.0000 -1.0000 -0.0002
vn -0.0351 -0.0064 0.9994
vn 0.9823 0.0663 -0.1753
vn -0.2575 -0.0333 0.9657
vn -0.1125 -0.0863 -0.9899
vn 0.8972 0.0362 -0.4401
vn 0.9996 -0.0057 -0.0283
vn 0.0070 -0.0301 -0.9995
vn 0.0277 -0.0092 -0.9996
vn -0.5099 -0.0140 -0.8601
vn -0.0253 -0.0116 -0.9996
vn 0.0186 -0.0065 -0.9998
vn 0.8400 -0.0417 -0.5410
vn -0.7524 -0.0277 0.6582
vn -0.0199 -0.0046 -0.9998
vn -0.9857 -0.0253 0.1664
vn 0.9996 -0.0293 -0.0055
vn 0.9975 0.0093 0.0694
vn -0.8241 -0.0350 0.5653
vn 0.8675 -0.0114 -0.4973
vn 0.5638 0.0304 0.8254
vn -0.0011 0.0029 -1.0000
vn 0.5615 -0.0051 0.8275
vn 0.9979 -0.0004 -0.0646
vn 0.4363 -0.0001 0.8998
vn -0.5069 0.0402 0.8610
vn 0.6034 -0.0301 0.7969
vn -0.0281 0.0099 0.9996
vn -0.6375 -0.0009 0.7704
vn -0.9964 0.0038 0.0848
vn 0.0010 0.0043 1.0000
vn -0.3737 0.0001 0.9276
vn -0.9562 0.0048 0.2925
vn -1.0000 -0.0083 -0.0008
vn 0.9311 -0.0680 -0.3584
vn 0.0115 0.0549 -0.9984
vn 0.0743 0.0038 0.9972
vn 1.0000 0.0026 0.0062
vn -0.0448 0.0125 0.9989
vn -0.9538 0.0043 -0.3004
vn 0.8248 0.0061 0.5654
vn 0.2931 -0.0054 -0.9561
vn 0.0157 0.0194 -0.9997
vn -1.0000 0.0002 -0.0035
vn -0.8667 -0.0046 0.4988
vn -0.8372 -0.0012 0.5470
vn -0.8443 -0.0032 0.5359
vn 0.9994 -0.0150 -0.0308
vn -0.4401 0.0551 -0.8963
vn 0.7960 -0.0214 -0.6049
vn -0.9999 0.0000 0.0127
vn 0.8309 0.0076 -0.5564
vn 0.5590 0.0062 -0.8291
vn 0.0204 0.0143 -0.9997
vn 0.9999 0.0111 -0.0125
vn -0.9998 0.0106 0.0187
vn -0.0332 0.0070 -0.9994
vn -0.7792 0.0368 0.6256
vn 0.0158 0.0072 -0.9998
vn 0.9978 0.0012 0.0658
vn -0.0272 0.0004 -0.9996
vn 0.9360 -0.0059 0.3521
vn 1.0000 0.0001 0.0046
vn -0.0211 -0.0054 0.9998
vn 0.7124 -0.0047 -0.7017
vn -0.7918 0.0103 -0.6108
vn 0.9997 0.0025 0.0250
vn -0.9927 0.0016 0.1210
vn -0.0216 0.0027 -0.9998
vn -0.7261 0.0215 0.6872
vn 0.2590 -0.0109 0.9658
vn 0.9784 0.0446 0.2019
vn 0.9496 0.0040 -0.3134
vn -0.9695 0.0306 0.2432
vn -0.3311 -0.0049 0.9436
vn 0.8600 0.0406 -0.5087
vn -0.0606 0.0020 0.9982
vn -0.9729 0.0086 -0.2310
vn -0.8680 -0.0008 0.4966
vn 0.9984 -0.0563 0.0112
vn -0.0001 -0.0017 1.0000
vn -0.0074 -0.0009 -1.0000
vn 0.5889 -0.0200 0.8079
vn 0.9980 -0.0027 -0.0626
vn 0.4345 -0.0007 0.9007
vn -0.6351 0.0036 0.7724
vn -0.9971 -0.0049 0.0760
vn 0.0000 0.0000 1.0000
vn -0.3735 -0.0003 0.9276
vn -0.9583 -0.0037 0.2856
vn -0.9995 0.0104 0.0298
vn 0.0712 -0.0018 0.9975
vn 1.0000 0.0010 0.0051
vn -0.0380 0.0005 0.9993
vn -0.9517 0.0003 -0.3071
vn 0.8239 0.0077 0.5667
vn 0.2714 -0.0255 -0.9621
vn -1.0000 -0.0021 0.0003
vn -0.8600 -0.0237 0.5098
vn -0.8423 0.0162 0.5388
vn 0.7869 0.0079 -0.6170
vn -0.9999 -0.0015 0.0125
vn 0.5698 -0.0053 -0.8218
vn -0.9999 0.0027 0.0145
vn 0.9987 0.0134 0.0495
vn -0.0252 -0.0058 -0.9997
vn 0.9383 0.0008 0.3459
vn 1.0000 -0.0018 0.0015
vn -0.0138 0.0078 0.9999
vn 0.7121 -0.0012 -0.7021
vn -0.7876 0.0024 -0.6161
vn 0.9977 -0.0487 0.0476
vn -0.9928 -0.0013 0.1200
vn -0.7234 -0.0008 0.6904
vn 0.2580 -0.0093 0.9661
vn 0.9504 -0.0012 -0.3109
vn -0.3243 0.0059 0.9459
vn -0.0619 -0.0004 0.9981
vn -0.9690 -0.0104 -0.2466
vn -0.8673 0.0046 0.4978
s off
f 11//1 12//1 13//1
f 11//1 13//1 14//1
f 10//1 11//1 25//1
f 25//1 11//1 14//1
f 24//1 25//1 14//1
f 10//1 25//1 26//1
f 24//1 14//1 15//1
f 10//1 26//1 27//1
f 9//1 10//1 27//1
f 9//1 27//1 24//1
f 9//1 24//1 15//1
f 9//1 15//1 16//1
f 9//1 16//1 17//1
f 8//1 9//1 7//1
f 7//1 9//1 18//1
f 18//1 9//1 17//1
f 6//1 7//1 18//1
f 6//1 18//1 19//1
f 5//1 6//1 19//1
f 115//2 54//2 114//2
f 4//1 5//1 19//1
f 4//1 19//1 20//1
f 3//1 4//1 20//1
f 3//1 20//1 21//1
f 2//1 3//1 21//1
f 1//1 2//1 21//1
f 1//1 21//1 23//1
f 23//1 21//1 22//1
f 44//1 45//1 46//1
f 43//1 44//1 46//1
f 43//1 46//1 47//1
f 42//1 43//1 47//1
f 37//1 42//1 47//1
f 36//1 37//1 47//1
f 36//1 47//1 48//1
f 42//1 37//1 38//1
f 35//1 36//1 48//1
f 42//1 38//1 39//1
f 35//1 48//1 49//1
f 34//1 35//1 49//1
f 41//1 42//1 39//1
f 41//1 39//1 40//1
f 34//1 49//1 50//1
f 33//1 34//1 50//1
f 33//1 50//1 51//1
f 32//1 33//1 51//1
f 31//1 32//1 51//1
f 31//1 51//1 52//1
f 30//1 31//1 52//1
f 30//1 52//1 53//1
f 29//1 30//1 53//1
f 29//1 53//1 54//1
f 28//1 29//1 54//1
f 28//1 54//1 55//1
f 28//1 55//1 56//1
f 28//1 56//1 57//1
f 60//1 28//1 57//1
f 60//1 57//1 59//1
f 59//1 57//1 58//1
f 71//3 73//3 72//3
f 70//3 73//3 71//3
f 70//3 74//3 73//3
f 69//3 86//3 70//3
f 86//4 74//4 70//4
f 69//3 87//3 86//3
f 85//3 74//3 86//3
f 85//3 75//3 74//3
f 69//3 88//3 87//3
f 68//3 88//3 69//3
f 68//3 85//3 88//3
f 68//3 75//3 85//3
f 68//3 76//3 75//3
f 68//3 77//3 76//3
f 67//3 66//3 68//3
f 66//3 78//3 68//3
f 78//3 77//3 68//3
f 65//3 78//3 66//3
f 65//3 79//3 78//3
f 65//3 80//3 79//3
f 64//3 80//3 65//3
f 64//3 81//3 80//3
f 63//3 81//3 64//3
f 63//3 82//3 81//3
f 62//3 82//3 63//3
f 61//3 82//3 62//3
f 61//3 84//3 82//3
f 84//3 83//3 82//3
f 105//3 107//3 106//3
f 104//3 107//3 105//3
f 104//3 108//3 107//3
f 103//3 108//3 104//3
f 97//3 108//3 103//3
f 103//3 98//3 97//3
f 97//3 109//3 108//3
f 103//3 99//3 98//3
f 96//3 109//3 97//3
f 103//3 100//3 99//3
f 96//3 110//3 109//3
f 95//3 110//3 96//3
f 102//3 100//3 103//3
f 102//3 101//3 100//3
f 94//3 110//3 95//3
f 94//3 111//3 110//3
f 93//3 111//3 94//3
f 92//3 111//3 93//3
f 92//3 112//3 111//3
f 91//3 112//3 92//3
f 91//3 113//3 112//3
f 90//3 113//3 91//3
f 90//3 114//3 113//3
f 89//3 114//3 90//3
f 89//3 115//3 114//3
f 89//3 116//3 115//3
f 89//3 117//3 116//3
f 120//3 117//3 89//3
f 120//3 119//3 117//3
f 119//3 118//3 117//3
f 15//5 76//5 16//5
f 50//6 111//6 51//6
f 3//7 63//7 4//7
f 36//8 97//8 37//8
f 51//9 112//9 52//9
f 13//10 73//10 14//10
f 7//11 66//11 8//11
f 23//12 61//12 1//12
f 35//13 96//13 36//13
f 17//14 78//14 18//14
f 59//15 120//15 60//15
f 25//16 87//16 26//16
f 29//17 90//17 30//17
f 58//18 119//18 59//18
f 5//19 65//19 6//19
f 14//20 75//20 15//20
f 49//21 110//21 50//21
f 4//22 64//22 5//22
f 26//23 88//23 27//23
f 46//24 107//24 47//24
f 41//25 101//25 102//25
f 20//26 80//26 81//26
f 117//27 56//27 116//27
f 73//28 12//28 72//28
f 4//29 63//29 64//29
f 47//30 107//30 108//30
f 15//31 75//31 76//31
f 104//32 42//32 103//32
f 94//33 32//33 93//33
f 85//34 27//34 88//34
f 12//35 71//35 72//35
f 93//36 31//36 92//36
f 89//37 60//37 120//37
f 51//38 111//38 112//38
f 37//39 97//39 98//39
f 82//40 20//40 81//40
f 17//41 76//41 77//41
f 3//42 62//42 63//42
f 68//43 8//43 67//43
f 48//44 108//44 109//44
f 38//45 98//45 99//45
f 8//46 66//46 67//46
f 2//47 61//47 62//47
f 31//48 91//48 92//48
f 11//49 70//49 71//49
f 70//50 10//50 69//50
f 14//51 73//51 74//51
f 36//52 96//52 97//52
f 113//53 52//53 112//53
f 86//54 24//54 85//54
f 25//55 86//55 87//55
f 100//56 38//56 99//56
f 23//57 84//57 61//57
f 14//58 74//58 75//58
f 66//59 6//59 65//59
f 17//60 77//60 78//60
f 30//61 90//61 91//61
f 59//62 119//62 120//62
f 118//63 57//63 117//63
f 84//64 22//64 83//64
f 110//65 48//65 109//65
f 22//66 82//66 83//66
f 106//67 44//67 105//67
f 114//68 53//68 113//68
f 96//69 34//69 95//69
f 79//70 18//70 78//70
f 103//71 41//71 102//71
f 58//72 118//72 119//72
f 29//73 89//73 90//73
f 46//74 106//74 107//74
f 19//75 79//75 80//75
f 101//76 39//76 100//76
f 5//77 64//77 65//77
f 105//78 43//78 104//78
f 26//79 87//79 88//79
f 116//80 55//80 115//80
f 95//81 33//81 94//81
f 69//82 9//82 68//82
f 50//83 110//83 111//83
f 115//84 55//84 54//84
f 41//85 40//85 101//85
f 20//86 19//86 80//86
f 117//87 57//87 56//87
f 73//88 13//88 12//88
f 104//89 43//89 42//89
f 94//90 33//90 32//90
f 85//91 24//91 27//91
f 12//92 11//92 71//92
f 93//93 32//93 31//93
f 89//94 28//94 60//94
f 82//95 21//95 20//95
f 17//96 16//96 76//96
f 3//97 2//97 62//97
f 68//98 9//98 8//98
f 48//99 47//99 108//99
f 38//100 37//100 98//100
f 2//101 1//101 61//101
f 31//102 30//102 91//102
f 70//103 11//103 10//103
f 113//104 53//104 52//104
f 86//105 25//105 24//105
f 100//106 39//106 38//106
f 66//107 7//107 6//107
f 118//108 58//108 57//108
f 84//109 23//109 22//109
f 110//110 49//110 48//110
f 22//111 21//111 82//111
f 106//112 45//112 44//112
f 114//113 54//113 53//113
f 96//114 35//114 34//114
f 79//115 19//115 18//115
f 103//116 42//116 41//116
f 29//117 28//117 89//117
f 46//118 45//118 106//118
f 101//119 40//119 39//119
f 105//120 44//120 43//120
f 116//121 56//121 55//121
f 95//122 34//122 33//122
f 69//123 10//123 9//123
