# Blender v2.92.0 OBJ File: 'tumour.blend'
# www.blender.org
v 3.695516 -1.530736 0.000000
v 1.530737 3.695517 0.000000
v -3.695519 1.530733 0.000000
v -1.530732 -3.695519 0.000000
v -0.780360 -3.923139 0.000000
v -0.000000 -3.999999 0.000000
v 0.780356 -3.923143 0.000000
v 1.530728 -3.695519 0.000000
v 2.222276 -3.325879 0.000000
v 2.828424 -2.828432 0.000000
v 3.325876 -2.222284 0.000000
v 3.923141 -0.780364 0.000000
v 4.000000 -0.000004 0.000000
v 3.923141 0.780356 0.000000
v 3.695521 1.530732 0.000000
v 3.325881 2.222281 0.000000
v 2.828429 2.828424 0.000000
v 2.222285 3.325877 0.000000
v 0.780365 3.923141 0.000000
v 0.000001 4.000001 0.000000
v -0.780359 3.923141 0.000000
v -1.530731 3.695521 0.000000
v -2.222279 3.325881 0.000000
v -2.828427 2.828429 0.000000
v -3.325879 2.222281 0.000000
v -3.923140 0.780361 0.000000
v -4.000000 0.000002 0.000000
v -3.923140 -0.780358 0.000000
v -3.695520 -1.530731 0.000000
v -3.325880 -2.222279 0.000000
v -2.828428 -2.828427 0.000000
v -2.222280 -3.325879 0.000000
vn 0.0000 0.0000 1.0000
s 1
f 1//1 2//1 3//1
f 4//1 5//1 6//1
f 6//1 7//1 4//1
f 7//1 8//1 4//1
f 8//1 9//1 10//1
f 10//1 11//1 1//1
f 1//1 12//1 13//1
f 13//1 14//1 1//1
f 14//1 15//1 1//1
f 15//1 16//1 2//1
f 16//1 17//1 2//1
f 17//1 18//1 2//1
f 2//1 19//1 20//1
f 20//1 21//1 22//1
f 22//1 23//1 24//1
f 24//1 25//1 3//1
f 3//1 26//1 27//1
f 27//1 28//1 3//1
f 28//1 29//1 3//1
f 29//1 30//1 31//1
f 31//1 32//1 4//1
f 8//1 10//1 4//1
f 10//1 1//1 4//1
f 2//1 20//1 3//1
f 20//1 22//1 3//1
f 22//1 24//1 3//1
f 29//1 31//1 3//1
f 31//1 4//1 3//1
f 1//1 15//1 2//1
f 4//1 1//1 3//1
