# Blender v2.92.0 OBJ File: 'tumour.blend'
# www.blender.org
v 0.000000 0.000001 0.000000
v 0.000000 4.000001 0.000000
v -0.780361 3.923142 0.000000
v -1.530734 3.695519 0.000000
v -2.222281 3.325879 0.000000
v -2.828427 2.828428 0.000000
v -3.325878 2.222282 0.000000
v -3.695518 1.530735 0.000000
v -3.923141 0.780362 0.000000
v -4.000000 0.000001 0.000000
v -3.923141 -0.780360 0.000000
v -3.695518 -1.530732 0.000000
v -3.325878 -2.222280 0.000000
v -2.828427 -2.828426 0.000000
v -2.222280 -3.325878 0.000000
v -1.530733 -3.695518 0.000000
v -0.780360 -3.923140 0.000000
v 0.000002 -3.999999 0.000000
v 0.780363 -3.923140 0.000000
v 1.530736 -3.695516 0.000000
v 2.222283 -3.325876 0.000000
v 2.828429 -2.828424 0.000000
v 3.325881 -2.222278 0.000000
v 3.695520 -1.530730 0.000000
v 3.923142 -0.780357 0.000000
v 4.000000 0.000005 0.000000
v 3.923141 0.780366 0.000000
v 3.695517 1.530739 0.000000
v 3.325876 2.222286 0.000000
v 2.828424 2.828432 0.000000
v 2.222277 3.325882 0.000000
v 1.530729 3.695521 0.000000
v 0.780356 3.923143 0.000000
vn 0.0000 0.0000 1.0000
s off
f 1//1 2//1 3//1
f 1//1 3//1 4//1
f 1//1 4//1 5//1
f 1//1 5//1 6//1
f 1//1 6//1 7//1
f 1//1 7//1 8//1
f 1//1 8//1 9//1
f 1//1 9//1 10//1
f 1//1 10//1 11//1
f 1//1 11//1 12//1
f 1//1 12//1 13//1
f 1//1 13//1 14//1
f 1//1 14//1 15//1
f 1//1 15//1 16//1
f 1//1 16//1 17//1
f 1//1 17//1 18//1
f 1//1 18//1 19//1
f 1//1 19//1 20//1
f 1//1 20//1 21//1
f 1//1 21//1 22//1
f 1//1 22//1 23//1
f 1//1 23//1 24//1
f 1//1 24//1 25//1
f 1//1 25//1 26//1
f 1//1 26//1 27//1
f 1//1 27//1 28//1
f 1//1 28//1 29//1
f 1//1 29//1 30//1
f 1//1 30//1 31//1
f 1//1 31//1 32//1
f 1//1 32//1 33//1
f 1//1 33//1 2//1
