# Blender v2.92.0 OBJ File: 'tumour.blend'
# www.blender.org
v -0.000000 -3.999999 -1.910000
v -0.780360 -3.923139 -4.000000
v -0.000000 -3.999999 -4.000000
v -0.780360 -3.923139 -1.910000
v -1.530732 -3.695519 -4.000000
v -1.530732 -3.695519 -1.910000
v -2.222280 -3.325879 -4.000000
v -2.222280 -3.325879 -1.910000
v -2.828428 -2.828427 -4.000000
v -2.828428 -2.828427 -1.910000
v -3.325880 -2.222279 -4.000000
v -3.325880 -2.222279 -1.910000
v -3.695520 -1.530731 -4.000000
v -3.695520 -1.530731 -1.910000
v -3.923140 -0.780358 -4.000000
v -3.923140 -0.780358 -1.910000
v -4.000000 0.000002 -4.000000
v -4.000000 0.000002 -1.910000
v -3.923140 0.780361 -4.000000
v -3.923140 0.780361 -1.910000
v -3.695519 1.530733 -4.000000
v -3.695519 1.530733 -1.910000
v -3.325879 2.222281 -4.000000
v -3.325879 2.222281 -1.910000
v -2.828427 2.828429 -4.000000
v -2.828427 2.828429 -1.910000
v -2.222279 3.325881 -4.000000
v -2.222279 3.325881 -1.910000
v -1.530731 3.695521 -4.000000
v -1.530731 3.695521 -1.910000
v -0.780359 3.923141 -4.000000
v -0.780359 3.923141 -1.910000
v 0.000001 4.000001 -4.000000
v 0.000001 4.000001 -1.910000
v 0.780365 3.923141 -4.000000
v 0.780365 3.923141 -1.910000
v 1.530737 3.695517 -4.000000
v 1.530737 3.695517 -1.910000
v 2.222285 3.325877 -4.000000
v 2.222285 3.325877 -1.910000
v 2.828429 2.828424 -4.000000
v 2.828429 2.828424 -1.910000
v 3.325881 2.222281 -4.000000
v 3.325881 2.222281 -1.910000
v 3.695521 1.530732 -4.000000
v 3.695521 1.530732 -1.910000
v 3.923141 0.780356 -4.000000
v 3.923141 0.780356 -1.910000
v 4.000000 -0.000004 -4.000000
v 4.000000 -0.000004 -1.910000
v 3.923141 -0.780364 -4.000000
v 3.923141 -0.780364 -1.910000
v 3.695516 -1.530736 -4.000000
v 3.695516 -1.530736 -1.910000
v 3.325876 -2.222284 -4.000000
v 3.325876 -2.222284 -1.910000
v 2.828424 -2.828432 -4.000000
v 2.828424 -2.828432 -1.910000
v 2.222276 -3.325879 -4.000000
v 2.222276 -3.325879 -1.910000
v 1.530728 -3.695519 -4.000000
v 1.530728 -3.695519 -1.910000
v 0.780356 -3.923143 -4.000000
v 0.780356 -3.923143 -1.910000
vn -0.0980 -0.9952 0.0000
vn -0.2903 -0.9569 0.0000
vn -0.4714 -0.8819 0.0000
vn -0.6344 -0.7730 0.0000
vn -0.7730 -0.6344 0.0000
vn -0.8819 -0.4714 0.0000
vn -0.9569 -0.2903 0.0000
vn -0.9952 -0.0980 0.0000
vn -0.9952 0.0980 0.0000
vn -0.9569 0.2903 0.0000
vn -0.8819 0.4714 0.0000
vn -0.7730 0.6344 0.0000
vn -0.6344 0.7730 0.0000
vn -0.4714 0.8819 0.0000
vn -0.2903 0.9569 0.0000
vn -0.0980 0.9952 0.0000
vn 0.0980 0.9952 0.0000
vn 0.2903 0.9569 0.0000
vn 0.4714 0.8819 0.0000
vn 0.6344 0.7730 0.0000
vn 0.7730 0.6344 0.0000
vn 0.8819 0.4714 0.0000
vn 0.9569 0.2903 0.0000
vn 0.9952 0.0980 0.0000
vn 0.9952 -0.0980 0.0000
vn 0.9569 -0.2903 0.0000
vn 0.8819 -0.4714 0.0000
vn 0.7730 -0.6344 0.0000
vn 0.6344 -0.7730 0.0000
vn 0.4714 -0.8819 0.0000
vn 0.2903 -0.9569 0.0000
vn 0.0980 -0.9952 0.0000
vn -0.0000 0.0000 -1.0000
s 1
f 1//1 2//1 3//1
f 4//2 5//2 2//2
f 6//3 7//3 5//3
f 8//4 9//4 7//4
f 10//5 11//5 9//5
f 12//6 13//6 11//6
f 14//7 15//7 13//7
f 16//8 17//8 15//8
f 18//9 19//9 17//9
f 20//10 21//10 19//10
f 22//11 23//11 21//11
f 24//12 25//12 23//12
f 26//13 27//13 25//13
f 28//14 29//14 27//14
f 30//15 31//15 29//15
f 32//16 33//16 31//16
f 34//17 35//17 33//17
f 36//18 37//18 35//18
f 38//19 39//19 37//19
f 40//20 41//20 39//20
f 42//21 43//21 41//21
f 44//22 45//22 43//22
f 46//23 47//23 45//23
f 48//24 49//24 47//24
f 50//25 51//25 49//25
f 52//26 53//26 51//26
f 54//27 55//27 53//27
f 56//28 57//28 55//28
f 58//29 59//29 57//29
f 60//30 61//30 59//30
f 62//31 63//31 61//31
f 64//32 3//32 63//32
f 15//33 31//33 47//33
f 1//1 4//1 2//1
f 4//2 6//2 5//2
f 6//3 8//3 7//3
f 8//4 10//4 9//4
f 10//5 12//5 11//5
f 12//6 14//6 13//6
f 14//7 16//7 15//7
f 16//8 18//8 17//8
f 18//9 20//9 19//9
f 20//10 22//10 21//10
f 22//11 24//11 23//11
f 24//12 26//12 25//12
f 26//13 28//13 27//13
f 28//14 30//14 29//14
f 30//15 32//15 31//15
f 32//16 34//16 33//16
f 34//17 36//17 35//17
f 36//18 38//18 37//18
f 38//19 40//19 39//19
f 40//20 42//20 41//20
f 42//21 44//21 43//21
f 44//22 46//22 45//22
f 46//23 48//23 47//23
f 48//24 50//24 49//24
f 50//25 52//25 51//25
f 52//26 54//26 53//26
f 54//27 56//27 55//27
f 56//28 58//28 57//28
f 58//29 60//29 59//29
f 60//30 62//30 61//30
f 62//31 64//31 63//31
f 64//32 1//32 3//32
f 63//33 3//33 2//33
f 2//33 5//33 7//33
f 7//33 9//33 11//33
f 11//33 13//33 7//33
f 13//33 15//33 7//33
f 15//33 17//33 19//33
f 19//33 21//33 15//33
f 21//33 23//33 15//33
f 23//33 25//33 31//33
f 25//33 27//33 31//33
f 27//33 29//33 31//33
f 31//33 33//33 35//33
f 35//33 37//33 39//33
f 39//33 41//33 43//33
f 43//33 45//33 47//33
f 47//33 49//33 51//33
f 51//33 53//33 55//33
f 55//33 57//33 63//33
f 57//33 59//33 63//33
f 59//33 61//33 63//33
f 63//33 2//33 7//33
f 31//33 35//33 47//33
f 35//33 39//33 47//33
f 39//33 43//33 47//33
f 47//33 51//33 63//33
f 51//33 55//33 63//33
f 63//33 7//33 15//33
f 15//33 23//33 31//33
f 63//33 15//33 47//33
