# Blender v2.90.1 OBJ File: 'hoth.blend'
# www.blender.org
v -6.592373 10.992462 -2.244989
v -1.830182 10.387282 -2.244989
v -2.435362 5.625092 -2.244989
v -7.197553 6.230271 -2.244989
v -4.513867 8.308777 4.543929
v -13.123159 16.192232 -1.090250
v -5.107262 15.173572 -1.090250
v -6.125923 7.157675 -1.090250
v -14.141821 8.176335 -1.090250
v -9.624541 11.674953 10.337109
v -5.463250 17.412020 -2.284944
v 1.178240 16.568018 -2.284944
v 0.334239 9.926529 -2.284944
v -6.307251 10.770530 -2.284944
v -2.564505 13.669274 7.183078
v -14.032813 10.015477 -1.745622
v -7.533021 9.189483 -1.745622
v -8.359015 2.689692 -1.745622
v -14.858806 3.515686 -1.745622
v -11.195914 6.352584 7.520395
v -15.973501 6.337268 -2.200436
v -10.866197 5.688232 -2.200436
v -11.515233 0.580927 -2.200436
v -16.622538 1.229964 -2.200436
v -13.744367 3.459098 5.080472
vn 0.1189 0.9353 0.3333
vn 0.9353 -0.1189 0.3333
vn 0.0000 0.0000 -1.0000
vn -0.1189 -0.9353 0.3333
vn -0.9353 0.1189 0.3333
s off
f 1//1 5//1 2//1
f 2//2 5//2 3//2
f 2//3 4//3 1//3
f 3//4 5//4 4//4
f 4//5 5//5 1//5
f 6//1 10//1 7//1
f 7//2 10//2 8//2
f 7//3 9//3 6//3
f 8//4 10//4 9//4
f 9//5 10//5 6//5
f 11//1 15//1 12//1
f 12//2 15//2 13//2
f 12//3 14//3 11//3
f 13//4 15//4 14//4
f 14//5 15//5 11//5
f 16//1 20//1 17//1
f 17//2 20//2 18//2
f 17//3 19//3 16//3
f 18//4 20//4 19//4
f 19//5 20//5 16//5
f 21//1 25//1 22//1
f 22//2 25//2 23//2
f 22//3 24//3 21//3
f 23//4 25//4 24//4
f 24//5 25//5 21//5
f 2//3 3//3 4//3
f 7//3 8//3 9//3
f 12//3 13//3 14//3
f 17//3 18//3 19//3
f 22//3 23//3 24//3
