# Blender v2.80 (sub 75) OBJ File: 'naboo.blend'
# www.blender.org
v -84.943123 77.675262 44.412052
v -78.196968 63.641739 25.361713
v -60.516678 77.862610 41.465126
v -104.860435 58.774559 82.970192
v -99.254845 73.342499 63.950954
v -85.238144 72.748550 87.978554
v -73.531128 83.858025 65.314445
v -91.165993 48.777740 100.800018
v -55.272781 0.478535 80.009010
v -62.019032 14.512012 99.059341
v -38.077785 17.305607 85.162094
v -47.428612 38.115841 101.087524
v -41.500896 62.086349 88.266083
v -30.450191 40.635521 83.459709
v -28.486538 56.091019 64.416924
v -31.369770 43.597000 39.724659
v -35.355453 19.379225 41.450878
v -26.370766 28.415171 62.498375
v -89.050362 21.101425 98.881607
v -71.181496 35.883209 107.103149
v -65.442116 59.293182 102.163315
v -61.096493 76.664581 85.289833
v -51.165642 57.052326 25.539463
v -38.954979 66.464691 44.714947
v -49.049923 29.376133 23.621025
v -54.977745 5.405243 36.442520
v -66.684853 -5.704163 59.106659
v -40.961121 4.811333 60.470047
v -93.715919 0.885426 58.928516
v -101.260918 11.689087 79.706116
v -79.699219 0.291176 82.955933
v -111.729378 22.062668 60.004105
v -108.846237 34.556751 84.696404
v -113.845131 49.738625 61.922691
v -102.138184 60.848225 39.258896
v -92.787338 40.037926 23.333485
v -74.773849 18.860649 22.257679
v -69.034470 42.270622 17.317852
v -98.715111 16.067398 36.154972
v -79.119507 1.489162 39.131226
v -48.319283 31.911514 47.944473
v -44.841351 44.683861 54.479179
v -54.260208 43.357887 40.759838
v -48.910660 55.781559 63.323334
v -60.875881 64.424545 63.579269
v -54.607742 57.388443 49.799255
v -59.965832 27.692341 39.913887
v -64.934944 53.525620 39.982552
v -70.294708 63.098495 49.859943
v -79.642120 52.597080 40.858360
v -95.489853 48.316074 62.309006
v -95.374542 33.469925 69.941895
v -95.142212 34.285717 53.269505
v -91.305321 22.372295 61.097771
v -85.232422 22.085361 47.645195
v -74.641945 26.873756 38.543335
v -85.347824 36.931591 40.012444
v -91.501511 47.630104 48.111950
v -85.910187 59.633163 54.638210
v -85.608200 20.765312 74.621750
v -69.545517 16.375025 47.584492
v -69.732307 40.396824 35.234097
v -80.250137 50.461494 84.507103
v -91.896645 46.242348 76.476570
v -86.142525 58.817558 71.310623
v -79.340034 13.729147 60.841755
v -69.921188 15.055298 74.561119
v -54.073441 19.336277 53.110374
v -54.983521 56.068405 76.775818
v -65.574005 51.280018 85.877785
v -70.670418 61.778740 76.836525
v -85.955765 34.795944 83.661156
v -70.483582 37.756962 89.186974
v -75.281082 24.628212 84.438499
v -45.073685 43.868076 71.151566
v -60.573807 25.556791 83.562691
v -54.868126 41.222191 84.408669
v -48.714382 30.523680 76.309120
v -65.637520 13.856953 43.851627
v -74.685936 8.271347 57.399681
v -55.488384 11.547935 57.573444
v -82.367188 11.887249 72.384834
v -92.135086 16.761391 59.063599
v -93.555084 24.127581 77.037163
v -70.670235 44.019577 31.092472
v -54.197136 40.949924 35.073524
v -63.232597 57.963860 37.939327
v -69.545738 34.134098 93.328598
v -86.018890 37.203899 89.347519
v -72.405167 50.995628 91.292244
v -44.892246 49.852859 77.738724
v -54.956081 42.505592 89.628479
v -57.914330 60.234787 82.128868
v -90.509933 60.692192 51.740562
v -74.894119 67.763657 50.076118
v -84.727600 66.605911 66.847649
v -98.341232 52.814278 64.902817
v -65.529930 69.882370 67.021408
v -74.578430 64.296837 80.569489
v -48.080833 61.392475 65.357460
v -88.976944 54.933067 81.847870
v -96.921539 45.448093 46.929039
v -82.430466 54.687271 37.765697
v -76.983292 20.189934 86.481735
v -46.660812 54.026203 47.383900
v -57.848755 66.266518 52.036179
v -39.045269 44.378616 62.491432
v -41.874687 25.339579 59.518238
v -43.294399 32.705662 77.491974
v -49.705967 17.461601 72.680504
v -101.170654 33.775246 61.929623
v -97.739220 40.833023 77.260735
v -95.323654 28.300827 46.682297
v -67.810776 27.158138 33.128769
v -51.239082 23.220745 42.573181
v -42.476723 37.320732 47.160271
v -82.301567 17.919003 42.292198
v -65.321777 10.390137 74.344955
v -87.444229 14.369286 42.561840
v -76.205551 24.399258 29.892231
v -95.653152 31.650394 37.933483
v -36.285728 46.622189 52.401962
v -34.872665 36.415627 69.173080
v -40.037601 58.034813 67.994400
v -63.145576 38.813347 26.875919
v -46.135384 43.357010 35.676041
v -62.786087 57.734936 32.288109
v -100.178398 20.118940 56.426666
v -43.984329 27.004137 83.864380
v -58.845177 32.135544 95.707581
v -44.562813 46.503441 86.487511
v -77.070374 39.340431 97.545197
v -94.080566 34.796776 88.745071
v -85.786873 55.399216 90.225525
v -96.231575 51.149651 40.556686
v -82.233742 64.985855 40.329617
v -97.049469 62.340420 56.728703
v -78.465042 74.056976 60.303436
v -89.819962 66.582413 74.538078
v -71.504463 69.766983 81.005608
v -56.688538 72.412521 64.606644
v -52.771740 63.784546 81.859154
v -64.010391 53.754509 94.528778
v -101.574524 50.809273 75.221802
v -81.370743 46.018173 28.713558
v -77.429855 20.418827 92.132896
v -105.343201 41.738087 55.248009
v -103.930191 31.531517 72.019173
v -46.998299 62.324810 47.292095
v -64.613731 71.083252 46.638348
v -57.982231 13.167822 84.091461
v -75.602211 7.070526 77.782661
v -61.750908 4.096798 64.117569
v -68.711433 8.386806 43.415459
v -50.395927 11.571373 49.882980
v -54.429070 22.754549 34.195480
v -40.550400 52.362312 86.530655
v -58.535431 50.516415 99.316238
v -54.199463 69.559036 83.643600
v -79.977028 45.253609 101.018661
v -91.541817 27.499180 94.585968
v -97.773315 51.155041 89.235916
v -32.910236 24.705160 55.040562
v -32.610676 45.837711 48.431454
v -42.442688 26.998722 35.185135
v -99.665504 25.791378 37.890369
v -81.680527 27.637365 25.104885
v -96.098541 46.870850 32.121193
v -107.305656 53.448624 69.380508
v -109.345688 39.715340 52.129921
v -100.589287 63.127232 50.630505
v -93.437134 70.197449 73.563110
v -72.924278 51.049194 23.605396
v -84.768387 65.622055 35.339516
v -63.092262 69.888069 36.851562
v -80.190109 77.352798 53.554230
v -55.940002 76.958305 59.784069
v -72.600342 77.650543 74.354675
v -107.605331 32.316040 75.989609
v -103.114662 16.059429 57.480156
v -86.016434 8.594746 40.777477
v -77.373779 65.380692 92.159439
v -67.291664 27.104570 100.815613
v -60.025818 0.801071 70.866821
v -67.615616 0.503239 50.066441
v -84.275887 1.195480 64.637001
vn -0.0796 0.7889 -0.6093
vn -0.5999 0.7107 0.3675
vn -0.0392 0.9638 -0.2637
vn -0.5299 0.4981 0.6863
vn 0.4397 -0.6417 0.6284
vn 0.6912 0.2005 0.6943
vn 0.8550 0.3560 0.3771
vn 0.9304 -0.1760 -0.3216
vn -0.1006 -0.3880 0.9162
vn -0.1485 0.2389 0.9596
vn -0.2498 0.5040 0.8268
vn -0.0343 0.7007 0.7126
vn 0.6934 0.3655 -0.6210
vn 0.6241 0.1014 -0.7747
vn 0.7342 -0.1677 -0.6579
vn 0.3781 -0.8934 -0.2426
vn -0.3528 -0.0915 0.9312
vn 0.1620 0.6446 -0.7472
vn -0.4816 -0.8369 0.2603
vn -0.8896 -0.3572 0.2846
vn -0.8474 0.5116 0.1421
vn -0.4397 0.6417 -0.6284
vn -0.7587 -0.6485 0.0617
vn -0.2299 -0.1467 -0.9621
vn -0.4435 -0.3350 -0.8313
vn -0.3441 -0.6085 -0.7151
vn 0.8194 0.0681 -0.5691
vn 0.5771 0.8032 -0.1477
vn 0.6013 -0.1769 -0.7792
vn -0.0864 0.6916 -0.7171
vn -0.9998 -0.0153 -0.0147
vn -0.9457 -0.3237 -0.0290
vn -0.4850 -0.4028 -0.7762
vn -0.5797 0.2530 -0.7746
vn -0.5878 0.5803 -0.5637
vn -0.3372 0.7675 -0.5452
vn -0.8083 -0.5186 0.2789
vn -0.2571 -0.6992 -0.6670
vn 0.3483 -0.0764 -0.9343
vn -0.6040 0.5233 0.6011
vn -0.5771 -0.8032 0.1476
vn -0.3242 -0.8941 0.3090
vn 0.6040 -0.5233 -0.6011
vn 0.8083 0.5186 -0.2789
vn 0.2571 0.6993 0.6670
vn -0.6013 0.1769 0.7792
vn -0.3483 0.0764 0.9343
vn -0.2877 -0.2310 0.9294
vn 0.9457 0.3237 0.0290
vn 0.0783 -0.3642 0.9280
vn 0.3223 -0.1677 0.9317
vn 0.5797 -0.2530 0.7746
vn 0.1640 -0.9458 -0.2804
vn -0.6713 -0.7029 0.2350
vn 0.2766 0.3006 -0.9127
vn -0.2200 0.0801 0.9722
vn 0.5627 0.3999 0.7235
vn -0.4217 0.8875 -0.1860
vn -0.7115 0.7027 -0.0027
vn 0.1674 0.8670 0.4693
vn 0.4393 0.8411 0.3156
vn 0.6477 0.6333 0.4235
vn -0.3014 0.5681 0.7658
vn -0.8622 0.4412 -0.2489
vn -0.3933 0.7402 -0.5454
vn -0.2766 -0.3006 0.9127
vn 0.4840 0.6606 -0.5739
vn 0.5235 0.4043 -0.7500
vn 0.9750 -0.1677 0.1457
vn 0.8622 -0.4412 0.2489
vn -0.9200 -0.2346 0.3139
vn -0.8666 -0.4820 0.1291
vn -0.8809 -0.4374 -0.1808
vn 0.2200 -0.0801 -0.9722
vn 0.4198 -0.2933 -0.8589
vn 0.6761 -0.1885 -0.7122
vn 0.7115 -0.7027 0.0027
vn -0.1674 -0.8670 -0.4693
vn 0.1679 -0.9853 0.0304
vn -0.4774 -0.4317 -0.7653
vn 0.9700 0.2351 0.0613
vn 0.3927 0.2460 -0.8861
vn -0.7367 -0.4780 -0.4783
vn 0.6018 -0.0889 0.7937
vn -0.4831 0.1323 0.8655
vn -0.6262 0.6259 -0.4648
vn -0.5355 0.8444 0.0162
vn -0.4699 0.8337 -0.2900
vn -0.2592 0.9247 0.2788
vn 0.2652 0.8851 0.3824
vn -0.1579 0.3373 0.9281
vn -0.7046 0.2355 0.6694
vn -0.4567 0.4494 -0.7678
vn 0.6055 0.7582 0.2417
vn -0.3927 -0.2460 0.8861
vn -0.9700 -0.2351 -0.0613
vn -0.9001 -0.2350 -0.3668
vn 0.3719 0.7028 -0.6064
vn 0.5390 0.4576 -0.7072
vn 0.7367 0.4780 0.4783
vn 0.9001 0.2350 0.3668
vn 0.8611 -0.0426 0.5067
vn 0.0091 -0.7316 0.6817
vn 0.1787 -0.9081 0.3787
vn 0.3384 -0.7229 -0.6024
vn 0.4691 0.4951 0.7313
vn -0.5404 0.0476 0.8401
vn 0.8843 -0.1508 -0.4420
vn -0.5660 -0.1272 -0.8145
vn -0.9281 0.3370 -0.1585
vn -0.7752 0.6300 0.0475
vn -0.3786 0.3740 -0.8466
vn -0.3556 0.0733 -0.9318
vn -0.0613 0.5953 -0.8012
vn -0.1311 0.8481 -0.5133
vn 0.0978 0.9420 -0.3209
vn 0.0220 0.9995 -0.0223
vn -0.7481 0.5149 0.4186
vn -0.9955 0.0408 0.0853
vn 0.2718 0.9246 0.2669
vn -0.8843 0.1508 0.4419
vn -0.7626 -0.0551 0.6445
vn -0.6751 -0.6064 -0.4201
vn 0.0658 0.8133 0.5781
vn 0.1780 0.6008 0.7793
vn -0.2474 -0.1836 0.9514
vn -0.0220 -0.9995 0.0223
s 1
f 1//1 3//1 2//1
f 4//2 6//2 5//2
f 1//3 7//3 3//3
f 4//4 8//4 6//4
f 9//5 11//5 10//5
f 12//6 14//6 13//6
f 13//7 14//7 15//7
f 16//8 18//8 17//8
f 19//9 10//9 20//9
f 8//10 20//10 21//10
f 8//11 21//11 6//11
f 6//12 21//12 22//12
f 23//13 24//13 16//13
f 23//14 16//14 25//14
f 25//15 16//15 17//15
f 26//16 28//16 27//16
f 19//17 20//17 8//17
f 3//18 23//18 2//18
f 29//19 31//19 30//19
f 32//20 30//20 33//20
f 34//21 4//21 5//21
f 35//22 1//22 2//22
f 29//23 30//23 32//23
f 36//24 38//24 37//24
f 36//25 37//25 39//25
f 39//26 37//26 40//26
f 41//27 43//27 42//27
f 44//28 46//28 45//28
f 41//29 47//29 43//29
f 48//30 50//30 49//30
f 51//31 53//31 52//31
f 52//32 53//32 54//32
f 55//33 57//33 56//33
f 57//34 58//34 50//34
f 50//35 58//35 59//35
f 50//36 59//36 49//36
f 60//37 52//37 54//37
f 61//38 55//38 56//38
f 47//39 62//39 43//39
f 63//40 65//40 64//40
f 60//41 54//41 66//41
f 60//42 66//42 67//42
f 68//43 47//43 41//43
f 42//44 46//44 44//44
f 69//45 71//45 70//45
f 63//46 64//46 72//46
f 63//47 72//47 73//47
f 73//48 72//48 74//48
f 75//49 42//49 44//49
f 73//50 74//50 76//50
f 73//51 76//51 77//51
f 77//52 76//52 78//52
f 79//53 81//53 80//53
f 82//54 84//54 83//54
f 85//55 87//55 86//55
f 88//56 90//56 89//56
f 91//57 93//57 92//57
f 94//58 96//58 95//58
f 97//59 96//59 94//59
f 98//60 99//60 93//60
f 98//61 93//61 100//61
f 100//62 93//62 91//62
f 90//63 99//63 101//63
f 102//64 97//64 94//64
f 103//65 94//65 95//65
f 104//66 88//66 89//66
f 87//67 106//67 105//67
f 87//68 105//68 86//68
f 107//69 109//69 108//69
f 108//70 109//70 110//70
f 84//71 112//71 111//71
f 84//72 111//72 83//72
f 83//73 111//73 113//73
f 114//74 85//74 86//74
f 114//75 86//75 115//75
f 115//76 86//76 116//76
f 81//77 108//77 110//77
f 80//78 117//78 79//78
f 81//79 118//79 80//79
f 119//80 121//80 120//80
f 122//81 124//81 123//81
f 125//82 127//82 126//82
f 119//83 128//83 121//83
f 129//84 131//84 130//84
f 132//85 134//85 133//85
f 135//86 137//86 136//86
f 137//87 139//87 138//87
f 137//88 138//88 136//88
f 138//89 139//89 140//89
f 141//90 140//90 142//90
f 143//91 134//91 132//91
f 134//92 144//92 133//92
f 145//93 135//93 136//93
f 124//94 141//94 142//94
f 146//95 132//95 133//95
f 128//96 148//96 147//96
f 128//97 147//97 121//97
f 127//98 150//98 149//98
f 127//99 149//99 126//99
f 124//100 142//100 131//100
f 124//101 131//101 123//101
f 123//102 131//102 129//102
f 151//103 146//103 152//103
f 153//104 151//104 152//104
f 154//105 156//105 155//105
f 157//106 159//106 158//106
f 160//107 162//107 161//107
f 163//108 165//108 164//108
f 166//109 168//109 167//109
f 169//110 171//110 170//110
f 172//111 171//111 169//111
f 168//112 174//112 173//112
f 168//113 173//113 167//113
f 173//114 174//114 175//114
f 175//115 174//115 176//115
f 175//116 176//116 177//116
f 177//117 176//117 178//117
f 162//118 172//118 169//118
f 179//119 169//119 170//119
f 159//120 177//120 178//120
f 162//121 169//121 179//121
f 162//122 179//122 161//122
f 180//123 166//123 181//123
f 159//124 178//124 182//124
f 159//125 182//125 158//125
f 183//126 160//126 161//126
f 184//127 186//127 185//127
