# Blender v2.80 (sub 75) OBJ File: 'field.blend'
# www.blender.org
v 1.975831 -22.495152 2.915993
v 4.628958 -21.645981 3.005975
v -2.983650 -21.649673 2.960352
v 9.767258 -22.431404 3.276339
v 8.126861 -21.152161 3.179147
v 6.002295 -22.480244 3.020111
v 7.814525 -19.988810 3.007895
v 2.395563 -20.855629 2.965075
v 2.507691 -18.508902 2.446107
v 7.550323 -17.702593 2.233860
v 2.140410 -17.745510 2.117238
v 1.593176 -16.976448 1.702096
v 6.758652 -16.234318 1.248999
v 1.430112 -16.261332 1.173008
v 6.914083 -15.521086 0.689056
v 1.538486 -15.552790 0.524091
v 7.194490 -14.697029 -0.161456
v 2.222289 -13.805931 -1.260757
v 2.217753 -10.554421 -4.404056
v 4.994102 -8.865466 -5.215158
v -0.087285 -8.506723 -5.561563
v 4.362520 -7.255043 -5.997204
v -1.247159 -7.291928 -6.136809
v -3.230822 -5.768472 -6.630551
v -2.466858 -4.107492 -6.966464
v -6.090592 -4.158272 -6.892635
v -7.576007 -1.150666 -7.370589
v -9.767425 -1.737190 -7.129399
v -10.755067 1.076027 -7.705678
v -4.352265 1.061358 -7.770138
v 2.820266 -19.282682 2.680523
v 7.783248 -18.812614 2.724639
v 2.938003 -20.060318 2.851915
v 7.052373 -16.966194 1.837063
v 8.022092 -13.334294 -1.747135
v 2.605738 -12.946374 -2.504224
v 8.312726 -12.721693 -2.413517
v 2.889749 -12.123897 -3.311270
v 8.376338 -12.050774 -3.037026
v 8.119497 -11.342110 -3.594902
v 7.431334 -10.378066 -4.245525
v 2.836116 -11.419394 -3.854431
v 4.763300 -5.679893 -6.484338
v 5.446459 -4.088353 -6.808002
v 13.507904 1.112044 -7.425706
v -12.836582 -0.776097 -7.119421
v -17.216688 1.123131 -7.464553
vn -0.0059 -0.0870 0.9962
vn -0.0678 -0.0111 0.9976
vn -0.0299 0.1377 0.9900
vn -0.0229 0.3862 0.9221
vn -0.0145 0.5926 0.8054
vn -0.0277 0.6210 0.7833
vn -0.0251 0.7198 0.6938
vn -0.0235 0.7219 0.6916
vn -0.0240 0.7212 0.6923
vn -0.0271 0.4686 0.8830
vn -0.0254 0.4079 0.9127
vn 0.0173 0.1905 0.9815
vn 0.0178 0.1655 0.9861
vn 0.0175 0.1651 0.9861
vn 0.0169 0.1631 0.9865
vn 0.0492 0.2170 0.9749
vn 0.0108 0.1625 0.9867
vn 0.0103 0.1632 0.9865
vn -0.0257 -0.0255 0.9993
vn -0.0420 -0.0523 0.9977
vn -0.0407 -0.0612 0.9973
vn -0.0417 -0.0546 0.9976
vn -0.0307 0.2332 0.9719
vn -0.0060 0.0347 0.9994
vn -0.0405 -0.0628 0.9972
vn -0.0339 0.1634 0.9860
vn -0.0348 0.2769 0.9603
vn -0.0254 0.3998 0.9163
vn -0.0228 0.4623 0.8865
vn -0.0205 0.6212 0.7834
vn -0.0139 0.6765 0.7363
vn -0.0255 0.7193 0.6942
vn -0.0074 0.7603 0.6496
vn -0.0399 0.7442 0.6668
vn -0.0456 0.6824 0.7296
vn -0.0477 0.6071 0.7932
vn -0.0493 0.5343 0.8438
vn -0.0430 0.4891 0.8712
vn -0.0315 0.4266 0.9039
vn -0.0257 0.3013 0.9532
vn -0.0202 0.2071 0.9781
vn -0.0201 0.2075 0.9780
vn -0.0195 0.1477 0.9888
vn 0.0585 0.1848 0.9810
vn 0.0736 0.2249 0.9716
vn 0.0379 0.2626 0.9642
vn -0.0343 0.2101 0.9771
vn -0.0228 0.4623 0.8864
vn -0.0198 0.8253 0.5644
vn -0.0390 0.7067 0.7065
vn -0.0478 0.6076 0.7928
vn -0.0434 0.5135 0.8570
vn -0.0207 0.2838 0.9587
vn -0.0202 0.1464 0.9890
s 1
f 1//1 2//1 3//1
f 4//2 5//2 6//2
f 5//3 7//3 8//3
f 9//4 10//4 11//4
f 12//5 13//5 14//5
f 13//6 15//6 16//6
f 15//7 17//8 18//9
f 19//10 20//10 21//10
f 21//11 22//11 23//11
f 24//12 25//12 26//12
f 26//13 25//14 27//15
f 28//16 27//16 29//16
f 27//15 30//17 29//18
f 1//19 6//19 2//19
f 6//20 5//21 2//22
f 31//23 7//23 32//23
f 3//24 2//24 8//24
f 2//22 5//21 8//25
f 8//26 7//26 33//26
f 31//27 32//27 9//27
f 9//28 32//28 10//28
f 34//29 11//29 10//29
f 12//30 34//30 13//30
f 14//31 13//31 16//31
f 16//32 15//7 18//9
f 35//33 18//33 17//33
f 36//34 35//34 37//34
f 38//35 37//35 39//35
f 40//36 38//36 39//36
f 41//37 42//37 40//37
f 19//38 41//38 20//38
f 21//39 20//39 22//39
f 43//40 23//40 22//40
f 25//41 43//42 44//42
f 30//43 44//43 45//43
f 28//44 26//44 27//44
f 27//15 25//14 30//17
f 46//45 28//45 29//45
f 46//46 29//46 47//46
f 31//47 33//47 7//47
f 34//48 12//48 11//48
f 35//49 36//49 18//49
f 38//50 36//50 37//50
f 40//51 42//51 38//51
f 41//52 19//52 42//52
f 43//53 24//53 23//53
f 25//41 24//41 43//42
f 30//54 25//54 44//54
