# Blender v2.90.1 OBJ File: 'skin.blend'
# www.blender.org
v 0.000000 1.000000 0.000000
v 0.195090 0.980785 0.000000
v 0.382683 0.923880 0.000000
v 0.555570 0.831470 0.000000
v 0.707107 0.707107 0.000000
v 0.831470 0.555570 0.000000
v 0.923880 0.382683 0.000000
v 0.980785 0.195090 0.000000
v 1.000000 0.000000 0.000000
v 0.980785 -0.195090 0.000000
v 0.923880 -0.382683 0.000000
v 0.831470 -0.555570 0.000000
v 0.707107 -0.707107 0.000000
v 0.555570 -0.831470 0.000000
v 0.382683 -0.923880 0.000000
v 0.195090 -0.980785 0.000000
v -0.000000 -1.000000 0.000000
v -0.195091 -0.980785 0.000000
v -0.382684 -0.923879 0.000000
v -0.555571 -0.831469 0.000000
v -0.707107 -0.707106 0.000000
v -0.831470 -0.555570 0.000000
v -0.923880 -0.382683 0.000000
v -0.980785 -0.195089 0.000000
v -1.000000 0.000001 0.000000
v -0.980785 0.195091 0.000000
v -0.923879 0.382684 0.000000
v -0.831469 0.555571 0.000000
v -0.707106 0.707108 0.000000
v -0.555569 0.831470 0.000000
v -0.382682 0.923880 0.000000
v -0.195089 0.980786 0.000000
vn 0.0000 0.0000 1.0000
s off
f 27//1 19//1 11//1
f 3//1 2//1 1//1
f 1//1 32//1 3//1
f 32//1 31//1 3//1
f 31//1 30//1 29//1
f 29//1 28//1 27//1
f 27//1 26//1 25//1
f 25//1 24//1 27//1
f 24//1 23//1 27//1
f 23//1 22//1 19//1
f 22//1 21//1 19//1
f 21//1 20//1 19//1
f 19//1 18//1 17//1
f 17//1 16//1 15//1
f 15//1 14//1 13//1
f 13//1 12//1 11//1
f 11//1 10//1 9//1
f 9//1 8//1 11//1
f 8//1 7//1 11//1
f 7//1 6//1 5//1
f 5//1 4//1 3//1
f 31//1 29//1 3//1
f 29//1 27//1 3//1
f 19//1 17//1 11//1
f 17//1 15//1 11//1
f 15//1 13//1 11//1
f 7//1 5//1 11//1
f 5//1 3//1 11//1
f 27//1 23//1 19//1
f 3//1 27//1 11//1
