# Blender v2.92.0 OBJ File: 'tumour.blend'
# www.blender.org
o cap_hole_Circle.003
v 0.000000 4.000000 0.000000
v -0.780361 3.923141 0.000000
v -1.530734 3.695518 0.000000
v -2.222281 3.325878 0.000000
v -2.828427 2.828427 0.000000
v -3.325879 2.222281 0.000000
v -3.695518 1.530734 0.000000
v -3.923141 0.780361 0.000000
v -4.000000 0.000000 0.000000
v -3.923141 -0.780361 0.000000
v -3.695518 -1.530733 0.000000
v -3.325879 -2.222281 0.000000
v -2.828427 -2.828427 0.000000
v -2.222281 -3.325879 0.000000
v -1.530733 -3.695518 0.000000
v -0.780360 -3.923141 0.000000
v 0.000001 -4.000000 0.000000
v 0.780363 -3.923141 0.000000
v 1.530735 -3.695517 0.000000
v 2.222283 -3.325877 0.000000
v 2.828429 -2.828425 0.000000
v 3.325880 -2.222279 0.000000
v 3.695519 -1.530731 0.000000
v 3.923142 -0.780358 0.000000
v 4.000000 0.000004 0.000000
v 3.923140 0.780365 0.000000
v 3.695516 1.530738 0.000000
v 3.325876 2.222285 0.000000
v 2.828424 2.828431 0.000000
v 2.222276 3.325881 0.000000
v 1.530728 3.695520 0.000000
v 0.780355 3.923142 0.000000
v 0.000000 0.100000 0.000000
v 0.019509 0.098079 0.000000
v -0.098079 0.019509 0.000000
v -0.092388 0.038268 0.000000
v 0.038268 0.092388 0.000000
v -0.083147 0.055557 0.000000
v 0.055557 0.083147 0.000000
v -0.070711 0.070711 0.000000
v 0.070711 0.070711 0.000000
v -0.055557 0.083147 0.000000
v 0.083147 0.055557 0.000000
v -0.038268 0.092388 0.000000
v 0.092388 0.038268 0.000000
v -0.019509 0.098079 0.000000
v 0.098078 0.019509 0.000000
v 0.100000 0.000000 0.000000
v 0.098079 -0.019509 0.000000
v 0.092388 -0.038268 0.000000
v 0.083147 -0.055557 0.000000
v 0.070711 -0.070711 0.000000
v 0.055557 -0.083147 0.000000
v -0.100000 0.000000 0.000000
v 0.038268 -0.092388 0.000000
v -0.098079 -0.019509 0.000000
v 0.019509 -0.098079 0.000000
v -0.092388 -0.038268 0.000000
v -0.083147 -0.055557 0.000000
v 0.000000 -0.100000 0.000000
v -0.070711 -0.070711 0.000000
v -0.019509 -0.098079 0.000000
v -0.055557 -0.083147 0.000000
v -0.038268 -0.092388 0.000000
vn 0.0000 0.0000 1.0000
s off
f 1//1 46//1 33//1
f 2//1 44//1 46//1
f 3//1 42//1 44//1
f 4//1 40//1 42//1
f 40//1 6//1 38//1
f 6//1 36//1 38//1
f 36//1 8//1 35//1
f 8//1 54//1 35//1
f 9//1 56//1 54//1
f 10//1 58//1 56//1
f 11//1 59//1 58//1
f 59//1 13//1 61//1
f 61//1 14//1 63//1
f 14//1 64//1 63//1
f 64//1 16//1 62//1
f 16//1 60//1 62//1
f 17//1 57//1 60//1
f 18//1 55//1 57//1
f 19//1 53//1 55//1
f 20//1 52//1 53//1
f 21//1 51//1 52//1
f 51//1 23//1 50//1
f 23//1 49//1 50//1
f 24//1 48//1 49//1
f 25//1 47//1 48//1
f 26//1 45//1 47//1
f 27//1 43//1 45//1
f 28//1 41//1 43//1
f 41//1 30//1 39//1
f 30//1 37//1 39//1
f 37//1 32//1 34//1
f 32//1 33//1 34//1
f 1//1 2//1 46//1
f 2//1 3//1 44//1
f 3//1 4//1 42//1
f 4//1 5//1 40//1
f 40//1 5//1 6//1
f 6//1 7//1 36//1
f 36//1 7//1 8//1
f 8//1 9//1 54//1
f 9//1 10//1 56//1
f 10//1 11//1 58//1
f 11//1 12//1 59//1
f 59//1 12//1 13//1
f 61//1 13//1 14//1
f 14//1 15//1 64//1
f 64//1 15//1 16//1
f 16//1 17//1 60//1
f 17//1 18//1 57//1
f 18//1 19//1 55//1
f 19//1 20//1 53//1
f 20//1 21//1 52//1
f 21//1 22//1 51//1
f 51//1 22//1 23//1
f 23//1 24//1 49//1
f 24//1 25//1 48//1
f 25//1 26//1 47//1
f 26//1 27//1 45//1
f 27//1 28//1 43//1
f 28//1 29//1 41//1
f 41//1 29//1 30//1
f 30//1 31//1 37//1
f 37//1 31//1 32//1
f 32//1 1//1 33//1
