# Blender v2.90.1 OBJ File: 'hoth.blend'
# www.blender.org
v 2.868934 0.414555 3.230086
v 2.791438 0.428862 3.311296
v 2.858381 0.401125 3.222381
v 2.780886 0.415432 3.303592
v 2.756561 0.276390 3.153594
v 2.833881 0.352997 3.184526
v 2.732282 0.371774 3.291024
v 2.684977 0.289630 3.228638
v 2.903705 1.374045 3.449320
v 2.777960 1.390023 3.579572
v 2.888718 1.297857 3.448440
v 2.762973 1.313834 3.578692
v 3.158473 1.248051 3.165752
v 3.296455 1.294290 3.036219
v 3.173460 1.324239 3.166632
v 3.281467 1.218102 3.035339
v 2.483467 1.355191 3.620059
v 2.499798 1.438202 3.621017
v 2.418128 1.418428 3.602803
v 2.409695 1.375560 3.602307
v 2.347464 1.468588 3.584758
v 2.375078 1.427014 3.592555
v 2.331132 1.385577 3.583801
v 2.366645 1.384145 3.592059
v 2.348957 1.384844 3.587945
v 2.446542 1.365380 3.611172
v 3.301886 1.255261 2.676676
v 3.328282 1.285238 2.752813
v 3.311950 1.202225 2.751856
v 3.293453 1.212392 2.676180
v 3.288455 1.294852 2.598653
v 3.290634 1.257976 2.633104
v 3.272123 1.211840 2.597697
v 3.282201 1.215107 2.632609
v 3.302691 1.207311 2.713977
v 3.277179 1.213464 2.615221
v 3.311950 1.202225 2.751856
v 3.272123 1.211840 2.597697
v 3.282201 1.215107 2.632609
v 3.293453 1.212392 2.676180
v 3.277166 1.213494 2.615164
v 3.302700 1.207329 2.713999
v 2.366645 1.384145 3.592059
v 2.331132 1.385577 3.583801
v 2.483467 1.355191 3.620059
v 2.409695 1.375560 3.602307
v 2.446567 1.365399 3.611178
v 2.348902 1.384880 3.587931
v 2.517066 1.393688 3.625533
v 2.603235 1.418280 3.644646
v 2.499064 1.437621 3.619873
v 2.483511 1.355002 3.619082
v 2.508473 1.350026 3.625032
v 3.327012 1.284758 2.752232
v 3.354479 1.279583 2.857387
v 3.326087 1.244324 2.777726
v 3.310961 1.202227 2.751961
v 3.317496 1.200655 2.777222
v 2.811511 0.458697 3.325193
v 2.794225 0.433630 3.313112
v 2.871720 0.419322 3.231901
v 2.889007 0.444390 3.243982
v 2.763320 1.387996 3.592875
v 2.614347 1.408715 3.644746
v 2.645739 1.328064 3.627793
v 2.749131 1.316493 3.592015
v 2.703561 1.321171 3.607752
v 2.599514 1.333751 3.643830
v 2.585540 1.334644 3.644065
v 2.599313 1.404649 3.644871
v 2.525437 1.385529 3.628419
v 2.518074 1.348097 3.627986
v 3.324291 1.202785 2.916710
v 3.352974 1.272343 2.870708
v 3.307644 1.287501 3.022455
v 3.293534 1.215976 3.021511
v 3.306983 1.209761 2.975399
v 3.338171 1.197374 2.869760
v 3.327396 1.237464 2.788013
v 3.351462 1.265778 2.856662
v 3.337691 1.195775 2.855854
v 3.320032 1.200033 2.787580
vn 0.4624 -0.6858 0.5621
vn 0.4593 -0.6897 0.5598
vn 0.7027 -0.1463 0.6963
vn -0.2252 0.0331 0.9738
vn -0.2252 0.0330 0.9738
vn -0.2251 0.0330 0.9738
vn 0.7009 -0.1424 0.6989
vn 0.7168 -0.1397 0.6831
vn 0.9489 -0.1837 -0.2566
vn 0.9489 -0.1836 -0.2566
vn 0.9489 -0.1837 -0.2567
vn 0.6583 -0.2067 0.7238
vn 0.7037 -0.1460 0.6954
vn 0.9489 -0.1835 -0.2566
vn 0.9489 -0.1835 -0.2567
vn 0.9488 -0.1844 -0.2566
vn 0.7014 -0.1451 0.6978
vn 0.7103 -0.1394 0.6900
vn -0.2251 0.0333 0.9738
vn -0.2252 0.0328 0.9738
vn -0.2253 0.0328 0.9737
vn 0.7014 -0.1494 0.6969
vn 0.7081 -0.1408 0.6919
vn -0.2254 0.0331 0.9737
vn -0.2254 0.0332 0.9737
vn -0.2255 0.0332 0.9737
vn 0.9488 -0.1837 -0.2569
vn 0.5025 -0.6313 0.5907
vn 0.5025 -0.6312 0.5908
vn 0.3186 -0.0746 0.9449
vn 0.3183 -0.0747 0.9450
vn -0.2255 0.0331 0.9737
vn 0.9357 -0.1885 0.2983
vn 0.9358 -0.1880 0.2982
s 1
f 1//1 2//1 3//1
f 3//1 2//1 4//1
f 5//2 6//2 7//2
f 5//2 7//2 8//2
f 9//3 10//3 11//3
f 11//3 10//3 12//3
f 13//3 14//3 15//3
f 14//3 13//3 16//3
f 17//4 18//4 19//4
f 17//4 19//4 20//5
f 19//4 18//4 21//4
f 19//4 21//4 22//5
f 22//5 21//4 23//6
f 22//5 23//6 24//6
f 24//6 23//6 25//7
f 20//5 26//8 17//4
f 27//9 28//9 29//9
f 27//9 29//9 30//9
f 28//9 27//9 31//9
f 31//9 27//9 32//10
f 31//9 32//10 33//11
f 33//11 32//10 34//11
f 29//9 35//12 30//9
f 36//13 33//11 34//11
f 37//14 38//15 39//16
f 37//14 39//16 40//14
f 38//15 41//17 39//16
f 42//18 37//14 40//14
f 43//4 44//19 45//20
f 43//4 45//20 46//21
f 46//21 45//20 47//22
f 43//4 48//23 44//19
f 49//24 50//24 51//24
f 49//24 51//24 52//25
f 49//24 52//25 53//26
f 54//27 55//27 56//27
f 54//27 56//27 57//27
f 57//27 56//27 58//27
f 59//28 60//28 61//29
f 59//28 61//29 62//29
f 63//30 64//30 65//30
f 63//30 65//30 66//30
f 66//30 65//30 67//31
f 65//30 64//30 68//30
f 69//24 70//24 71//24
f 69//24 71//24 72//32
f 73//33 74//33 75//33
f 73//33 75//33 76//33
f 73//33 76//33 77//34
f 74//33 73//33 78//33
f 79//27 80//27 81//27
f 79//27 81//27 82//27
v -3.766996 -0.648906 1.845600
v -3.872448 -0.619368 1.874108
v -3.773673 -0.663679 1.836205
v -3.879125 -0.634141 1.864712
v -3.840347 -0.800360 1.749425
v -3.781054 -0.718546 1.800364
v -3.919317 -0.679796 1.837759
v -3.937766 -0.773046 1.775779
v -3.755400 0.335245 1.880340
v -3.926431 0.375778 1.926577
v -3.774962 0.260284 1.885643
v -3.945994 0.300817 1.931881
v -3.407891 0.157461 1.786410
v -3.220886 0.178143 1.735841
v -3.388328 0.232423 1.781106
v -3.240449 0.103182 1.741145
v -4.205482 0.347407 1.822150
v -4.184165 0.429082 1.816371
v -4.248219 0.405460 1.764104
v -4.259226 0.363282 1.767089
v -4.296402 0.450499 1.705070
v -4.279937 0.411510 1.732650
v -4.317719 0.368824 1.710850
v -4.290944 0.369332 1.735634
v -4.304282 0.369065 1.723291
v -4.232382 0.355346 1.794590
v -3.045640 0.068603 1.439001
v -3.056799 0.113291 1.511601
v -3.078117 0.031616 1.517380
v -3.056646 0.026425 1.441985
v -3.015942 0.091824 1.358913
v -3.034088 0.062533 1.395848
v -3.037259 0.010149 1.364692
v -3.045094 0.020355 1.398832
v -3.067370 0.029015 1.479642
v -3.041196 0.015257 1.381831
v -3.078117 0.031616 1.517380
v -3.037259 0.010149 1.364692
v -3.045094 0.020355 1.398832
v -3.056646 0.026425 1.441985
v -3.041177 0.015275 1.381770
v -3.067372 0.029036 1.479662
v -4.290944 0.369332 1.735634
v -4.317719 0.368824 1.710850
v -4.205482 0.347407 1.822150
v -4.259226 0.363282 1.767089
v -4.232361 0.355367 1.794604
v -4.304319 0.369097 1.723246
v -4.175384 0.386483 1.836577
v -4.107409 0.415040 1.890976
v -4.184302 0.428279 1.815137
v -4.204988 0.347029 1.821373
v -4.186599 0.343524 1.839617
v -3.057667 0.112696 1.510564
v -3.085149 0.128697 1.614619
v -3.074502 0.078118 1.538966
v -3.079028 0.031631 1.516982
v -3.085715 0.035152 1.542006
v -3.858988 -0.587216 1.890577
v -3.870468 -0.614314 1.876187
v -3.765015 -0.643852 1.847679
v -3.753536 -0.616754 1.862069
v -3.945796 0.376319 1.931058
v -4.098660 0.405770 1.898222
v -4.070488 0.323603 1.913463
v -3.964248 0.305959 1.935947
v -4.011096 0.313316 1.926084
v -4.117959 0.332003 1.903355
v -4.130152 0.332817 1.896514
v -4.112174 0.401694 1.891639
v -4.170239 0.379123 1.844599
v -4.179851 0.342294 1.847205
v -3.147143 0.064965 1.663848
v -3.093568 0.124232 1.626507
v -3.205103 0.168845 1.730821
v -3.223447 0.098448 1.735680
v -3.189984 0.083311 1.704105
v -3.112827 0.050453 1.631629
v -3.078969 0.073445 1.549587
v -3.088682 0.114999 1.614950
v -3.106657 0.046123 1.619824
v -3.088580 0.036616 1.552192
vn 0.0677 -0.5571 0.8277
vn 0.0658 -0.5613 0.8250
vn 0.0658 -0.5614 0.8250
vn 0.2610 0.0002 0.9653
vn -0.6644 0.2239 0.7131
vn -0.6644 0.2238 0.7131
vn 0.2580 0.0072 0.9661
vn 0.2815 -0.0017 0.9596
vn 0.9332 -0.2237 0.2812
vn 0.9332 -0.2237 0.2811
vn 0.9332 -0.2236 0.2812
vn 0.9333 -0.2236 0.2811
vn 0.9333 -0.2236 0.2810
vn 0.2230 -0.0384 0.9741
vn 0.2652 0.0208 0.9640
vn 0.9333 -0.2235 0.2812
vn 0.9331 -0.2243 0.2812
vn 0.2569 -0.0110 0.9664
vn 0.2705 0.0038 0.9627
vn -0.6643 0.2241 0.7131
vn -0.6645 0.2238 0.7130
vn 0.2618 -0.0004 0.9651
vn 0.2678 0.0045 0.9635
vn -0.6646 0.2239 0.7129
vn -0.6646 0.2240 0.7129
vn 0.9333 -0.2237 0.2809
vn 0.0937 -0.4976 0.8623
vn -0.1870 0.1168 0.9754
vn -0.1873 0.1165 0.9754
vn 0.6526 -0.1184 0.7484
vn 0.6527 -0.1176 0.7484
s 1
f 83//35 84//35 85//35
f 85//35 84//35 86//35
f 87//36 88//36 89//36
f 87//36 89//36 90//37
f 91//38 92//38 93//38
f 93//38 92//38 94//38
f 95//38 96//38 97//38
f 96//38 95//38 98//38
f 99//39 100//39 101//40
f 99//39 101//40 102//40
f 101//40 100//39 103//40
f 101//40 103//40 104//40
f 104//40 103//40 105//40
f 104//40 105//40 106//40
f 106//40 105//40 107//41
f 102//40 108//42 99//39
f 109//43 110//44 111//44
f 109//43 111//44 112//45
f 110//44 109//43 113//43
f 113//43 109//43 114//45
f 113//43 114//45 115//46
f 115//46 114//45 116//47
f 111//44 117//48 112//45
f 118//49 115//46 116//47
f 119//50 120//44 121//51
f 119//50 121//51 122//50
f 120//44 123//52 121//51
f 124//53 119//50 122//50
f 125//40 126//54 127//39
f 125//40 127//39 128//55
f 128//55 127//39 129//56
f 125//40 130//57 126//54
f 131//58 132//58 133//58
f 131//58 133//58 134//58
f 131//58 134//58 135//59
f 136//60 137//60 138//60
f 136//60 138//60 139//60
f 139//60 138//60 140//60
f 141//61 142//61 143//61
f 141//61 143//61 144//61
f 145//62 146//62 147//62
f 145//62 147//62 148//62
f 148//62 147//62 149//63
f 147//62 146//62 150//62
f 151//58 152//58 153//58
f 151//58 153//58 154//58
f 155//64 156//64 157//64
f 155//64 157//64 158//64
f 155//64 158//64 159//65
f 156//64 155//64 160//64
f 161//60 162//60 163//60
f 161//60 163//60 164//60
v -3.665660 4.756562 6.923910
v -3.764808 4.802963 6.895238
v -3.664722 4.748215 6.907161
v -3.763870 4.794616 6.878489
v -3.659895 4.672288 6.749460
v -3.647287 4.712696 6.854399
v -3.777295 4.773547 6.816828
v -3.751501 4.715173 6.722996
v -3.680159 5.629108 7.380363
v -3.840958 5.697716 7.330672
v -3.698475 5.565187 7.340256
v -3.859274 5.633795 7.290565
v -3.353349 5.403666 7.440057
v -3.177595 5.387257 7.522500
v -3.335033 5.467587 7.480165
v -3.195911 5.323336 7.482392
v -3.987627 5.784183 7.084519
v -3.967668 5.853828 7.128220
v -3.983133 5.867647 7.044778
v -3.993439 5.831680 7.022211
v -3.982163 5.941216 6.995566
v -3.987228 5.892341 7.007288
v -4.002121 5.871570 6.951866
v -3.997534 5.856374 6.984721
v -3.999821 5.863930 6.968351
v -3.990535 5.807951 7.053329
v -2.852451 5.338484 7.371744
v -2.907703 5.357759 7.434735
v -2.927662 5.288113 7.391035
v -2.862756 5.302517 7.349177
v -2.778256 5.377782 7.343706
v -2.815863 5.344139 7.346018
v -2.798215 5.308136 7.300006
v -2.826169 5.308172 7.323452
v -2.895175 5.295321 7.370082
v -2.812251 5.308141 7.311767
v -2.927662 5.288113 7.391035
v -2.798215 5.308136 7.300006
v -2.826169 5.308172 7.323452
v -2.862756 5.302517 7.349177
v -2.812198 5.308172 7.311744
v -2.895189 5.295334 7.370104
v -3.997534 5.856374 6.984721
v -4.002121 5.871570 6.951866
v -3.987627 5.784183 7.084519
v -3.993439 5.831680 7.022211
v -3.990528 5.807959 7.053360
v -3.999821 5.863984 6.968312
v -3.973879 5.806277 7.128834
v -3.956785 5.795113 7.218156
v -3.966980 5.853553 7.126941
v -3.986748 5.783962 7.084105
v -3.984380 5.769646 7.105847
v -2.907701 5.357808 7.433259
v -2.995642 5.345299 7.496098
v -2.938814 5.321868 7.428152
v -2.928105 5.288511 7.390238
v -2.949313 5.285230 7.405163
v -3.765113 4.822751 6.928322
v -3.764632 4.806281 6.900009
v -3.665484 4.759880 6.928680
v -3.665965 4.776350 6.956994
v -3.858675 5.702085 7.322773
v -3.954729 5.781923 7.224221
v -3.942849 5.694971 7.215532
v -3.875878 5.642141 7.285014
v -3.905443 5.665038 7.254228
v -3.972735 5.719062 7.184666
v -3.977682 5.725449 7.173225
v -3.960849 5.784181 7.210078
v -3.975085 5.795551 7.134171
v -3.984083 5.764146 7.114466
v -3.074708 5.288679 7.466578
v -3.009727 5.339660 7.497493
v -3.162266 5.376165 7.524160
v -3.179367 5.316168 7.486427
v -3.133421 5.303729 7.477477
v -3.027695 5.276781 7.457949
v -2.949057 5.315367 7.430874
v -2.998547 5.333818 7.488352
v -3.015377 5.275086 7.451501
v -2.958055 5.283962 7.411169
vn -0.4794 -0.7959 0.3698
vn -0.4791 -0.7983 0.3649
vn -0.4791 -0.7983 0.3650
vn -0.4204 -0.3928 0.8179
vn -0.4203 -0.3928 0.8179
vn -0.4203 -0.3928 0.8180
vn -0.9675 0.1492 0.2040
vn -0.9675 0.1492 0.2041
vn -0.4344 -0.3767 0.8182
vn -0.4163 -0.3793 0.8263
vn 0.5346 -0.5538 0.6384
vn 0.5346 -0.5537 0.6384
vn 0.5346 -0.5537 0.6385
vn 0.5347 -0.5537 0.6383
vn 0.5347 -0.5537 0.6384
vn -0.5412 -0.3374 0.7703
vn -0.3994 -0.4009 0.8244
vn 0.5346 -0.5536 0.6385
vn 0.5345 -0.5543 0.6380
vn 0.5344 -0.5536 0.6387
vn -0.4431 -0.3828 0.8106
vn -0.3813 -0.4115 0.8278
vn -0.9675 0.1491 0.2041
vn -0.9676 0.1489 0.2038
vn -0.4127 -0.3941 0.8212
vn -0.4013 -0.4180 0.8150
vn -0.9675 0.1494 0.2038
vn -0.9675 0.1495 0.2038
vn 0.5348 -0.5537 0.6382
vn 0.5349 -0.5537 0.6382
vn -0.4818 -0.7610 0.4345
vn -0.7702 -0.1667 0.6156
vn -0.7699 -0.1656 0.6163
vn -0.9676 0.1494 0.2038
vn 0.0192 -0.5362 0.8439
vn 0.0194 -0.5365 0.8436
vn 0.5348 -0.5537 0.6383
s 1
f 165//66 166//66 167//66
f 167//66 166//66 168//66
f 169//67 170//68 171//67
f 169//67 171//67 172//67
f 173//69 174//70 175//69
f 175//69 174//70 176//71
f 177//69 178//69 179//71
f 178//69 177//69 180//69
f 181//72 182//72 183//72
f 181//72 183//72 184//72
f 183//72 182//72 185//72
f 183//72 185//72 186//72
f 186//72 185//72 187//73
f 186//72 187//73 188//73
f 188//73 187//73 189//74
f 184//72 190//75 181//72
f 191//76 192//76 193//76
f 191//76 193//76 194//77
f 192//76 191//76 195//76
f 195//76 191//76 196//78
f 195//76 196//78 197//79
f 197//79 196//78 198//80
f 193//76 199//81 194//77
f 200//82 197//79 198//80
f 201//78 202//83 203//84
f 201//78 203//84 204//85
f 202//83 205//86 203//84
f 206//87 201//78 204//85
f 207//72 208//88 209//73
f 207//72 209//73 210//89
f 210//89 209//73 211//90
f 207//72 212//91 208//88
f 213//92 214//92 215//92
f 213//92 215//92 216//92
f 213//92 216//92 217//93
f 218//94 219//94 220//94
f 218//94 220//94 221//94
f 221//94 220//94 222//95
f 223//96 224//96 225//96
f 223//96 225//96 226//96
f 227//97 228//97 229//97
f 227//97 229//97 230//97
f 230//97 229//97 231//98
f 229//97 228//97 232//97
f 233//92 234//92 235//92
f 233//92 235//92 236//99
f 237//100 238//100 239//100
f 237//100 239//100 240//100
f 237//100 240//100 241//101
f 238//100 237//100 242//100
f 243//102 244//94 245//94
f 243//102 245//94 246//102
